<svg width="13" height="16" viewBox="0 0 13 16" fill="none" xmlns="http://www.w3.org/2000/svg">
<path d="M4.07241 8.80061L0.844055 11.2008C0.0369675 11.9048 -0.0760248 12.8969 0.0369674 13.6009C0.141889 14.401 0.771417 15.3771 1.65114 15.7451C2.91827 16.2811 4.14504 15.9211 4.91178 15.137L12.1433 8.80061C13.6445 7.69653 12.9504 5.60039 11.3362 5.60039H6.49367L12.5145 2.08814C12.8697 1.83213 13.0149 1.4561 12.9988 1.09608C12.9504 0.536037 12.5145 0 11.8204 0H11.772C11.4895 0 11.2232 0.088006 10.9811 0.232016L0.844055 5.60039C0.190314 5.96841 -0.0114578 6.59246 0.0369674 7.2005C0.0773218 8.02455 0.634212 8.80061 1.65114 8.80061H4.07241ZM0.844055 13.2009C0.844055 12.6704 1.05664 12.1617 1.43503 11.7866C1.81343 11.4115 2.32664 11.2008 2.86177 11.2008C3.39691 11.2008 3.91012 11.4115 4.28852 11.7866C4.66691 12.1617 4.87949 12.6704 4.87949 13.2009C4.87949 13.7314 4.66691 14.2401 4.28852 14.6152C3.91012 14.9903 3.39691 15.201 2.86177 15.201C2.32664 15.201 1.81343 14.9903 1.43503 14.6152C1.05664 14.2401 0.844055 13.7314 0.844055 13.2009Z" fill="black"/>
</svg>
