<svg width="23" height="23" viewBox="0 0 23 23" fill="none" xmlns="http://www.w3.org/2000/svg">
<path d="M15.2041 22H7.79592C7.58371 22.0006 7.3735 21.959 7.17746 21.8778C6.98142 21.7965 6.80344 21.6772 6.65385 21.5267L1.47331 16.3462C1.3228 16.1966 1.20346 16.0186 1.12222 15.8225C1.04097 15.6265 0.999431 15.4163 1.00001 15.2041V7.79592C0.999431 7.58371 1.04097 7.3735 1.12222 7.17746C1.20346 6.98142 1.3228 6.80344 1.47331 6.65385L6.65385 1.47331C6.80344 1.3228 6.98142 1.20346 7.17746 1.12222C7.3735 1.04097 7.58371 0.999431 7.79592 1.00001H15.2041C15.4163 0.999431 15.6265 1.04097 15.8225 1.12222C16.0186 1.20346 16.1966 1.3228 16.3462 1.47331L21.5267 6.65385C21.6772 6.80344 21.7965 6.98142 21.8778 7.17746C21.959 7.3735 22.0006 7.58371 22 7.79592V15.2041C22.0006 15.4163 21.959 15.6265 21.8778 15.8225C21.7965 16.0186 21.6772 16.1966 21.5267 16.3462L16.3462 21.5267C16.1966 21.6772 16.0186 21.7965 15.8225 21.8778C15.6265 21.959 15.4163 22.0006 15.2041 22V22ZM7.79592 2.61539L2.61539 7.79592V15.2041L7.79592 20.3846H15.2041L20.3846 15.2041V7.79592L15.2041 2.61539H7.79592V2.61539Z" fill="black" stroke="black" stroke-linejoin="bevel"/>
</svg>
