<svg width="16" height="21" viewBox="0 0 16 21" fill="none" xmlns="http://www.w3.org/2000/svg">
<path d="M9.2 13.1C9 13.2 8.8 13.2 8.6 13.3C8.5 13.1 8.4 12.9 8.3 12.8C7.5 12.1 6.3 12 5.3 12.6C4.5 13.1 4 14.1 4 15.1C4 15.6 4.5 16.1 5 16C5.5 16 6 15.5 6 15C6 14.7 6.1 14.5 6.3 14.3C6.4 14.3 6.5 14.2 6.6 14.2C6.3 14.8 6.5 15.5 7.1 15.9C7.3 16 7.4 16 7.6 16C8 16 8.4 15.8 8.7 15.5C8.8 15.4 9 15.3 9.2 15.2C9.3 15.6 9.7 16 10.2 16H11C11.6 16 12 15.6 12 15C12 14.5 11.6 14.1 11.1 14C11 13.8 11 13.7 10.8 13.5C10.5 13.2 9.8 13 9.2 13.1V13.1ZM16 7C16 6.9 16 6.8 15.9 6.7V6.6C15.9 6.5 15.8 6.4 15.7 6.3L9.7 0.3C9.6 0.2 9.5 0.2 9.4 0.1H9.3C9.2 0.1 9.1 0.1 9 0H3C1.3 0.1 0 1.4 0 3.1V17.1C0 18.8 1.3 20.1 3 20.1H13C14.7 20.1 16 18.8 16 17.1V7C16 7.1 16 7.1 16 7ZM10 3.5L12.6 6.1H11C10.4 6.1 10 5.7 10 5.1V3.5ZM14 17.1C14 17.7 13.6 18.1 13 18.1H3C2.4 18.1 2 17.7 2 17.1V3.1C2 2.5 2.4 2.1 3 2.1H8V5.1C8 6.8 9.3 8.1 11 8.1H14V17.1ZM5 8.1H6C6.6 8.1 7 7.7 7 7.1C7 6.5 6.6 6.1 6 6.1H5C4.4 6.1 4 6.5 4 7.1C4 7.7 4.4 8.1 5 8.1Z" fill="black"/>
</svg>
