<svg width="15" height="19" viewBox="0 0 15 19" fill="none" xmlns="http://www.w3.org/2000/svg">
<path d="M0 0V19H15V4.82308L14.775 4.60385L10.275 0.219231L10.05 0H0V0ZM1.5 1.46154H9V5.84615H13.5V17.5385H1.5V1.46154ZM10.5 2.48462L12.45 4.38462H10.5V2.48462ZM3 4.38462V5.84615H7.5V4.38462H3ZM3 7.30769V8.76923H12V7.30769H3ZM5.625 9.5C4.95 9.5 4.425 9.93846 4.125 10.45C3.825 10.9615 3.75 11.6192 3.75 12.35C3.75 12.7885 3.9 13.2269 3.975 13.6654C3.675 13.7385 3.375 13.9577 3 13.9577V15.4192C3.525 15.4192 4.05 15.3462 4.5 15.2C4.575 15.3462 4.575 15.4192 4.725 15.5654C5.025 15.8577 5.475 16.0769 6 16.0769C7.2 16.0769 7.95 15.2731 8.475 14.6885C8.55 14.5423 8.625 14.4692 8.7 14.3962C8.7 14.4692 8.7 14.5423 8.775 14.6154C8.85 14.7615 8.925 14.9077 9.075 15.0538C9.225 15.2 9.525 15.3462 9.75 15.3462C10.2 15.3462 10.5 15.0538 10.65 14.9077C10.8 14.7615 10.95 14.5423 11.1 14.3962C11.4 14.1038 11.625 13.8846 11.925 13.8846V12.4231C11.025 12.4231 10.35 12.9346 9.975 13.3731C9.975 13.3 9.975 13.2269 9.9 13.1538C9.825 13.0077 9.75 12.8615 9.6 12.6423C9.45 12.4231 9.225 12.4231 9 12.4231C8.4 12.4231 8.175 12.7885 7.95 13.0077C7.725 13.2269 7.5 13.5192 7.35 13.8115C6.9 14.3231 6.6 14.6154 6 14.6154C5.925 14.6154 5.925 14.5423 5.85 14.5423C5.925 14.5423 5.925 14.4692 6 14.4692C6.825 13.8115 7.5 12.9346 7.5 11.7654C7.5 11.1808 7.35 10.6692 7.05 10.2308C6.75 9.79231 6.225 9.5 5.625 9.5V9.5ZM5.55 10.9615C5.775 10.9615 5.775 10.9615 5.85 11.1077C5.925 11.2538 6 11.4731 6 11.8385C6 12.2769 5.775 12.7154 5.4 13.0808C5.4 12.8615 5.25 12.5692 5.25 12.4231C5.25 11.8385 5.325 11.4 5.475 11.1808C5.55 11.0346 5.55 10.9615 5.55 10.9615Z" fill="black"/>
</svg>
