<svg width="21" height="22" viewBox="0 0 21 22" fill="none" xmlns="http://www.w3.org/2000/svg">
<path d="M19.71 19.29L18 17.56V17.25C18 16.8889 17.9289 16.5313 17.7907 16.1976C17.6525 15.864 17.4499 15.5608 17.1945 15.3055C16.9392 15.0501 16.636 14.8475 16.3024 14.7093C15.9687 14.5711 15.6111 14.5 15.25 14.5H14.91L13.47 13.06C13.5579 13.0201 13.6534 12.9996 13.75 13H17C17.2652 13 17.5196 12.8946 17.7071 12.7071C17.8946 12.5196 18 12.2652 18 12C18 11.7348 17.8946 11.4804 17.7071 11.2929C17.5196 11.1054 17.2652 11 17 11H15.5V10C15.5 9.73478 15.3946 9.48043 15.2071 9.29289C15.0196 9.10536 14.7652 9 14.5 9C14.2348 9 13.9804 9.10536 13.7929 9.29289C13.6054 9.48043 13.5 9.73478 13.5 10V11C12.9626 11.0477 12.4512 11.2529 12.03 11.59L10.71 10.26C10.5217 10.0717 10.2663 9.96591 10 9.96591C9.7337 9.96591 9.4783 10.0717 9.29 10.26C9.1017 10.4483 8.99591 10.7037 8.99591 10.97C8.99591 11.2363 9.1017 11.4917 9.29 11.68L11 13.44V13.75C11 14.4793 11.2897 15.1788 11.8055 15.6945C12.3212 16.2103 13.0207 16.5 13.75 16.5H14.09L15.53 17.94C15.4421 17.9799 15.3466 18.0004 15.25 18H12C11.7348 18 11.4804 18.1054 11.2929 18.2929C11.1054 18.4804 11 18.7348 11 19C11 19.2652 11.1054 19.5196 11.2929 19.7071C11.4804 19.8946 11.7348 20 12 20H13.5V21C13.5 21.2652 13.6054 21.5196 13.7929 21.7071C13.9804 21.8946 14.2348 22 14.5 22C14.7652 22 15.0196 21.8946 15.2071 21.7071C15.3946 21.5196 15.5 21.2652 15.5 21V20C16.0511 19.9496 16.5741 19.7334 17 19.38L18.32 20.71C18.413 20.8037 18.5236 20.8781 18.6454 20.9289C18.7673 20.9797 18.898 21.0058 19.03 21.0058C19.162 21.0058 19.2927 20.9797 19.4146 20.9289C19.5364 20.8781 19.647 20.8037 19.74 20.71C19.8318 20.6151 19.9039 20.5029 19.9521 20.38C20.0003 20.257 20.0237 20.1258 20.0209 19.9937C20.0181 19.8617 19.9892 19.7316 19.9358 19.6108C19.8825 19.49 19.8057 19.381 19.71 19.29ZM8 18H3C2.73478 18 2.48043 17.8946 2.29289 17.7071C2.10536 17.5196 2 17.2652 2 17V3C2 2.73478 2.10536 2.48043 2.29289 2.29289C2.48043 2.10536 2.73478 2 3 2H9V6C9 6.26522 9.10536 6.51957 9.29289 6.70711C9.48043 6.89464 9.73478 7 10 7H15C15.1974 6.99901 15.3901 6.93961 15.5539 6.82928C15.7176 6.71895 15.845 6.56262 15.92 6.38C15.9966 6.19789 16.0175 5.99718 15.9801 5.80319C15.9428 5.6092 15.8488 5.43062 15.71 5.29L10.71 0.29C10.6273 0.212216 10.5328 0.148081 10.43 0.1H10.34C10.2508 0.0561488 10.1568 0.0225994 10.06 0H3C2.20435 0 1.44129 0.31607 0.87868 0.87868C0.316071 1.44129 0 2.20435 0 3V17C0 17.7956 0.316071 18.5587 0.87868 19.1213C1.44129 19.6839 2.20435 20 3 20H8C8.26522 20 8.51957 19.8946 8.70711 19.7071C8.89464 19.5196 9 19.2652 9 19C9 18.7348 8.89464 18.4804 8.70711 18.2929C8.51957 18.1054 8.26522 18 8 18ZM11 3.41L12.59 5H11V3.41Z" fill="black"/>
</svg>
