<svg width="13" height="15" viewBox="0 0 13 15" fill="none" xmlns="http://www.w3.org/2000/svg">
<path fill-rule="evenodd" clip-rule="evenodd" d="M0 1.5C0 1.10218 0.158035 0.720644 0.43934 0.43934C0.720644 0.158035 1.10218 0 1.5 0L9.707 0L13 3.293V13.5C13 13.8978 12.842 14.2794 12.5607 14.5607C12.2794 14.842 11.8978 15 11.5 15H1.5C1.10218 15 0.720644 14.842 0.43934 14.5607C0.158035 14.2794 0 13.8978 0 13.5V1.5ZM6 4H3V5H6V4ZM10 7H3V8H10V7ZM5.305 10.908C4.901 11.016 4.585 11.325 4.475 11.658L3.525 11.342C3.748 10.675 4.332 10.134 5.045 9.942C5.752 9.752 6.559 9.912 7.257 10.553C7.467 10.492 7.674 10.457 7.879 10.446C8.419 10.417 8.902 10.553 9.317 10.726C9.622 10.853 9.917 11.013 10.167 11.148C10.245 11.192 10.32 11.232 10.389 11.268C10.712 11.438 10.889 11.5 11 11.5V12.5C10.61 12.5 10.226 12.312 9.924 12.154C9.83299 12.106 9.74232 12.0573 9.652 12.008C9.41843 11.8759 9.1781 11.756 8.932 11.649C8.598 11.509 8.269 11.427 7.933 11.445C7.88282 11.4474 7.83277 11.4521 7.783 11.459L7.784 11.473C7.811 11.797 7.677 12.064 7.504 12.256C7.186 12.61 6.667 12.796 6.277 12.866C6.07492 12.9065 5.86771 12.915 5.663 12.891C5.54689 12.8761 5.4348 12.8388 5.333 12.781C5.25384 12.7354 5.18567 12.673 5.13331 12.5982C5.08095 12.5234 5.04568 12.438 5.03 12.348C5.0054 12.1797 5.04503 12.0084 5.141 11.868C5.21362 11.7613 5.30195 11.6663 5.403 11.586C5.593 11.429 5.868 11.259 6.237 11.073L6.264 11.053C6.12219 10.965 5.96395 10.9067 5.79891 10.8818C5.63387 10.8568 5.46548 10.8658 5.304 10.908H5.305Z" fill="black"/>
</svg>
