<svg width="16" height="14" viewBox="0 0 16 14" fill="none" xmlns="http://www.w3.org/2000/svg">
<path d="M12.8891 0H3.11094C2.99983 0 2.89427 0.0546848 2.83316 0.147649L0.0552827 4.17245C-0.0252757 4.29276 -0.016942 4.45135 0.0747278 4.56071L7.74166 13.879C7.875 14.0403 8.125 14.0403 8.25834 13.879L15.9253 4.56071C16.0169 4.44861 16.0253 4.29276 15.9447 4.17245L13.1696 0.147649C13.1057 0.0546848 13.0029 0 12.8891 0ZM12.3529 1.31244L14.1113 3.93731H12.2113L10.7751 1.31244H12.3529V1.31244ZM6.73885 1.31244H9.25838L10.6945 3.93731H5.30546L6.73885 1.31244ZM3.64707 1.31244H5.2249L3.78874 3.93731H1.88868L3.64707 1.31244ZM2.45259 5.24974H3.88041L5.7777 9.62453L2.45259 5.24974V5.24974ZM5.31102 5.24974H10.689L8 11.9022L5.31102 5.24974V5.24974ZM10.2223 9.62453L12.1168 5.24974H13.5446L10.2223 9.62453Z" fill="black"/>
</svg>
