<svg width="20" height="18" viewBox="0 0 20 18" fill="none" xmlns="http://www.w3.org/2000/svg">
<path d="M19.447 3.10498L13.447 0.104984C13.3081 0.035463 13.1549 -0.000732422 12.9995 -0.000732422C12.8441 -0.000732422 12.6909 0.035463 12.552 0.104984L7 2.88198L1.447 0.104984C1.2945 0.0287808 1.12506 -0.00717147 0.954757 0.000541449C0.784455 0.00825437 0.618953 0.0593763 0.473969 0.149052C0.328985 0.238727 0.209334 0.363979 0.126379 0.51291C0.0434244 0.661842 -7.93497e-05 0.829508 1.08651e-07 0.999984V14C1.08651e-07 14.379 0.214 14.725 0.553 14.895L6.553 17.895C6.69193 17.9645 6.84515 18.0007 7.0005 18.0007C7.15585 18.0007 7.30907 17.9645 7.448 17.895L13 15.118L18.553 17.894C18.7051 17.9709 18.8744 18.0074 19.0446 17.9998C19.2149 17.9923 19.3803 17.941 19.525 17.851C19.82 17.668 20 17.347 20 17V3.99998C20 3.62098 19.786 3.27498 19.447 3.10498V3.10498ZM8 4.61798L12 2.61798V13.382L8 15.382V4.61798ZM2 2.61798L6 4.61798V15.382L2 13.382V2.61798ZM18 15.382L14 13.382V2.61798L18 4.61798V15.382Z" fill="black"/>
</svg>
