<svg width="16" height="16" viewBox="0 0 16 16" fill="none" xmlns="http://www.w3.org/2000/svg">
<path d="M8.69645 9.9471C8.69645 10.4179 8.31467 10.7997 7.84383 10.7997C7.37299 10.7997 6.99121 10.4179 6.99121 9.9471C6.99121 9.47626 7.37299 9.09448 7.84383 9.09448C8.31467 9.09448 8.69645 9.47626 8.69645 9.9471Z" fill="black"/>
<path d="M5.85465 0.852619C5.85465 1.32346 5.47287 1.70524 5.00203 1.70524C4.53119 1.70524 4.14941 1.32346 4.14941 0.852619C4.14941 0.381778 4.53119 0 5.00203 0C5.47287 0 5.85465 0.381778 5.85465 0.852619Z" fill="black"/>
<path d="M6.99184 1.137C7.14257 1.137 7.28721 1.19689 7.39379 1.30346C7.50036 1.41004 7.56025 1.55468 7.56025 1.70541V3.42689C7.65426 3.42029 7.74587 3.41065 7.84446 3.41065C7.94304 3.41065 8.03465 3.42029 8.12866 3.42689V1.42121C8.12866 1.19511 8.03883 0.978137 7.87897 0.818299C7.7191 0.658461 7.50212 0.568604 7.27606 0.568604H6.39502C6.43334 0.756128 6.43334 0.949505 6.39502 1.13702L6.99184 1.137Z" fill="black"/>
<path d="M4.67529 6.54576C5.72 6.34834 6.78121 6.25014 7.84444 6.25243C8.46082 6.25243 9.07669 6.28503 9.6895 6.35025C9.59777 6.17845 9.49018 6.01579 9.36812 5.86417L9.80775 5.50383C9.96266 5.69504 10.0984 5.9012 10.2127 6.11905L9.76195 6.35834C10.2423 6.4115 10.6634 6.47824 11.0125 6.54561C10.6453 5.52994 9.76854 3.97876 7.84445 3.97876C5.92036 3.97876 5.04364 5.52997 4.67531 6.54574L4.67529 6.54576ZM9.12807 5.61016C8.77955 5.28675 8.31999 5.10963 7.84457 5.11557V4.54716C8.46157 4.5398 9.05788 4.76971 9.51034 5.1894L9.12807 5.61016Z" fill="black"/>
<path d="M6.42285 14.7639V15.7208C6.88343 15.8595 7.36288 15.9251 7.84388 15.9155C8.32489 15.9254 8.80434 15.8595 9.26491 15.7205V14.7639C8.81018 14.7727 8.34214 14.7786 7.84388 14.7786C7.34563 14.7786 6.87758 14.7727 6.42285 14.7639V14.7639Z" fill="black"/>
<path d="M15.6882 13.7063C14.7561 11.4176 13.4951 9.27718 11.9451 7.35238C10.6089 6.98772 9.22904 6.80884 7.84409 6.82089C6.45908 6.80871 5.07917 6.98761 3.74308 7.35238C2.19378 9.27761 0.932976 11.418 0 13.7063C2.59807 14.0732 5.2203 14.2417 7.84409 14.2102C10.4678 14.2422 13.09 14.0737 15.6882 13.7063ZM7.84409 13.6418V13.0734C8.23513 13.0734 8.61258 13.0705 8.97634 13.0646L8.98547 13.633C8.6188 13.6389 8.23841 13.6418 7.84407 13.6418H7.84409ZM14.7108 12.8941C14.7494 12.9767 14.746 13.0729 14.7016 13.1525C14.6572 13.2322 14.5771 13.2858 14.4865 13.2964C13.4781 13.4152 11.8045 13.5678 9.55594 13.6219L9.54288 13.0535C11.497 13.0069 13.0102 12.8846 14.0259 12.7764C13.4331 11.5511 12.7447 10.3746 11.9667 9.25773L12.4325 8.9314H12.4326C13.3046 10.1843 14.0669 11.5102 14.7111 12.894L14.7108 12.8941ZM11.6783 7.92259C11.7661 8.03171 11.8798 8.17673 12.0143 8.35511L11.5596 8.69616C11.4297 8.52335 11.3197 8.38353 11.235 8.27784L11.6783 7.92259ZM5.28614 9.94705C5.28614 9.26863 5.55563 8.61801 6.03534 8.1384C6.51495 7.65866 7.16557 7.3892 7.84399 7.3892C8.52242 7.3892 9.17304 7.65869 9.65265 8.1384C10.1324 8.61801 10.4018 9.26863 10.4018 9.94705C10.4018 10.6255 10.1324 11.2761 9.65265 11.7557C9.17304 12.2354 8.52242 12.5049 7.84399 12.5049C7.16583 12.5041 6.51569 12.2344 6.03612 11.7549C5.55664 11.2753 5.28692 10.6252 5.28614 9.94705V9.94705Z" fill="black"/>
<path d="M9.83387 9.94721C9.83387 9.41953 9.62427 8.91354 9.25113 8.5405C8.87812 8.16736 8.37214 7.95776 7.84442 7.95776C7.31671 7.95776 6.81076 8.16737 6.43772 8.5405C6.06458 8.91351 5.85498 9.41949 5.85498 9.94721C5.85498 10.4749 6.06458 10.9809 6.43772 11.3539C6.81073 11.7271 7.31671 11.9367 7.84442 11.9367C8.37185 11.936 8.87747 11.7262 9.25048 11.3533C9.62336 10.9803 9.83322 10.4746 9.83387 9.94721V9.94721ZM6.42339 9.94721C6.42339 9.57037 6.57311 9.20892 6.83954 8.94232C7.10611 8.67588 7.46758 8.52618 7.84442 8.52618C8.22126 8.52618 8.58271 8.67589 8.84931 8.94232C9.11575 9.20889 9.26545 9.57037 9.26545 9.94721C9.26545 10.324 9.11574 10.6855 8.84931 10.9521C8.58274 11.2185 8.22126 11.3682 7.84442 11.3682C7.46771 11.3677 7.10649 11.2179 6.84006 10.9516C6.57374 10.6851 6.42391 10.3239 6.42339 9.94721Z" fill="black"/>
</svg>
