<svg width="15" height="15" viewBox="0 0 15 15" fill="none" xmlns="http://www.w3.org/2000/svg">
<path d="M11.0672 3.41805C11.0672 3.62167 11.0068 3.82071 10.8937 3.99001C10.7806 4.15931 10.6198 4.29127 10.4316 4.36919C10.2435 4.44711 10.0365 4.4675 9.83683 4.42777C9.63713 4.38805 9.45369 4.29 9.30971 4.14602C9.16573 4.00204 9.06768 3.8186 9.02796 3.6189C8.98824 3.41919 9.00862 3.21219 9.08654 3.02407C9.16446 2.83596 9.29642 2.67517 9.46572 2.56205C9.63502 2.44892 9.83406 2.38854 10.0377 2.38854C10.3107 2.38854 10.5726 2.49701 10.7656 2.69008C10.9587 2.88315 11.0672 3.14501 11.0672 3.41805ZM13.4384 8.94952C12.0984 10.6516 9.97475 11.5928 7.12079 11.7506L5.85058 14.5471C5.78928 14.6821 5.69041 14.7966 5.56579 14.8769C5.44117 14.9572 5.29607 14.9999 5.14782 15C5.13134 15 5.11483 14.9995 5.09827 14.9985C4.94188 14.9884 4.79223 14.9311 4.66921 14.834C4.54619 14.7369 4.45562 14.6047 4.40954 14.4549L3.50017 11.4994L0.544668 10.588C0.39495 10.5418 0.262814 10.4512 0.165808 10.3282C0.0688022 10.2052 0.0115174 10.0555 0.00156108 9.89919C-0.0083952 9.74283 0.0294482 9.58715 0.110065 9.45281C0.190683 9.31847 0.310259 9.21183 0.452914 9.14706L3.24807 7.87781C3.40655 5.02434 4.34802 2.90104 6.05024 1.56146C8.78433 -0.590206 12.6303 0.0297496 13.7439 0.270976C13.9852 0.323565 14.2063 0.444348 14.381 0.618961C14.5556 0.793575 14.6764 1.01467 14.729 1.25596C14.9703 2.36975 15.5902 6.21586 13.4383 8.94952H13.4384ZM9.96445 9.62224C9.4684 9.34593 9.03919 8.96389 8.70724 8.50321C8.3753 8.04252 8.14873 7.51447 8.0436 6.95646C7.48539 6.85131 6.95714 6.62462 6.49634 6.29247C6.03553 5.96032 5.65345 5.53084 5.3772 5.0345C5.00637 5.9729 4.80484 7.09558 4.77263 8.40253C4.76916 8.54764 4.72486 8.68882 4.64481 8.8099C4.56475 8.93097 4.45219 9.02702 4.32003 9.08703L2.94404 9.71187L4.34558 10.1441C4.46585 10.1812 4.57524 10.2471 4.66422 10.3362C4.75319 10.4252 4.81906 10.5346 4.85608 10.6549L5.28667 12.0545L5.91164 10.6785C5.97167 10.5463 6.06774 10.4337 6.18884 10.3537C6.30993 10.2736 6.45114 10.2293 6.59626 10.2259C7.90115 10.1949 9.02388 9.99368 9.96445 9.62224V9.62224ZM13.2536 1.74639C12.1386 1.52614 9.09614 1.12946 7.00535 2.77493C6.80275 2.93472 6.61339 3.11063 6.43913 3.30094C6.47547 3.88962 6.73475 4.44233 7.16421 4.8466C7.59366 5.25087 8.16101 5.47632 8.7508 5.47706C8.95558 5.47706 9.15198 5.55841 9.29678 5.70321C9.44158 5.84802 9.52293 6.04441 9.52293 6.24919C9.52368 6.83888 9.74904 7.40614 10.1532 7.83558C10.5573 8.26501 11.1098 8.52437 11.6984 8.56089C11.8889 8.38655 12.065 8.19708 12.2249 7.99433C13.8704 5.90379 13.4737 2.86154 13.2535 1.74645L13.2536 1.74639Z" fill="black"/>
</svg>
