<svg width="16" height="16" viewBox="0 0 16 16" fill="none" xmlns="http://www.w3.org/2000/svg">
<path d="M2.2111 15.5213C2.51983 15.8301 2.92985 16 3.366 16C3.80215 16 4.21216 15.8301 4.52089 15.5213L8.06236 11.9792C8.6489 12.1601 9.25931 12.2518 9.87312 12.2512C10.6776 12.2537 11.4747 12.0964 12.218 11.7886C12.9613 11.4809 13.6362 11.0286 14.2036 10.4581C15.0601 9.60381 15.644 8.51456 15.8812 7.32823C16.1185 6.14191 15.9986 4.91184 15.5365 3.79373L15.071 2.65986L11.6046 6.12601L9.8723 4.39253L13.3378 0.926382L12.2033 0.459926C11.4632 0.155166 10.6703 -0.00110329 9.86985 5.86317e-06C8.23388 5.86317e-06 6.69592 0.637196 5.54021 1.79394C4.75039 2.58129 4.19113 3.56985 3.92304 4.65247C3.65496 5.73508 3.68828 6.87044 4.0194 7.93547L0.477934 11.4776C0.171897 11.7841 0 12.1995 0 12.6327C0 13.0659 0.171897 13.4813 0.477934 13.7878L2.2111 15.5213ZM5.92572 8.33984L5.71826 7.83662C5.37904 7.01674 5.29078 6.11458 5.46468 5.24448C5.63858 4.37438 6.06681 3.57549 6.69511 2.94905C7.16202 2.47901 7.72777 2.11892 8.35124 1.89495C8.97471 1.67098 9.64025 1.58875 10.2995 1.65425L7.56087 4.39335L11.603 8.43705L14.3432 5.69632C14.4071 6.35606 14.324 7.02177 14.0999 7.64555C13.8758 8.26932 13.5162 8.83565 13.047 9.30379C11.7811 10.57 9.80941 10.9597 8.15956 10.2808L7.65725 10.0725L3.366 14.3662H3.36681L3.366 15.1831V14.3662L1.63283 12.6327L5.92572 8.33984V8.33984Z" fill="black"/>
</svg>
