<svg width="16" height="16" viewBox="0 0 16 16" fill="none" xmlns="http://www.w3.org/2000/svg">
<path d="M15.36 3.86H10.24V1.6C10.24 1.246 9.954 0.96 9.6 0.96H1.44V0.16C1.44 0.072 1.368 0 1.28 0H0.16C0.072 0 0 0.072 0 0.16V15.84C0 15.928 0.072 16 0.16 16H1.28C1.368 16 1.44 15.928 1.44 15.84V10.56H6.4V12.82C6.4 13.174 6.686 13.46 7.04 13.46H15.36C15.714 13.46 16 13.174 16 12.82V4.5C16 4.146 15.714 3.86 15.36 3.86ZM1.44 9.12V2.4H8.8V9.12H1.44ZM14.56 12.02H7.84V10.56H10.08C10.168 10.56 10.24 10.488 10.24 10.4V5.3H14.56V12.02Z" fill="black"/>
</svg>
