<svg width="16" height="16" viewBox="0 0 16 16" fill="none" xmlns="http://www.w3.org/2000/svg">
<path d="M15.2655 6.86895L10.7414 6.8787L14.3165 4.81816C14.4846 4.72119 14.6072 4.56142 14.6575 4.374C14.7078 4.18658 14.6816 3.98686 14.5846 3.81877C14.4876 3.65069 14.3279 3.52801 14.1404 3.47773C13.953 3.42745 13.7533 3.45367 13.5852 3.55064L9.9874 5.62418L12.5777 1.11636C12.6293 1.03298 12.6637 0.940067 12.6787 0.843144C12.6937 0.746221 12.6891 0.647269 12.665 0.552178C12.641 0.457087 12.5981 0.367799 12.5389 0.289627C12.4797 0.211456 12.4053 0.145999 12.3203 0.0971508C12.2352 0.0483028 12.1412 0.0170623 12.0438 0.00528835C11.9465 -0.00648558 11.8477 0.00144766 11.7535 0.028616C11.6592 0.0557843 11.5714 0.101632 11.4953 0.163432C11.4191 0.225232 11.3562 0.30172 11.3102 0.388346L8.73126 4.87504V0.752351C8.73126 0.558409 8.65422 0.37241 8.51708 0.235272C8.37994 0.0981335 8.19394 0.0210901 8 0.0210901C7.80606 0.0210901 7.62006 0.0981335 7.48292 0.235272C7.34578 0.37241 7.26874 0.558409 7.26874 0.752351V4.89942L4.65895 0.401346C4.61072 0.318226 4.54659 0.24542 4.47022 0.187083C4.39386 0.128747 4.30675 0.086023 4.21387 0.0613513C4.12099 0.0366795 4.02417 0.030543 3.92892 0.0432919C3.83367 0.0560408 3.74186 0.0874256 3.65874 0.135654C3.57562 0.183883 3.50282 0.248011 3.44448 0.324377C3.38615 0.400743 3.34342 0.487852 3.31875 0.580729C3.29408 0.673607 3.28794 0.770434 3.30069 0.865683C3.31344 0.960932 3.34482 1.05274 3.39305 1.13586L5.99309 5.6128L2.42129 3.55389C2.2532 3.45692 2.05348 3.43069 1.86606 3.48098C1.67864 3.53126 1.51887 3.65394 1.4219 3.82202C1.32493 3.99011 1.2987 4.18983 1.34898 4.37725C1.39926 4.56467 1.52194 4.72444 1.69003 4.82141L5.28133 6.89495L0.731261 6.9047C0.537319 6.9047 0.35132 6.98174 0.214181 7.11888C0.0770434 7.25602 0 7.44202 0 7.63596C0 7.8299 0.0770434 8.0159 0.214181 8.15304C0.35132 8.29018 0.537319 8.36722 0.731261 8.36722V8.36722L5.25533 8.35747L1.68028 10.418C1.54051 10.4985 1.43126 10.6229 1.36953 10.7718C1.30779 10.9208 1.29704 11.086 1.33894 11.2418C1.38083 11.3975 1.47304 11.535 1.60119 11.6329C1.72935 11.7308 1.88627 11.7836 2.04753 11.783C2.17524 11.7824 2.30063 11.7488 2.41154 11.6855L6.00284 9.61199L3.4223 14.1166C3.37065 14.1999 3.3363 14.2928 3.3213 14.3898C3.30629 14.4867 3.31094 14.5856 3.33496 14.6807C3.35897 14.7758 3.40188 14.8651 3.46111 14.9433C3.52034 15.0215 3.59469 15.0869 3.67974 15.1358C3.76479 15.1846 3.8588 15.2159 3.95616 15.2276C4.05353 15.2394 4.15227 15.2315 4.24651 15.2043C4.34075 15.1771 4.42857 15.1313 4.50472 15.0695C4.58088 15.0077 4.64383 14.9312 4.68982 14.8446L7.26874 10.3579V14.4806C7.26874 14.6745 7.34578 14.8605 7.48292 14.9976C7.62006 15.1348 7.80606 15.2118 8 15.2118C8.19394 15.2118 8.37994 15.1348 8.51708 14.9976C8.65422 14.8605 8.73126 14.6745 8.73126 14.4806V10.3335L11.3411 14.8316C11.3893 14.9147 11.4534 14.9875 11.5298 15.0458C11.6061 15.1042 11.6932 15.1469 11.7861 15.1716C11.879 15.1962 11.9758 15.2024 12.0711 15.1896C12.1663 15.1769 12.2581 15.1455 12.3413 15.0973C12.4244 15.049 12.4972 14.9849 12.5555 14.9085C12.6139 14.8322 12.6566 14.7451 12.6812 14.6522C12.7059 14.5593 12.7121 14.4625 12.6993 14.3672C12.6866 14.272 12.6552 14.1802 12.6069 14.0971L10.0069 9.62011L13.5787 11.679C13.7469 11.7757 13.9465 11.8017 14.1338 11.7515C14.3211 11.7012 14.4809 11.5787 14.5781 11.4109C14.6747 11.2427 14.7008 11.0431 14.6505 10.8558C14.6003 10.6685 14.4778 10.5087 14.31 10.4115L10.7187 8.34122L15.2687 8.33147C15.4627 8.33147 15.6487 8.25443 15.7858 8.11729C15.923 7.98015 16 7.79415 16 7.60021C16 7.40627 15.923 7.22027 15.7858 7.08313C15.6487 6.94599 15.4627 6.86895 15.2687 6.86895H15.2655Z" fill="black"/>
</svg>
