<svg width="9" height="15" viewBox="0 0 9 15" fill="none" xmlns="http://www.w3.org/2000/svg">
<path d="M3.71623 0.000489948C3.66256 0.0061618 3.61113 0.0250157 3.56651 0.0553775C3.52188 0.0857393 3.48545 0.126674 3.46045 0.174525L0.0381739 6.72621C0.0116157 6.77631 -0.00149142 6.83245 0.000134846 6.88913C0.00176111 6.94582 0.0180651 7.00111 0.0474517 7.0496C0.0768383 7.09809 0.118301 7.13812 0.167784 7.16577C0.217267 7.19342 0.273076 7.20774 0.32975 7.20734H2.97447L1.04082 13.9945C1.02117 14.068 1.02769 14.146 1.05925 14.2152C1.09082 14.2844 1.14547 14.3405 1.21383 14.3737C1.28218 14.407 1.35998 14.4155 1.43389 14.3976C1.50779 14.3798 1.57319 14.3368 1.61886 14.276C1.61886 14.276 6.43187 7.70636 8.10534 5.78441C8.14647 5.73707 8.17315 5.67893 8.18222 5.61687C8.19129 5.55481 8.18237 5.49144 8.15651 5.43431C8.13065 5.37717 8.08895 5.32867 8.03635 5.29456C7.98376 5.26044 7.92248 5.24214 7.8598 5.24185H5.96705L8.1565 0.461154C8.17857 0.411468 8.18793 0.357067 8.18374 0.302856C8.17956 0.248645 8.16195 0.196338 8.13252 0.150634C8.10308 0.10493 8.06274 0.0672688 8.01513 0.0410586C7.96752 0.0148483 7.91414 0.000906052 7.8598 0.000489948H3.75203C3.7401 -0.000163316 3.72815 -0.000163316 3.71623 0.000489948V0.000489948ZM3.94643 0.655663H7.34314L5.16391 5.43122C5.14071 5.48113 5.13045 5.53609 5.13408 5.59102C5.13771 5.64594 5.15511 5.69907 5.18468 5.74549C5.21425 5.79191 5.25503 5.83012 5.30326 5.8566C5.35149 5.88308 5.40561 5.89698 5.46063 5.89701H7.17432C5.63979 7.74901 3.35559 10.8259 2.16111 12.4487L3.72135 6.96676C3.73465 6.91842 3.73669 6.86767 3.72731 6.81842C3.71792 6.76917 3.69737 6.72273 3.66722 6.68268C3.63708 6.64263 3.59814 6.61004 3.55343 6.58742C3.50871 6.56479 3.4594 6.55274 3.40929 6.55218H0.866872L3.94643 0.655663V0.655663Z" fill="black"/>
</svg>
