<svg width="17" height="18" viewBox="0 0 17 18" fill="none" xmlns="http://www.w3.org/2000/svg">
<path d="M12.2134 5.26531C11.4879 5.10284 10.7468 5.0205 10.0034 5.01976C9.30133 4.97518 8.59736 5.06984 7.93199 5.29828C7.26661 5.52673 6.65296 5.88446 6.12632 6.3509C5.43275 7.04447 4.74565 7.73588 4.065 8.42514C3.28312 8.34114 1.42858 8.29591 0.187905 9.5495C0.0675531 9.67057 0 9.83435 0 10.0051C0 10.1758 0.0675531 10.3395 0.187905 10.4606L7.48977 17.7754C7.61084 17.8958 7.77461 17.9633 7.94533 17.9633C8.11604 17.9633 8.27982 17.8958 8.40089 17.7754C9.66094 16.483 9.62217 14.6608 9.54463 13.8983L11.6189 11.8305C13.6802 9.7692 12.7432 5.89857 12.7045 5.73702C12.6746 5.62047 12.6129 5.51457 12.5261 5.43123C12.4393 5.34789 12.331 5.29043 12.2134 5.26531V5.26531ZM10.6884 10.9194L8.38796 13.2069C8.31346 13.2821 8.25859 13.3745 8.22817 13.4759C8.19774 13.5773 8.19271 13.6846 8.21349 13.7885C8.35308 14.6529 8.23159 15.5394 7.86455 16.3344L1.61597 10.0729C2.4236 9.7012 3.32642 9.58835 4.2007 9.74982C4.30414 9.76328 4.4093 9.75151 4.5072 9.7155C4.60509 9.67949 4.69282 9.62032 4.76288 9.54304C4.76288 9.54304 5.66753 8.60607 7.03098 7.24263C7.86935 6.56938 8.9308 6.2371 10.0034 6.31212C10.5079 6.31462 11.0114 6.35784 11.509 6.44136C11.6641 7.3654 11.9097 9.69812 10.6884 10.9194V10.9194Z" fill="black"/>
<path d="M8.85975 10.3828C9.5735 10.3828 10.1521 9.80421 10.1521 9.09046C10.1521 8.37671 9.5735 7.7981 8.85975 7.7981C8.14599 7.7981 7.56738 8.37671 7.56738 9.09046C7.56738 9.80421 8.14599 10.3828 8.85975 10.3828Z" fill="black"/>
<path fill-rule="evenodd" clip-rule="evenodd" d="M1.92263 0.897969C1.70489 0.877821 1.4892 0.953701 1.33204 1.10574C1.17488 1.25778 1.0919 1.47084 1.10483 1.68912L1.3388 5.63963C1.36329 6.05312 1.71834 6.36846 2.13183 6.34398C2.54532 6.31949 2.86067 5.96443 2.83618 5.55095L2.72188 3.62105L4.82376 5.79373L5.96472 4.81577L3.79996 2.5781L5.725 2.75624C6.13746 2.79441 6.50275 2.49099 6.54092 2.07854C6.57909 1.66609 6.27567 1.30079 5.86322 1.26262L1.92263 0.897969ZM13.2027 12.2975L12.1419 13.3583L14.8166 16.1231C15.1046 16.4208 15.5794 16.4287 15.8771 16.1407C16.1748 15.8527 16.1827 15.3779 15.8947 15.0802L13.2027 12.2975Z" fill="black"/>
</svg>
