<svg width="26" height="19" viewBox="0 0 26 19" fill="none" xmlns="http://www.w3.org/2000/svg">
<path d="M9.44995 16.8318C5.37125 16.8318 2.03935 13.5287 2.03935 9.44995C2.03935 5.37125 5.34253 2.06807 9.42123 2.06807C12.4084 2.06807 14.9935 3.84892 16.1425 6.40529L17.7797 5.08402C16.2286 2.06807 13.0691 0 9.44995 0C4.25104 0 0 4.25104 0 9.44995C0 14.6489 4.25104 18.8999 9.44995 18.8999C14.2467 18.8999 18.2105 15.3095 18.8137 10.685L16.4297 11.9202C15.3957 14.7925 12.667 16.8318 9.44995 16.8318Z" fill="black"/>
<path d="M13.2129 8.78944L14.7352 7.55434C13.9597 5.37137 11.8916 3.82031 9.45016 3.82031C6.34804 3.82031 3.84912 6.34796 3.84912 9.42135C3.84912 12.5235 6.37677 15.0511 9.45016 15.0511C11.1736 15.0511 12.7246 14.2756 13.7586 13.0405C13.098 13.0692 12.4661 12.7532 12.064 12.2362C11.3746 12.8969 10.4555 13.2703 9.45016 13.2703C7.32464 13.2703 5.60124 11.5469 5.60124 9.45007C5.60124 7.35327 7.32463 5.62988 9.42143 5.62988C11.3459 5.62988 12.8969 6.97987 13.2129 8.78944Z" fill="black"/>
<path d="M7.66895 9.45003C7.66895 10.4266 8.4732 11.2309 9.44979 11.2309C10.4264 11.2309 11.2306 10.4266 11.2306 9.45003C11.2306 8.47344 10.4264 7.66919 9.44979 7.66919C8.4732 7.66919 7.66895 8.47344 7.66895 9.45003Z" fill="black"/>
<path d="M25.6972 5.31333L23.287 4.81556L23.7847 2.40529C23.8633 2.06471 23.4703 1.80272 23.1822 1.98611L20.3789 3.82001C20.1431 3.9772 19.9859 4.21299 19.9335 4.47498L19.593 6.04689L13.0695 10.6054C12.7813 10.815 12.6765 11.208 12.8861 11.5224C13.0957 11.863 13.5149 11.9678 13.8293 11.7582L20.6671 7.6712L22.239 8.01178C22.501 8.06418 22.7892 8.01178 22.9988 7.88079L25.802 6.04689C26.1164 5.8373 26.0378 5.39193 25.6972 5.31333Z" fill="black"/>
</svg>
