<svg width="14" height="14" viewBox="0 0 14 14" fill="none" xmlns="http://www.w3.org/2000/svg">
<path d="M7.0002 4.66685C6.6782 4.66685 6.41686 4.40551 6.41686 4.08351V0.583483C6.41686 0.261481 6.6782 0.000145828 7.0002 0.000145828C7.3222 0.000145828 7.58354 0.261481 7.58354 0.583483V4.08351C7.58354 4.40551 7.3222 4.66685 7.0002 4.66685ZM7.0002 14.0002C6.6782 14.0002 6.41686 13.7395 6.41686 13.4169V9.91689C6.41686 9.5943 6.6782 9.33355 7.0002 9.33355C7.3222 9.33355 7.58354 9.5943 7.58354 9.91689V13.4169C7.58354 13.7395 7.3222 14.0002 7.0002 14.0002ZM4.08351 7.58354H0.583483C0.261481 7.58354 0.000145828 7.3222 0.000145828 7.0002C0.000145828 6.6782 0.261481 6.41686 0.583483 6.41686H4.08351C4.40551 6.41686 4.66685 6.6782 4.66685 7.0002C4.66685 7.3222 4.40551 7.58354 4.08351 7.58354ZM13.4169 7.58354H9.91689C9.5943 7.58354 9.33355 7.3222 9.33355 7.0002C9.33355 6.6782 9.5943 6.41686 9.91689 6.41686H13.4169C13.7395 6.41686 14.0002 6.6782 14.0002 7.0002C14.0002 7.3222 13.7395 7.58354 13.4169 7.58354ZM4.08351 4.66685C3.93417 4.66685 3.78484 4.60968 3.67109 4.49593L0.171064 0.995903C-0.0570213 0.767818 -0.0570213 0.399149 0.171064 0.171064C0.399149 -0.0570213 0.767818 -0.0570213 0.995903 0.171064L4.49593 3.67109C4.72401 3.89917 4.72401 4.26784 4.49593 4.49593C4.38218 4.60968 4.23284 4.66685 4.08351 4.66685ZM13.4169 14.0002C13.2676 14.0002 13.1182 13.9431 13.0045 13.8293L9.50447 10.3293C9.27638 10.1012 9.27638 9.73255 9.50447 9.50447C9.73255 9.27638 10.1012 9.27638 10.3293 9.50447L13.8293 13.0045C14.0574 13.2326 14.0574 13.6012 13.8293 13.8293C13.7156 13.9431 13.5662 14.0002 13.4169 14.0002ZM0.583483 14.0002C0.425982 14.0002 0.280148 13.9413 0.169314 13.8311C0.0584796 13.7202 0.000145828 13.5744 0.000145828 13.4169C0.000145828 13.2588 0.0584796 13.113 0.169314 13.0027L2.43266 10.7394C2.65433 10.5236 3.03933 10.5236 3.25517 10.7394C3.366 10.8496 3.43017 10.9955 3.43017 11.1536C3.43017 11.3111 3.366 11.4569 3.25517 11.5677L0.997653 13.8311C0.886819 13.9413 0.740985 14.0002 0.583483 14.0002ZM4.08351 10.5002C3.92601 10.5002 3.78017 10.4413 3.66934 10.3311C3.44184 10.103 3.44184 9.73022 3.66934 9.50272C3.89101 9.28105 4.27601 9.28105 4.49768 9.50272C4.72518 9.73022 4.72518 10.103 4.49768 10.3311C4.38685 10.4413 4.24101 10.5002 4.08351 10.5002ZM9.91689 4.66685C9.7588 4.66685 9.61297 4.60851 9.50272 4.49768C9.39188 4.38685 9.33355 4.24101 9.33355 4.08351C9.33355 3.92601 9.39188 3.78017 9.50272 3.66934L11.7661 1.40599C11.9877 1.19015 12.3727 1.19015 12.5886 1.40599C12.6988 1.51682 12.7636 1.66266 12.7636 1.82016C12.7636 1.97766 12.6994 2.12349 12.5886 2.23433L10.3311 4.49768C10.2202 4.60851 10.0744 4.66685 9.91689 4.66685V4.66685ZM13.4169 1.16682C13.2588 1.16682 13.113 1.10849 13.0027 0.997653C12.7747 0.770152 12.7747 0.396815 13.0027 0.169314C13.2244 -0.0523546 13.6094 -0.0465212 13.8311 0.169314C13.9413 0.280148 14.0002 0.425982 14.0002 0.583483C14.0002 0.740985 13.9413 0.886819 13.8311 0.997653C13.7202 1.10849 13.5744 1.16682 13.4169 1.16682Z" fill="black"/>
<path d="M7.00017 8.16685C7.64451 8.16685 8.16685 7.64451 8.16685 7.00017C8.16685 6.35583 7.64451 5.8335 7.00017 5.8335C6.35583 5.8335 5.8335 6.35583 5.8335 7.00017C5.8335 7.64451 6.35583 8.16685 7.00017 8.16685Z" fill="black"/>
</svg>
