<svg width="22" height="22" viewBox="0 0 22 22" fill="none" xmlns="http://www.w3.org/2000/svg">
<path d="M0.079464 17.3671L3.71803 12.3459C3.75521 12.2961 3.7822 12.2395 3.79745 12.1793C3.8127 12.1191 3.81591 12.0564 3.8069 11.995C3.79788 11.9335 3.77682 11.8744 3.74492 11.8211C3.71302 11.7678 3.67091 11.7213 3.621 11.6843L0.862308 9.57837C0.788589 9.52154 0.733226 9.44428 0.703121 9.3562C0.673016 9.26813 0.669502 9.17314 0.693016 9.08308C0.71653 8.99302 0.766032 8.91188 0.835351 8.84976C0.90467 8.78765 0.990738 8.74731 1.08283 8.73378L4.20318 8.21556C4.27963 8.20355 4.35195 8.17292 4.41378 8.12637C4.47561 8.07983 4.52504 8.01879 4.55772 7.94864C4.5904 7.87848 4.60532 7.80137 4.60118 7.72409C4.59704 7.64681 4.57395 7.57174 4.53396 7.50548L1.09385 1.75875C1.04088 1.66716 1.02007 1.56048 1.03473 1.45569C1.04939 1.35091 1.09868 1.25404 1.17475 1.1805C1.25082 1.10696 1.34931 1.06098 1.45453 1.04988C1.55976 1.03878 1.66567 1.0632 1.75541 1.11924L7.92995 5.12608C7.98623 5.16252 8.04959 5.18662 8.11586 5.19677C8.18213 5.20692 8.2498 5.2029 8.3144 5.18498C8.37901 5.16706 8.43908 5.13564 8.49064 5.0928C8.54221 5.04995 8.58411 4.99666 8.61356 4.93643L10.3777 1.31551C10.4224 1.22966 10.4923 1.15954 10.578 1.11457C10.6637 1.06959 10.7611 1.05192 10.8571 1.06393C10.9531 1.07593 11.0432 1.11704 11.1152 1.18172C11.1872 1.2464 11.2376 1.33156 11.2598 1.42577L12.1242 5.54286C12.1389 5.61246 12.1691 5.67785 12.2125 5.7342C12.2559 5.79056 12.3114 5.83642 12.375 5.8684C12.4385 5.90038 12.5084 5.91765 12.5795 5.91894C12.6506 5.92023 12.7211 5.9055 12.7858 5.87585L17.4387 3.71255C17.5328 3.668 17.639 3.6558 17.7407 3.67785C17.8424 3.69991 17.934 3.75497 18.0012 3.83448C18.0684 3.91399 18.1074 4.01348 18.1121 4.11746C18.1169 4.22144 18.0872 4.32408 18.0275 4.40939L15.1498 8.62352C15.105 8.68845 15.0772 8.76355 15.069 8.84197C15.0608 8.92039 15.0723 8.99963 15.1026 9.07244C15.1328 9.14526 15.1809 9.20933 15.2423 9.2588C15.3037 9.30827 15.3765 9.34156 15.4541 9.35564L20.2548 10.2377C20.3633 10.2508 20.464 10.301 20.5398 10.3798C20.6156 10.4586 20.6618 10.5612 20.6707 10.6702C20.6795 10.7792 20.6504 10.8878 20.5882 10.9778C20.5261 11.0678 20.4348 11.1335 20.3298 11.1639L15.4475 12.7847C15.3859 12.8055 15.3293 12.8386 15.281 12.8822C15.2328 12.9257 15.1941 12.9787 15.1672 13.0378C15.1403 13.097 15.1259 13.161 15.1248 13.2259C15.1237 13.2909 15.1359 13.3554 15.1608 13.4154L17.5115 19.118C17.5515 19.2128 17.5594 19.3181 17.5341 19.4177C17.5087 19.5174 17.4515 19.6061 17.3711 19.6703C17.2907 19.7345 17.1915 19.7706 17.0887 19.7732C16.9859 19.7758 16.885 19.7448 16.8014 19.6848L11.4097 15.8962C11.3516 15.8559 11.2852 15.829 11.2153 15.8175C11.1455 15.806 11.0739 15.8103 11.0059 15.8299C10.9379 15.8495 10.8751 15.8841 10.8222 15.931C10.7692 15.978 10.7273 16.0362 10.6997 16.1013L8.82747 20.5889C8.78817 20.6833 8.71938 20.7625 8.63137 20.8147C8.54336 20.8668 8.44086 20.889 8.33916 20.8781C8.23745 20.8672 8.14201 20.8237 8.06707 20.7541C7.99212 20.6845 7.94171 20.5925 7.92334 20.4919L7.12285 16.141C7.11013 16.0723 7.08237 16.0072 7.04156 15.9505C7.00075 15.8937 6.94789 15.8467 6.88678 15.8128C6.82567 15.7788 6.75781 15.7589 6.68806 15.7542C6.61832 15.7496 6.54841 15.7604 6.48335 15.786L0.637378 18.075C0.543513 18.1094 0.441167 18.1133 0.344968 18.086C0.248769 18.0588 0.163642 18.0019 0.101753 17.9233C0.039865 17.8448 0.00438357 17.7487 0.00038036 17.6488C-0.00362285 17.5489 0.0240572 17.4503 0.079464 17.3671V17.3671ZM15.0196 0.0850078L12.9291 2.25933C12.8756 2.31583 12.8366 2.38449 12.8155 2.45939C12.7944 2.53429 12.7917 2.6132 12.8078 2.68934L13.0284 3.71696C13.0404 3.77219 13.0647 3.82403 13.0993 3.86868C13.134 3.91333 13.1782 3.94967 13.2287 3.97504C13.2793 4.0004 13.3348 4.01416 13.3913 4.01529C13.4478 4.01642 13.5039 4.00491 13.5554 3.98159L14.5963 3.51188C14.6624 3.48133 14.7206 3.43603 14.7665 3.37945C14.8124 3.32287 14.8447 3.25652 14.8609 3.18551L15.5004 0.345221C15.5136 0.284953 15.5068 0.222036 15.4811 0.165954C15.4554 0.109871 15.4121 0.0636645 15.3579 0.0342981C15.3036 0.00493175 15.2413 -0.0060022 15.1803 0.00314446C15.1193 0.0122911 15.0629 0.0410227 15.0196 0.0850078V0.0850078ZM20.9472 15.0803L18.3208 13.1772C18.2581 13.1314 18.1851 13.1017 18.1082 13.0905C18.0314 13.0794 17.9529 13.0872 17.8798 13.1133L16.9977 13.4286C16.9484 13.446 16.9032 13.4735 16.8649 13.5092C16.8267 13.5449 16.7963 13.5882 16.7755 13.6362C16.7548 13.6843 16.7443 13.7361 16.7446 13.7884C16.7449 13.8407 16.756 13.8924 16.7772 13.9402L17.2425 14.9568C17.2774 15.0338 17.3321 15.1001 17.4011 15.1489C17.4701 15.1978 17.5508 15.2274 17.635 15.2347L20.7818 15.5037C20.8335 15.5087 20.8855 15.4966 20.9297 15.4693C20.9739 15.442 21.008 15.401 21.0267 15.3525C21.0455 15.3041 21.0478 15.2508 21.0335 15.2009C21.0191 15.1509 20.9888 15.107 20.9472 15.0759V15.0803ZM3.58131 21.6584L6.28929 19.3827C6.35193 19.3293 6.39968 19.2606 6.42789 19.1834C6.4561 19.1061 6.46381 19.0228 6.45027 18.9416L6.20329 17.6714C6.19256 17.6162 6.16967 17.564 6.13626 17.5187C6.10286 17.4733 6.05979 17.436 6.01017 17.4094C5.96055 17.3828 5.90564 17.3676 5.8494 17.3648C5.79317 17.3621 5.73703 17.3719 5.68507 17.3936L4.47221 17.903C4.41074 17.9294 4.35545 17.9683 4.30988 18.0173C4.26431 18.0663 4.22947 18.1242 4.20759 18.1874L3.12925 21.3497C3.10957 21.4084 3.1096 21.472 3.12933 21.5307C3.14905 21.5894 3.1874 21.6401 3.23855 21.675C3.2897 21.7099 3.35085 21.7272 3.41271 21.7242C3.47457 21.7212 3.53377 21.6981 3.58131 21.6584V21.6584Z" fill="black"/>
</svg>
