<svg width="17" height="18" viewBox="0 0 17 18" fill="none" xmlns="http://www.w3.org/2000/svg">
<path d="M10.2718 8.2584L2.02289 16.5L1 15.4771L9.2416 7.2282L10.2718 8.2584ZM13.5451 6.14686L13.9761 5.71578L13.3989 5.13858L13.8665 4.67097L12.829 3.63346L12.3614 4.10107L11.7842 3.52387L11.3531 3.95494C10.0818 2.91744 7.03434 1.58451 5.5 1L7 2.5C8.27862 3.17219 8.96396 4.29104 10.0599 5.24817L9.69459 5.61349L11.8865 7.80541L12.2518 7.44009C13.209 8.53605 13.8278 8.72138 14.5 10L16 12C15.4155 10.4657 14.5826 7.41817 13.5451 6.14686Z" fill="black" stroke="black" stroke-width="1.5" stroke-linejoin="round"/>
</svg>
