<svg width="17" height="20" viewBox="0 0 17 20" fill="none" xmlns="http://www.w3.org/2000/svg">
<path d="M2.25 0C1.65326 0 1.08097 0.237053 0.65901 0.65901C0.237053 1.08097 0 1.65326 0 2.25V17.75C0 18.3467 0.237053 18.919 0.65901 19.341C1.08097 19.7629 1.65326 20 2.25 20H9.75C10.3431 20 10.9123 19.7659 11.3336 19.3484C11.755 18.931 11.9945 18.3641 12 17.771V16.251C12 16.0521 11.921 15.8613 11.7803 15.7207C11.6397 15.58 11.4489 15.501 11.25 15.501C10.797 15.501 10.511 15.378 10.314 15.219C10.106 15.052 9.934 14.794 9.803 14.43C9.53 13.675 9.501 12.68 9.501 11.75C9.50099 11.5599 9.42879 11.3769 9.299 11.238L9.134 11.061C9.08023 11.0006 9.02349 10.9428 8.964 10.888C8.89 10.818 8.664 10.603 7.781 9.72C7.312 9.251 7.053 8.855 6.968 8.552C6.93363 8.44706 6.92811 8.33481 6.952 8.227C6.98963 8.10267 7.06052 7.99098 7.157 7.904C7.24373 7.80792 7.35508 7.73738 7.479 7.7C7.58647 7.67609 7.69841 7.68162 7.803 7.716C8.105 7.801 8.501 8.062 8.97 8.531C9.51 9.071 10.023 9.577 10.482 10.031C11.242 10.783 11.855 11.391 12.202 11.761C12.338 11.9053 12.5255 11.9898 12.7236 11.9962C12.9217 12.0026 13.1143 11.9303 13.2593 11.7951C13.4043 11.6599 13.4899 11.4728 13.4973 11.2748C13.5047 11.0767 13.4334 10.8837 13.299 10.738C12.8733 10.2928 12.4403 9.85475 12 9.424V6.06L14.841 8.902C15.263 9.324 15.501 9.896 15.501 10.492V19.25C15.501 19.4489 15.58 19.6397 15.7207 19.7803C15.8613 19.921 16.0521 20 16.251 20C16.4499 20 16.6407 19.921 16.7813 19.7803C16.922 19.6397 17.001 19.4489 17.001 19.25V10.493C17.001 10.0004 16.9039 9.51271 16.7153 9.05767C16.5267 8.60264 16.2504 8.18921 15.902 7.841L12 3.939V2.249C11.9997 1.65244 11.7626 1.0804 11.3406 0.658656C10.9187 0.236916 10.3466 -5.89199e-08 9.75 0H2.25ZM9.374 16.388C9.70275 16.6511 10.0883 16.8339 10.5 16.922V17H9.75C9.55109 17 9.36032 17.079 9.21967 17.2197C9.07902 17.3603 9 17.5511 9 17.75V18.5H7.5V17.75C7.5 16.857 8.021 16.085 8.776 15.722C8.936 15.966 9.132 16.194 9.374 16.388ZM8.002 12.046C8.004 12.299 8.009 12.572 8.024 12.856C7.55836 13.1858 7.01915 13.3968 6.45332 13.4705C5.88749 13.5443 5.31222 13.4786 4.7776 13.2791C4.24298 13.0797 3.76523 12.7525 3.38597 12.3262C3.0067 11.8999 2.73743 11.3873 2.60159 10.8331C2.46576 10.2789 2.46748 9.69985 2.60662 9.14646C2.74576 8.59307 3.01808 8.08209 3.39988 7.65803C3.78168 7.23397 4.26137 6.90968 4.79717 6.71342C5.33297 6.51717 5.90862 6.45488 6.474 6.532C6.341 6.621 6.214 6.725 6.096 6.844C5.804 7.136 5.596 7.474 5.499 7.854C5.402 8.234 5.425 8.608 5.524 8.958C5.713 9.631 6.189 10.249 6.721 10.781C7.1277 11.1927 7.53973 11.599 7.957 12L7.961 12.003L7.998 12.042L8.002 12.046V12.046ZM3 1.5H4.5V2.25C4.5 2.84674 4.26295 3.41903 3.84099 3.84099C3.41903 4.26295 2.84674 4.5 2.25 4.5H1.5V3H2.25C2.44891 3 2.63968 2.92098 2.78033 2.78033C2.92098 2.63968 3 2.44891 3 2.25V1.5ZM7.5 1.5H9V2.25C9 2.664 9.336 3 9.75 3H10.5V4.5H9.75C9.15326 4.5 8.58097 4.26295 8.15901 3.84099C7.73705 3.41903 7.5 2.84674 7.5 2.25V1.5ZM4.5 18.5H3V17.75C3 17.5511 2.92098 17.3603 2.78033 17.2197C2.63968 17.079 2.44891 17 2.25 17H1.5V15.5H2.25C2.84674 15.5 3.41903 15.7371 3.84099 16.159C4.26295 16.581 4.5 17.1533 4.5 17.75V18.5Z" fill="black"/>
</svg>
