<svg width="20" height="20" viewBox="0 0 20 20" fill="none" xmlns="http://www.w3.org/2000/svg">
<path d="M12.7668 11.6308C13.1249 11.0174 13.2698 10.3027 13.1788 9.59835C13.0879 8.89396 12.7661 8.23954 12.2639 7.73732C11.7617 7.2351 11.1073 6.91337 10.4029 6.8224C9.6985 6.73143 8.98381 6.87633 8.37047 7.23447L6.02247 4.88647L4.88611 6.02283L7.23411 8.37084C6.9437 8.86469 6.79057 9.42718 6.79057 10.0001C6.79057 10.573 6.9437 11.1355 7.23411 11.6294L4.88611 13.9774L6.02247 15.1137L8.37047 12.7657C8.86432 13.0561 9.42682 13.2093 9.99973 13.2093C10.5726 13.2093 11.1351 13.0561 11.629 12.7657L13.977 15.1137L15.1134 13.9774L12.7668 11.6308ZM8.86337 11.1365C8.63862 10.9117 8.48556 10.6254 8.42355 10.3136C8.36154 10.0019 8.39337 9.67875 8.515 9.3851C8.63664 9.09145 8.84262 8.84046 9.1069 8.66387C9.37118 8.48729 9.68189 8.39304 9.99973 8.39304C10.3176 8.39304 10.6283 8.48729 10.8926 8.66387C11.1568 8.84046 11.3628 9.09145 11.4845 9.3851C11.6061 9.67875 11.6379 10.0019 11.5759 10.3136C11.5139 10.6254 11.3608 10.9117 11.1361 11.1365C10.8347 11.4378 10.4259 11.6072 9.99973 11.6072C9.57351 11.6072 9.16475 11.4378 8.86337 11.1365Z" fill="black"/>
<path d="M13.4089 6.59077C13.7227 6.90457 14.2314 6.90457 14.5452 6.59077C14.859 6.27697 14.859 5.76821 14.5452 5.45441C14.2314 5.14061 13.7227 5.14061 13.4089 5.45441C13.0951 5.76821 13.0951 6.27697 13.4089 6.59077Z" fill="black"/>
<path d="M14.5456 10.0002C14.8594 10.314 15.3682 10.314 15.682 10.0002C15.9957 9.6864 15.9957 9.17763 15.682 8.86383C15.3682 8.55004 14.8594 8.55004 14.5456 8.86383C14.2318 9.17763 14.2318 9.6864 14.5456 10.0002Z" fill="black"/>
<path d="M10.0002 5.45454C10.314 5.76834 10.8227 5.76834 11.1365 5.45454C11.4503 5.14074 11.4503 4.63198 11.1365 4.31818C10.8227 4.00438 10.314 4.00438 10.0002 4.31818C9.68638 4.63198 9.68638 5.14074 10.0002 5.45454Z" fill="black"/>
<path d="M4.31805 11.1364C4.63185 11.4502 5.14061 11.4502 5.45441 11.1364C5.76821 10.8226 5.76821 10.3139 5.45441 10.0001C5.14061 9.68627 4.63185 9.68627 4.31805 10.0001C4.00425 10.3139 4.00425 10.8226 4.31805 11.1364Z" fill="black"/>
<path d="M8.86346 15.6818C9.17726 15.9956 9.68602 15.9956 9.99982 15.6818C10.3136 15.368 10.3136 14.8593 9.99982 14.5455C9.68602 14.2317 9.17726 14.2317 8.86346 14.5455C8.54966 14.8593 8.54966 15.368 8.86346 15.6818Z" fill="black"/>
</svg>
