<svg width="15" height="15" viewBox="0 0 15 15" fill="none" xmlns="http://www.w3.org/2000/svg">
<path d="M12.1893 6.98267H14.8218V7.8394H12.1893V6.98267Z" fill="black"/>
<path d="M-0.000132561 6.98267H2.63281V7.8394H-0.000132561V6.98267Z" fill="black"/>
<path d="M6.98262 12.1895H7.83936V14.8219H6.98262V12.1895Z" fill="black"/>
<path d="M6.98262 0H7.83936V2.63244H6.98262V0Z" fill="black"/>
<path d="M12.348 12.9545L10.4868 11.0933L11.0926 10.4875L12.9538 12.3487L12.348 12.9545Z" fill="black"/>
<path d="M1.86784 2.47347L2.47363 1.86768L4.33503 3.72907L3.72924 4.33487L1.86784 2.47347Z" fill="black"/>
<path d="M2.47347 12.9542L1.86768 12.3484L3.7289 10.4872L4.33469 11.093L2.47347 12.9542Z" fill="black"/>
<path d="M12.9545 2.47369L11.0928 4.33545L10.487 3.72965L12.3487 1.8679L12.9545 2.47369Z" fill="black"/>
</svg>
