<svg width="16" height="16" viewBox="0 0 16 16" fill="none" xmlns="http://www.w3.org/2000/svg">
<path d="M7.67442 1V2.80596C5.06052 2.967 2.96441 5.06119 2.80087 7.67442H1V8.32558H2.80087C2.96202 10.9412 5.05883 13.038 7.67442 13.1991V15H8.32558V13.1991C10.9412 13.038 13.038 10.9412 13.1991 8.32558H15V7.67442H13.1991C13.0356 5.06119 10.9395 2.967 8.32558 2.80596V1H7.67442ZM7.67442 3.45712V5.23256H8.32558V3.45712C10.5857 3.61608 12.3828 5.41456 12.5429 7.67442H10.7674V8.32558H12.5429C12.3852 10.5878 10.5875 12.3889 8.32558 12.548V10.7674H7.67442V12.548C5.41255 12.3889 3.61482 10.5878 3.45712 8.32558H5.23256V7.67442H3.45712C3.61718 5.41456 5.41425 3.61608 7.67442 3.45712Z" fill="black" stroke="black" stroke-width="0.5"/>
</svg>
