<svg width="17" height="16" viewBox="0 0 17 16" fill="none" xmlns="http://www.w3.org/2000/svg">
<path d="M9.89364 0L9.04087 0.840876L10.3042 2.08662C10.4779 2.28127 10.5648 2.50706 10.5648 2.76399C10.5648 3.02092 10.4779 3.26229 10.3042 3.43358L7.50116 6.24428L8.29076 7.08516L11.157 4.27445C11.5755 3.81509 11.7808 3.309 11.7808 2.76399C11.7808 2.21898 11.5755 1.70511 11.157 1.24574L9.89364 0V0ZM6.75105 1.57275L5.89828 2.41363L6.37993 2.84964C6.55365 3.02092 6.6405 3.2545 6.6405 3.54258C6.6405 3.83066 6.55365 4.06423 6.37993 4.23552L5.89828 4.67153L6.75105 5.51241L7.19322 5.03747C7.6117 4.5781 7.8249 4.07981 7.8249 3.54258C7.8249 2.982 7.6117 2.47591 7.19322 2.00876L6.75105 1.57275V1.57275ZM15.0023 2.81071C14.4575 2.81071 13.9522 3.02092 13.4863 3.43358L9.04087 7.82482L9.89364 8.60341L14.2996 4.27445C14.497 4.07981 14.7339 3.97859 15.0023 3.97859C15.2708 3.97859 15.5077 4.07981 15.7051 4.27445L16.1867 4.74939L17 3.90852L16.5578 3.43358C16.092 3.02092 15.5708 2.81071 15.0023 2.81071V2.81071ZM3.94798 5.09976L0 16L11.0543 12.1071L3.94798 5.09976ZM13.4231 7.48224C12.8704 7.48224 12.3651 7.69246 11.8913 8.10511L10.6359 9.34307L11.4886 10.1839L12.7441 8.94599C12.9415 8.75134 13.1626 8.65012 13.4231 8.65012C13.6837 8.65012 13.9206 8.75134 14.118 8.94599L15.3971 10.1839L16.2262 9.382L14.9628 8.10511C14.497 7.69246 13.9758 7.48224 13.4231 7.48224V7.48224Z" fill="black"/>
</svg>
