<svg width="17" height="17" viewBox="0 0 17 17" fill="none" xmlns="http://www.w3.org/2000/svg">
<path d="M16.4995 4.51859C15.9792 3.2185 15.0386 2.13011 13.8275 1.4271C12.6165 0.724076 11.2049 0.446937 9.81791 0.639901C9.66067 0.440454 9.46026 0.279251 9.23175 0.168417C9.00323 0.0575823 8.75257 0 8.49859 0C8.24462 0 7.99395 0.0575823 7.76543 0.168417C7.53692 0.279251 7.33651 0.440454 7.17927 0.639901C5.79224 0.446225 4.38032 0.72306 3.16913 1.42617C1.95793 2.12928 1.01737 3.21808 0.497731 4.51859C-0.150755 6.08533 -0.166115 7.84256 0.454882 9.4204C1.07588 10.9982 2.2848 12.2736 3.82718 12.9781C3.89919 13.0072 3.97601 13.0225 4.05367 13.0234C4.16668 13.0251 4.27754 12.9925 4.37158 12.9298C4.46562 12.8671 4.5384 12.7773 4.58026 12.6723L8.37968 3.38613C8.41932 3.38613 8.45895 3.39745 8.49859 3.39745C8.53823 3.39745 8.57786 3.38613 8.6175 3.38613L12.4169 12.6723C12.4588 12.7773 12.5316 12.8671 12.6256 12.9298C12.7196 12.9925 12.8305 13.0251 12.9435 13.0234C13.0212 13.0225 13.098 13.0072 13.17 12.9781C14.7124 12.2736 15.9213 10.9982 16.5423 9.4204C17.1633 7.84256 17.1479 6.08533 16.4995 4.51859V4.51859ZM8.49859 2.26499C8.3866 2.26499 8.27713 2.23178 8.18401 2.16956C8.09089 2.10734 8.01832 2.01891 7.97546 1.91544C7.9326 1.81198 7.92139 1.69813 7.94324 1.58829C7.96509 1.47845 8.01902 1.37756 8.0982 1.29837C8.17739 1.21918 8.27829 1.16525 8.38812 1.1434C8.49796 1.12155 8.61181 1.13277 8.71528 1.17562C8.81874 1.21848 8.90718 1.29106 8.9694 1.38417C9.03161 1.47729 9.06482 1.58676 9.06482 1.69875C9.06482 1.84893 9.00517 1.99295 8.89898 2.09914C8.79279 2.20533 8.64876 2.26499 8.49859 2.26499Z" fill="black"/>
<path d="M10.9396 11.6458C11.0204 11.5221 11.0497 11.3718 11.0212 11.2268C10.9927 11.0818 10.9086 10.9537 10.787 10.8699C10.6654 10.786 10.5158 10.753 10.3702 10.7779C10.2245 10.8028 10.0944 10.8836 10.0075 11.0031C9.77347 11.3294 9.64454 11.7193 9.63796 12.1208C9.63138 12.5222 9.74748 12.9162 9.97073 13.2499C10.2018 13.7154 10.3178 13.9492 10.0064 14.4022C9.96199 14.4633 9.93025 14.5327 9.91306 14.6062C9.89587 14.6798 9.89358 14.7561 9.9063 14.8305C9.91903 14.905 9.94653 14.9761 9.98719 15.0398C10.0278 15.1035 10.0808 15.1584 10.143 15.2013C10.2052 15.2441 10.2753 15.2741 10.3493 15.2895C10.4233 15.3049 10.4995 15.3053 10.5737 15.2907C10.6478 15.2761 10.7182 15.2469 10.7809 15.2047C10.8435 15.1624 10.8971 15.1081 10.9384 15.0449C11.1799 14.7122 11.3138 14.3137 11.3221 13.9027C11.3304 13.4918 11.2127 13.0881 10.9848 12.746C10.7544 12.2794 10.6502 12.0671 10.9396 11.6458Z" fill="black"/>
<path d="M8.67441 8.24825C8.71883 8.18714 8.75056 8.11777 8.76775 8.04421C8.78494 7.97065 8.78724 7.8944 8.77451 7.81994C8.76178 7.74548 8.73428 7.67432 8.69363 7.61065C8.65298 7.54698 8.6 7.49208 8.53781 7.4492C8.47562 7.40632 8.40548 7.37631 8.33152 7.36095C8.25756 7.34559 8.18127 7.34518 8.10715 7.35976C8.03303 7.37433 7.96257 7.40358 7.89993 7.4458C7.83729 7.48802 7.78372 7.54234 7.7424 7.60557C7.50833 7.93183 7.3794 8.32175 7.37282 8.72323C7.36625 9.12471 7.48234 9.51863 7.70559 9.85238C7.93661 10.3178 8.05269 10.5517 7.74126 11.0047C7.69685 11.0658 7.66512 11.1351 7.64793 11.2087C7.63074 11.2823 7.62844 11.3585 7.64117 11.433C7.6539 11.5074 7.6814 11.5786 7.72205 11.6423C7.7627 11.7059 7.81568 11.7608 7.87787 11.8037C7.94006 11.8466 8.0102 11.8766 8.08416 11.892C8.15812 11.9073 8.23441 11.9077 8.30853 11.8932C8.38265 11.8786 8.45311 11.8493 8.51575 11.8071C8.57839 11.7649 8.63195 11.7106 8.67328 11.6473C8.91475 11.3147 9.04862 10.9161 9.05692 10.5052C9.06522 10.0942 8.94755 9.69056 8.71971 9.34844C8.48926 8.88186 8.38507 8.66952 8.67441 8.24825Z" fill="black"/>
<path d="M6.97568 13.3445C7.05651 13.2208 7.0858 13.0705 7.0573 12.9255C7.0288 12.7805 6.94477 12.6525 6.82314 12.5686C6.70151 12.4847 6.55192 12.4517 6.40629 12.4766C6.26066 12.5015 6.13053 12.5823 6.04367 12.7018C5.8096 13.0281 5.68067 13.418 5.67409 13.8195C5.66752 14.221 5.78361 14.6149 6.00686 14.9487C6.23788 15.4141 6.35396 15.648 6.04253 16.1009C5.99812 16.162 5.96639 16.2314 5.9492 16.305C5.93201 16.3785 5.92971 16.4548 5.94244 16.5292C5.95517 16.6037 5.98267 16.6749 6.02332 16.7385C6.06397 16.8022 6.11695 16.8571 6.17914 16.9C6.24133 16.9429 6.31147 16.9729 6.38543 16.9882C6.45939 17.0036 6.53568 17.004 6.6098 16.9894C6.68392 16.9749 6.75438 16.9456 6.81702 16.9034C6.87966 16.8612 6.93322 16.8068 6.97455 16.7436C7.21601 16.411 7.34989 16.0124 7.35819 15.6014C7.36649 15.1905 7.24882 14.7868 7.02098 14.4447C6.79053 13.9781 6.68634 13.7658 6.97568 13.3445Z" fill="black"/>
</svg>
