<svg width="10" height="19" viewBox="0 0 10 19" fill="none" xmlns="http://www.w3.org/2000/svg">
<path d="M5.38447 9.23066V8.46143H4.99985H4.61523V9.23066H4.99985H5.38447Z" fill="black"/>
<path d="M8.46161 8.46143H7.69238V9.23066H8.46161V8.46143Z" fill="black"/>
<path d="M2.30781 8.46143H1.53857V9.23066H2.30781V8.46143Z" fill="black"/>
<path d="M0 5.15918V18.4615H10V5.15918L7.14844 2.30762H5.38462V3.14772C5.64124 3.23845 5.85752 3.41698 5.99524 3.65175C6.13296 3.88653 6.18326 4.16243 6.13723 4.4307C6.0912 4.69896 5.95182 4.94232 5.74371 5.11776C5.53561 5.2932 5.27219 5.38942 5 5.38942C4.72781 5.38942 4.46439 5.2932 4.25628 5.11776C4.04818 4.94232 3.9088 4.69896 3.86277 4.4307C3.81674 4.16243 3.86704 3.88653 4.00476 3.65175C4.14248 3.41698 4.35876 3.23845 4.61538 3.14772V2.30762H2.85156L0 5.15918ZM6.92308 8.07685C6.92306 8.02634 6.933 7.97632 6.95233 7.92965C6.97165 7.88298 6.99998 7.84057 7.0357 7.80485C7.07142 7.76914 7.11382 7.74081 7.16049 7.72148C7.20716 7.70216 7.25718 7.69222 7.30769 7.69223H8.84615C8.89667 7.69222 8.94669 7.70216 8.99336 7.72148C9.04003 7.74081 9.08243 7.76914 9.11815 7.80485C9.15387 7.84057 9.1822 7.88298 9.20152 7.92965C9.22084 7.97632 9.23078 8.02634 9.23077 8.07685V9.61531C9.23078 9.66582 9.22084 9.71584 9.20152 9.76251C9.1822 9.80918 9.15387 9.85159 9.11815 9.8873C9.08243 9.92302 9.04003 9.95135 8.99336 9.97068C8.94669 9.99 8.89667 9.99994 8.84615 9.99993H7.30769C7.25718 9.99994 7.20716 9.99 7.16049 9.97068C7.11382 9.95135 7.07142 9.92302 7.0357 9.8873C6.99998 9.85159 6.97165 9.80918 6.95233 9.76251C6.933 9.71584 6.92306 9.66582 6.92308 9.61531V8.07685ZM6.92308 11.1538C6.92306 11.1033 6.933 11.0532 6.95233 11.0066C6.97165 10.9599 6.99998 10.9175 7.0357 10.8818C7.07142 10.8461 7.11382 10.8177 7.16049 10.7984C7.20716 10.7791 7.25718 10.7691 7.30769 10.7692H8.84615C8.89667 10.7691 8.94669 10.7791 8.99336 10.7984C9.04003 10.8177 9.08243 10.8461 9.11815 10.8818C9.15387 10.9175 9.1822 10.9599 9.20152 11.0066C9.22084 11.0532 9.23078 11.1033 9.23077 11.1538V17.3076C9.23078 17.3581 9.22084 17.4081 9.20152 17.4548C9.1822 17.5015 9.15387 17.5439 9.11815 17.5796C9.08243 17.6153 9.04003 17.6437 8.99336 17.663C8.94669 17.6823 8.89667 17.6922 8.84615 17.6922H7.30769C7.25718 17.6922 7.20716 17.6823 7.16049 17.663C7.11382 17.6437 7.07142 17.6153 7.0357 17.5796C6.99998 17.5439 6.97165 17.5015 6.95233 17.4548C6.933 17.4081 6.92306 17.3581 6.92308 17.3076V11.1538ZM3.07692 17.3076C3.07694 17.3581 3.067 17.4081 3.04767 17.4548C3.02835 17.5015 3.00002 17.5439 2.9643 17.5796C2.92858 17.6153 2.88618 17.6437 2.83951 17.663C2.79284 17.6823 2.74282 17.6922 2.69231 17.6922H1.15385C1.10333 17.6922 1.05331 17.6823 1.00664 17.663C0.959975 17.6437 0.91757 17.6153 0.881852 17.5796C0.846135 17.5439 0.817806 17.5015 0.798481 17.4548C0.779157 17.4081 0.769218 17.3581 0.769231 17.3076V11.1538C0.769218 11.1033 0.779157 11.0532 0.798481 11.0066C0.817806 10.9599 0.846135 10.9175 0.881852 10.8818C0.91757 10.8461 0.959975 10.8177 1.00664 10.7984C1.05331 10.7791 1.10333 10.7691 1.15385 10.7692H2.69231C2.74282 10.7691 2.79284 10.7791 2.83951 10.7984C2.88618 10.8177 2.92858 10.8461 2.9643 10.8818C3.00002 10.9175 3.02835 10.9599 3.04767 11.0066C3.067 11.0532 3.07694 11.1033 3.07692 11.1538V17.3076ZM3.84615 8.07685C3.84614 8.02634 3.85608 7.97632 3.8754 7.92965C3.89473 7.88298 3.92306 7.84057 3.95878 7.80485C3.99449 7.76914 4.0369 7.74081 4.08357 7.72148C4.13024 7.70216 4.18026 7.69222 4.23077 7.69223H5.76923C5.81974 7.69222 5.86976 7.70216 5.91643 7.72148C5.9631 7.74081 6.00551 7.76914 6.04122 7.80485C6.07694 7.84057 6.10527 7.88298 6.1246 7.92965C6.14392 7.97632 6.15386 8.02634 6.15385 8.07685V9.61531C6.15386 9.66582 6.14392 9.71584 6.1246 9.76251C6.10527 9.80918 6.07694 9.85159 6.04122 9.8873C6.00551 9.92302 5.9631 9.95135 5.91643 9.97068C5.86976 9.99 5.81974 9.99994 5.76923 9.99993H4.23077C4.18026 9.99994 4.13024 9.99 4.08357 9.97068C4.0369 9.95135 3.99449 9.92302 3.95878 9.8873C3.92306 9.85159 3.89473 9.80918 3.8754 9.76251C3.85608 9.71584 3.84614 9.66582 3.84615 9.61531V8.07685ZM3.84615 11.1538C3.84614 11.1033 3.85608 11.0532 3.8754 11.0066C3.89473 10.9599 3.92306 10.9175 3.95878 10.8818C3.99449 10.8461 4.0369 10.8177 4.08357 10.7984C4.13024 10.7791 4.18026 10.7691 4.23077 10.7692H5.76923C5.81974 10.7691 5.86976 10.7791 5.91643 10.7984C5.9631 10.8177 6.00551 10.8461 6.04122 10.8818C6.07694 10.9175 6.10527 10.9599 6.1246 11.0066C6.14392 11.0532 6.15386 11.1033 6.15385 11.1538V17.3076C6.15386 17.3581 6.14392 17.4081 6.1246 17.4548C6.10527 17.5015 6.07694 17.5439 6.04122 17.5796C6.00551 17.6153 5.9631 17.6437 5.91643 17.663C5.86976 17.6823 5.81974 17.6922 5.76923 17.6922H4.23077C4.18026 17.6922 4.13024 17.6823 4.08357 17.663C4.0369 17.6437 3.99449 17.6153 3.95878 17.5796C3.92306 17.5439 3.89473 17.5015 3.8754 17.4548C3.85608 17.4081 3.84614 17.3581 3.84615 17.3076V11.1538ZM3.07692 8.07685V9.61531C3.07694 9.66582 3.067 9.71584 3.04767 9.76251C3.02835 9.80918 3.00002 9.85159 2.9643 9.8873C2.92858 9.92302 2.88618 9.95135 2.83951 9.97068C2.79284 9.99 2.74282 9.99994 2.69231 9.99993H1.15385C1.10333 9.99994 1.05331 9.99 1.00664 9.97068C0.959975 9.95135 0.91757 9.92302 0.881852 9.8873C0.846135 9.85159 0.817806 9.80918 0.798481 9.76251C0.779157 9.71584 0.769218 9.66582 0.769231 9.61531V8.07685C0.769218 8.02634 0.779157 7.97632 0.798481 7.92965C0.817806 7.88298 0.846135 7.84057 0.881852 7.80485C0.91757 7.76914 0.959975 7.74081 1.00664 7.72148C1.05331 7.70216 1.10333 7.69222 1.15385 7.69223H2.69231C2.74282 7.69222 2.79284 7.70216 2.83951 7.72148C2.88618 7.74081 2.92858 7.76914 2.9643 7.80485C3.00002 7.84057 3.02835 7.88298 3.04767 7.92965C3.067 7.97632 3.07694 8.02634 3.07692 8.07685V8.07685Z" fill="black"/>
<path d="M8.46161 11.5386H7.69238V16.9232H8.46161V11.5386Z" fill="black"/>
<path d="M5.38447 16.9232V11.5386H4.99985H4.61523V16.9232H4.99985H5.38447Z" fill="black"/>
<path d="M4.99985 4.61542C5.21227 4.61542 5.38447 4.44322 5.38447 4.23081C5.38447 4.01839 5.21227 3.84619 4.99985 3.84619C4.78743 3.84619 4.61523 4.01839 4.61523 4.23081C4.61523 4.44322 4.78743 4.61542 4.99985 4.61542Z" fill="black"/>
<path d="M2.30781 11.5386H1.53857V16.9232H2.30781V11.5386Z" fill="black"/>
<path d="M5.38447 0.384615C5.38447 0.282609 5.34394 0.184781 5.27181 0.112651C5.19968 0.0405219 5.10186 0 4.99985 0C4.89784 0 4.80001 0.0405219 4.72789 0.112651C4.65576 0.184781 4.61523 0.282609 4.61523 0.384615V1.53846H5.38447V0.384615Z" fill="black"/>
</svg>
