<svg width="21" height="21" viewBox="0 0 21 21" fill="none" xmlns="http://www.w3.org/2000/svg">
<path d="M18.9008 0.3966C17.7781 0.145168 16.6313 0.0177383 15.4808 0.0165999C14.3943 -0.0523862 13.3048 0.0940982 12.2751 0.447629C11.2454 0.80116 10.2958 1.35476 9.48079 2.0766C8.40746 3.14993 7.34413 4.21993 6.29079 5.2866C5.08079 5.1566 2.21079 5.0866 0.290793 7.0266C0.104542 7.21396 0 7.46741 0 7.7316C0 7.99579 0.104542 8.24924 0.290793 8.4366L11.5908 19.7566C11.7782 19.9429 12.0316 20.0474 12.2958 20.0474C12.56 20.0474 12.8134 19.9429 13.0008 19.7566C14.9508 17.7566 14.8908 14.9366 14.7708 13.7566L17.9808 10.5566C21.1708 7.3666 19.7208 1.3766 19.6608 1.1266C19.6146 0.946235 19.519 0.782339 19.3848 0.653367C19.2505 0.524395 19.0829 0.435469 18.9008 0.3966V0.3966ZM16.5408 9.1466L12.9808 12.6866C12.8655 12.803 12.7806 12.946 12.7335 13.1029C12.6864 13.2598 12.6786 13.4259 12.7108 13.5866C12.9268 14.9244 12.7388 16.2962 12.1708 17.5266L2.50079 7.8366C3.75064 7.26137 5.1478 7.08672 6.50079 7.3366C6.66087 7.35744 6.82361 7.33922 6.97511 7.2835C7.12661 7.22777 7.26237 7.1362 7.37079 7.0166C7.37079 7.0166 8.77079 5.5666 10.8808 3.4566C12.1782 2.41472 13.8209 1.90049 15.4808 2.0166C16.2616 2.02047 17.0408 2.08735 17.8108 2.2166C18.0508 3.6466 18.4308 7.2566 16.5408 9.1466V9.1466Z" fill="black"/>
<path d="M13.7109 8.31665C14.8155 8.31665 15.7109 7.42122 15.7109 6.31665C15.7109 5.21208 14.8155 4.31665 13.7109 4.31665C12.6064 4.31665 11.7109 5.21208 11.7109 6.31665C11.7109 7.42122 12.6064 8.31665 13.7109 8.31665Z" fill="black"/>
<path d="M2.98096 14.0166C0.980957 15.0166 0.980957 19.0166 0.980957 19.0166C2.83203 18.9638 4.60411 18.255 5.98096 17.0166L2.98096 14.0166Z" fill="black"/>
</svg>
