<svg width="16" height="14" viewBox="0 0 16 14" fill="none" xmlns="http://www.w3.org/2000/svg">
<path d="M7.14291 10.7143C7.14291 10.9416 7.23321 11.1596 7.39394 11.3204C7.55468 11.4811 7.77268 11.5714 8 11.5714C8.22732 11.5714 8.44532 11.4811 8.60606 11.3204C8.76679 11.1596 8.85709 10.9416 8.85709 10.7143C8.85709 10.487 8.76679 10.2689 8.60606 10.1082C8.44532 9.94745 8.22732 9.85714 8 9.85714C7.77268 9.85714 7.55468 9.94745 7.39394 10.1082C7.23321 10.2689 7.14291 10.487 7.14291 10.7143V10.7143ZM7.4286 5.28571V8.57143C7.4286 8.65 7.49289 8.71429 7.57145 8.71429H8.42855C8.50711 8.71429 8.5714 8.65 8.5714 8.57143V5.28571C8.5714 5.20714 8.50711 5.14286 8.42855 5.14286H7.57145C7.49289 5.14286 7.4286 5.20714 7.4286 5.28571ZM15.9228 13.1429L8.49462 0.285714C8.38391 0.0946429 8.19285 0 8 0C7.80715 0 7.61431 0.0946429 7.50539 0.285714L0.0772339 13.1429C-0.142397 13.525 0.132588 14 0.571849 14H15.4282C15.8674 14 16.1424 13.525 15.9228 13.1429ZM1.93249 12.6446L8 2.14107L14.0675 12.6446H1.93249V12.6446Z" fill="black"/>
</svg>
