<svg width="25" height="25" viewBox="0 0 25 25" fill="none" xmlns="http://www.w3.org/2000/svg">
<path d="M12.5 0C5.6 0 0 5.6 0 12.5C0 19.4 5.6 25 12.5 25C19.4 25 25 19.4 25 12.5C25 5.6 19.4 0 12.5 0ZM21.825 8.9L18.35 10.3375C18.0369 9.49515 17.5452 8.73054 16.9087 8.09618C16.2722 7.46182 15.5059 6.97273 14.6625 6.6625L16.1 3.1875C18.725 4.1875 20.8125 6.275 21.825 8.9V8.9ZM12.5 16.25C10.425 16.25 8.75 14.575 8.75 12.5C8.75 10.425 10.425 8.75 12.5 8.75C14.575 8.75 16.25 10.425 16.25 12.5C16.25 14.575 14.575 16.25 12.5 16.25ZM8.9125 3.175L10.375 6.65C9.52164 6.96099 8.74632 7.45423 8.10301 8.09538C7.45969 8.73653 6.96385 9.51019 6.65 10.3625L3.175 8.9125C3.67623 7.60769 4.44597 6.42272 5.43434 5.43434C6.42272 4.44597 7.60769 3.67623 8.9125 3.175V3.175ZM3.175 16.0875L6.65 14.65C6.96167 15.5001 7.45546 16.2717 8.09676 16.9109C8.73806 17.55 9.51137 18.0412 10.3625 18.35L8.9 21.825C7.59797 21.3215 6.41586 20.5508 5.42982 19.5626C4.44378 18.5744 3.67567 17.3906 3.175 16.0875V16.0875ZM16.1 21.825L14.6625 18.35C15.5098 18.0361 16.2786 17.5413 16.9155 16.9002C17.5523 16.2591 18.0418 15.4869 18.35 14.6375L21.825 16.1C21.3221 17.4004 20.5531 18.5814 19.5672 19.5672C18.5814 20.5531 17.4004 21.3221 16.1 21.825V21.825Z" fill="white"/>
</svg>
