<svg width="26" height="25" viewBox="0 0 26 25" fill="none" xmlns="http://www.w3.org/2000/svg">
<path d="M11.375 15.6C12.1508 15.6 12.8947 15.9082 13.4433 16.4567C13.9918 17.0053 14.3 17.7492 14.3 18.525V20.4776L14.2896 20.618C13.8866 23.3831 11.4036 24.7117 7.2371 24.7117C3.0862 24.7117 0.5629 23.3987 0.0181999 20.6661L0 20.475V18.525C0 17.7492 0.308169 17.0053 0.856713 16.4567C1.40526 15.9082 2.14924 15.6 2.925 15.6H11.375ZM7.15 5.2C7.74751 5.2 8.33918 5.31769 8.89121 5.54635C9.44324 5.77501 9.94483 6.11016 10.3673 6.53267C10.7898 6.95517 11.125 7.45676 11.3537 8.00879C11.5823 8.56083 11.7 9.15249 11.7 9.75C11.7 10.3475 11.5823 10.9392 11.3537 11.4912C11.125 12.0432 10.7898 12.5448 10.3673 12.9673C9.94483 13.3898 9.44324 13.725 8.89121 13.9537C8.33918 14.1823 7.74751 14.3 7.15 14.3C5.94326 14.3 4.78595 13.8206 3.93266 12.9673C3.07937 12.114 2.6 10.9567 2.6 9.75C2.6 8.54327 3.07937 7.38596 3.93266 6.53267C4.78595 5.67938 5.94326 5.2 7.15 5.2V5.2ZM23.075 0C23.8508 0 24.5947 0.308169 25.1433 0.856713C25.6918 1.40526 26 2.14924 26 2.925V7.475C26 7.85912 25.9243 8.23947 25.7773 8.59435C25.6304 8.94923 25.4149 9.27168 25.1433 9.54329C24.8717 9.8149 24.5492 10.0304 24.1943 10.1774C23.8395 10.3243 23.4591 10.4 23.075 10.4H21.0561L17.7528 13.2691C17.5646 13.4327 17.3332 13.5387 17.0864 13.5745C16.8396 13.6102 16.5876 13.5742 16.3607 13.4708C16.1338 13.3673 15.9414 13.2008 15.8065 12.991C15.6716 12.7812 15.5999 12.537 15.6 12.2876V10.3818C14.885 10.3019 14.2245 9.9612 13.7449 9.42495C13.2652 8.88869 13 8.19447 13 7.475V2.925C13 2.14924 13.3082 1.40526 13.8567 0.856713C14.4053 0.308169 15.1492 0 15.925 0H23.075Z" fill="white"/>
</svg>
