<svg width="26" height="24" viewBox="0 0 26 24" fill="none" xmlns="http://www.w3.org/2000/svg">
<path d="M25.7041 9.34227C25.6753 9.21695 25.619 9.09907 25.5389 8.9966C25.4588 8.89414 25.3569 8.80948 25.24 8.74834L22.4788 7.26913C22.3308 6.97922 22.1641 6.69852 21.9799 6.42867L22.0379 3.38059C22.039 3.25274 22.0127 3.12605 21.9608 3.00844C21.9089 2.89082 21.8325 2.78481 21.7363 2.69701C20.3614 1.49298 18.7354 0.587379 16.9679 0.0411488C16.8409 0.00291868 16.707 -0.00885833 16.575 0.00659565C16.443 0.0220496 16.3159 0.0643829 16.2021 0.130798L13.4989 1.69966C13.1624 1.68846 12.8376 1.68846 12.5011 1.69966L9.79786 0.130798C9.68406 0.0643829 9.55696 0.0220496 9.42496 0.00659565C9.29296 -0.00885833 9.15907 0.00291868 9.03214 0.0411488C7.26222 0.587795 5.63559 1.4976 4.26374 2.70822C4.16668 2.79299 4.08954 2.89686 4.03751 3.01284C3.98548 3.12882 3.95976 3.25421 3.96209 3.38059L4.0201 6.42867C3.83447 6.69761 3.67204 6.97777 3.50961 7.26913L0.748353 8.74834C0.633171 8.81011 0.533129 8.89514 0.455046 8.99764C0.376963 9.10013 0.322673 9.21768 0.295877 9.34227C-0.0986258 11.0923 -0.0986258 12.9039 0.295877 14.654C0.324696 14.7793 0.381043 14.8972 0.461107 14.9997C0.541172 15.1021 0.643085 15.1868 0.759955 15.2479L3.52122 16.7271C3.66924 17.017 3.83586 17.2977 4.0201 17.5676L3.96209 20.6157C3.96103 20.7435 3.98727 20.8702 4.03917 20.9878C4.09107 21.1054 4.16752 21.2115 4.26374 21.2993C5.63861 22.5033 7.26455 23.4089 9.03214 23.9551C9.15907 23.9933 9.29296 24.0051 9.42496 23.9897C9.55696 23.9742 9.68406 23.9319 9.79786 23.8655L12.5011 22.2966H13.4989L16.2137 23.8655C16.3549 23.9551 16.5205 24.0019 16.6894 23.9999C16.7838 23.996 16.8773 23.9809 16.9679 23.9551C18.7378 23.4085 20.3644 22.4987 21.7363 21.288C21.8333 21.2033 21.9105 21.0994 21.9625 20.9834C22.0145 20.8674 22.0402 20.7421 22.0379 20.6157L21.9799 17.5676C22.1655 17.2986 22.328 17.0185 22.4904 16.7271L25.2516 15.2479C25.3668 15.1861 25.4669 15.1011 25.545 14.9986C25.623 14.8961 25.6773 14.7786 25.7041 14.654C26.0986 12.9039 26.0986 11.0923 25.7041 9.34227V9.34227ZM13 16.9288C11.9904 16.9288 11.0034 16.6397 10.1639 16.0979C9.32441 15.5561 8.67011 14.786 8.28373 13.885C7.89736 12.9841 7.79626 11.9927 7.99324 11.0362C8.19021 10.0797 8.6764 9.20116 9.39032 8.51159C10.1043 7.82202 11.0138 7.35241 12.0041 7.16216C12.9943 6.97191 14.0208 7.06955 14.9535 7.44275C15.8863 7.81594 16.6836 8.44792 17.2445 9.25877C17.8055 10.0696 18.1049 11.0229 18.1049 11.9981C18.1049 13.3058 17.567 14.56 16.6097 15.4847C15.6523 16.4094 14.3539 16.9288 13 16.9288Z" fill="white"/>
</svg>
