<svg width="100" height="100" viewBox="0 0 100 100" fill="none" xmlns="http://www.w3.org/2000/svg">
<mask id="mask0_508_277" style="mask-type:alpha" maskUnits="userSpaceOnUse" x="0" y="0" width="100" height="100">
<rect width="100" height="100" fill="#C4C4C4"/>
</mask>
<g mask="url(#mask0_508_277)">
<path opacity="0.6" fill-rule="evenodd" clip-rule="evenodd" d="M51.0895 29.0181C55.4388 30.4087 59.0139 22.7745 63.5155 23.5538C67.6459 24.2688 68.1615 30.9266 71.9842 32.6352C77.834 35.2498 89.2872 29.5694 90.8084 35.7526C92.578 42.9452 81.6253 47.1858 76.9921 52.9903C74.8733 55.6447 70.9217 57.533 70.7251 60.9131C70.4539 65.5744 80.376 72.8679 75.7777 73.865C68.6469 75.4111 62.7482 60.2975 56.477 64.0025C50.3226 67.6385 59.6836 78.6774 56.6987 85.1368C54.893 89.0443 47.0176 93.2223 44.6328 89.6333C40.2925 83.1011 48.8387 72.7124 44.2265 66.3661C41.4552 62.5529 35.5203 70.3713 30.786 70.5803C22.4776 70.9472 3.97712 76.0008 6.18089 68.046C9.07617 57.5951 28.7123 62.5007 35.399 53.929C38.4224 50.0534 21.6002 45.45 25.8094 42.8845C31.4176 39.4663 42.5721 54.5266 44.6065 48.317C48.2862 37.0855 31.3536 25.6781 35.1173 14.474C37.4217 7.61425 44.1517 26.7999 51.0895 29.0181Z" fill="url(#paint0_radial_508_277)"/>
<g opacity="0.6">
<path fill-rule="evenodd" clip-rule="evenodd" d="M42.2934 17.9625C45.9861 14.1272 51.3831 22.9301 56.3735 23.8546C62.6335 25.0144 71.8486 18.127 75.2507 24.0682C79.3225 31.1789 66.776 41.2427 70.5253 48.5682C74.5796 56.4894 98.9512 52.5475 93.097 58.9363C83.3365 69.5883 60.7452 54.961 53.1135 67.5702C47.6028 76.6752 75.9596 79.9056 73.9124 90.6335C72.1606 99.8139 59.3044 79.3123 50.8432 79.4681C47.06 79.5378 50.4742 92.303 46.8409 91.132C41.9706 89.5623 44.8331 78.5562 40.2858 76.0654C37.1291 74.3364 35.2878 82.2094 31.8237 82.9065C29.0845 83.4576 25.9265 81.7293 24.2084 79.3004C22.4982 76.8825 23.3359 73.3108 22.8912 70.2778C22.485 67.5074 23.1503 64.321 21.6776 62.0381C17.278 55.2183 5.41479 52.4875 6.02251 44.1295C6.49336 37.6538 17.3562 40.7117 23.2112 40.9455C27.6145 41.1213 32.7264 48.9093 35.7107 45.3148C41.5242 38.3129 36.0289 24.4687 42.2934 17.9625Z" fill="url(#paint1_radial_508_277)"/>
<path fill-rule="evenodd" clip-rule="evenodd" d="M42.2934 17.9625C45.9861 14.1272 51.3831 22.9301 56.3735 23.8546C62.6335 25.0144 71.8486 18.127 75.2507 24.0682C79.3225 31.1789 66.776 41.2427 70.5253 48.5682C74.5796 56.4894 98.9512 52.5475 93.097 58.9363C83.3365 69.5883 60.7452 54.961 53.1135 67.5702C47.6028 76.6752 75.9596 79.9056 73.9124 90.6335C72.1606 99.8139 59.3044 79.3123 50.8432 79.4681C47.06 79.5378 50.4742 92.303 46.8409 91.132C41.9706 89.5623 44.8331 78.5562 40.2858 76.0654C37.1291 74.3364 35.2878 82.2094 31.8237 82.9065C29.0845 83.4576 25.9265 81.7293 24.2084 79.3004C22.4982 76.8825 23.3359 73.3108 22.8912 70.2778C22.485 67.5074 23.1503 64.321 21.6776 62.0381C17.278 55.2183 5.41479 52.4875 6.02251 44.1295C6.49336 37.6538 17.3562 40.7117 23.2112 40.9455C27.6145 41.1213 32.7264 48.9093 35.7107 45.3148C41.5242 38.3129 36.0289 24.4687 42.2934 17.9625Z" fill="#008263" style="mix-blend-mode:color"/>
</g>
</g>
<defs>
<radialGradient id="paint0_radial_508_277" cx="0" cy="0" r="1" gradientUnits="userSpaceOnUse" gradientTransform="translate(48.5 52) rotate(90) scale(39 42.5)">
<stop offset="0.119792" stop-color="#8C5E3D"/>
<stop offset="0.572917" stop-color="#FF9040"/>
<stop offset="0.953125" stop-color="#FFE040"/>
</radialGradient>
<radialGradient id="paint1_radial_508_277" cx="0" cy="0" r="1" gradientUnits="userSpaceOnUse" gradientTransform="translate(50 55) rotate(90) scale(38 44)">
<stop offset="0.119792" stop-color="#8C5E3D"/>
<stop offset="0.572917" stop-color="#FF9040"/>
<stop offset="0.953125" stop-color="#FFE040"/>
</radialGradient>
</defs>
</svg>
