<svg width="100" height="100" viewBox="0 0 100 100" fill="none" xmlns="http://www.w3.org/2000/svg">
<mask id="mask0_508_219" style="mask-type:alpha" maskUnits="userSpaceOnUse" x="0" y="0" width="100" height="100">
<rect width="100" height="100" fill="#C4C4C4"/>
</mask>
<g mask="url(#mask0_508_219)">
<g opacity="0.6">
<path fill-rule="evenodd" clip-rule="evenodd" d="M19.6361 52.7175C16.9829 45.7828 18.3221 37.1623 22.754 31.21C27.1178 25.3489 35.3211 24.7885 42.2164 22.3902C48.9121 20.0613 55.4403 15.8985 62.3609 17.434C69.4242 19.0011 76.0265 23.9439 78.9997 30.551C81.7696 36.7064 76.655 43.4832 77.1141 50.2191C77.5933 57.249 84.1963 63.7293 81.7104 70.3203C79.1658 77.067 71.9568 82.2123 64.7895 82.8964C57.9098 83.553 52.6829 77.2705 46.7896 73.6534C42.7007 71.1438 39.4977 67.9707 35.6977 65.0408C30.2195 60.817 22.1101 59.1838 19.6361 52.7175Z" fill="url(#paint0_radial_508_219)"/>
<path fill-rule="evenodd" clip-rule="evenodd" d="M19.6361 52.7175C16.9829 45.7828 18.3221 37.1623 22.754 31.21C27.1178 25.3489 35.3211 24.7885 42.2164 22.3902C48.9121 20.0613 55.4403 15.8985 62.3609 17.434C69.4242 19.0011 76.0265 23.9439 78.9997 30.551C81.7696 36.7064 76.655 43.4832 77.1141 50.2191C77.5933 57.249 84.1963 63.7293 81.7104 70.3203C79.1658 77.067 71.9568 82.2123 64.7895 82.8964C57.9098 83.553 52.6829 77.2705 46.7896 73.6534C42.7007 71.1438 39.4977 67.9707 35.6977 65.0408C30.2195 60.817 22.1101 59.1838 19.6361 52.7175Z" fill="#3100BE" style="mix-blend-mode:color"/>
</g>
<g opacity="0.6">
<path fill-rule="evenodd" clip-rule="evenodd" d="M34.9641 51.6777C29.5244 43.3651 14.2945 45.316 9.37885 36.6879C6.69253 31.9728 13.6543 22.8325 19.0394 23.7265C30.4617 25.6227 37.01 47.9526 47.4705 43.0115C57.3299 38.3542 35.9634 14.0705 46.3772 10.8131C56.4226 7.67091 44.0749 38.4285 54.3119 40.8715C64.5225 43.3081 64.7217 15.6106 75.0209 17.6486C84.13 19.4511 67.0206 34.0753 63.9662 42.7818C63.3759 44.4646 62.7477 47.2635 64.3498 48.0667C72.8334 52.3201 85.5048 49.0353 91.3187 56.4955C94.6443 60.7628 82.2821 62.2623 77.8287 65.3625C74.8689 67.4229 72.8223 72.549 69.2801 71.8374C63.3675 70.6496 60.0435 57.251 55.1936 60.8151C48.2293 65.9329 55.2867 78.9644 50.1537 85.8926C47.2406 89.8245 36.7636 92.0071 35.5938 87.2697C33.2409 77.7411 47.0424 68.3473 43.5546 59.1682C41.4497 53.6284 30.5426 66.0885 26.0609 62.1806C22.5702 59.1369 37.4947 55.5449 34.9641 51.6777Z" fill="url(#paint1_radial_508_219)"/>
<path fill-rule="evenodd" clip-rule="evenodd" d="M34.9641 51.6777C29.5244 43.3651 14.2945 45.316 9.37885 36.6879C6.69253 31.9728 13.6543 22.8325 19.0394 23.7265C30.4617 25.6227 37.01 47.9526 47.4705 43.0115C57.3299 38.3542 35.9634 14.0705 46.3772 10.8131C56.4226 7.67091 44.0749 38.4285 54.3119 40.8715C64.5225 43.3081 64.7217 15.6106 75.0209 17.6486C84.13 19.4511 67.0206 34.0753 63.9662 42.7818C63.3759 44.4646 62.7477 47.2635 64.3498 48.0667C72.8334 52.3201 85.5048 49.0353 91.3187 56.4955C94.6443 60.7628 82.2821 62.2623 77.8287 65.3625C74.8689 67.4229 72.8223 72.549 69.2801 71.8374C63.3675 70.6496 60.0435 57.251 55.1936 60.8151C48.2293 65.9329 55.2867 78.9644 50.1537 85.8926C47.2406 89.8245 36.7636 92.0071 35.5938 87.2697C33.2409 77.7411 47.0424 68.3473 43.5546 59.1682C41.4497 53.6284 30.5426 66.0885 26.0609 62.1806C22.5702 59.1369 37.4947 55.5449 34.9641 51.6777Z" fill="#D63FD9"/>
</g>
</g>
<defs>
<radialGradient id="paint0_radial_508_219" cx="0" cy="0" r="1" gradientUnits="userSpaceOnUse" gradientTransform="translate(50.0221 50.5212) rotate(-2.48886) scale(31.5 33)">
<stop offset="0.119792" stop-color="#8C5E3D"/>
<stop offset="0.572917" stop-color="#FF9040"/>
<stop offset="0.953125" stop-color="#8C7600"/>
</radialGradient>
<radialGradient id="paint1_radial_508_219" cx="0" cy="0" r="1" gradientUnits="userSpaceOnUse" gradientTransform="translate(50.4999 50) rotate(-2.48886) scale(41 39.5)">
<stop offset="0.119792" stop-color="#8C5E3D"/>
<stop offset="0.572917" stop-color="#FF9040"/>
<stop offset="0.953125" stop-color="#FFE040"/>
</radialGradient>
</defs>
</svg>
