<svg width="100" height="100" viewBox="0 0 100 100" fill="none" xmlns="http://www.w3.org/2000/svg">
<mask id="mask0_508_167" style="mask-type:alpha" maskUnits="userSpaceOnUse" x="0" y="0" width="100" height="100">
<rect width="100" height="100" fill="#C4C4C4"/>
</mask>
<g mask="url(#mask0_508_167)">
<mask id="mask1_508_167" style="mask-type:alpha" maskUnits="userSpaceOnUse" x="3" y="3" width="94" height="94">
<rect x="3" y="3" width="94" height="94" fill="#C4C4C4"/>
</mask>
<g mask="url(#mask1_508_167)">
<path d="M60.7436 31.657C68.4546 31.0228 82.704 37.4929 88.7919 50.0402C88.7919 50.0402 76.4167 33.4732 51.1393 39.2846C51.1393 39.2846 53.0326 32.2911 60.7436 31.657Z" fill="#FF9F49" stroke="#FF9F49" stroke-width="6.81801" stroke-linecap="round" stroke-linejoin="round"/>
<path fill-rule="evenodd" clip-rule="evenodd" d="M82.5539 40.7042C82.8749 40.095 82.5704 39.3438 81.8737 39.0262C81.3829 38.8024 80.9012 38.581 80.4283 38.3623C79.7336 38.0409 78.9066 38.2725 78.5813 38.8797C78.2559 39.4868 78.5553 40.2395 79.2501 40.5609C79.7276 40.7818 80.2145 41.0056 80.711 41.2319C81.4077 41.5496 82.2328 41.3133 82.5539 40.7042ZM69.5165 34.6238C69.8154 34.0049 69.4849 33.2615 68.7784 32.9633C64.8904 31.3224 61.5045 30.3081 58.5309 31.0578C57.8026 31.2414 57.4075 31.9268 57.6484 32.5888C57.8893 33.2507 58.675 33.6385 59.4033 33.4549C61.2912 32.9789 63.7824 33.5526 67.6961 35.2044C68.4026 35.5026 69.2177 35.2427 69.5165 34.6238ZM55.0996 34.8385C54.437 34.4637 53.5864 34.6266 53.1998 35.2023C52.9255 35.6106 52.6576 36.0483 52.3945 36.5157C52.0561 37.1167 52.34 37.8736 53.0285 38.2063C53.717 38.539 54.5494 38.3215 54.8877 37.7205C55.1252 37.2987 55.3621 36.9125 55.5992 36.5595C55.9858 35.9838 55.7622 35.2132 55.0996 34.8385Z" fill="#DE650E"/>
<path d="M35.5509 34.0022C37.3306 26.4727 47.8873 14.9201 61.7018 13.0074C61.7018 13.0074 42.1215 19.6575 39.8373 45.4935C39.8373 45.4935 33.7712 41.5318 35.5509 34.0022Z" fill="#FF9F49" stroke="#FF9F49" stroke-width="6.81801" stroke-linecap="round" stroke-linejoin="round"/>
<path fill-rule="evenodd" clip-rule="evenodd" d="M50.8951 16.0548C50.415 15.5612 49.6064 15.6187 49.0891 16.1832C48.7246 16.5808 48.3652 16.9705 48.011 17.3526C47.4907 17.9141 47.4555 18.7721 47.9323 19.2692C48.4092 19.7662 49.2176 19.714 49.7379 19.1526C50.0956 18.7667 50.4589 18.3728 50.8276 17.9706C51.345 17.4061 51.3752 16.5484 50.8951 16.0548ZM41.0836 26.5751C40.5874 26.0996 39.7782 26.1842 39.2763 26.764C36.5142 29.9546 34.5033 32.8614 34.2974 35.9211C34.2469 36.6705 34.7767 37.2581 35.4807 37.2336C36.1847 37.209 36.7963 36.5816 36.8467 35.8321C36.9775 33.8896 38.2929 31.6976 41.0733 28.4859C41.5752 27.9061 41.5798 27.0506 41.0836 26.5751ZM36.8327 40.3528C36.2715 40.8671 36.1636 41.7264 36.5916 42.272C36.8952 42.659 37.2287 43.0491 37.5919 43.4438C38.0589 43.9513 38.8665 43.9152 39.3957 43.3632C39.9249 42.8112 39.9752 41.9523 39.5082 41.4448C39.1805 41.0887 38.8863 40.744 38.6238 40.4094C38.1958 39.8638 37.3939 39.8384 36.8327 40.3528Z" fill="#DE650E"/>
<path d="M30.0355 58.5887C23.4244 54.5693 15.6995 40.9593 18.1493 27.2299C18.1493 27.2299 18.4233 47.9069 42.289 58.063C42.289 58.063 36.6466 62.608 30.0355 58.5887Z" fill="#FF9F49" stroke="#FF9F49" stroke-width="6.81801" stroke-linecap="round" stroke-linejoin="round"/>
<path fill-rule="evenodd" clip-rule="evenodd" d="M17.7082 38.4493C17.0904 38.7534 16.8952 39.5402 17.2721 40.2067C17.5377 40.6762 17.7972 41.1384 18.0512 41.5934C18.4244 42.2617 19.2296 42.5604 19.8496 42.2604C20.4697 41.9605 20.6699 41.1755 20.2968 40.5072C20.0403 40.0477 19.7779 39.5805 19.5093 39.1056C19.1323 38.4391 18.3259 38.1453 17.7082 38.4493ZM24.6817 51.0316C24.0761 51.3566 23.9065 52.1523 24.3028 52.8088C26.4838 56.4217 28.6268 59.2325 31.4731 60.3738C32.1703 60.6533 32.8929 60.331 33.087 59.6539C33.2812 58.9768 32.8735 58.2012 32.1763 57.9217C30.3692 57.1971 28.6911 55.2687 26.4957 51.6319C26.0994 50.9754 25.2872 50.7066 24.6817 51.0316ZM36.4714 59.332C36.7871 60.0247 37.571 60.3929 38.2222 60.1544C38.6841 59.9852 39.1581 59.7886 39.6457 59.5652C40.2727 59.2778 40.4879 58.4986 40.1265 57.8247C39.765 57.1509 38.9638 56.8376 38.3368 57.1249C37.8968 57.3266 37.4781 57.4998 37.0788 57.646C36.4276 57.8845 36.1556 58.6394 36.4714 59.332Z" fill="#DE650E"/>
<path d="M51.6262 71.5538C45.7606 76.5993 30.4296 79.7404 18.1291 73.1679C18.1291 73.1679 37.8788 79.2969 54.9128 59.7376C54.9128 59.7376 57.4917 66.5083 51.6262 71.5538Z" fill="#FF9F49" stroke="#FF9F49" stroke-width="6.81801" stroke-linecap="round" stroke-linejoin="round"/>
<path fill-rule="evenodd" clip-rule="evenodd" d="M28.6628 77.0545C28.7611 77.736 29.4491 78.1647 30.1994 78.0122C30.728 77.9047 31.2478 77.8007 31.759 77.6997C32.5099 77.5514 33.0428 76.8779 32.9492 76.1955C32.8555 75.513 32.1708 75.0801 31.4199 75.2284C30.9037 75.3304 30.3782 75.4356 29.8435 75.5443C29.0932 75.6968 28.5646 76.373 28.6628 77.0545ZM42.7842 74.3104C42.9062 74.9867 43.6105 75.3939 44.3574 75.2199C48.4673 74.2621 51.8028 73.0925 53.7678 70.7382C54.2491 70.1616 54.1659 69.3748 53.5819 68.9808C52.9979 68.5869 52.1344 68.735 51.6531 69.3117C50.4055 70.8064 48.0529 71.8066 43.9157 72.7707C43.1688 72.9447 42.6623 73.6341 42.7842 74.3104ZM54.3216 65.6627C55.0779 65.5764 55.6703 64.9447 55.6447 64.2517C55.6266 63.7601 55.5861 63.2485 55.5242 62.7158C55.4447 62.0307 54.7702 61.5852 54.0176 61.7207C53.265 61.8562 52.7194 62.5214 52.799 63.2065C52.8548 63.6873 52.8901 64.1391 52.9058 64.564C52.9314 65.257 53.5653 65.7489 54.3216 65.6627Z" fill="#DE650E"/>
<path d="M70.5897 54.964C73.5757 62.1016 71.8256 77.653 61.7736 87.3203C61.7736 87.3203 73.7057 70.4312 60.3675 48.1868C60.3675 48.1868 67.6038 47.8263 70.5897 54.964Z" fill="#FF9F49" stroke="#FF9F49" stroke-width="6.81801" stroke-linecap="round" stroke-linejoin="round"/>
<path fill-rule="evenodd" clip-rule="evenodd" d="M68.7249 78.5029C69.4034 78.62 70.0238 78.0982 70.1106 77.3375C70.1717 76.8016 70.2334 76.275 70.2954 75.7577C70.3863 74.9976 69.9105 74.2827 69.2325 74.1609C68.5545 74.0391 67.9312 74.5565 67.8402 75.3165C67.7777 75.839 67.7153 76.3712 67.6535 76.9133C67.5667 77.6741 68.0464 78.3857 68.7249 78.5029ZM70.4789 64.2247C71.1598 64.3177 71.7647 63.7737 71.83 63.0096C72.1892 58.8048 72.1076 55.2712 70.4757 52.6748C70.076 52.0389 69.302 51.8749 68.7469 52.3085C68.1917 52.7422 68.0658 53.6093 68.4655 54.2452C69.5015 55.8936 69.7257 58.4402 69.3642 62.6728C69.2989 63.4369 69.798 64.1317 70.4789 64.2247ZM65.8197 50.5797C65.9714 49.8337 65.5536 49.0751 64.8866 48.8853C64.4135 48.7507 63.9144 48.6311 63.3886 48.5253C62.7125 48.3892 62.0804 48.8931 61.9767 49.6507C61.873 50.4083 62.3371 51.1328 63.0132 51.2688C63.4877 51.3643 63.9283 51.4703 64.3373 51.5867C65.0043 51.7765 65.668 51.3256 65.8197 50.5797Z" fill="#DE650E"/>
</g>
</g>
</svg>
