<svg width="30" height="30" viewBox="0 0 30 30" fill="none" xmlns="http://www.w3.org/2000/svg">
<mask id="mask0_603_202" style="mask-type:alpha" maskUnits="userSpaceOnUse" x="0" y="0" width="30" height="30">
<rect width="30" height="30" rx="5" fill="#FFDC60"/>
</mask>
<g mask="url(#mask0_603_202)">
<rect width="30" height="30" rx="8" fill="#60C6FF"/>
<g style="mix-blend-mode:screen" opacity="0.76">
<path fill-rule="evenodd" clip-rule="evenodd" d="M9.0318 7.82315C10.3317 6.54971 11.7869 5.26723 13.5711 5.06283C15.2781 4.86727 16.5855 6.3531 18.2347 6.76882C20.3754 7.30845 23.4295 5.9986 24.6182 7.8476C25.7861 9.6644 23.6461 11.9905 22.9373 14.0841C22.402 15.6654 21.8563 17.1401 20.9874 18.5728C19.8906 20.3814 19.1313 22.5907 17.2286 23.498C15.1644 24.4822 12.6423 24.4626 10.6168 23.5178C8.61423 22.5837 7.41208 20.5492 6.5404 18.5123C5.74158 16.6455 5.45578 14.566 5.92487 12.5534C6.36102 10.6822 7.64964 9.17718 9.0318 7.82315Z" fill="white"/>
</g>
<path d="M14.6331 17.6249C10.2803 17.631 6 15.3061 6 12.4451C6 9.58406 10.3027 7.25053 14.6331 7.26521C18.9635 7.27988 23.2662 9.58406 23.2662 12.4451C23.2662 15.3061 18.9859 17.6189 14.6331 17.6249ZM14.6331 15.8983C15.549 15.8983 16.4273 15.5345 17.0749 14.8869C17.7225 14.2393 18.0864 13.3609 18.0864 12.4451C18.0864 11.5292 17.7225 10.6509 17.0749 10.0033C16.4273 9.35565 15.549 8.99183 14.6331 8.99183C13.7173 8.99183 12.8389 9.35565 12.1913 10.0033C11.5437 10.6509 11.1799 11.5292 11.1799 12.4451C11.1799 13.3609 11.5437 14.2393 12.1913 14.8869C12.8389 15.5345 13.7173 15.8983 14.6331 15.8983V15.8983ZM14.6331 14.1717C14.1752 14.1717 13.736 13.9898 13.4122 13.666C13.0884 13.3422 12.9065 12.903 12.9065 12.4451C12.9065 11.9871 13.0884 11.548 13.4122 11.2242C13.736 10.9004 14.1752 10.7184 14.6331 10.7184C15.091 10.7184 15.5302 10.9004 15.854 11.2242C16.1778 11.548 16.3597 11.9871 16.3597 12.4451C16.3597 12.903 16.1778 13.3422 15.854 13.666C15.5302 13.9898 15.091 14.1717 14.6331 14.1717Z" fill="#4E1696"/>
<path fill-rule="evenodd" clip-rule="evenodd" d="M13.7695 19.4882C11.9532 19.4906 10.1467 19.1928 8.53076 18.6691C10.1775 19.9885 12.8008 20.8488 15.451 20.8452C19.8038 20.8391 24.0841 18.5263 24.0841 15.6653C24.0841 15.6023 24.082 15.5396 24.0779 15.4772C22.2711 17.8289 18.0472 19.4824 13.7695 19.4882Z" fill="#4E1696"/>
<path fill-rule="evenodd" clip-rule="evenodd" d="M14.6328 22.2147C12.8165 22.2171 11.01 21.9194 9.39404 21.3957C11.0408 22.715 13.6641 23.5754 16.3143 23.5717C20.6671 23.5657 24.9474 21.2529 24.9474 18.3919C24.9474 18.3289 24.9453 18.2662 24.9412 18.2037C23.1344 20.5555 18.9105 22.209 14.6328 22.2147Z" fill="#4E1696"/>
<rect x="3" y="3" width="24" height="24" rx="6" stroke="#4E1696" stroke-width="2"/>
</g>
</svg>
