<svg width="30" height="30" viewBox="0 0 30 30" fill="none" xmlns="http://www.w3.org/2000/svg">
<mask id="mask0_644_202" style="mask-type:alpha" maskUnits="userSpaceOnUse" x="0" y="0" width="30" height="30">
<rect width="30" height="30" rx="5" fill="#FFDC60"/>
</mask>
<g mask="url(#mask0_644_202)">
<rect width="30" height="30" rx="8" fill="#B9FF60"/>
<g style="mix-blend-mode:screen" opacity="0.8">
<path fill-rule="evenodd" clip-rule="evenodd" d="M15.8855 23.5806C13.9115 24.0385 11.7109 23.4523 10.1367 22.1245C8.5874 20.8178 8.20863 18.6126 7.62991 16.6176C7.0566 14.6412 5.78378 12.4028 6.80334 10.6335C7.84518 8.82555 10.6303 9.61105 12.3253 8.46943C13.8804 7.422 14.2543 4.68692 16.0796 4.38571C17.8914 4.08673 19.3789 5.84928 20.7931 7.07208C22.1355 8.23289 23.3761 9.52021 23.9916 11.2271C24.634 13.0083 25.0892 15.0766 24.2986 16.7925C23.5316 18.4572 21.4254 18.7025 20.0279 19.8301C18.5458 21.0259 17.7109 23.1572 15.8855 23.5806Z" fill="white"/>
</g>
<rect x="3" y="3" width="24" height="24" rx="6" stroke="#3D3E08" stroke-width="2"/>
<path d="M11.7215 24.0162C10.268 24.0162 8.81433 23.4041 7.70509 22.2949C5.60124 20.191 5.41002 16.9015 7.32254 15.027C8.58482 13.7648 11.951 12.0435 14.5904 12.0435C15.6614 12.0435 16.5412 12.3494 17.1149 12.9232C19.41 15.2183 16.7324 20.9943 15.0111 22.7156C14.1695 23.5572 12.9838 24.0162 11.7216 24.0162H11.7215ZM14.5903 13.5353C12.41 13.5353 9.38803 15.0653 8.39361 16.0981C7.09303 17.3987 7.24608 19.7319 8.77617 21.262C9.57944 22.0653 10.6505 22.5243 11.7215 22.5243C12.6012 22.5243 13.3663 22.2183 13.9401 21.6446C15.4319 20.1528 17.421 15.3331 16.0439 13.9561C15.776 13.6883 15.2788 13.5353 14.5903 13.5353Z" fill="#3D3E08" stroke="#3D3E08" stroke-width="0.5"/>
<path d="M16.5789 14.1854C16.3877 14.1854 16.1964 14.109 16.0434 13.9559C15.7375 13.6499 15.7375 13.1909 16.0434 12.8848L21.3605 7.60618C21.6664 7.30022 22.1254 7.30022 22.4315 7.60618C22.7375 7.91215 22.7375 8.37116 22.4315 8.67726L17.1145 13.9559C16.9615 14.109 16.7703 14.1854 16.5789 14.1854V14.1854Z" fill="#3D3E08" stroke="#3D3E08" stroke-width="0.5"/>
<path d="M23.2351 10.2458C23.0439 10.2458 22.8526 10.1694 22.6997 10.0163L19.9839 7.30055C19.6779 6.99458 19.6779 6.53557 19.9839 6.22947C20.2898 5.92351 20.7488 5.92351 21.0549 6.22947L23.7707 8.94526C24.0767 9.25122 24.0767 9.71024 23.7707 10.0163C23.6177 10.1693 23.4265 10.2458 23.2351 10.2458Z" fill="#3D3E08" stroke="#3D3E08" stroke-width="0.5"/>
<path d="M21.4758 12.0051C21.2846 12.0051 21.0933 11.9287 20.9404 11.7756L18.2246 9.05983C17.9186 8.75386 17.9186 8.29485 18.2246 7.98875C18.5306 7.68279 18.9896 7.68279 19.2957 7.98875L22.0114 10.7045C22.3174 11.0105 22.3174 11.4695 22.0114 11.7756C21.8583 11.9287 21.6671 12.0051 21.4758 12.0051Z" fill="#3D3E08" stroke="#3D3E08" stroke-width="0.5"/>
<path d="M11.1857 20.7264C10.6503 20.7264 10.1913 20.5352 9.84699 20.1909C9.42627 19.7702 9.23493 19.1964 9.34968 18.5461C9.42614 17.9723 9.69394 17.4368 10.153 16.9778C10.6884 16.4424 11.3388 16.1746 12.0273 16.1746C12.5628 16.1746 13.0218 16.3658 13.366 16.71C14.1693 17.5133 14.0546 18.9286 13.0982 19.9231C12.5246 20.4204 11.8361 20.7264 11.1857 20.7264V20.7264ZM11.989 17.6664C11.7212 17.6664 11.4152 17.8194 11.1857 18.0489C10.9945 18.2401 10.8415 18.5079 10.8032 18.7374C10.8032 18.8522 10.8032 19.0052 10.8796 19.12C10.9945 19.2346 11.1093 19.2346 11.1857 19.2346C11.4535 19.2346 11.7595 19.0816 11.989 18.8521C12.3716 18.4695 12.448 17.9723 12.2568 17.781C12.1803 17.7046 12.0656 17.6664 11.989 17.6664H11.989Z" fill="#3D3E08" stroke="#3D3E08" stroke-width="0.5"/>
<path d="M12.5123 6.01735L8.76262 7.12472C8.6865 7.14863 8.62 7.19619 8.57277 7.2605C8.52554 7.3248 8.50005 7.40249 8.5 7.48228V10.5459C8.3772 10.516 8.25136 10.5006 8.125 10.4999C7.50391 10.4999 7 10.8358 7 11.25C7 11.6641 7.50391 12 8.125 12C8.74609 12 9.25 11.6641 9.25 11.25V8.51136L12.25 7.6324V9.79593C12.1272 9.76602 12.0014 9.75056 11.875 9.74987C11.2539 9.74987 10.75 10.0857 10.75 10.4999C10.75 10.9141 11.2539 11.25 11.875 11.25C12.4961 11.25 13 10.9142 13 10.4999V6.37467C12.9999 6.3158 12.986 6.25777 12.9594 6.20527C12.9327 6.15277 12.8941 6.10729 12.8466 6.07249C12.7991 6.0377 12.7441 6.01458 12.686 6.005C12.6279 5.99542 12.5684 5.99965 12.5123 6.01735V6.01735Z" fill="#3D3E08" stroke="#3D3E08" stroke-width="0.5"/>
</g>
</svg>
