<svg width="30" height="30" viewBox="0 0 30 30" fill="none" xmlns="http://www.w3.org/2000/svg">
<mask id="mask0_632_271" style="mask-type:alpha" maskUnits="userSpaceOnUse" x="0" y="0" width="30" height="30">
<rect width="30" height="30" rx="5" fill="#FFDC60"/>
</mask>
<g mask="url(#mask0_632_271)">
<rect width="30" height="30" rx="8" fill="#E6E4B9"/>
<g style="mix-blend-mode:screen" opacity="0.6">
<path fill-rule="evenodd" clip-rule="evenodd" d="M9.09119 18.1132C8.09913 16.5149 7.27726 14.7281 7.33657 13.0949C7.39079 11.6018 8.7504 11.0065 9.39147 9.84456C10.0305 8.68637 9.96086 6.93673 11.0786 6.31234C12.2941 5.6333 14.0227 5.49893 15.5481 6.40531C17.0389 7.29111 17.7455 9.19925 18.6131 10.7893C19.3006 12.0495 19.5785 13.3149 20.0363 14.6312C20.6523 16.4027 22.0677 18.2436 21.7548 19.8239C21.4255 21.4865 19.9004 22.2825 18.4233 22.7761C16.8716 23.2947 15.0655 23.5545 13.2727 22.6587C11.5121 21.779 10.2031 19.9046 9.09119 18.1132Z" fill="white"/>
</g>
<path d="M23.6423 21.9844L21.2202 19.5621C21.9611 18.2249 21.7636 16.5044 20.6318 15.3708L13.7911 8.53218C13.3336 8.07276 12.5908 8.07276 12.1333 8.53218L11.1616 9.50381L10.065 8.40508L10.4676 8.00239C10.9271 7.54489 10.9271 6.80206 10.4676 6.34456C10.0101 5.88515 9.26733 5.88515 8.80983 6.34456L6.34456 8.80983C5.88515 9.26733 5.88515 10.0101 6.34456 10.4676C6.57326 10.6963 6.87244 10.8117 7.17341 10.8117C7.47451 10.8117 7.77355 10.6963 8.00225 10.4676L8.40494 10.065L9.50367 11.1616L8.53205 12.1333C8.07263 12.5908 8.07263 13.3336 8.53205 13.7911L15.3706 20.6318C16.0568 21.3179 16.9581 21.6601 17.8593 21.6601C18.4478 21.6601 19.0362 21.5135 19.5641 21.2222L21.9844 23.6425C22.2133 23.871 22.5124 23.9864 22.8135 23.9864C23.1146 23.9864 23.4136 23.871 23.6423 23.6423C24.1017 23.1848 24.1017 22.4419 23.6423 21.9845L23.6423 21.9844ZM18.972 18.6883L18.8313 18.831L18.6885 18.9718C18.4676 19.1927 18.1724 19.3158 17.8597 19.3158C17.5469 19.3158 17.2518 19.1927 17.0309 18.9718L11.0193 12.9623L12.9625 11.0191L18.972 17.0306C19.1929 17.2515 19.3161 17.5468 19.3161 17.8595C19.3161 18.1723 19.1929 18.4675 18.972 18.6884L18.972 18.6883Z" fill="#39312F"/>
<path d="M7.59382 7.56055L7.56055 7.59382C7.5645 7.58796 7.57037 7.58209 7.57623 7.57623C7.58209 7.57023 7.58796 7.56437 7.59382 7.56055L7.59382 7.56055Z" fill="#39312F"/>
<rect x="3" y="3" width="24" height="24" rx="6" stroke="#39312F" stroke-width="2"/>
</g>
</svg>
