<svg width="30" height="30" viewBox="0 0 30 30" fill="none" xmlns="http://www.w3.org/2000/svg">
<mask id="mask0_632_279" style="mask-type:alpha" maskUnits="userSpaceOnUse" x="0" y="0" width="30" height="30">
<rect width="30" height="30" rx="5" fill="#FFDC60"/>
</mask>
<g mask="url(#mask0_632_279)">
<rect width="30" height="30" rx="8" fill="#C2E7E0"/>
<g style="mix-blend-mode:screen" opacity="0.6">
<path fill-rule="evenodd" clip-rule="evenodd" d="M7.04411 12.9823C7.67283 11.2014 8.63846 9.44412 10.263 8.49728C11.7481 7.6317 13.5647 8.37517 15.2685 8.18879C16.9669 8.00301 18.5853 6.88039 20.2086 7.40933C21.9739 7.98455 23.6851 9.30903 24.2097 11.1023C24.7225 12.8548 23.5347 14.5923 22.8 16.2669C22.2177 17.594 21.2555 18.5911 20.4088 19.7655C19.2695 21.346 18.7951 23.6191 16.9893 24.3274C15.0896 25.0724 12.9285 24.3166 11.102 23.4156C9.18328 22.4692 7.28061 21.1581 6.50102 19.1537C5.73549 17.1854 6.33945 14.9784 7.04411 12.9823Z" fill="white"/>
</g>
<path d="M22.0776 11.8185C22.2043 11.374 22.2317 10.9072 22.158 10.451C22.0843 9.99472 21.9113 9.56025 21.6511 9.17827C21.391 8.79629 21.0501 8.47615 20.6526 8.24047C20.255 8.00479 19.8106 7.85934 19.3506 7.8144C19.166 7.28485 18.8214 6.82578 18.3645 6.50071C17.9075 6.17565 17.3608 6.00067 16.8 6C16.1336 6.00226 15.492 6.25251 15 6.702C14.508 6.25251 13.8664 6.00226 13.2 6C12.0291 6 11.031 6.7479 10.6575 7.8135C10.1967 7.85731 9.75125 8.00198 9.35265 8.23725C8.95405 8.47251 8.61211 8.79261 8.35109 9.17483C8.09006 9.55705 7.91634 9.99203 7.84225 10.4489C7.76817 10.9058 7.79553 11.3734 7.9224 11.8185C7.34463 12.1259 6.86085 12.584 6.52239 13.1441C6.18393 13.7042 6.00342 14.3456 6 15C6 15.9675 6.3852 16.8774 7.0548 17.5488C6.95235 17.8898 6.9002 18.2439 6.9 18.6C6.9 20.3613 8.1708 21.831 9.8754 22.1406C10.1256 22.6937 10.5297 23.1631 11.0394 23.4928C11.5491 23.8225 12.143 23.9985 12.75 24C13.6311 24 14.4276 23.6337 15 23.0469C15.2922 23.3483 15.6418 23.5879 16.0283 23.7516C16.4148 23.9154 16.8303 23.9998 17.25 24C17.856 23.9989 18.4488 23.8235 18.9579 23.4948C19.4669 23.166 19.8707 22.6978 20.121 22.146C20.6232 22.0575 21.1008 21.8634 21.5225 21.5767C21.9441 21.29 22.3001 20.9171 22.567 20.4826C22.834 20.0481 23.0057 19.562 23.0709 19.0563C23.136 18.5505 23.0932 18.0367 22.9452 17.5488C23.2798 17.2141 23.5452 16.8167 23.7262 16.3793C23.9072 15.942 24.0002 15.4733 24 15C23.9966 14.3456 23.8161 13.7042 23.4776 13.1441C23.1391 12.584 22.6554 12.1259 22.0776 11.8185ZM12.75 22.2C12.1101 22.2 11.553 21.7464 11.427 21.1218L11.2362 20.4H10.5C9.5073 20.4 8.7 19.5927 8.7 18.6C8.7 18.2832 8.7765 17.9862 8.9277 17.7171L9.3381 16.9827L8.6325 16.5237C8.37761 16.3594 8.1679 16.1339 8.02248 15.8677C7.87707 15.6016 7.80059 15.3033 7.8 15C7.8 14.1207 8.4507 13.3584 9.3138 13.2252L10.8375 12.9912L9.8844 11.7798C9.71467 11.561 9.61623 11.2953 9.60241 11.0187C9.58859 10.7422 9.66005 10.468 9.80712 10.2334C9.95419 9.99871 10.1698 9.81489 10.4247 9.70676C10.6797 9.59864 10.9617 9.57142 11.2326 9.6288L12.3 9.7863V8.7C12.3 8.46131 12.3948 8.23239 12.5636 8.0636C12.7324 7.89482 12.9613 7.8 13.2 7.8C13.4387 7.8 13.6676 7.89482 13.8364 8.0636C14.0052 8.23239 14.1 8.46131 14.1 8.7V20.85C14.1 21.5943 13.4943 22.2 12.75 22.2ZM21.3675 16.5228L20.6619 16.9818L21.0723 17.7162C21.2235 17.9862 21.3 18.2832 21.3 18.6C21.3 19.5927 20.4927 20.4 19.455 20.4H18.7188L18.573 21.1218C18.5101 21.4262 18.3442 21.6997 18.1032 21.8961C17.8622 22.0925 17.5609 22.1998 17.25 22.2C16.5057 22.2 15.9 21.5943 15.9 20.85V8.7C15.9 8.2032 16.3032 7.8 16.8 7.8C17.2968 7.8 17.7 8.2032 17.7 8.745V9.8313L18.7674 9.6288C19.0383 9.57142 19.3203 9.59864 19.5753 9.70676C19.8302 9.81489 20.0458 9.99871 20.1929 10.2334C20.3399 10.468 20.4114 10.7422 20.3976 11.0187C20.3838 11.2953 20.2853 11.561 20.1156 11.7798L19.1625 12.9921L20.6862 13.2261C21.1078 13.2944 21.4915 13.5102 21.7688 13.8351C22.0461 14.16 22.1989 14.5729 22.2 15C22.2 15.6147 21.8886 16.1835 21.3675 16.5228Z" fill="#39312F"/>
<rect x="3" y="3" width="24" height="24" rx="6" stroke="#39312F" stroke-width="2"/>
</g>
</svg>
