<svg width="30" height="30" viewBox="0 0 30 30" fill="none" xmlns="http://www.w3.org/2000/svg">
<mask id="mask0_647_412" style="mask-type:alpha" maskUnits="userSpaceOnUse" x="0" y="0" width="30" height="30">
<rect width="30" height="30" rx="5" fill="#FFDC60"/>
</mask>
<g mask="url(#mask0_647_412)">
<rect width="30" height="30" rx="8" fill="#E1546D"/>
<rect x="3" y="3" width="24" height="24" rx="6" stroke="#261D0F" stroke-width="2"/>
<path d="M14.0951 23.1286V25.1392H16.0442V23.1286C17.847 22.9099 19.5249 22.0933 20.8091 20.8091C22.0933 19.5249 22.91 17.847 23.1286 16.0441H25.1392V14.0951H23.1286C22.9099 12.2922 22.0933 10.6144 20.8091 9.33014C19.5249 8.04593 17.847 7.22928 16.0442 7.01066V5H14.0951V7.01066C12.2922 7.22931 10.6144 8.04593 9.33014 9.33014C8.04593 10.6144 7.22928 12.2922 7.01066 14.0951H5V16.0441H7.01066C7.22931 17.847 8.04593 19.5249 9.33014 20.8091C10.6144 22.0933 12.2922 22.91 14.0951 23.1286V23.1286ZM15.0696 8.89778C17.2745 8.89778 19.3119 10.0739 20.4144 11.9836C21.517 13.8929 21.517 16.2457 20.4144 18.1552C19.3119 20.0648 17.2745 21.241 15.0696 21.241C12.8648 21.241 10.8274 20.0648 9.7248 18.1552C8.62226 16.2458 8.62226 13.8931 9.7248 11.9836C10.8274 10.0739 12.8648 8.89778 15.0696 8.89778V8.89778Z" fill="#261D0F"/>
<path d="M19.4543 11.9026C19.2067 11.9026 19.0059 12.1035 19.0059 12.351V12.5004L14.6712 12.5005C14.476 12.5005 14.31 12.6253 14.2484 12.7994H12.2797C12.0321 12.7994 11.8313 13.0003 11.8313 13.2478V13.6963H10.9345V13.2478C10.9345 13.0002 10.7336 12.7994 10.486 12.7994C10.2384 12.7994 10.0376 13.0003 10.0376 13.2478V15.0416C10.0376 15.2892 10.2385 15.49 10.486 15.49C10.7337 15.49 10.9345 15.2894 10.9345 15.0416V14.5931H11.8313V15.0416C11.8313 15.2892 12.0321 15.49 12.2797 15.49H14.1085L12.4705 19.0391C12.3667 19.2639 12.465 19.5304 12.6897 19.634C12.7507 19.6621 12.8145 19.6754 12.8774 19.6754C13.0469 19.6754 13.2091 19.5788 13.2848 19.4148L14.2228 17.3821V19.2267C14.2228 19.4743 14.4236 19.6751 14.6712 19.6751C14.9188 19.6751 15.1196 19.4745 15.1196 19.2267L15.1198 17.3822L16.0579 19.4149C16.1337 19.579 16.2959 19.6755 16.4653 19.6755C16.5282 19.6755 16.5921 19.6623 16.653 19.6342C16.8778 19.5304 16.976 19.264 16.8722 19.0392L15.372 15.7891H19.0059V15.9385C19.0059 16.1861 19.2067 16.387 19.4543 16.387C19.7019 16.387 19.9027 16.1863 19.9027 15.9385V15.3406L19.9028 12.9491V12.3512C19.9028 12.1036 19.702 11.9028 19.4544 11.9028L19.4543 11.9026Z" fill="#261D0F"/>
</g>
</svg>
