<svg width="30" height="30" viewBox="0 0 30 30" fill="none" xmlns="http://www.w3.org/2000/svg">
<mask id="mask0_647_408" style="mask-type:alpha" maskUnits="userSpaceOnUse" x="0" y="0" width="30" height="30">
<rect width="30" height="30" rx="5" fill="#FFDC60"/>
</mask>
<g mask="url(#mask0_647_408)">
<rect width="30" height="30" rx="8" fill="#E1546D"/>
<rect x="3" y="3" width="24" height="24" rx="6" stroke="#261D0F" stroke-width="2"/>
<path d="M14.0951 23.1286V25.1392H16.0442V23.1286C17.847 22.9099 19.5249 22.0933 20.8091 20.8091C22.0933 19.5249 22.91 17.847 23.1286 16.0441H25.1392V14.0951H23.1286C22.9099 12.2922 22.0933 10.6144 20.8091 9.33014C19.5249 8.04593 17.847 7.22928 16.0442 7.01066V5H14.0951V7.01066C12.2922 7.22931 10.6144 8.04593 9.33014 9.33014C8.04593 10.6144 7.22928 12.2922 7.01066 14.0951H5V16.0441H7.01066C7.22931 17.847 8.04593 19.5249 9.33014 20.8091C10.6144 22.0933 12.2922 22.91 14.0951 23.1286V23.1286ZM15.0696 8.89778C17.2745 8.89778 19.3119 10.0739 20.4144 11.9836C21.517 13.8929 21.517 16.2457 20.4144 18.1552C19.3119 20.0648 17.2745 21.241 15.0696 21.241C12.8648 21.241 10.8274 20.0648 9.7248 18.1552C8.62226 16.2458 8.62226 13.8931 9.7248 11.9836C10.8274 10.0739 12.8648 8.89778 15.0696 8.89778V8.89778Z" fill="#261D0F"/>
<path d="M15.4958 15.5146L15.0658 16.4605C14.8712 16.8886 14.4444 17.1635 13.9741 17.1635H12.5591L12.2086 17.9958C12.115 18.2181 11.8973 18.3627 11.656 18.3627H10.6577C10.3266 18.3627 10.0581 18.0942 10.0581 17.7631C10.0581 17.6831 10.0741 17.604 10.1051 17.5304L11.1056 15.1542V15.0754L10.4064 14.6093C10.2814 14.5259 10.2062 14.3855 10.2062 14.2351V13.8657C10.2062 13.6173 10.4076 13.416 10.6559 13.416H12.0786L12.2542 12.8016C12.3277 12.5442 12.563 12.3667 12.8307 12.3667H14.1772C14.4449 12.3667 14.6802 12.5442 14.7537 12.8016L14.9292 13.416H16.2021V13.2661C16.2021 13.1005 16.3363 12.9663 16.5019 12.9663H17.7011C17.8667 12.9663 18.0009 13.1005 18.0009 13.2661V14.1655H18.6004V13.7158C18.6004 13.5782 18.6941 13.4583 18.8275 13.4249L20.0267 13.1252C20.2159 13.0778 20.3992 13.2209 20.3992 13.416V15.5145C20.3992 15.7096 20.2159 15.8527 20.0267 15.8054L18.8275 15.5056C18.6941 15.4722 18.6004 15.3523 18.6004 15.2148V14.7651H18.0009V15.6644C18.0009 15.83 17.8667 15.9642 17.7011 15.9642H16.5019C16.3363 15.9642 16.2021 15.83 16.2021 15.6644V15.5145L15.4958 15.5146ZM14.3048 15.5146L14.0743 16.0778C14.0116 16.2311 13.8366 16.3045 13.6833 16.2418C13.5301 16.1791 13.4567 16.004 13.5194 15.8508L13.6569 15.5146H13.2533L12.8115 16.5639H13.9741C14.2092 16.5639 14.4226 16.4265 14.5199 16.2124L14.8371 15.5146H14.3048ZM16.8016 13.5659V15.3647H17.4012V13.5659H16.8016ZM14.1771 12.9663H12.8306L12.7021 13.416H14.3056L14.1771 12.9663Z" fill="#261D0F"/>
</g>
</svg>
