<svg width="30" height="30" viewBox="0 0 30 30" fill="none" xmlns="http://www.w3.org/2000/svg">
<mask id="mask0_647_302" style="mask-type:alpha" maskUnits="userSpaceOnUse" x="0" y="0" width="30" height="30">
<rect width="30" height="30" rx="5" fill="#FFDC60"/>
</mask>
<g mask="url(#mask0_647_302)">
<rect width="30" height="30" rx="8" fill="#718499"/>
<g style="mix-blend-mode:screen" opacity="0.4">
<path fill-rule="evenodd" clip-rule="evenodd" d="M15.3558 6.00687C17.4391 5.85737 18.688 8.18278 19.946 9.71307C20.892 10.8637 20.9933 12.32 21.629 13.6379C22.373 15.1801 24.2076 16.4037 23.9807 18.0772C23.7483 19.7918 22.015 20.9735 20.4962 21.9957C18.971 23.0221 17.2396 23.7223 15.3558 23.8816C13.3245 24.0533 10.9419 24.2294 9.47736 22.9273C8.02577 21.6367 8.53203 19.4513 8.30101 17.6093C8.12177 16.1802 7.73413 14.7472 8.28236 13.3994C8.81668 12.0858 10.251 11.3902 11.2593 10.3364C12.668 8.86416 13.2265 6.15965 15.3558 6.00687Z" fill="white"/>
</g>
<path d="M23.7329 11.4109L21.9905 10.2195C21.6655 9.16937 20.985 8.27313 20.072 7.69267C19.159 7.11221 18.0737 6.8858 17.0122 7.05435C15.9507 7.22291 14.9829 7.7753 14.2838 8.61174C13.5847 9.44819 13.2003 10.5135 13.2 11.6152V12.9379L6.13151 22.0001C6.06089 22.0907 6.01664 22.1998 6.00385 22.315C5.99106 22.4302 6.01026 22.5467 6.05922 22.6512C6.10818 22.7557 6.18492 22.8438 6.2806 22.9056C6.37627 22.9673 6.487 23 6.60003 23H14.4C16.468 22.9976 18.4506 22.154 19.9129 20.6542C21.3751 19.1544 22.1977 17.1209 22.2 14.9999V13.483L23.7329 12.4349C23.815 12.3787 23.8824 12.3026 23.929 12.2133C23.9756 12.124 24 12.0242 24 11.9229C24 11.8216 23.9756 11.7219 23.929 11.6326C23.8824 11.5433 23.815 11.4671 23.7329 11.4109ZM14.261 16.6247L11.261 20.317C11.2105 20.3791 11.1487 20.4304 11.0789 20.468C11.0091 20.5055 10.9328 20.5286 10.8543 20.5359C10.6958 20.5507 10.5381 20.5003 10.4159 20.3958C10.2936 20.2913 10.2169 20.1413 10.2025 19.9787C10.188 19.8162 10.2372 19.6544 10.3391 19.529L13.3391 15.8367C13.3895 15.7746 13.4514 15.7233 13.5212 15.6857C13.5909 15.6482 13.6672 15.6251 13.7457 15.6178C13.8242 15.6105 13.9033 15.6191 13.9785 15.6431C14.0538 15.6672 14.1236 15.7062 14.1842 15.7579C14.2447 15.8097 14.2947 15.8731 14.3313 15.9447C14.3679 16.0162 14.3905 16.0945 14.3976 16.175C14.4047 16.2555 14.3963 16.3366 14.3729 16.4138C14.3495 16.4909 14.3114 16.5626 14.261 16.6247ZM18.3 11.9229C18.122 11.9229 17.948 11.8688 17.8 11.7674C17.652 11.6659 17.5366 11.5218 17.4685 11.3531C17.4004 11.1844 17.3826 10.9988 17.4173 10.8198C17.452 10.6407 17.5378 10.4762 17.6636 10.3471C17.7895 10.218 17.9499 10.1301 18.1244 10.0945C18.299 10.0589 18.48 10.0772 18.6444 10.147C18.8089 10.2169 18.9494 10.3352 19.0483 10.487C19.1472 10.6388 19.2 10.8173 19.2 10.9999C19.2 11.2447 19.1052 11.4795 18.9364 11.6526C18.7676 11.8257 18.5387 11.9229 18.3 11.9229Z" fill="#1F2D23"/>
<rect x="3" y="3" width="24" height="24" rx="6" stroke="#1F2D23" stroke-width="2"/>
</g>
</svg>
