<svg width="30" height="30" viewBox="0 0 30 30" fill="none" xmlns="http://www.w3.org/2000/svg">
<mask id="mask0_647_412" style="mask-type:alpha" maskUnits="userSpaceOnUse" x="0" y="0" width="30" height="30">
<rect width="30" height="30" rx="5" fill="#FFDC60"/>
</mask>
<g mask="url(#mask0_647_412)">
<rect width="30" height="30" rx="8" fill="#E1546D"/>
<rect x="3" y="3" width="24" height="24" rx="6" stroke="#261D0F" stroke-width="2"/>
<g style="mix-blend-mode:screen" opacity="0.5">
<path fill-rule="evenodd" clip-rule="evenodd" d="M21.9102 19.0361C21.1994 20.3924 19.7461 21.0196 18.5583 21.9655C16.9603 23.2382 15.7264 25.6836 13.7639 25.5237C11.8317 25.3662 11.3102 22.7202 10.0309 21.2704C8.77999 19.8528 6.74142 19.0322 6.35908 17.1321C5.96704 15.1837 6.6682 12.9213 8.05321 11.4416C9.34331 10.0633 11.5952 10.7689 13.2031 9.82022C15.0216 8.74728 15.7889 5.77111 17.8455 5.66381C19.845 5.5595 21.4064 7.55318 22.3101 9.3451C23.1095 10.9302 22.4597 12.8434 22.3845 14.6642C22.3227 16.1613 22.6134 17.6941 21.9102 19.0361Z" fill="white"/>
</g>
<path d="M14.0951 23.1286V25.1392H16.0442V23.1286C17.847 22.9099 19.5249 22.0933 20.8091 20.8091C22.0933 19.5249 22.91 17.847 23.1286 16.0442H25.1392V14.0951H23.1286C22.9099 12.2922 22.0933 10.6144 20.8091 9.33014C19.5249 8.04593 17.847 7.22928 16.0442 7.01066V5H14.0951V7.01066C12.2922 7.22931 10.6144 8.04593 9.33014 9.33014C8.04593 10.6144 7.22928 12.2922 7.01066 14.0951H5V16.0442H7.01066C7.22931 17.847 8.04593 19.5249 9.33014 20.8091C10.6144 22.0933 12.2922 22.91 14.0951 23.1286ZM15.0696 8.89778C17.2745 8.89778 19.3119 10.0739 20.4144 11.9836C21.517 13.8929 21.517 16.2457 20.4144 18.1552C19.3119 20.0648 17.2745 21.241 15.0696 21.241C12.8648 21.241 10.8274 20.0648 9.7248 18.1552C8.62226 16.2458 8.62226 13.8931 9.7248 11.9836C10.8274 10.0739 12.8648 8.89778 15.0696 8.89778Z" fill="#261D0F"/>
<path d="M19.4543 11.9023C19.2067 11.9023 19.0059 12.1032 19.0059 12.3508V12.5002L14.6712 12.5003C14.476 12.5003 14.31 12.625 14.2484 12.7991H12.2797C12.0321 12.7991 11.8313 13 11.8313 13.2476V13.696H10.9345V13.2476C10.9345 13 10.7336 12.7991 10.486 12.7991C10.2384 12.7991 10.0376 13 10.0376 13.2476V15.0413C10.0376 15.2889 10.2385 15.4898 10.486 15.4898C10.7337 15.4898 10.9345 15.2891 10.9345 15.0413V14.5929H11.8313V15.0413C11.8313 15.2889 12.0321 15.4898 12.2797 15.4898H14.1085L12.4705 19.0388C12.3667 19.2636 12.465 19.5301 12.6897 19.6338C12.7507 19.6619 12.8145 19.6751 12.8774 19.6751C13.0469 19.6751 13.2091 19.5786 13.2848 19.4145L14.2228 17.3818V19.2264C14.2228 19.4741 14.4236 19.6749 14.6712 19.6749C14.9188 19.6749 15.1196 19.4742 15.1196 19.2264L15.1198 17.382L16.0579 19.4147C16.1337 19.5787 16.2959 19.6753 16.4653 19.6753C16.5282 19.6753 16.5921 19.662 16.653 19.6339C16.8778 19.5301 16.976 19.2638 16.8722 19.039L15.372 15.7889H19.0059V15.9383C19.0059 16.1859 19.2067 16.3867 19.4543 16.3867C19.7019 16.3867 19.9027 16.1861 19.9027 15.9383V15.3404L19.9028 12.9489V12.351C19.9028 12.1033 19.702 11.9025 19.4544 11.9025L19.4543 11.9023Z" fill="#261D0F"/>
</g>
</svg>
