<svg width="30" height="30" viewBox="0 0 30 30" fill="none" xmlns="http://www.w3.org/2000/svg">
<mask id="mask0_632_262" style="mask-type:alpha" maskUnits="userSpaceOnUse" x="0" y="0" width="30" height="30">
<rect width="30" height="30" rx="5" fill="#FFDC60"/>
</mask>
<g mask="url(#mask0_632_262)">
<rect width="30" height="30" rx="8" fill="#D1E3B9"/>
<g style="mix-blend-mode:screen" opacity="0.6">
<path fill-rule="evenodd" clip-rule="evenodd" d="M15.841 7.19765C17.7128 7.44968 19.6302 8.03638 20.8886 9.43349C22.039 10.7107 21.682 12.6408 22.2121 14.2707C22.7406 15.8954 24.1699 17.2507 23.9833 18.9477C23.7805 20.7933 22.8331 22.7388 21.1847 23.6183C19.5737 24.4779 17.6303 23.6697 15.841 23.2922C14.423 22.993 13.2506 22.2545 11.9281 21.6654C10.1484 20.8726 7.82621 20.8721 6.76436 19.2488C5.64727 17.5411 5.94615 15.2713 6.45543 13.2993C6.9904 11.2279 7.88559 9.09766 9.68874 7.92542C11.4594 6.77432 13.7432 6.91517 15.841 7.19765Z" fill="white"/>
</g>
<path fill-rule="evenodd" clip-rule="evenodd" d="M14.8244 11.7049C15.1631 11.7049 15.5025 11.7191 15.8385 11.7468C15.8402 11.7476 15.842 11.7499 15.8437 11.7506C16.4805 12.2624 17.2733 12.8365 18.0637 13.25C18.0843 13.2604 18.1048 13.274 18.1255 13.2844C17.4362 13.5539 16.3289 13.7902 14.9051 13.7993C12.1159 13.7806 10.7617 13.0016 10.7143 12.7532C10.7143 12.4929 12.1715 11.7049 14.8243 11.7049L14.8244 11.7049ZM16.7342 9.71614C17.7191 10.5785 18.3936 11.3342 18.8 11.8834C18.6842 11.819 18.5582 11.7431 18.4262 11.6605C18.4074 11.6494 18.391 11.6396 18.3714 11.6275C18.2754 11.5667 18.169 11.4947 18.0646 11.425C17.9882 11.3731 17.9119 11.3221 17.8323 11.2658C17.7319 11.1961 17.6256 11.1179 17.5193 11.0392C17.4259 10.971 17.3307 10.8988 17.2339 10.8238C17.1268 10.7405 17.017 10.655 16.9048 10.5642C16.7146 10.4104 16.5224 10.2535 16.3219 10.0778C15.8487 9.66289 15.4099 9.23888 15.0431 8.8449L14.2888 7.95116C14.2776 7.93621 14.2674 7.92113 14.2562 7.90694C14.8835 8.26184 15.7477 8.85319 16.7342 9.71615L16.7342 9.71614ZM20.9779 12.7532C20.9788 12.6294 20.9641 12.5048 20.9333 12.3803L20.935 12.3758L20.9316 12.375C20.8047 11.8722 20.4722 11.3934 20.3128 11.1706C19.7701 10.4081 18.9285 9.515 17.9461 8.65506C16.7075 7.5706 13.6914 5.16939 12.4089 6.29192C11.5587 7.03704 12.4999 8.29713 12.8805 8.80593L13.6879 9.76348C13.8301 9.91725 13.9861 10.0704 14.1397 10.2242C11.4644 10.3495 9 11.2095 9 12.7531V21.4499C9 23.1242 12.0189 24 15 24C17.982 24 21 23.1242 21 21.4499V12.7531L20.9779 12.7532Z" fill="#39312F"/>
<rect x="3" y="3" width="24" height="24" rx="6" stroke="#39312F" stroke-width="2"/>
</g>
</svg>
