<svg width="30" height="30" viewBox="0 0 30 30" fill="none" xmlns="http://www.w3.org/2000/svg">
<mask id="mask0_647_319" style="mask-type:alpha" maskUnits="userSpaceOnUse" x="0" y="0" width="30" height="30">
<rect width="30" height="30" rx="5" fill="#FFDC60"/>
</mask>
<g mask="url(#mask0_647_319)">
<rect width="30" height="30" rx="8" fill="#3BD189"/>
<g style="mix-blend-mode:screen" opacity="0.7">
<path fill-rule="evenodd" clip-rule="evenodd" d="M14.5064 24.0027C12.4208 23.8886 11.4748 21.4244 10.4195 19.7479C9.62606 18.4872 9.70893 17.0298 9.24427 15.6424C8.70049 14.0187 7.03462 12.5738 7.47045 10.9422C7.91694 9.27057 9.78529 8.31651 11.4208 7.4938C13.0631 6.66767 14.8689 6.1911 16.7578 6.27038C18.7945 6.35586 21.1803 6.48127 22.4692 7.9575C23.7467 9.42063 22.9692 11.5248 22.9664 13.3812C22.9642 14.8215 23.1682 16.292 22.4546 17.56C21.7591 18.7958 20.2486 19.3052 19.1155 20.2237C17.5327 21.5067 16.6379 24.1194 14.5064 24.0027Z" fill="white"/>
</g>
<path d="M21.4197 13.9224H18.8073L15.9617 17.2627C15.8181 17.4305 15.6139 17.5343 15.3939 17.5516C15.1739 17.5688 14.9561 17.4981 14.7882 17.3549L14.6233 17.2114L21.1757 9.51995C21.3412 9.32503 21.4227 9.07246 21.4023 8.81765C21.3816 8.56268 21.261 8.32622 21.0665 8.16031L21.0472 8.14746C20.8265 7.95912 20.5398 7.86621 20.2505 7.88951C19.9613 7.91281 19.6932 8.05038 19.5055 8.27159L14.696 13.9227H8.71113C8.46587 13.9227 8.23048 14.0202 8.05708 14.1936C7.88352 14.3672 7.78613 14.6024 7.78613 14.8477V15.5522C7.78613 15.7903 7.88053 16.0188 8.04872 16.1873C8.21705 16.3559 8.44512 16.4509 8.68338 16.4515H9.1116L10.4199 22.8111C10.5179 23.2848 10.7767 23.71 11.1527 24.0146C11.5286 24.319 11.9982 24.4839 12.482 24.4813H17.7775C18.2668 24.481 18.7406 24.3097 19.1168 23.9968C19.4929 23.684 19.7479 23.2494 19.8374 22.7683L21.0087 16.4515H21.347C21.6042 16.4515 21.851 16.3493 22.0329 16.1674C22.2148 15.9855 22.317 15.7387 22.317 15.4815V14.8198C22.317 14.5819 22.2224 14.3536 22.0543 14.1854C21.8859 14.0171 21.6577 13.9226 21.4197 13.9226L21.4197 13.9224Z" fill="#053C0A"/>
<path d="M11.3552 10.0066C12.11 10.0995 12.6465 10.7865 12.5536 11.5413C12.4605 12.296 11.7735 12.8326 11.0187 12.7397C10.264 12.6466 9.7276 11.9595 9.82052 11.2048C9.91342 10.4501 10.6005 9.91351 11.3552 10.0066" fill="#053C0A"/>
<path d="M14.6233 10.4837C14.6233 10.4837 15.769 7.56943 13.6704 6.47527C13.265 6.23748 12.7705 6.20761 12.3393 6.39461C11.9081 6.58161 11.592 6.96324 11.4885 7.42162C11.4349 7.79548 11.5275 8.17547 11.7468 8.48301C11.966 8.79041 12.2954 9.00147 12.6662 9.07255C14.3172 9.45373 14.6234 10.4837 14.6234 10.4837L14.6233 10.4837Z" fill="#053C0A"/>
<rect x="3" y="3" width="24" height="24" rx="6" stroke="#053C0A" stroke-width="2"/>
</g>
</svg>
