<svg width="30" height="30" viewBox="0 0 30 30" fill="none" xmlns="http://www.w3.org/2000/svg">
<mask id="mask0_647_289" style="mask-type:alpha" maskUnits="userSpaceOnUse" x="0" y="0" width="30" height="30">
<rect width="30" height="30" rx="5" fill="#FFDC60"/>
</mask>
<g mask="url(#mask0_647_289)">
<rect width="30" height="30" rx="8" fill="#DDD750"/>
<g style="mix-blend-mode:screen" opacity="0.6">
<path fill-rule="evenodd" clip-rule="evenodd" d="M14.5652 5.01715C16.7098 4.76003 17.955 7.45749 19.5983 8.86952C21.0799 10.1425 23.0572 11.0073 23.6943 12.8613C24.3359 14.728 23.912 16.877 22.9398 18.5924C22.0628 20.14 20.3112 20.8296 18.7283 21.6244C17.4062 22.2882 16.009 22.4833 14.5652 22.7974C12.6302 23.2184 10.6886 24.5204 8.85314 23.773C6.92721 22.9887 5.55029 20.992 5.10916 18.9465C4.68432 16.9765 5.56786 14.9745 6.58075 13.2361C7.43737 11.7658 9.14949 11.1987 10.3331 9.9804C11.8853 8.38259 12.3619 5.28133 14.5652 5.01715Z" fill="white"/>
</g>
<rect x="3" y="3" width="24" height="24" rx="6" stroke="#B63C16" stroke-width="2"/>
<path d="M10.1891 22.933C10.3749 23.5125 10.7842 23.9938 11.3265 24.2699C11.8686 24.5461 12.4987 24.5945 13.0766 24.4041C13.6545 24.2138 14.1326 23.8006 14.4044 23.2563C14.6764 22.712 14.7198 22.0816 14.5248 21.5052L13.573 18.6136L15.8646 17.8594C16.1529 18.2316 16.5491 18.5056 16.9993 18.644C17.4494 18.7821 17.9312 18.7777 18.3785 18.6315L22.7141 17.2036L22.7143 17.2036C23.1855 17.0482 23.5514 16.6728 23.6946 16.1976C23.8378 15.7224 23.7404 15.2075 23.4335 14.8175L21.027 11.753L21.1475 7.85644C21.1645 7.35952 20.9377 6.88547 20.5398 6.58707C20.1419 6.28866 19.6233 6.20367 19.1509 6.35917L15.4117 7.59536C15.1232 7.22215 14.7261 6.94752 14.2751 6.80932C13.8242 6.67113 13.3414 6.67594 12.8933 6.82328L8.55731 8.25114L7.11471 8.72709C6.73092 8.85268 6.41283 9.12543 6.23047 9.48564C6.04809 9.84573 6.01621 10.2635 6.14181 10.6471L10.1891 22.933ZM21.9832 15.6858L17.8615 17.0411C17.7073 17.0915 17.5395 17.0782 17.3951 17.0043C17.2508 16.9304 17.1419 16.8019 17.0926 16.6475L15.9959 13.3236C16.1021 13.3712 16.2166 13.398 16.3329 13.4025C16.4368 13.405 16.5403 13.3892 16.6389 13.3558L19.4289 12.4373L21.9832 15.6858ZM16.5901 16.1022C16.3842 16.0127 16.1526 16.0023 15.9395 16.073L11.7485 17.4534L10.5351 13.7621L14.726 12.3877C14.879 12.3375 15.0459 12.3501 15.1898 12.4228C15.3337 12.4955 15.4428 12.6222 15.4934 12.7753L15.8205 13.7658L16.5901 16.1022ZM19.4677 8.02218L19.34 12.1498L16.55 13.0683C16.3968 13.119 16.2298 13.1069 16.0856 13.0344C15.9413 12.9621 15.8318 12.8354 15.781 12.6822L14.6874 9.35092C14.8932 9.44076 15.1247 9.45174 15.3381 9.38173L19.4677 8.02218ZM14.1853 8.80111L15.2819 12.1294C15.0761 12.0382 14.8434 12.0271 14.6298 12.0986L10.4388 13.4791L10.3344 13.1623L9.22069 9.79232L13.4117 8.41176C13.565 8.35948 13.7327 8.37024 13.878 8.44196C14.0231 8.5135 14.1339 8.64006 14.1855 8.79346L14.1853 8.80111ZM8.93618 9.88865L12.9345 22.0283C12.9852 22.1817 12.9727 22.3489 12.9 22.4932C12.8272 22.6373 12.7002 22.7468 12.5469 22.7973C12.3935 22.8479 12.2262 22.8355 12.082 22.7629C11.9377 22.6901 11.8284 22.5631 11.7779 22.4096L7.77957 10.2699L8.93618 9.88865Z" fill="#B63C16"/>
</g>
</svg>
