<svg width="30" height="30" viewBox="0 0 30 30" fill="none" xmlns="http://www.w3.org/2000/svg">
<mask id="mask0_631_202" style="mask-type:alpha" maskUnits="userSpaceOnUse" x="0" y="0" width="30" height="30">
<rect width="30" height="30" rx="5" fill="#FFDC60"/>
</mask>
<g mask="url(#mask0_631_202)">
<rect width="30" height="30" rx="8" fill="#CDB1D7"/>
<g style="mix-blend-mode:screen" opacity="0.5">
<path fill-rule="evenodd" clip-rule="evenodd" d="M14.3563 24.634C12.3905 24.3973 10.2177 24.7304 8.6765 23.4845C7.13486 22.2383 6.58439 20.134 6.35042 18.1622C6.14018 16.3905 7.01118 14.7875 7.43896 13.0555C7.9471 10.998 7.54522 8.52582 9.08828 7.07674C10.6846 5.57766 13.1823 5.22319 15.3279 5.647C17.3427 6.045 18.606 7.88798 20.1375 9.25934C21.5759 10.5473 23.7432 11.4806 23.9854 13.399C24.2274 15.3154 21.819 16.507 21.287 18.3638C20.6665 20.5294 22.3505 23.4201 20.6819 24.9296C19.0752 26.3832 16.5046 24.8926 14.3563 24.634Z" fill="white"/>
</g>
<rect x="3" y="3" width="24" height="24" rx="6" stroke="#39312F" stroke-width="2"/>
<path d="M20.5805 14.7362L17.4666 13.3802L17.2566 12.0003H17.4666C17.6257 12.0003 17.7784 11.9371 17.8909 11.8246C18.0034 11.7121 18.0666 11.5594 18.0666 11.4003V9.00033C18.0666 8.84122 18.0034 8.68854 17.8909 8.57605C17.7784 8.46355 17.6257 8.40034 17.4666 8.40034H17.0346L17.4666 6.74433C17.5122 6.56487 17.4723 6.37443 17.3587 6.22831C17.2403 6.07831 17.0576 5.99367 16.8666 6.00037H13.2667C13.082 5.99943 12.9073 6.08354 12.7927 6.22831C12.679 6.37442 12.6391 6.56487 12.6847 6.74433L13.0988 8.40034H12.6667C12.5076 8.40034 12.3549 8.46355 12.2424 8.57605C12.1299 8.68854 12.0667 8.84122 12.0667 9.00033V11.4003C12.0667 11.5594 12.1299 11.7121 12.2424 11.8246C12.3549 11.9371 12.5076 12.0003 12.6667 12.0003H12.8767L12.6667 13.3802L9.55279 14.7362C9.23057 14.8754 8.95616 15.1057 8.76317 15.3989C8.57032 15.6921 8.4672 16.0352 8.4668 16.3862V20.5021C8.4672 20.9793 8.65711 21.4368 8.99472 21.774L10.6928 23.4721C11.03 23.8097 11.4875 23.9996 11.9647 24H18.1685C18.6457 23.9996 19.1032 23.8097 19.4404 23.4721L21.1385 21.774C21.4761 21.4368 21.666 20.9793 21.6664 20.5021V16.3862C21.666 16.0352 21.5629 15.6921 21.37 15.3989C21.177 15.1057 20.9026 14.8754 20.5804 14.7362H20.5805ZM13.2668 10.8003V9.60035H16.8668V10.8003H13.2668ZM14.0348 7.20039H16.0987L15.7987 8.40037H14.3348L14.0348 7.20039ZM20.4666 20.5023C20.4644 20.6611 20.4022 20.8133 20.2927 20.9282L18.5946 22.6262C18.4815 22.7385 18.3281 22.8011 18.1687 22.8002H11.9649C11.8055 22.8011 11.6521 22.7385 11.539 22.6262L9.84094 20.9282C9.73139 20.8133 9.66925 20.6611 9.66697 20.5023V16.3864C9.66778 16.2703 9.70219 16.157 9.76608 16.06C9.82996 15.963 9.92063 15.8868 10.027 15.8404L13.4647 14.3525C13.6562 14.2686 13.7903 14.0914 13.8188 13.8844L14.0888 12.0005H16.0448L16.3148 13.8844H16.3147C16.3432 14.0915 16.4773 14.2686 16.6688 14.3525L20.1065 15.8404C20.2129 15.8868 20.3035 15.963 20.3674 16.06C20.4313 16.157 20.4657 16.2703 20.4665 16.3864L20.4666 20.5023Z" fill="#39312F" stroke="#39312F" stroke-width="0.5"/>
<path d="M16.9928 16.374C16.8802 16.2604 16.7269 16.1965 16.5668 16.1965C16.4068 16.1965 16.2534 16.2604 16.1408 16.374L15.0668 17.454L13.9929 16.374C13.8406 16.2218 13.6188 16.1624 13.411 16.2181C13.203 16.2738 13.0407 16.4361 12.9849 16.6441C12.9292 16.852 12.9887 17.0737 13.1408 17.226L14.2208 18.3L13.1408 19.3739C13.0273 19.4866 12.9634 19.6399 12.9634 19.8C12.9634 19.96 13.0273 20.1133 13.1408 20.226C13.2535 20.3396 13.4068 20.4034 13.5669 20.4034C13.7269 20.4034 13.8802 20.3396 13.9929 20.226L15.0668 19.146L16.1408 20.226C16.2534 20.3396 16.4067 20.4034 16.5668 20.4034C16.7268 20.4034 16.8802 20.3396 16.9928 20.226C17.1064 20.1133 17.1703 19.96 17.1703 19.8C17.1703 19.6399 17.1064 19.4866 16.9928 19.3739L15.9128 18.3L16.9928 17.226C17.1064 17.1134 17.1703 16.9601 17.1703 16.8C17.1703 16.64 17.1064 16.4866 16.9928 16.374L16.9928 16.374Z" fill="#39312F" stroke="#39312F" stroke-width="0.5"/>
</g>
</svg>
