<svg width="30" height="30" viewBox="0 0 30 30" fill="none" xmlns="http://www.w3.org/2000/svg">
<mask id="mask0_647_379" style="mask-type:alpha" maskUnits="userSpaceOnUse" x="0" y="0" width="30" height="30">
<rect width="30" height="30" rx="5" fill="#FFDC60"/>
</mask>
<g mask="url(#mask0_647_379)">
<rect width="30" height="30" rx="8" fill="#CCA030"/>
<g style="mix-blend-mode:screen" opacity="0.6">
<path fill-rule="evenodd" clip-rule="evenodd" d="M22.3707 10.2266C23.1717 11.6899 22.3049 13.5116 22.282 15.2161C22.2601 16.8505 23.1384 18.5738 22.2395 19.9984C21.3357 21.4307 19.3851 21.6355 17.8188 22.2892C16.2116 22.9599 14.6908 23.9092 12.9866 23.8601C11.007 23.8031 8.4326 23.7278 7.60699 21.9952C6.7459 20.1881 9.32329 18.2059 9.31956 16.1647C9.31593 14.1755 6.86128 12.5976 7.58636 10.6989C8.29578 8.8411 10.6876 8.16794 12.6012 7.57112C14.3974 7.01088 16.2677 6.96441 18.0268 7.44255C19.7525 7.91166 21.5277 8.68677 22.3707 10.2266Z" fill="white"/>
</g>
<rect x="3" y="3" width="24" height="24" rx="6" stroke="#6C0F09" stroke-width="2"/>
<path d="M24.3373 11.0736C23.6813 10.5531 22.4972 9.80733 21.0788 9.63607C20.8461 8.97318 20.12 8.51682 19.3578 8.71147C18.5549 8.91772 17.5415 9.31616 16.5246 10.0913C16.4136 10.1671 16.4192 10.3423 16.5359 10.4416C16.8683 10.6785 17.0461 10.9152 17.1158 11.1604C16.6277 11.6967 16.2853 12.2801 16.0395 12.814C15.4913 12.4396 14.7153 12.0416 13.7493 11.985C13.5012 11.9672 13.3345 12.2354 13.4393 12.4486C14.0189 13.4768 14.797 14.4266 14.797 14.4266C14.797 14.4266 14.6144 15.6494 14.683 16.8229C14.6856 17.0652 14.989 17.1999 15.1906 17.0542C16.0173 16.4656 16.4825 15.6928 16.7255 15.0713C17.4518 15.5277 18.4465 15.9959 19.4971 16.117C19.52 16.5081 19.432 16.8203 19.3411 17.045C19.3031 17.1441 19.3847 17.2756 19.5131 17.2611C20.891 17.1344 21.4585 16.1778 21.6166 15.8015C23.2114 15.0388 24.1536 13.2245 24.6015 12.2356C24.7742 11.8329 24.6493 11.3161 24.3373 11.0735L24.3373 11.0736ZM22.095 11.5786C21.8292 11.6541 21.5667 11.5078 21.4912 11.2421C21.4157 10.9764 21.562 10.7139 21.8277 10.6384C22.0934 10.5629 22.3559 10.7092 22.4314 10.9748C22.5216 11.2142 22.3607 11.503 22.095 11.5786Z" fill="#6C0F09"/>
<path d="M17.4021 18.1486C17.2713 17.766 16.8659 17.5057 16.4367 17.6278C15.987 17.7556 15.4059 17.965 14.8069 18.4224C14.7514 18.4603 14.7601 18.5683 14.8183 18.618C15.0079 18.7408 15.0952 18.8928 15.1564 19.0299C14.8875 19.3274 14.6768 19.6744 14.5423 19.9778C14.2361 19.7556 13.7811 19.5537 13.2381 19.5091C13.1039 19.503 12.9898 19.646 13.0714 19.7775C13.3947 20.3704 13.8552 20.9023 13.8552 20.9023C13.8552 20.9023 13.7638 21.5911 13.7804 22.2712C13.7802 22.4259 13.9524 22.4873 14.0634 22.4117C14.5221 22.0825 14.7911 21.6304 14.9346 21.2804C15.3605 21.5348 15.9206 21.7954 16.5159 21.8691C16.5331 22.0852 16.4774 22.2777 16.4247 22.4031C16.4012 22.4761 16.4596 22.5258 16.5267 22.5289C17.3033 22.4628 17.6309 21.9056 17.7274 21.7015C18.662 21.259 19.2298 20.1476 19.4494 19.5992C19.5313 19.4212 19.4616 19.1759 19.3129 19.0415C18.9369 18.7286 18.231 18.2665 17.4021 18.1486L17.4021 18.1486ZM17.9846 19.2643C17.8414 19.305 17.684 19.2173 17.6433 19.0741C17.6026 18.931 17.6903 18.7735 17.8335 18.7328C17.9766 18.6921 18.1341 18.7799 18.1748 18.923C18.2153 19.0662 18.1276 19.2237 17.9846 19.2643Z" fill="#6C0F09"/>
<path d="M13.1769 16.6542C13.2969 16.3771 13.1981 16.0296 12.9706 15.8513C12.4895 15.48 11.6525 14.9447 10.6427 14.812C10.4828 14.3272 9.95188 14.0143 9.41467 14.1448C8.83655 14.2871 8.10358 14.5838 7.37302 15.1229C7.30296 15.187 7.2911 15.3009 7.37564 15.3651C7.62349 15.5377 7.73709 15.7042 7.78938 15.8881C7.43563 16.2759 7.20165 16.6958 7.02309 17.0781C6.63834 16.8121 6.07243 16.5311 5.39527 16.4806C5.2143 16.4658 5.09143 16.6553 5.17884 16.8072C5.58941 17.5521 6.15773 18.2301 6.15773 18.2301C6.15773 18.2301 6.03111 19.1056 6.07381 19.9551C6.07938 20.1302 6.28358 20.2267 6.42968 20.1189C7.01411 19.6877 7.34738 19.151 7.52896 18.7018C8.05978 19.0149 8.75698 19.369 9.53326 19.4576C9.54751 19.7408 9.48298 19.9799 9.40983 20.1112C9.36595 20.19 9.43593 20.2806 9.54382 20.2719C10.5364 20.1885 10.9371 19.5003 11.0572 19.2231C12.1848 18.6817 12.8695 17.3602 13.1769 16.6542L13.1769 16.6542ZM11.3678 16.1965C11.1839 16.2488 10.9738 16.1317 10.9215 15.9478C10.8693 15.7639 10.9863 15.5539 11.1702 15.5016C11.3541 15.4493 11.5642 15.5663 11.6165 15.7502C11.6746 15.9547 11.5517 16.1442 11.3678 16.1965Z" fill="#6C0F09"/>
<path d="M7.85812 12.8647C7.8579 13.0195 8.03008 13.0809 8.1411 13.0052C8.59981 12.676 8.86886 12.224 9.01235 11.8739C9.43821 12.1284 9.99832 12.3889 10.5936 12.4627C10.6109 12.6788 10.5551 12.8712 10.5024 12.9967C10.479 13.0696 10.5373 13.1193 10.6045 13.1224C11.381 13.0563 11.7086 12.4992 11.8051 12.295C12.7397 11.8525 13.3075 10.7412 13.5271 10.1927C13.6091 10.0147 13.5393 9.76946 13.3906 9.63501C13.0203 9.34272 12.3349 8.87477 11.4915 8.7831C11.3607 8.4005 10.9552 8.14025 10.526 8.26227C10.0764 8.39012 9.49528 8.59956 8.89628 9.05695C8.84077 9.09477 8.84945 9.2028 8.90765 9.25251C9.0973 9.37535 9.18457 9.52729 9.24576 9.66447C8.97682 9.96192 8.76618 10.3089 8.63165 10.6124C8.32545 10.3901 7.87046 10.1882 7.3275 10.1436C7.19324 10.1376 7.07916 10.2805 7.16078 10.412C7.48407 11.0049 7.94458 11.5368 7.94458 11.5368C7.94454 11.5366 7.84153 12.1847 7.85813 12.8648L7.85812 12.8647ZM11.917 9.34676C12.0602 9.30606 12.2177 9.39381 12.2584 9.53696C12.2991 9.68011 12.2113 9.83758 12.0682 9.87828C11.925 9.91898 11.7675 9.83122 11.7268 9.68808C11.6861 9.54493 11.7739 9.38745 11.917 9.34676Z" fill="#6C0F09"/>
</g>
</svg>
