<svg width="30" height="30" viewBox="0 0 30 30" fill="none" xmlns="http://www.w3.org/2000/svg">
<mask id="mask0_632_249" style="mask-type:alpha" maskUnits="userSpaceOnUse" x="0" y="0" width="30" height="30">
<rect width="30" height="30" rx="5" fill="#FFDC60"/>
</mask>
<g mask="url(#mask0_632_249)">
<rect width="30" height="30" rx="8" fill="#FF5689"/>
<g style="mix-blend-mode:screen" opacity="0.5">
<path fill-rule="evenodd" clip-rule="evenodd" d="M7.2737 12.2888C7.94013 10.5799 8.1433 8.55378 9.617 7.45901C11.0911 6.36393 13.106 6.35625 14.9289 6.60187C16.5669 6.82257 17.8037 7.97425 19.2587 8.75815C20.987 9.68931 23.2976 9.89991 24.2411 11.6189C25.2171 13.3973 24.9581 15.7199 24.0822 17.5467C23.2597 19.2622 21.3145 19.9697 19.7305 21.0269C18.2428 22.0197 16.9049 23.7483 15.1279 23.5224C13.3528 23.2967 12.8403 20.8609 11.2974 19.9547C9.49804 18.8978 6.51584 19.7406 5.54711 17.895C4.61433 16.1179 6.54542 14.1562 7.2737 12.2888Z" fill="white"/>
</g>
<rect x="3" y="3" width="24" height="24" rx="6" stroke="#580066" stroke-width="2"/>
<path d="M19.2322 18.0241L17.2954 21.2463H19.2322L21.1687 18.0241L19.2322 14.802H17.2954L19.2322 18.0241Z" fill="#580066"/>
<path d="M14.4639 14.8018L16.4005 18.0239L14.4639 21.2461H16.4005L18.3373 18.0239L16.4005 14.8018H14.4639Z" fill="#580066"/>
<path d="M23.9999 18.0241L22.0632 14.802H20.1265L22.0632 18.0241L20.1265 21.2463H22.0632L23.9999 18.0241Z" fill="#580066"/>
<path d="M13.8322 20.8665L15.5407 18.0239L13.8322 15.1816L13.161 14.0649H18.4809C18.0413 11.0298 15.4316 8.69727 12.2747 8.69727C8.80935 8.69727 6 11.5064 6 14.9719C6 18.4373 8.80916 21.2466 12.2747 21.2466C12.7671 21.2466 13.245 21.1874 13.7044 21.0799L13.8322 20.8665ZM12.5602 16.0851C12.2499 16.2434 11.8744 16.1288 11.7161 15.8185L10.3028 12.8088C10.2119 12.6331 10.2755 12.4169 10.4472 12.3188C10.6191 12.2206 10.8376 12.2756 10.9427 12.4435L12.8305 15.2278C12.9892 15.5382 12.8706 15.9267 12.5602 16.0851L12.5602 16.0851Z" fill="#580066"/>
</g>
</svg>
