<svg width="30" height="30" viewBox="0 0 30 30" fill="none" xmlns="http://www.w3.org/2000/svg">
<mask id="mask0_647_402" style="mask-type:alpha" maskUnits="userSpaceOnUse" x="0" y="0" width="30" height="30">
<rect width="30" height="30" rx="5" fill="#FFDC60"/>
</mask>
<g mask="url(#mask0_647_402)">
<rect width="30" height="30" rx="8" fill="#E1546D"/>
<rect x="3" y="3" width="24" height="24" rx="6" stroke="#261D0F" stroke-width="2"/>
<path d="M14.0951 23.1286V25.1392H16.0442V23.1286C17.847 22.9099 19.5249 22.0933 20.8091 20.8091C22.0933 19.5249 22.91 17.847 23.1286 16.0441H25.1392V14.0951H23.1286C22.9099 12.2922 22.0933 10.6144 20.8091 9.33014C19.5249 8.04593 17.847 7.22928 16.0442 7.01066V5H14.0951V7.01066C12.2922 7.22931 10.6144 8.04593 9.33014 9.33014C8.04593 10.6144 7.22928 12.2922 7.01066 14.0951H5V16.0441H7.01066C7.22931 17.847 8.04593 19.5249 9.33014 20.8091C10.6144 22.0933 12.2922 22.91 14.0951 23.1286V23.1286ZM15.0696 8.89778C17.2745 8.89778 19.3119 10.0739 20.4144 11.9836C21.517 13.8929 21.517 16.2457 20.4144 18.1552C19.3119 20.0648 17.2745 21.241 15.0696 21.241C12.8648 21.241 10.8274 20.0648 9.7248 18.1552C8.62226 16.2458 8.62226 13.8931 9.7248 11.9836C10.8274 10.0739 12.8648 8.89778 15.0696 8.89778V8.89778Z" fill="#261D0F"/>
<path d="M19.4117 14.0849H18.6114V14.955H18.0241L16.828 12.9973H15.021V12.3084H16.3187V11.7285L12.9345 11.7285V12.3085H14.2445V12.9973L12.6433 12.9973L11.7942 13.9037H11.2607V14.955H10.8242V13.6863H10.2783V17.0575H10.8242V15.8976H11.2607V16.6223H11.8062L13.4076 18.399H18.1196V17.4202H18.6114V18.399H19.4117C19.4117 18.399 19.8484 18.2906 19.8484 16.2422C19.8483 16.2423 19.8845 14.0849 19.4116 14.0849L19.4117 14.0849Z" fill="#261D0F"/>
</g>
</svg>
