<svg width="30" height="30" viewBox="0 0 30 30" fill="none" xmlns="http://www.w3.org/2000/svg">
<mask id="mask0_647_416" style="mask-type:alpha" maskUnits="userSpaceOnUse" x="0" y="0" width="30" height="30">
<rect width="30" height="30" rx="5" fill="#FFDC60"/>
</mask>
<g mask="url(#mask0_647_416)">
<rect width="30" height="30" rx="8" fill="#52BB00"/>
<rect x="3" y="3" width="24" height="24" rx="6" stroke="#202100" stroke-width="2"/>
<g style="mix-blend-mode:screen" opacity="0.5">
<path fill-rule="evenodd" clip-rule="evenodd" d="M15.2825 6.05848C16.926 6.34422 17.8102 8.15745 19.1288 9.23783C20.3932 10.2738 22.2883 10.6611 22.8419 12.252C23.3985 13.8516 22.3428 15.5045 21.8776 17.1367C21.4004 18.8116 21.1946 20.5925 20.094 21.8946C18.8155 23.407 17.1519 25.3731 15.2825 24.9387C13.3327 24.4857 13.3892 21.2347 11.7907 19.9653C10.233 18.7282 7.4691 19.6641 6.4363 17.9136C5.42581 16.2009 6.39034 13.9109 7.1164 12.0426C7.79796 10.2888 8.9274 8.79733 10.3978 7.71985C11.8403 6.66275 13.5529 5.75778 15.2825 6.05848Z" fill="white"/>
</g>
<path d="M22.7266 6.36403C22.6293 6.08139 22.3288 5.93199 22.0527 6.03015C21.7767 6.12822 21.6312 6.4396 21.7268 6.72314C22.5409 9.12627 20.925 10.9208 19.6929 11.8822L19.1952 11.1496C19.0279 10.9038 18.6536 10.6995 18.3627 10.6959L15.5689 10.7085C15.278 10.7031 14.8459 10.8399 14.6076 11.0127L6.37565 16.9413C5.97699 17.2293 5.88053 17.7936 6.15926 18.2049L9.90016 23.7022C10.1806 24.1116 10.6284 24.0621 11.0279 23.776L19.2599 17.8468C19.4965 17.6749 19.77 17.3041 19.8663 17.0206L20.7409 14.19C20.8372 13.9074 20.7786 13.4763 20.6112 13.2306L20.308 12.7842C21.9624 11.4819 23.6799 9.18057 22.7266 6.36446L22.7266 6.36403ZM18.8962 14.7863C18.2591 15.2454 17.3793 15.0852 16.9333 14.4299C16.4854 13.7728 16.6415 12.8692 17.2794 12.4084C17.7859 12.0439 18.4431 12.0701 18.9164 12.4238C18.678 12.5714 18.5141 12.6578 18.4835 12.6712C18.2196 12.7999 18.1067 13.1249 18.2311 13.3957C18.3222 13.5929 18.5124 13.7089 18.7105 13.7089C18.7858 13.7089 18.8629 13.6909 18.9357 13.6558C19.1057 13.573 19.288 13.4748 19.4781 13.3588C19.5631 13.8935 19.3563 14.4541 18.8962 14.7862L18.8962 14.7863Z" fill="#202100"/>
</g>
</svg>
