<svg width="30" height="30" viewBox="0 0 30 30" fill="none" xmlns="http://www.w3.org/2000/svg">
<mask id="mask0_601_230" style="mask-type:alpha" maskUnits="userSpaceOnUse" x="0" y="0" width="30" height="30">
<rect width="30" height="30" rx="5" fill="#FFDC60"/>
</mask>
<g mask="url(#mask0_601_230)">
<rect width="30" height="30" rx="8" fill="#60FFC6"/>
<g style="mix-blend-mode:screen" opacity="0.8">
<path fill-rule="evenodd" clip-rule="evenodd" d="M6.02266 14.2304C5.59296 12.2502 6.2105 10.0582 7.56059 8.50299C8.88925 6.9725 11.0996 6.6252 13.1027 6.07497C15.087 5.52988 17.3433 4.28908 19.0979 5.33375C20.8908 6.40124 20.0657 9.17486 21.1831 10.886C22.2082 12.4559 24.9377 12.8687 25.2129 14.6981C25.486 16.514 23.7024 17.9762 22.4596 19.3728C21.2798 20.6986 19.9749 21.9206 18.2594 22.5118C16.4692 23.1288 14.3947 23.5544 12.6902 22.7394C11.0366 21.9488 10.8213 19.8393 9.71377 18.4259C8.53919 16.9269 6.42003 16.0617 6.02266 14.2304Z" fill="white"/>
</g>
<path fill-rule="evenodd" clip-rule="evenodd" d="M12.5452 20.7273C12.9971 20.7273 13.3634 21.0203 13.3634 21.3818V23.3455C13.3634 23.707 12.9971 24 12.5452 24C12.0934 24 11.7271 23.707 11.7271 23.3455V21.3818C11.7271 21.0203 12.0934 20.7273 12.5452 20.7273Z" fill="#003C67"/>
<path d="M8.45459 21.5455L9.68186 20.3182Z" fill="#003C67"/>
<path fill-rule="evenodd" clip-rule="evenodd" d="M10.2964 19.7035C10.5677 19.9749 10.5677 20.4148 10.2964 20.6862L8.82241 22.1601C8.55105 22.4315 8.1111 22.4315 7.83975 22.1601C7.56839 21.8888 7.56839 21.4488 7.83975 21.1775L9.31369 19.7035C9.58504 19.4322 10.025 19.4322 10.2964 19.7035Z" fill="#003C67"/>
<path fill-rule="evenodd" clip-rule="evenodd" d="M6 17.4545C6 17.0027 6.29305 16.6364 6.65455 16.6364H8.61818C8.97968 16.6364 9.27273 17.0027 9.27273 17.4545C9.27273 17.9064 8.97968 18.2727 8.61818 18.2727H6.65455C6.29305 18.2727 6 17.9064 6 17.4545Z" fill="#003C67"/>
<path d="M15.5782 17.0958L14.3645 18.431C14.3065 18.4948 14.2605 18.5705 14.2292 18.6538C14.1978 18.7371 14.1816 18.8265 14.1816 18.9167C14.1816 19.0068 14.1978 19.0962 14.2292 19.1795C14.2605 19.2628 14.3065 19.3385 14.3645 19.4023L16.1302 21.3444C16.2473 21.4731 16.406 21.5454 16.5715 21.5454C16.7369 21.5454 16.8957 21.4731 17.0127 21.3444L18.2268 20.0092C18.2413 19.9932 18.2528 19.9743 18.2607 19.9535C18.2685 19.9326 18.2725 19.9103 18.2725 19.8877C18.2725 19.8652 18.2685 19.8428 18.2607 19.822C18.2528 19.8011 18.2413 19.7822 18.2268 19.7663L15.799 17.0958C15.7845 17.0798 15.7673 17.0671 15.7484 17.0585C15.7294 17.0499 15.7091 17.0454 15.6886 17.0454C15.6681 17.0454 15.6478 17.0499 15.6289 17.0585C15.6099 17.0671 15.5927 17.0798 15.5782 17.0958V17.0958Z" fill="#003C67"/>
<path d="M9.99081 11.3686L8.65557 12.7041C8.52688 12.8328 8.45459 13.0074 8.45459 13.1894C8.45459 13.3715 8.52688 13.546 8.65557 13.6748L10.5977 15.6171C10.6615 15.6808 10.7372 15.7314 10.8205 15.766C10.9038 15.8005 10.9932 15.8182 11.0833 15.8182C11.1735 15.8182 11.2629 15.8005 11.3462 15.766C11.4295 15.7314 11.5052 15.6808 11.569 15.6171L12.9042 14.282C12.9202 14.2661 12.9329 14.2471 12.9415 14.2263C12.9501 14.2055 12.9546 14.1831 12.9546 14.1606C12.9546 14.138 12.9501 14.1157 12.9415 14.0948C12.9329 14.074 12.9202 14.0551 12.9042 14.0391L10.2337 11.3686C10.2178 11.3526 10.1989 11.34 10.178 11.3313C10.1572 11.3227 10.1348 11.3182 10.1123 11.3182C10.0897 11.3182 10.0674 11.3227 10.0465 11.3313C10.0257 11.34 10.0068 11.3526 9.99081 11.3686V11.3686Z" fill="#003C67"/>
<path d="M22.3016 7.71673C21.7577 7.17271 21.1118 6.74109 20.4008 6.44652C19.6898 6.15196 18.9277 6.00023 18.1579 6C17.3882 5.99977 16.626 6.15106 15.9148 6.4452C15.2037 6.73935 14.5575 7.17059 14.0132 7.7143L11.3661 10.3582C11.351 10.3733 11.339 10.3912 11.3308 10.411C11.3226 10.4307 11.3184 10.4519 11.3184 10.4732C11.3184 10.4946 11.3226 10.5157 11.3308 10.5355C11.339 10.5552 11.351 10.5731 11.3661 10.5882L13.8981 13.1171C13.9132 13.1322 13.9311 13.1442 13.9509 13.1524C13.9706 13.1606 13.9918 13.1648 14.0132 13.1648C14.0346 13.1648 14.0558 13.1606 14.0755 13.1524C14.0953 13.1442 14.1132 13.1322 14.1284 13.1171L16.773 10.4732C16.9564 10.2901 17.1744 10.1452 17.4144 10.0471C17.6544 9.94906 17.9115 9.89969 18.1708 9.90192C18.4301 9.90415 18.6863 9.95794 18.9246 10.0601C19.1628 10.1623 19.3783 10.3109 19.5585 10.4972C20.3031 11.2662 20.2693 12.4985 19.5121 13.2549L16.8902 15.8748C16.8751 15.8899 16.8631 15.9078 16.8549 15.9276C16.8467 15.9473 16.8425 15.9685 16.8425 15.9898C16.8425 16.0112 16.8467 16.0324 16.8549 16.0521C16.8631 16.0718 16.8751 16.0898 16.8902 16.1049L19.4218 18.6341C19.4369 18.6493 19.4549 18.6612 19.4746 18.6694C19.4944 18.6776 19.5155 18.6818 19.5369 18.6818C19.5583 18.6818 19.5795 18.6776 19.5993 18.6694C19.619 18.6612 19.637 18.6493 19.6521 18.6341L22.2593 16.0297C24.5529 13.7398 24.5936 10.0091 22.3016 7.71673V7.71673Z" fill="#003C67"/>
<rect x="3" y="3" width="24" height="24" rx="6" stroke="#003C67" stroke-width="2"/>
</g>
</svg>
