<svg width="30" height="30" viewBox="0 0 30 30" fill="none" xmlns="http://www.w3.org/2000/svg">
<mask id="mask0_623_202" style="mask-type:alpha" maskUnits="userSpaceOnUse" x="0" y="0" width="30" height="30">
<rect width="30" height="30" rx="5" fill="#FFDC60"/>
</mask>
<g mask="url(#mask0_623_202)">
<rect width="30" height="30" rx="8" fill="#F8532F"/>
<g style="mix-blend-mode:screen" opacity="0.7">
<path fill-rule="evenodd" clip-rule="evenodd" d="M15.548 5.00252C13.5393 4.90329 12.8044 7.75719 11.4125 9.21849C10.3359 10.3488 9.13177 11.2473 8.32457 12.586C7.28528 14.3095 5.58594 16.091 6.09199 18.0418C6.59693 19.9884 8.97934 20.6387 10.6853 21.6866C12.236 22.6392 13.7433 23.6416 15.548 23.8502C17.5247 24.0788 19.7889 24.221 21.296 22.9133C22.7839 21.6223 22.9467 19.3626 22.9985 17.3858C23.0399 15.8024 22.2208 14.4192 21.5559 12.9836C20.9808 11.7419 20.2207 10.705 19.3988 9.61304C18.1639 7.9726 17.5901 5.10341 15.548 5.00252Z" fill="white"/>
</g>
<path d="M16.0085 16.2489C16.0085 16.7197 15.6267 17.1015 15.1558 17.1015C14.685 17.1015 14.3032 16.7197 14.3032 16.2489C14.3032 15.778 14.685 15.3962 15.1558 15.3962C15.6267 15.3962 16.0085 15.778 16.0085 16.2489Z" fill="#4D1300"/>
<path d="M13.1667 7.15438C13.1667 7.62522 12.7849 8.00699 12.314 8.00699C11.8432 8.00699 11.4614 7.62522 11.4614 7.15438C11.4614 6.68354 11.8432 6.30176 12.314 6.30176C12.7849 6.30176 13.1667 6.68354 13.1667 7.15438Z" fill="#4D1300"/>
<path d="M14.3038 7.43876C14.4546 7.43876 14.5992 7.49865 14.7058 7.60522C14.8124 7.7118 14.8723 7.85644 14.8723 8.00717V9.72865C14.9663 9.72205 15.0579 9.71241 15.1565 9.71241C15.2551 9.71241 15.3467 9.72205 15.4407 9.72865V7.72296C15.4407 7.49687 15.3508 7.27989 15.191 7.12006C15.0311 6.96022 14.8141 6.87036 14.5881 6.87036H13.707C13.7453 7.05789 13.7453 7.25126 13.707 7.43877L14.3038 7.43876Z" fill="#4D1300"/>
<path d="M11.9873 12.8476C13.032 12.6502 14.0932 12.552 15.1564 12.5543C15.7728 12.5543 16.3887 12.5869 17.0015 12.6521C16.9098 12.4803 16.8022 12.3177 16.6801 12.1661L17.1198 11.8057C17.2747 11.9969 17.4104 12.2031 17.5248 12.4209L17.074 12.6602C17.5543 12.7134 17.9754 12.7801 18.3245 12.8475C17.9573 11.8318 17.0806 10.2806 15.1565 10.2806C13.2324 10.2806 12.3557 11.8319 11.9873 12.8476L11.9873 12.8476ZM16.4401 11.912C16.0916 11.5886 15.632 11.4115 15.1566 11.4175V10.849C15.7736 10.8417 16.3699 11.0716 16.8224 11.4913L16.4401 11.912Z" fill="#4D1300"/>
<path d="M13.7349 21.0657V22.0226C14.1954 22.1613 14.6749 22.2269 15.1559 22.2172C15.6369 22.2271 16.1163 22.1613 16.5769 22.0222V21.0657C16.1222 21.0744 15.6541 21.0804 15.1559 21.0804C14.6576 21.0804 14.1896 21.0744 13.7349 21.0657V21.0657Z" fill="#4D1300"/>
<path d="M23.0002 20.008C22.0682 17.7194 20.8071 15.5789 19.2571 13.6541C17.921 13.2895 16.541 13.1106 15.1561 13.1227C13.7711 13.1105 12.3912 13.2894 11.0551 13.6541C9.50579 15.5794 8.24499 17.7197 7.31201 20.008C9.91008 20.3749 12.5323 20.5434 15.1561 20.512C17.7798 20.544 20.4021 20.3755 23.0002 20.008ZM15.1561 19.9436V19.3751C15.5471 19.3751 15.9246 19.3722 16.2883 19.3664L16.2975 19.9348C15.9308 19.9406 15.5504 19.9436 15.1561 19.9436H15.1561ZM22.0228 19.1958C22.0614 19.2784 22.058 19.3746 22.0136 19.4543C21.9692 19.534 21.8891 19.5875 21.7985 19.5982C20.7901 19.7169 19.1165 19.8696 16.868 19.9236L16.8549 19.3552C18.8091 19.3087 20.3222 19.1863 21.3379 19.0781C20.7451 17.8529 20.0567 16.6763 19.2788 15.5595L19.7445 15.2332H19.7447C20.6166 16.4861 21.379 17.812 22.0231 19.1958L22.0228 19.1958ZM18.9904 14.2244C19.0782 14.3335 19.1918 14.4785 19.3263 14.6569L18.8716 14.9979C18.7417 14.8251 18.6317 14.6853 18.547 14.5796L18.9904 14.2244ZM12.5981 16.2488C12.5981 15.5704 12.8676 14.9198 13.3473 14.4402C13.827 13.9604 14.4776 13.691 15.156 13.691C15.8344 13.691 16.4851 13.9604 16.9647 14.4402C17.4444 14.9198 17.7139 15.5704 17.7139 16.2488C17.7139 16.9272 17.4444 17.5779 16.9647 18.0575C16.4851 18.5372 15.8344 18.8067 15.156 18.8067C14.4778 18.8059 13.8277 18.5362 13.3481 18.0567C12.8686 17.5771 12.5989 16.927 12.5981 16.2488V16.2488Z" fill="#4D1300"/>
<path d="M17.1459 16.249C17.1459 15.7213 16.9363 15.2153 16.5631 14.8423C16.1901 14.4691 15.6841 14.2595 15.1564 14.2595C14.6287 14.2595 14.1228 14.4691 13.7497 14.8423C13.3766 15.2153 13.167 15.7213 13.167 16.249C13.167 16.7767 13.3766 17.2826 13.7497 17.6557C14.1227 18.0288 14.6287 18.2384 15.1564 18.2384C15.6839 18.2378 16.1895 18.0279 16.5625 17.655C16.9354 17.282 17.1452 16.7764 17.1459 16.249V16.249ZM13.7354 16.249C13.7354 15.8721 13.8851 15.5107 14.1515 15.2441C14.4181 14.9776 14.7796 14.8279 15.1564 14.8279C15.5333 14.8279 15.8947 14.9777 16.1613 15.2441C16.4278 15.5106 16.5775 15.8721 16.5775 16.249C16.5775 16.6258 16.4277 16.9873 16.1613 17.2539C15.8948 17.5203 15.5333 17.67 15.1564 17.67C14.7797 17.6695 14.4185 17.5196 14.1521 17.2533C13.8858 16.9869 13.7359 16.6257 13.7354 16.249Z" fill="#4D1300"/>
<rect x="3" y="3" width="24" height="24" rx="6" stroke="#4D1300" stroke-width="2"/>
</g>
</svg>
