<svg width="30" height="30" viewBox="0 0 30 30" fill="none" xmlns="http://www.w3.org/2000/svg">
<mask id="mask0_647_420" style="mask-type:alpha" maskUnits="userSpaceOnUse" x="0" y="0" width="30" height="30">
<rect width="30" height="30" rx="5" fill="#FFDC60"/>
</mask>
<g mask="url(#mask0_647_420)">
<rect width="30" height="30" rx="8" fill="#DE3838"/>
<rect x="3" y="3" width="24" height="24" rx="6" stroke="#46130D" stroke-width="2"/>
<path d="M12.2828 13.8073L10.7658 14.3771C10.5959 14.4339 10.4119 14.3319 10.3744 14.1579L9.64748 10.6908C9.45569 9.80083 8.1896 9.74987 7.95421 10.6305L5.83554 17.9903C5.6401 18.6803 6.32087 19.3028 6.99648 19.056L8.51344 18.4862C8.68336 18.4294 8.86731 18.5314 8.90482 18.7054L9.63177 22.1725C9.82355 23.0625 11.0896 23.1134 11.325 22.2328L13.4244 14.8771C13.6348 14.1638 12.954 13.5412 12.2826 13.8075L12.2828 13.8073Z" fill="#46130D"/>
<path d="M16.3062 12.3734C15.9077 11.933 15.1862 11.9669 14.8482 12.465L14.8026 12.5355C14.5556 12.8923 14.5589 13.3775 14.8509 13.6992C15.2025 14.1094 15.4699 14.5983 15.5908 15.1594C15.7117 15.7203 15.6695 16.2761 15.518 16.7946C15.3844 17.2081 15.5812 17.6515 15.9533 17.875L16.0238 17.9205C16.5328 18.2157 17.2084 17.9689 17.3902 17.4034C17.6574 16.5765 17.706 15.6752 17.5101 14.7661C17.3058 13.818 16.8901 13.0168 16.3062 12.3734V12.3734Z" fill="#46130D"/>
<path d="M18.1982 9.59725C17.7886 9.19962 17.1183 9.28332 16.7912 9.73847L16.7457 9.809C16.4643 10.1936 16.5186 10.7284 16.8729 11.057C17.8096 11.9281 18.5062 13.0938 18.798 14.4481C19.0898 15.8022 18.9352 17.1515 18.4404 18.331C18.2529 18.7763 18.4235 19.2862 18.8385 19.5207L18.9091 19.5662C19.3946 19.8462 20.0356 19.627 20.2493 19.1154C20.9055 17.5569 21.1163 15.811 20.7327 14.0312C20.3492 12.2513 19.4379 10.7472 18.1982 9.59726L18.1982 9.59725Z" fill="#46130D"/>
<path d="M20.1216 6.87497C19.701 6.52023 19.0459 6.58046 18.7382 7.0313L18.6927 7.10183C18.396 7.50991 18.474 8.05992 18.8669 8.38009C20.4318 9.72314 21.5811 11.5809 22.048 13.7476C22.5149 15.9143 22.2327 18.0805 21.3599 19.9489C21.1532 20.3983 21.3085 20.9316 21.7277 21.1854L21.7982 21.231C22.2837 21.511 22.8902 21.3196 23.1232 20.8037C24.1767 18.5525 24.5262 15.9467 23.9633 13.3351C23.4005 10.7234 22.0089 8.49274 20.1216 6.87502L20.1216 6.87497Z" fill="#46130D"/>
</g>
</svg>
