<svg width="30" height="30" viewBox="0 0 30 30" fill="none" xmlns="http://www.w3.org/2000/svg">
<mask id="mask0_647_373" style="mask-type:alpha" maskUnits="userSpaceOnUse" x="0" y="0" width="30" height="30">
<rect width="30" height="30" rx="5" fill="#FFDC60"/>
</mask>
<g mask="url(#mask0_647_373)">
<rect width="30" height="30" rx="8" fill="#848C8D"/>
<g style="mix-blend-mode:screen" opacity="0.3">
<path fill-rule="evenodd" clip-rule="evenodd" d="M24.2255 14.9421C25.1157 17.1586 24.4155 19.9941 23.1461 21.7985C21.9488 23.5005 19.7588 23.3932 17.9136 23.9145C16.489 24.3171 15.102 24.7893 13.6296 24.4875C12.1364 24.1814 10.8333 23.2627 9.57927 22.2061C8.04403 20.9125 5.98039 19.8485 5.57721 17.7027C5.17355 15.5544 6.91446 13.8971 7.65144 11.9459C8.43449 9.87274 8.23435 6.75758 10.0251 5.92665C11.8379 5.08554 13.774 7.17926 15.5744 8.26962C16.8598 9.04809 17.7273 10.3903 18.9402 11.3258C20.69 12.6754 23.3329 12.7193 24.2255 14.9421Z" fill="white"/>
</g>
<rect x="3" y="3" width="24" height="24" rx="6" stroke="#1B2838" stroke-width="2"/>
<path d="M18.6121 7.71242L14.929 6L11.246 7.71242H7V20.2157L14.9289 24.4852L22.8579 20.2157V7.71242H18.6121ZM13.8735 21.506L9.11142 18.949V15.6414H13.8735V21.506ZM13.8735 13.5301H9.11142V9.82368H11.7387L13.8969 8.81505V13.5302L13.8735 13.5301ZM20.7468 18.949L15.9847 21.5059V15.6413H20.7468V18.949ZM20.7468 13.5301H15.9847V8.83842L18.1429 9.84705H20.7702L20.7704 13.5301H20.7468Z" fill="#1B2838"/>
</g>
</svg>
