<svg width="30" height="30" viewBox="0 0 30 30" fill="none" xmlns="http://www.w3.org/2000/svg">
<mask id="mask0_647_354" style="mask-type:alpha" maskUnits="userSpaceOnUse" x="0" y="0" width="30" height="30">
<rect width="30" height="30" rx="5" fill="#FFDC60"/>
</mask>
<g mask="url(#mask0_647_354)">
<rect width="30" height="30" rx="8" fill="#49D257"/>
<g style="mix-blend-mode:screen" opacity="0.6">
<path fill-rule="evenodd" clip-rule="evenodd" d="M16.2011 6.1458C18.1295 5.58983 20.3727 6.69772 21.7002 8.21768C22.9522 9.65129 22.5979 11.802 22.8017 13.7036C22.9591 15.1718 23.1783 16.613 22.7514 18.0253C22.3186 19.4577 21.4057 20.6122 20.3857 21.6979C19.1368 23.0272 18.0122 24.9127 16.2011 24.9973C14.3879 25.0821 13.2386 23.1172 11.726 22.1025C10.1188 21.0242 7.53637 20.766 7.07173 18.8729C6.6014 16.9565 8.55605 15.3479 9.67028 13.7266C10.4658 12.569 11.6734 11.9074 12.5891 10.8445C13.91 9.31123 14.2674 6.70333 16.2011 6.1458Z" fill="white"/>
</g>
<path d="M17.7681 21.5383H12.0904C11.8874 21.5383 11.7 21.6465 11.5986 21.8222C11.4971 21.9979 11.4971 22.2143 11.5986 22.39C11.7 22.5657 11.8874 22.6739 12.0904 22.6739H13.325C13.482 23.1194 13.8172 23.4795 14.2503 23.6681C14.6834 23.8565 15.1754 23.8565 15.6084 23.6681C16.0415 23.4795 16.3766 23.1194 16.5338 22.6739H17.7683C17.9711 22.6739 18.1585 22.5657 18.2599 22.39C18.3614 22.2143 18.3614 21.9979 18.2599 21.8222C18.1585 21.6465 17.9711 21.5383 17.7683 21.5383H17.7681Z" fill="#3C2A5A"/>
<path d="M17.7681 19.8352H12.0904C11.8874 19.8352 11.7 19.9434 11.5986 20.1191C11.4971 20.2948 11.4971 20.5112 11.5986 20.6869C11.7 20.8626 11.8874 20.9708 12.0904 20.9708H17.7681C17.9709 20.9708 18.1583 20.8626 18.2597 20.6869C18.3613 20.5112 18.3613 20.2948 18.2597 20.1191C18.1583 19.9434 17.9709 19.8352 17.7681 19.8352Z" fill="#3C2A5A"/>
<path d="M18.6074 15.8053C19.2883 14.8914 19.6045 13.7568 19.4944 12.6223C19.3844 11.488 18.856 10.4353 18.0121 9.66936C17.1681 8.90343 16.0693 8.479 14.9296 8.479C13.79 8.479 12.6911 8.90339 11.8472 9.66936C11.0033 10.4353 10.4748 11.488 10.3647 12.6223C10.2546 13.7568 10.5708 14.8914 11.2518 15.8053L12.9835 18.1303L12.9851 18.1316L12.0905 18.1318C11.8876 18.1318 11.7002 18.24 11.5988 18.4157C11.4974 18.5914 11.4974 18.8078 11.5988 18.9835C11.7002 19.1591 11.8876 19.2673 12.0905 19.2673H17.7683C17.9711 19.2673 18.1585 19.1591 18.2599 18.9835C18.3614 18.8078 18.3614 18.5914 18.2599 18.4157C18.1585 18.24 17.9711 18.1318 17.7683 18.1318H16.8736L16.8756 18.1305L18.6074 15.8053ZM15.498 18.1318H14.3588L14.3604 18.1305V14.7237H13.5087C13.3059 14.7237 13.1184 14.6155 13.017 14.4398C12.9156 14.2641 12.9156 14.0477 13.017 13.8721C13.1184 13.6964 13.3059 13.5882 13.5087 13.5882H16.3477C16.5506 13.5882 16.738 13.6964 16.8394 13.8721C16.9408 14.0478 16.9408 14.2641 16.8394 14.4398C16.738 14.6155 16.5506 14.7237 16.3477 14.7237H15.496V18.1305L15.498 18.1318Z" fill="#3C2A5A"/>
<path d="M21.6444 16.2879L20.6609 15.7201C20.5306 15.6443 20.3753 15.6236 20.2296 15.6625C20.0839 15.7013 19.9596 15.7966 19.8841 15.9272C19.8088 16.0577 19.7884 16.213 19.8276 16.3587C19.8668 16.5043 19.9623 16.6283 20.0931 16.7035L21.0766 17.2712C21.207 17.347 21.3623 17.3677 21.508 17.3289C21.6537 17.2899 21.778 17.1948 21.8534 17.0641C21.9288 16.9335 21.9492 16.7783 21.9099 16.6326C21.8708 16.487 21.7752 16.3629 21.6444 16.2879V16.2879Z" fill="#3C2A5A"/>
<path d="M20.3778 10.4889C20.4774 10.4889 20.5751 10.4627 20.6612 10.4127L21.6446 9.84494C21.8203 9.74355 21.9285 9.55598 21.9285 9.35319C21.9285 9.15039 21.8202 8.96299 21.6446 8.86143C21.4689 8.76003 21.2526 8.76003 21.0769 8.86157L20.0934 9.42934C19.948 9.51321 19.8473 9.65733 19.8182 9.82258C19.7891 9.98799 19.8346 10.1578 19.9426 10.2862C20.0507 10.4149 20.21 10.489 20.3779 10.4889L20.3778 10.4889Z" fill="#3C2A5A"/>
<path d="M14.9296 7.34369C15.0801 7.34369 15.2245 7.28386 15.331 7.1774C15.4374 7.07094 15.4972 6.92653 15.4974 6.7759V5.64031C15.4974 5.43753 15.389 5.24997 15.2135 5.14855C15.0378 5.04716 14.8212 5.04716 14.6457 5.14855C14.47 5.24995 14.3618 5.43752 14.3618 5.64031V6.7759C14.3618 6.92654 14.4216 7.07094 14.5281 7.1774C14.6346 7.28386 14.779 7.34369 14.9296 7.34369H14.9296Z" fill="#3C2A5A"/>
<path d="M9.76532 9.42908L8.78184 8.86131C8.60615 8.75977 8.38976 8.75977 8.21407 8.86131C8.03837 8.9627 7.93018 9.15013 7.93018 9.35292C7.93018 9.55585 8.03838 9.74326 8.21407 9.84468L9.19755 10.4125C9.37325 10.5138 9.58964 10.5138 9.76532 10.4125C9.94102 10.3111 10.0492 10.1236 10.0492 9.92069C10.0492 9.71791 9.94102 9.5305 9.76532 9.42908Z" fill="#3C2A5A"/>
<path d="M9.19772 15.7197L8.21424 16.2874C8.08345 16.3625 7.98785 16.4866 7.94874 16.6322C7.90948 16.7779 7.92991 16.933 8.00523 17.0637C8.08069 17.1943 8.20497 17.2895 8.35068 17.3284C8.49639 17.3673 8.65167 17.3466 8.78204 17.2708L9.76552 16.703C9.94064 16.6013 10.0484 16.4141 10.0483 16.2116C10.0481 16.0091 9.94005 15.8219 9.76465 15.7205C9.58938 15.6192 9.37341 15.6189 9.19773 15.7197L9.19772 15.7197Z" fill="#3C2A5A"/>
<rect x="3" y="3" width="24" height="24" rx="6" stroke="#3C2A5A" stroke-width="2"/>
</g>
</svg>
