<svg width="30" height="30" viewBox="0 0 30 30" fill="none" xmlns="http://www.w3.org/2000/svg">
<mask id="mask0_647_334" style="mask-type:alpha" maskUnits="userSpaceOnUse" x="0" y="0" width="30" height="30">
<rect width="30" height="30" rx="5" fill="#FFDC60"/>
</mask>
<g mask="url(#mask0_647_334)">
<rect width="30" height="30" rx="8" fill="#A776E4"/>
<g style="mix-blend-mode:screen" opacity="0.5">
<path fill-rule="evenodd" clip-rule="evenodd" d="M16.2166 21.0418C14.2543 21.3913 12.4375 22.8955 10.5404 22.3682C8.55348 21.8159 6.89291 20.1701 6.37591 18.3067C5.88157 16.525 7.13329 14.769 7.96139 13.0729C8.60568 11.7533 9.41063 10.5363 10.6201 9.61402C11.7654 8.7406 13.1433 8.26916 14.5921 8.01647C16.1157 7.75072 17.6525 7.68201 19.1094 8.13336C20.7961 8.6559 22.7847 9.23698 23.4551 10.7622C24.1235 12.283 22.6791 13.8797 22.352 15.5106C22.0174 17.1786 22.8397 19.2227 21.5194 20.4129C20.2004 21.6021 18.0126 20.722 16.2166 21.0418Z" fill="white"/>
</g>
<rect x="3" y="3" width="24" height="24" rx="6" stroke="#590C6C" stroke-width="2"/>
<path d="M15.764 18.5086C15.5852 18.5086 15.4263 18.5086 15.2476 18.5285C14.8901 16.9394 14.0757 14.2977 12.4073 11.8347C13.5195 11.3381 14.8901 11.5566 16.2606 12.6887C16.4394 12.8278 16.6778 12.649 16.6181 12.4504C16.1811 10.9011 15.0092 9.76886 13.7181 9.55037C14.4529 9.29211 15.4461 9.17295 16.6577 9.17295C16.8762 9.17295 16.9756 8.89487 16.7968 8.75576C15.3469 7.64347 13.4202 7.44478 12.0893 8.08046C12.2284 7.62365 12.4468 7.1667 12.725 6.70989C12.8442 6.5112 12.6654 6.2927 12.447 6.37224C11.3545 6.80922 10.4805 7.66325 10.0832 8.65639C8.9312 8.41808 7.54081 8.65639 6.40863 9.41121C6.20994 9.55032 6.32924 9.84819 6.56755 9.8284C7.16347 9.76882 7.77918 9.78863 8.33534 9.92774C7.04418 10.623 6.05104 12.3312 6.13042 14.1982C6.13042 14.4167 6.42831 14.4961 6.54761 14.3174C7.16332 13.4036 7.93797 12.5894 8.71262 12.1126C8.03732 13.2647 8.17629 14.8736 8.99069 16.1448C9.10985 16.3435 9.40788 16.2441 9.40788 16.0256C9.44765 14.238 10.1229 12.9866 11.1757 12.5298C12.5263 14.814 12.8045 17.1777 12.8045 18.8263C9.62637 19.5216 8.33536 21.2298 8.33536 22.1036C8.33536 23.2159 25.0002 23.1961 25.0002 21.9844C25.0001 20.753 22.8747 18.5085 15.764 18.5085L15.764 18.5086Z" fill="#590C6C"/>
</g>
</svg>
