<svg width="30" height="30" viewBox="0 0 30 30" fill="none" xmlns="http://www.w3.org/2000/svg">
<mask id="mask0_647_342" style="mask-type:alpha" maskUnits="userSpaceOnUse" x="0" y="0" width="30" height="30">
<rect width="30" height="30" rx="5" fill="#FFDC60"/>
</mask>
<g mask="url(#mask0_647_342)">
<rect width="30" height="30" rx="8" fill="#DA1EDE"/>
<g style="mix-blend-mode:screen" opacity="0.6">
<path fill-rule="evenodd" clip-rule="evenodd" d="M8.85059 15.4079C8.76329 13.4166 7.51217 11.4171 8.28535 9.60621C9.09511 7.70962 10.9458 6.28091 12.8611 6.01448C14.6925 5.75972 16.2678 7.23234 17.8397 8.27715C19.0627 9.09004 20.1628 10.0486 20.9173 11.3693C21.6318 12.6199 21.9172 14.048 21.9764 15.5174C22.0386 17.0629 21.9038 18.5952 21.2641 19.9798C20.5234 21.5827 19.6848 23.4771 18.0844 23.9403C16.4887 24.402 15.0967 22.7594 13.5232 22.2198C11.914 21.668 9.7793 22.2132 8.77378 20.7473C7.76916 19.2827 8.93049 17.2304 8.85059 15.4079Z" fill="white"/>
</g>
<path d="M15.0741 6.25342C14.8102 6.25342 14.584 6.46078 14.584 6.74349V8.21379C14.584 8.47768 14.7913 8.70386 15.0741 8.70386C15.3379 8.70386 15.5641 8.4965 15.5641 8.21379V6.74349C15.5453 6.47959 15.338 6.25342 15.0741 6.25342V6.25342Z" fill="#1E116F" stroke="#1E116F" stroke-width="0.5"/>
<path d="M12.5107 9.4957C12.605 9.58998 12.7369 9.64652 12.85 9.64652C12.963 9.64652 13.095 9.58998 13.1892 9.4957C13.3777 9.30715 13.3777 9.00564 13.1892 8.8171L12.1525 7.76153C11.964 7.57298 11.6625 7.57298 11.4739 7.76153C11.2854 7.95009 11.2854 8.2516 11.4739 8.44013L12.5107 9.4957Z" fill="#1E116F" stroke="#1E116F" stroke-width="0.5"/>
<path d="M17.2987 9.60869C17.4307 9.60869 17.5437 9.55215 17.6379 9.45788L18.6747 8.42109C18.8632 8.23254 18.8632 7.93102 18.6747 7.74249C18.4861 7.55394 18.1846 7.55394 17.9961 7.74249L16.9593 8.77928C16.7707 8.96783 16.7707 9.26934 16.9593 9.45788C17.0348 9.57096 17.1668 9.60869 17.2987 9.60869V9.60869Z" fill="#1E116F" stroke="#1E116F" stroke-width="0.5"/>
<path d="M14.0942 11.4749L9.53253 10.1177C9.28744 10.0424 9.02354 10.1555 8.91048 10.3816L7.47791 13.3222C7.06321 14.1516 6.98784 15.0752 7.25175 15.9235C7.55338 16.9414 8.30732 17.7142 9.24982 18.1102L8.23185 21.522C8.19411 21.654 8.06223 21.7294 7.93022 21.7106L6.44113 21.4655C6.30912 21.4467 6.17724 21.522 6.1395 21.654C6.10176 21.8049 6.17724 21.9557 6.32805 21.9933L10.3431 23.1809C10.4939 23.2186 10.6447 23.1431 10.6823 22.9923C10.7201 22.8603 10.6635 22.7096 10.5315 22.6719L9.15551 22.0874C9.0235 22.0309 8.96696 21.8989 9.00469 21.767L10.0037 18.3551C11.0216 18.5247 12.0584 18.2798 12.869 17.6012C13.5476 17.0357 13.9811 16.2063 14.0942 15.2827L14.4711 12.0405C14.5089 11.7954 14.3393 11.5503 14.0942 11.4749L14.0942 11.4749ZM13.378 14.7171C13.0953 14.3779 12.6994 14.0385 12.0963 13.7934C10.6072 13.2091 9.83433 14.2647 8.36399 13.2845L9.53266 10.9282L13.6797 12.1534L13.378 14.7171Z" fill="#1E116F" stroke="#1E116F" stroke-width="0.5"/>
<path d="M23.7078 21.4843L22.2187 21.7294C22.0867 21.7482 21.9548 21.6728 21.9171 21.5408L20.8991 18.129C21.8604 17.733 22.5956 16.9414 22.8972 15.9423C23.1611 15.0941 23.0668 14.1704 22.671 13.341L21.2196 10.4004C21.1065 10.1743 20.8426 10.0612 20.5975 10.1365L16.0358 11.4937C15.7907 11.5691 15.6399 11.7954 15.6588 12.0593L16.0358 15.3015C16.1489 16.2251 16.5824 17.0357 17.261 17.62C18.0527 18.2986 19.1082 18.5437 20.1262 18.3739L21.1253 21.7858C21.163 21.9178 21.1065 22.0685 20.9745 22.1062L19.5984 22.7095C19.4664 22.766 19.4099 22.898 19.4476 23.0299C19.4854 23.1807 19.6362 23.2561 19.7868 23.2185L23.8019 22.0309C23.9527 21.9931 24.0281 21.8423 23.9905 21.6916C23.9717 21.5408 23.8396 21.4466 23.7078 21.4843L23.7078 21.4843ZM18.0528 13.8123C17.4685 14.0385 17.0538 14.3966 16.7711 14.736L16.4694 12.1724L20.6164 10.9472L21.7851 13.3035C20.3336 14.2836 19.5609 13.2092 18.0528 13.8123H18.0528Z" fill="#1E116F" stroke="#1E116F" stroke-width="0.5"/>
<rect x="3" y="3" width="24" height="24" rx="6" stroke="#1E116F" stroke-width="2"/>
</g>
</svg>
