<svg width="30" height="30" viewBox="0 0 30 30" fill="none" xmlns="http://www.w3.org/2000/svg">
<mask id="mask0_601_208" style="mask-type:alpha" maskUnits="userSpaceOnUse" x="0" y="0" width="30" height="30">
<rect width="30" height="30" rx="5" fill="#FFDC60"/>
</mask>
<g mask="url(#mask0_601_208)">
<rect width="30" height="30" rx="8" fill="#FFDC60"/>
<g style="mix-blend-mode:screen" opacity="0.8">
<path fill-rule="evenodd" clip-rule="evenodd" d="M14.1114 6.15595C15.9384 5.71265 17.9854 6.23586 19.4583 7.45288C20.9078 8.65058 21.2798 10.6928 21.8354 12.5381C22.3859 14.3662 23.5877 16.4308 22.6584 18.0818C21.7089 19.7688 19.1178 19.0662 17.556 20.1412C16.1232 21.1275 15.802 23.6683 14.1114 23.9649C12.4335 24.2593 11.037 22.6381 9.71359 21.517C8.45729 20.4527 7.29437 19.2701 6.70729 17.6924C6.09464 16.046 5.65298 14.1315 6.3703 12.5323C7.06624 10.9807 9.01782 10.7334 10.3037 9.67418C11.6674 8.55091 12.422 6.5659 14.1114 6.15595Z" fill="white"/>
</g>
<rect x="3" y="3" width="24" height="24" rx="6" stroke="#B12B00" stroke-width="2"/>
<path fill-rule="evenodd" clip-rule="evenodd" d="M15.7071 7.29289C15.5196 7.10536 15.2652 7 15 7C14.7348 7 14.4804 7.10536 14.2929 7.29289C14.1054 7.48043 14 7.73478 14 8V9C14 9.26522 14.1054 9.51957 14.2929 9.70711C14.4804 9.89464 14.7348 10 15 10C15.2652 10 15.5196 9.89464 15.7071 9.70711C15.8946 9.51957 16 9.26522 16 9V8C16 7.73478 15.8946 7.48043 15.7071 7.29289ZM17.8284 17.8284C18.5786 17.0783 19 16.0609 19 15C19 13.9391 18.5786 12.9217 17.8284 12.1716C17.0783 11.4214 16.0609 11 15 11C13.9391 11 12.9217 11.4214 12.1716 12.1716C11.4214 12.9217 11 13.9391 11 15C11 16.0609 11.4214 17.0783 12.1716 17.8284C12.9217 18.5786 13.9391 19 15 19C16.0609 19 17.0783 18.5786 17.8284 17.8284ZM19.243 20.657L18.536 19.95C18.3538 19.7614 18.253 19.5088 18.2553 19.2466C18.2576 18.9844 18.3628 18.7336 18.5482 18.5482C18.7336 18.3628 18.9844 18.2576 19.2466 18.2553C19.5088 18.253 19.7614 18.3538 19.95 18.536L20.657 19.243C20.8392 19.4316 20.94 19.6842 20.9377 19.9464C20.9354 20.2086 20.8302 20.4594 20.6448 20.6448C20.4594 20.8302 20.2086 20.9354 19.9464 20.9377C19.6842 20.94 19.4316 20.8392 19.243 20.657ZM20.9488 10.05C20.9488 9.78484 20.8435 9.53053 20.656 9.343H20.657C20.4695 9.15553 20.2152 9.05021 19.95 9.05021C19.6848 9.05021 19.4305 9.15553 19.243 9.343L18.536 10.05C18.4405 10.1422 18.3643 10.2526 18.3119 10.3746C18.2595 10.4966 18.2319 10.6278 18.2307 10.7606C18.2296 10.8934 18.2549 11.0251 18.3052 11.148C18.3555 11.2709 18.4297 11.3825 18.5236 11.4764C18.6175 11.5703 18.7291 11.6445 18.852 11.6948C18.9749 11.7451 19.1066 11.7704 19.2394 11.7693C19.3722 11.7681 19.5034 11.7405 19.6254 11.6881C19.7474 11.6357 19.8578 11.5595 19.95 11.464L20.656 10.757C20.8435 10.5695 20.9488 10.3152 20.9488 10.05ZM22.7071 15.7071C22.5196 15.8946 22.2652 16 22 16H21C20.7348 16 20.4804 15.8946 20.2929 15.7071C20.1054 15.5196 20 15.2652 20 15C20 14.7348 20.1054 14.4804 20.2929 14.2929C20.4804 14.1054 20.7348 14 21 14H22C22.2652 14 22.5196 14.1054 22.7071 14.2929C22.8946 14.4804 23 14.7348 23 15C23 15.2652 22.8946 15.5196 22.7071 15.7071ZM15.7071 20.2929C15.5196 20.1054 15.2652 20 15 20C14.7348 20 14.4804 20.1054 14.2929 20.2929C14.1054 20.4804 14 20.7348 14 21V22C14 22.2652 14.1054 22.5196 14.2929 22.7071C14.4804 22.8946 14.7348 23 15 23C15.2652 23 15.5196 22.8946 15.7071 22.7071C15.8946 22.5196 16 22.2652 16 22V21C16 20.7348 15.8946 20.4804 15.7071 20.2929ZM10.3744 11.6809C10.2531 11.6306 10.1428 11.5569 10.05 11.464L9.343 10.757C9.16084 10.5684 9.06005 10.3158 9.06233 10.0536C9.0646 9.7914 9.16977 9.54059 9.35518 9.35518C9.54059 9.16977 9.7914 9.0646 10.0536 9.06233C10.3158 9.06005 10.5684 9.16084 10.757 9.343L11.465 10.05C11.5578 10.1429 11.6315 10.2532 11.6817 10.3746C11.7319 10.4959 11.7577 10.626 11.7577 10.7574C11.7577 10.8887 11.7317 11.0188 11.6814 11.1401C11.6311 11.2614 11.5574 11.3717 11.4645 11.4645C11.3716 11.5573 11.2613 11.631 11.1399 11.6812C11.0186 11.7314 10.8885 11.7572 10.7571 11.7572C10.6258 11.7572 10.4957 11.7312 10.3744 11.6809ZM10.757 20.657L11.464 19.95C11.6462 19.7614 11.747 19.5088 11.7447 19.2466C11.7424 18.9844 11.6372 18.7336 11.4518 18.5482C11.2664 18.3628 11.0156 18.2576 10.7534 18.2553C10.4912 18.253 10.2386 18.3538 10.05 18.536L9.343 19.243C9.16084 19.4316 9.06005 19.6842 9.06233 19.9464C9.0646 20.2086 9.16977 20.4594 9.35518 20.6448C9.54059 20.8302 9.7914 20.9354 10.0536 20.9377C10.3158 20.94 10.5684 20.8392 10.757 20.657ZM9.70711 15.7071C9.51957 15.8946 9.26522 16 9 16H8C7.73478 16 7.48043 15.8946 7.29289 15.7071C7.10536 15.5196 7 15.2652 7 15C7 14.7348 7.10536 14.4804 7.29289 14.2929C7.48043 14.1054 7.73478 14 8 14H9C9.26522 14 9.51957 14.1054 9.70711 14.2929C9.89464 14.4804 10 14.7348 10 15C10 15.2652 9.89464 15.5196 9.70711 15.7071Z" fill="#B12B00"/>
</g>
</svg>
