<svg width="30" height="30" viewBox="0 0 30 30" fill="none" xmlns="http://www.w3.org/2000/svg">
<mask id="mask0_702_202" style="mask-type:alpha" maskUnits="userSpaceOnUse" x="0" y="0" width="30" height="30">
<rect width="30" height="30" rx="5" fill="#FFDC60"/>
</mask>
<g mask="url(#mask0_702_202)">
<rect width="30" height="30" rx="8" fill="#6DF457"/>
<rect x="3" y="3" width="24" height="24" rx="6" stroke="#005382" stroke-width="2"/>
<g style="mix-blend-mode:screen" opacity="0.67">
<path fill-rule="evenodd" clip-rule="evenodd" d="M15.3554 7.78764C17.2221 7.77893 19.1397 6.43183 20.7938 7.28043C22.4773 8.14409 23.0548 10.211 23.5735 12.0038C24.0754 13.738 24.1611 15.5369 23.6868 17.2786C23.1913 19.098 22.4228 20.9621 20.8426 22.0317C19.2786 23.0903 17.248 23.0841 15.3554 22.9177C13.6024 22.7635 12.0444 22.0206 10.5394 21.1255C8.89384 20.1469 6.95768 19.2821 6.27485 17.5173C5.58215 15.727 6.34009 13.7625 6.9921 11.9575C7.62772 10.1979 8.25794 8.17686 9.95446 7.331C11.6057 6.5077 13.5031 7.79628 15.3554 7.78764Z" fill="white"/>
</g>
<path fill-rule="evenodd" clip-rule="evenodd" d="M17.6052 18.9833C17.4535 18.957 17.2924 18.9446 17.1176 18.9446C16.299 18.9446 15.7807 19.2168 15.1229 19.9069C15.0695 19.963 15.0291 20.0037 15 20.0319C14.9709 20.0037 14.9305 19.963 14.877 19.9069C14.2193 19.2168 13.701 18.9446 12.8824 18.9446C12.7073 18.9446 12.546 18.9571 12.3941 18.9834C12.4388 18.8775 12.4829 18.7701 12.526 18.6615C12.7043 18.2126 12.8523 17.7779 12.9595 17.3724C13.0822 16.9092 13.1471 16.5008 13.1471 16.167V15.3337C13.1471 14.6433 12.6049 13.9448 12.0864 13.9448H10.7637C9.00984 13.9448 7.58826 12.4527 7.58826 10.6116V7.55601C7.58826 6.92582 8.43 6.78257 8.61985 7.38041C8.89286 8.23966 9.96191 9.22263 10.7635 9.22263H12.6189C13.6871 9.22263 14.5067 9.89837 15 10.8505C15.4933 9.89837 16.313 9.22263 17.3811 9.22263H19.2366C20.0382 9.22263 21.1072 8.23963 21.3802 7.38041C21.5701 6.78257 22.4118 6.9258 22.4118 7.55601V10.6116C22.4118 12.4526 20.9902 13.9448 19.2363 13.9448H17.9118C17.3932 13.9448 16.8512 14.6434 16.8512 15.3345V16.167C16.8512 16.5007 16.9162 16.9091 17.039 17.3722C17.1464 17.7777 17.2946 18.2124 17.4731 18.6613C17.5163 18.7698 17.5604 18.8773 17.6053 18.9833L17.6052 18.9833ZM6.52946 22H6.26468C6.11853 22 6 21.8756 6 21.7222V21.1667C6 21.0132 6.11853 20.8889 6.26468 20.8889H6.52946C6.79445 20.8889 6.90723 20.8178 7.2139 20.4961C7.70137 19.9845 8.02974 19.7778 8.64707 19.7778C9.26442 19.7778 9.59277 19.9845 10.0802 20.4961C10.3869 20.8178 10.4997 20.8889 10.7647 20.8889C11.0297 20.8889 11.1426 20.8178 11.4492 20.4961C11.9367 19.9845 12.265 19.7778 12.8824 19.7778C13.4997 19.7778 13.8281 19.9845 14.3156 20.4961C14.6221 20.8178 14.735 20.8889 15 20.8889C15.265 20.8889 15.3779 20.8178 15.6844 20.4961C16.1719 19.9845 16.5003 19.7778 17.1176 19.7778C17.7351 19.7778 18.0633 19.9845 18.5508 20.4961C18.8574 20.8178 18.9703 20.8889 19.2353 20.8889C19.5003 20.8889 19.6131 20.8178 19.9198 20.4961C20.4072 19.9845 20.7356 19.7778 21.3529 19.7778C21.9703 19.7778 22.2986 19.9845 22.7861 20.4961C23.0928 20.8178 23.2056 20.8889 23.4705 20.8889H23.7353C23.8815 20.8889 24 21.0132 24 21.1667V21.7222C24 21.8756 23.8815 22 23.7353 22H23.4705C22.8532 22 22.5249 21.7933 22.0374 21.2817C21.7308 20.96 21.6179 20.8889 21.3529 20.8889C21.0879 20.8889 20.9751 20.96 20.6685 21.2817C20.181 21.7933 19.8526 22 19.2353 22C18.6179 22 18.2896 21.7933 17.8022 21.2817C17.4955 20.96 17.3826 20.8889 17.1176 20.8889C16.8526 20.8889 16.7398 20.96 16.4332 21.2817C15.9457 21.7933 15.6173 22 15 22C14.3827 22 14.0543 21.7933 13.5668 21.2817C13.2602 20.96 13.1474 20.8889 12.8824 20.8889C12.6174 20.8889 12.5045 20.96 12.1978 21.2817C11.7104 21.7933 11.3821 22 10.7647 22C10.1473 22 9.81898 21.7933 9.33151 21.2817C9.02494 20.96 8.91206 20.8889 8.64707 20.8889C8.38208 20.8889 8.2692 20.96 7.96263 21.2817C7.47506 21.7933 7.14679 22 6.52946 22V22Z" fill="#005382"/>
</g>
</svg>
