<svg width="30" height="30" viewBox="0 0 30 30" fill="none" xmlns="http://www.w3.org/2000/svg">
<mask id="mask0_623_213" style="mask-type:alpha" maskUnits="userSpaceOnUse" x="0" y="0" width="30" height="30">
<rect width="30" height="30" rx="5" fill="#FFDC60"/>
</mask>
<g mask="url(#mask0_623_213)">
<rect width="30" height="30" rx="8" fill="#7BE869"/>
<g style="mix-blend-mode:screen" opacity="0.8">
<path fill-rule="evenodd" clip-rule="evenodd" d="M8.15392 23.6431C9.73545 24.8855 11.9851 22.9818 13.9657 22.5943C15.4976 22.2945 16.9996 22.2576 18.4322 21.6321C20.2766 20.8267 22.6932 20.3556 23.4082 18.4713C24.1217 16.5911 22.5538 14.6831 21.7677 12.8418C21.0532 11.168 20.403 9.47867 19.0511 8.26498C17.5705 6.93569 15.8053 5.51056 13.8195 5.70612C11.8591 5.89919 10.4197 7.64882 9.23461 9.23176C8.28531 10.4997 8.15395 12.102 7.86639 13.6577C7.61767 15.0033 7.63835 16.2888 7.67769 17.6549C7.73679 19.7074 6.54608 22.3801 8.15392 23.6431Z" fill="white"/>
</g>
<path d="M20.5466 10.1437C20.3333 10.1437 20.1732 10.3035 20.1732 10.5167C20.1732 10.7298 20.3331 10.8898 20.5466 10.8898C20.7599 10.8898 20.92 10.73 20.92 10.5167C20.92 10.3035 20.7421 10.1437 20.5466 10.1437ZM20.5466 10.1437C20.3333 10.1437 20.1732 10.3035 20.1732 10.5167C20.1732 10.7298 20.3331 10.8898 20.5466 10.8898C20.7599 10.8898 20.92 10.73 20.92 10.5167C20.92 10.3035 20.7421 10.1437 20.5466 10.1437ZM18.9289 11.4046C18.9289 11.7066 19.1778 11.973 19.48 11.973H19.4977H19.5333C19.8355 11.973 20.1022 11.7244 20.1022 11.4046V11.3869L18.9289 11.4046ZM18.4666 10.1437C18.2533 10.1437 18.0932 10.3035 18.0932 10.5167C18.0932 10.7298 18.2532 10.8898 18.4666 10.8898C18.6799 10.8898 18.84 10.73 18.84 10.5167C18.84 10.3035 18.68 10.1437 18.4666 10.1437ZM22.8044 12.6834V10.6054H22.3955L20.9555 8.11899H19.8001L19.7999 7.62169H19.9955V7.00001H19V7.62169H19.1955V8.11899H18.0578L16.6178 10.6054H16.1911V12.6834H16.0133V13.3051H17.0088L17.0089 12.6834H16.8133V11.0494L18.04 13.1807H20.9556L22.1822 11.085V12.6834H21.9866V13.3051H23V12.6834L22.8044 12.6834ZM20.5111 12.3638H18.5378L17.5422 10.6587L18.0756 9.73511H20.9556L21.4889 10.6587L20.5111 12.3638ZM20.5466 10.1437C20.3333 10.1437 20.1732 10.3035 20.1732 10.5167C20.1732 10.7298 20.3331 10.8898 20.5466 10.8898C20.7599 10.8898 20.92 10.73 20.92 10.5167C20.92 10.3035 20.7421 10.1437 20.5466 10.1437V10.1437ZM18.9289 11.4046C18.9289 11.7066 19.1778 11.973 19.48 11.973H19.4977H19.5333C19.8355 11.973 20.1022 11.7244 20.1022 11.4046V11.3869L18.9289 11.4046ZM18.4666 10.1437C18.2533 10.1437 18.0932 10.3035 18.0932 10.5167C18.0932 10.7298 18.2532 10.8898 18.4666 10.8898C18.6799 10.8898 18.84 10.73 18.84 10.5167C18.84 10.3035 18.68 10.1437 18.4666 10.1437ZM18.9289 11.3869V11.4046C18.9289 11.7065 19.1778 11.973 19.48 11.973H19.4977H19.5333C19.8355 11.973 20.1022 11.7244 20.1022 11.4046V11.3869H18.9289ZM19.1778 15.1699H16.2266L14.9289 17.39H12.6888L11.4088 15.1699H8.47555L7 17.7096L8.47555 20.2493H11.4088L12.6888 18.0115H14.9466L16.0667 19.9653L14.7333 21.2973C14.2889 21.0842 13.7555 21.2796 13.5422 21.7236C13.3289 22.1676 13.5245 22.7004 13.9689 22.9135C14.4133 23.1266 14.9467 22.9313 15.16 22.4873C15.2667 22.2563 15.2667 21.99 15.1778 21.759L16.6889 20.2493H19.1778L20.6533 17.7096L19.1778 15.1699ZM18.4666 10.1437C18.2533 10.1437 18.0932 10.3035 18.0932 10.5167C18.0932 10.7298 18.2532 10.8897 18.4666 10.8897C18.6799 10.8897 18.84 10.7299 18.84 10.5167C18.84 10.3035 18.68 10.1437 18.4666 10.1437ZM13.1155 7.00001C12.6177 7.00001 12.2266 7.40847 12.2266 7.88804C12.2266 8.01242 12.2443 8.11896 12.2977 8.24322L10.9999 9.53971H8.49321L7.0355 12.0795L8.49321 14.6371H11.4444L12.9199 12.0974L11.6043 9.82404L12.7421 8.68736C13.1865 8.90045 13.7199 8.70508 13.9332 8.26107C14.1465 7.81707 13.9509 7.28421 13.5065 7.07111C13.3821 7.01772 13.2399 7 13.1155 7L13.1155 7.00001ZM20.5466 10.1437C20.3333 10.1437 20.1732 10.3035 20.1732 10.5167C20.1732 10.7298 20.3332 10.8897 20.5466 10.8897C20.7599 10.8897 20.92 10.7299 20.92 10.5167C20.92 10.3035 20.7422 10.1437 20.5466 10.1437V10.1437ZM18.9289 11.3869V11.4046C18.9289 11.7065 19.1778 11.973 19.48 11.973H19.4977H19.5333C19.8355 11.973 20.1023 11.7244 20.1023 11.4046V11.3869H18.9289ZM18.4666 10.1437C18.2533 10.1437 18.0932 10.3035 18.0932 10.5167C18.0932 10.7298 18.2532 10.8897 18.4666 10.8897C18.6799 10.8897 18.84 10.7299 18.84 10.5167C18.84 10.3035 18.6801 10.1437 18.4666 10.1437V10.1437ZM20.5466 10.1437C20.3333 10.1437 20.1732 10.3035 20.1732 10.5167C20.1732 10.7298 20.3332 10.8897 20.5466 10.8897C20.7599 10.8897 20.92 10.7299 20.92 10.5167C20.92 10.3035 20.7422 10.1437 20.5466 10.1437V10.1437ZM18.9289 11.4046C18.9289 11.7065 19.1778 11.973 19.48 11.973H19.4978H19.5333C19.8356 11.973 20.1023 11.7244 20.1023 11.4046V11.3869L18.9289 11.4046ZM18.4667 10.1437C18.2534 10.1437 18.0933 10.3035 18.0933 10.5167C18.0933 10.7298 18.2532 10.8897 18.4667 10.8897C18.68 10.8897 18.8401 10.7299 18.8401 10.5167C18.8401 10.3035 18.6801 10.1437 18.4667 10.1437Z" fill="#086453"/>
<rect x="3" y="3" width="24" height="24" rx="6" stroke="#086453" stroke-width="2"/>
</g>
</svg>
