<svg width="30" height="30" viewBox="0 0 30 30" fill="none" xmlns="http://www.w3.org/2000/svg">
<mask id="mask0_647_390" style="mask-type:alpha" maskUnits="userSpaceOnUse" x="0" y="0" width="30" height="30">
<rect width="30" height="30" rx="5" fill="#FFDC60"/>
</mask>
<g mask="url(#mask0_647_390)">
<rect width="30" height="30" rx="8" fill="#3ACCC3"/>
<g style="mix-blend-mode:screen" opacity="0.7">
<path fill-rule="evenodd" clip-rule="evenodd" d="M23.3249 18.3802C22.8984 20.2308 20.2959 20.4569 18.638 21.3955C17.1434 22.2417 15.8387 23.6196 14.1152 23.5941C12.3798 23.5684 10.7284 22.5773 9.59911 21.2618C8.58026 20.075 8.53191 18.4206 8.3462 16.8742C8.1911 15.5828 8.44616 14.3688 8.61661 13.0809C8.84507 11.3547 8.34671 9.36044 9.51206 8.06491C10.7349 6.7055 12.7969 6.16156 14.6205 6.4063C16.3767 6.64199 17.7695 7.96957 18.9057 9.32559C19.8667 10.4724 19.8255 12.0577 20.4805 13.3999C21.3397 15.1602 23.7631 16.4787 23.3249 18.3802Z" fill="white"/>
</g>
<path d="M15.9803 15.1877C15.9803 15.6252 15.6255 15.9801 15.1879 15.9801C14.7503 15.9801 14.3955 15.6252 14.3955 15.1877C14.3955 14.7501 14.7503 14.3953 15.1879 14.3953C15.6255 14.3953 15.9803 14.7501 15.9803 15.1877Z" fill="#0A4144"/>
<path d="M15.1878 23.3755C19.7043 23.3755 23.3755 19.7043 23.3755 15.1878C23.3755 10.6713 19.7043 7 15.1878 7C10.6713 7 7 10.6713 7 15.1878C7 19.7043 10.6713 23.3755 15.1878 23.3755ZM14.3954 8.63755V11.4901H15.9802V8.63755C18.9912 9.00731 21.3683 11.3843 21.738 14.3954H18.8855V15.9802H21.738C21.3683 18.9912 18.9913 21.3683 15.9802 21.7381V18.8856H14.3954V21.7381C11.3844 21.3683 9.00728 18.9913 8.63751 15.9802H11.49V14.3954H8.63751C9.00727 11.3844 11.3843 9.00732 14.3954 8.63755V8.63755Z" fill="#0A4144"/>
<rect x="3" y="3" width="24" height="24" rx="6" stroke="#0A4144" stroke-width="2"/>
</g>
</svg>
