<svg width="230" height="100" viewBox="0 0 230 100" fill="none" xmlns="http://www.w3.org/2000/svg">
<mask id="mask0" style="mask-type:alpha" maskUnits="userSpaceOnUse" x="0" y="0" width="230" height="100">
<rect width="230" height="100" fill="#666666"/>
</mask>
<g mask="url(#mask0)">
<rect width="230" height="100" fill="url(#paint0_radial)"/>
<rect width="230" height="100" fill="url(#paint1_radial)"/>
<rect width="230" height="100" fill="url(#paint2_radial)"/>
<rect width="230" height="100" fill="url(#paint3_radial)"/>
<rect width="230" height="100" fill="#1681FF" fill-opacity="0.71"/>
<path opacity="0.1" d="M211.928 -69.5894C211.829 -70.6418 209.554 -79.6927 209.761 -76.5008C210.251 -68.9498 210.954 -61.4072 211.55 -53.8637C211.601 -53.2307 211.992 -51.2691 211.247 -53.1494C209.386 -57.8448 207.502 -62.496 205.403 -67.0929C203.689 -70.8464 202.087 -74.6821 200.134 -78.3208C198.787 -80.83 198.704 -79.9044 198.888 -77.382C200.19 -59.5208 200.928 -41.4389 204.498 -23.8653C205.057 -21.1134 205.718 -18.2969 205.941 -15.4861C206.258 -11.4734 203.797 -23.2661 202.27 -26.9904C200.071 -32.3544 197.52 -37.3674 194.574 -42.3481C194.326 -42.7665 192.169 -47.5957 191.321 -47.433C190.459 -47.2675 192.101 -33.3717 192.124 -33.0911C193.46 -17.0986 194.984 -1.00854 198.067 14.7573C198.766 18.332 199.664 21.8562 200.499 25.3992C201.467 29.5077 197.736 17.4213 196.284 13.4577C183.814 -20.5846 170.942 -54.7218 156.601 -88.025C156.192 -88.9738 154.272 -95.4893 153.94 -90.9358C153.076 -79.1038 154.428 -66.9615 155.295 -55.1796C157.003 -31.9967 158.929 -8.82879 160.761 14.3447C160.776 14.5361 161.127 16.424 160.721 15.3681C158.007 8.3058 154.799 1.41027 151.806 -5.53533C146.635 -17.5389 141.357 -29.465 135.747 -41.2699C134.064 -44.8127 132.523 -48.4331 130.791 -51.9523C130.28 -52.9922 128.966 -55.8106 128.654 -54.6945C128.146 -52.8761 128.645 -50.9154 128.771 -49.0316C129.321 -40.8393 130.192 -32.6865 131.514 -24.5792C134.256 -7.76559 138.217 8.84346 141.243 25.6109C143.832 39.9547 140.405 20.8369 142.445 31.6983C142.702 33.0691 141.196 29.2003 140.675 27.9067C134.433 12.424 127.275 -2.67198 120.4 -17.8785C117.907 -23.3906 115.82 -29.6734 112.406 -34.7133C111.192 -36.5057 112.218 -25.7113 112.238 -25.4565C112.849 -17.7222 113.428 -9.98447 114.072 -2.25274C114.308 0.590229 116.381 8.71617 114.925 6.26304C109.4 -3.04329 105.277 -13.1504 99.633 -22.4195C98.5696 -24.1659 97.8102 -25.304 97.5931 -22.4083C96.9601 -13.9655 97.6121 -5.46055 98.2774 2.95709C98.625 7.35532 99.5166 12.0802 99.3476 16.4976C99.3305 16.9455 98.7298 15.8279 98.5423 15.4208C95.9887 9.87607 93.5883 4.24485 91.1253 -1.33944C77.0803 -33.1824 65.9266 -66.5239 50.5811 -97.7722C48.1313 -102.761 48.564 -99.751 48.8734 -95.8365C49.8953 -82.907 51.1568 -70.0091 52.4748 -57.1066C55.0628 -31.7697 58.1779 -6.09706 59.0306 19.3841C59.1092 21.7315 55.1196 16.6192 53.7684 14.6981C46.5667 4.45829 40.3825 -6.506 34.1877 -17.3669C30.532 -23.7762 26.6664 -30.0647 23.0141 -36.4712C20.2994 -41.2331 22.214 -29.8649 22.244 -29.5078C23.5029 -14.5337 25.3203 0.434989 28.2075 15.1878C29.6387 22.5005 31.4955 29.723 32.7877 37.0641C32.8709 37.5372 33.2152 38.9252 33.0201 38.4863C32.0307 36.2597 31.2472 33.9456 30.234 31.7139C23.8963 17.7538 16.9586 4.039 9.43434 -9.31815C6.83868 -13.926 4.27195 -19.7603 0.668378 -23.781C-0.855607 -25.4814 0.370805 -19.2052 0.579515 -16.9314C1.62723 -5.51684 3.25647 5.74706 5.80668 16.9283C7.23386 23.1857 9.6336 29.6547 10.1425 36.0929C10.256 37.5295 7.48675 33.2383 7.38494 33.0996C4.99448 29.8429 2.93497 25.9362 -0.173484 23.2831C-0.634112 22.89 -0.242731 27.7227 -0.161991 28.7443" stroke="white" stroke-width="14" stroke-linecap="round"/>
<path opacity="0.3" d="M366.502 7.5236C366.76 8.5486 367.64 17.8395 366.769 14.7618C364.708 7.48108 362.85 0.137006 360.892 -7.17217C360.727 -7.78551 360.441 -9.7652 360.367 -7.74391C360.181 -2.69656 359.96 2.3166 359.518 7.35081C359.156 11.4613 358.928 15.6119 358.303 19.694C357.872 22.5088 357.484 21.6645 356.814 19.2255C352.075 1.95544 346.728 -15.3338 344.221 -33.0902C343.829 -35.8707 343.511 -38.7463 342.781 -41.4698C341.74 -45.3578 343.361 -33.4208 343.166 -29.4003C342.885 -23.6097 342.155 -18.0324 341.043 -12.3537C340.95 -11.8766 340.53 -6.60421 339.676 -6.47418C338.808 -6.34196 335.713 -19.988 335.641 -20.2603C331.557 -35.7799 327.617 -51.4544 325.255 -67.3444C324.72 -70.9473 324.388 -74.5688 323.992 -78.1871C323.532 -82.3832 324.053 -69.7446 324.009 -65.5236C323.63 -29.2714 322.903 7.20496 320.514 43.3857C320.446 44.4165 320.813 51.1991 318.979 47.0184C314.211 36.155 311.428 24.2589 308.309 12.8641C302.173 -9.55687 296.247 -32.0369 290.231 -54.4905C290.181 -54.6761 289.882 -56.5729 289.852 -55.4421C289.653 -47.8787 288.933 -40.3075 288.434 -32.7613C287.57 -19.7198 286.58 -6.71543 285.237 6.28534C284.834 10.1871 284.591 14.1142 284.135 18.0097C284 19.1608 283.704 22.2562 283.037 21.3085C281.95 19.7645 281.766 17.7496 281.255 15.9318C279.036 8.02673 277.133 0.0513584 275.671 -8.03182C272.637 -24.7954 270.821 -41.7733 268.071 -58.5882C265.718 -72.9725 268.876 -53.8085 267.169 -64.7271C266.954 -66.1052 266.827 -61.9555 266.768 -60.562C266.058 -43.8835 264.355 -27.2635 262.956 -10.6337C262.448 -4.60575 262.58 2.01332 261.047 7.90423C260.501 9.99926 257.861 -0.517322 257.795 -0.764208C255.787 -8.25832 253.747 -15.7448 251.771 -23.2472C251.044 -26.0059 250.282 -34.3574 249.729 -31.5587C247.632 -20.9413 247.122 -10.0372 244.9 0.584842C244.481 2.5862 244.146 3.91262 242.973 1.25588C239.556 -6.49028 237.329 -14.7243 235.143 -22.8804C234.001 -27.1421 233.263 -31.8932 231.628 -36.0004C231.462 -36.4168 231.269 -35.1627 231.229 -34.7164C230.674 -28.6371 230.293 -22.5275 229.838 -16.4411C227.239 18.2646 227.867 53.4166 223.844 87.9963C223.202 93.5168 222.604 90.5354 221.588 86.7425C218.231 74.2145 215.11 61.6364 212.042 49.035C206.015 24.2896 200.374 -0.948502 192.663 -25.2501C191.953 -27.4889 189.901 -21.3374 189.269 -19.0752C185.903 -7.01766 183.738 5.38276 181.528 17.6893C180.223 24.9517 178.681 32.1704 177.379 39.4291C176.412 44.8243 174.418 33.4697 174.327 33.1231C170.51 18.589 167.222 3.8733 165.014 -10.9963C163.919 -18.3669 163.256 -25.7948 162.021 -33.1457C161.942 -33.6194 161.803 -35.0427 161.765 -34.5638C161.577 -32.1346 161.611 -29.6917 161.402 -27.2497C160.093 -11.9744 158.136 3.27022 155.508 18.3738C154.601 23.584 154.131 29.9407 152.078 34.9343C151.209 37.0462 150.268 30.7209 149.705 28.5081C146.879 17.3994 144.651 6.23852 143.319 -5.1522C142.573 -11.5268 142.674 -18.4258 141.002 -24.6641C140.629 -26.0561 139.453 -21.0863 139.403 -20.9215C138.238 -17.0532 137.602 -12.6829 135.559 -9.14374C135.256 -8.61928 134.01 -13.3051 133.745 -14.2949" stroke="white" stroke-linecap="round"/>
<path opacity="0.3" d="M112.502 -36.2102C112.76 -37.2352 113.64 -46.5261 112.769 -43.4484C110.708 -36.1677 108.85 -28.8236 106.892 -21.5144C106.727 -20.9011 106.441 -18.9214 106.367 -20.9427C106.181 -25.99 105.96 -31.0032 105.518 -36.0374C105.156 -40.1479 104.928 -44.2984 104.303 -48.3805C103.872 -51.1954 103.484 -50.351 102.814 -47.9121C98.0746 -30.642 92.7284 -13.3528 90.2213 4.4036C89.8287 7.18409 89.5111 10.0597 88.7813 12.7832C87.7395 16.6712 89.3608 4.73418 89.1658 0.713704C88.885 -5.07686 88.1554 -10.6542 87.0432 -16.3329C86.9497 -16.8099 86.5298 -22.0824 85.6761 -22.2124C84.8079 -22.3446 81.7131 -8.69857 81.6414 -8.4263C77.5568 7.09333 73.617 22.7678 71.2554 38.6578C70.7199 42.2607 70.3882 45.8822 69.9916 49.5006C69.5318 53.6966 70.0528 41.058 70.0087 36.837C69.6304 0.584862 68.9033 -35.8915 66.5141 -72.0723C66.446 -73.1031 66.8134 -79.8857 64.9786 -75.705C60.2109 -64.8416 57.4281 -52.9454 54.3093 -41.5507C48.1726 -19.1297 42.2471 3.35031 36.2307 25.8039C36.181 25.9895 35.8815 27.8863 35.8518 26.7555C35.6532 19.1921 34.9332 11.6209 34.4336 4.07472C33.5702 -8.96681 32.5799 -21.9712 31.2369 -34.9719C30.8338 -38.8737 30.5912 -42.8008 30.1351 -46.6963C30.0003 -47.8474 29.7037 -50.9428 29.0367 -49.995C27.9501 -48.451 27.7656 -46.4361 27.2553 -44.6184C25.0359 -36.7133 23.1331 -28.7379 21.6705 -20.6548C18.6374 -3.8912 16.8212 13.0868 14.0709 29.9016C11.7181 44.286 14.8761 25.1219 13.1693 36.0405C12.9539 37.4186 12.827 33.269 12.7677 31.8754C12.0576 15.1969 10.355 -1.42307 8.95571 -18.0529C8.44849 -24.0808 8.58048 -30.6999 7.04686 -36.5908C6.50145 -38.6858 3.86112 -28.1693 3.79496 -27.9224C1.78692 -20.4283 -0.252679 -12.9418 -2.22935 -5.43935C-2.95617 -2.68069 -3.71765 5.67079 -4.27055 2.87208C-6.36808 -7.74527 -6.87792 -18.6494 -9.10014 -29.2714C-9.51884 -31.2728 -9.85438 -32.5992 -11.0265 -29.9425C-14.4441 -22.1963 -16.6712 -13.9623 -18.8567 -5.80615C-19.9986 -1.54453 -20.7369 3.20665 -22.3721 7.31377C-22.5379 7.73019 -22.7308 6.47615 -22.7714 6.02979C-23.3256 -0.0495133 -23.7065 -6.15912 -24.1622 -12.2454C-26.7605 -46.9511 -26.1332 -82.1032 -30.156 -116.683C-30.7982 -122.203 -31.396 -119.222 -32.4123 -115.429C-35.7691 -102.901 -38.8896 -90.323 -41.9584 -77.7216C-47.9847 -52.9762 -53.6264 -27.7381 -61.3366 -3.43646C-62.0469 -1.19769 -64.099 -7.34914 -64.7306 -9.61136C-68.0972 -21.6689 -70.2625 -34.0693 -72.4725 -46.3759C-73.7766 -53.6383 -75.3189 -60.857 -76.6207 -68.1156C-77.5884 -73.5109 -79.5822 -62.1563 -79.6732 -61.8097C-83.4899 -47.2755 -86.7782 -32.5599 -88.9862 -17.6902C-90.0806 -10.3196 -90.7437 -2.89175 -91.9786 4.45915C-92.0582 4.93285 -92.1975 6.35616 -92.2347 5.87725C-92.4233 3.44805 -92.3886 1.00513 -92.5979 -1.43684C-93.907 -16.7122 -95.8635 -31.9568 -98.4925 -47.0604C-99.3994 -52.2706 -99.8692 -58.6272 -101.922 -63.6209C-102.791 -65.7328 -103.732 -59.4075 -104.295 -57.1946C-107.121 -46.086 -109.349 -34.9251 -110.681 -23.5344C-111.427 -17.1597 -111.326 -10.2607 -112.998 -4.02249C-113.371 -2.63051 -114.547 -7.60032 -114.597 -7.76507C-115.762 -11.6334 -116.398 -16.0036 -118.441 -19.5428C-118.744 -20.0673 -119.99 -15.3815 -120.255 -14.3917" stroke="white" stroke-linecap="round"/>
<g style="mix-blend-mode:overlay" opacity="0.8">
<path d="M0.920533 67.6633C0.920533 76.1089 0.920533 84.5545 0.920533 93.0001C0.920533 93.5478 0.559127 96.3454 1.40949 94.6447C3.72588 90.0119 5.34635 84.9956 7.27695 80.1983C8.67241 76.7308 10.4226 73.2294 11.2997 69.5746C11.365 69.3027 11.6773 68.1712 11.7442 69.1079C12.4903 79.5524 12.9222 89.9515 12.9222 100.423C12.9222 103.204 12.866 102.177 12.9666 99.7121C13.2424 92.9563 14.2433 86.1424 15.5225 79.5093C16.0781 76.6283 16.3675 72.1669 17.9228 69.5746C18.5428 68.5413 19.1295 73.3468 19.1452 73.4641C19.8996 79.0879 20.8677 84.6917 21.4789 90.333C21.8423 93.6872 21.8266 97.2022 22.5235 100.512C22.9417 102.499 24.6676 97.051 25.5017 95.2004C29.3228 86.7222 32.537 77.9857 36.2587 69.4635C37.8619 65.7923 39.3505 61.7947 41.5483 58.4176C42.9252 56.3019 43.3169 60.4034 43.4152 61.0846C45.4712 75.3348 44.6527 89.5634 45.6377 103.846C45.6812 104.477 45.465 107.518 46.3934 105.491C49.7086 98.2514 52.2484 90.6177 54.9279 83.132C57.5321 75.8566 60.2668 68.6499 63.3735 61.5736C63.6513 60.9408 64.9527 56.6489 65.3293 59.4399C66.2737 66.4394 65.7293 73.7787 65.7293 80.8206C65.7293 86.2648 65.8206 91.7019 65.4182 97.134C65.3223 98.4283 64.9438 99.6448 65.596 97.8007C66.9432 93.9914 69.0001 90.3168 70.8411 86.7325C71.5246 85.4021 72.4656 81.8323 73.7304 80.8651C73.8551 80.7697 73.9877 88.6882 73.9527 89.2218C73.6397 93.986 72.9259 98.6723 71.8191 103.313C71.6742 103.92 71.1429 107.282 71.419 104.691C72.0633 98.6438 73.8405 92.8016 75.5084 86.977C77.1265 81.3268 78.307 75.4796 80.0868 69.8858C80.9435 67.1935 80.5314 70.5106 80.5314 71.5527C80.5314 78.3415 80.6858 85.1518 80.3091 91.9332C80.1559 94.6911 80.4075 98.6105 79.3534 101.246C78.835 102.542 79.641 98.4673 79.8646 97.0895C80.8292 91.1471 82.044 85.2508 83.354 79.376C85.6596 69.0354 87.7574 58.3511 91.2439 48.3273C91.5207 47.5317 92.7754 42.851 93.9109 42.5265C94.0159 42.4966 94.1139 53.1358 94.111 53.4391C94.0131 63.4711 93.2989 73.3253 91.9774 83.2654C91.3825 87.7398 91.2404 92.3007 90.5549 96.7561C90.4109 97.6925 90.9944 94.9073 91.3328 94.0224C92.8666 90.0125 94.7382 86.1231 96.4224 82.1764C100.866 71.7621 104.908 61.1849 109.246 50.7276C110.502 47.7009 111.773 44.6749 113.158 41.7042C113.55 40.8627 114.088 39.1832 114.869 38.5482C115.714 37.8615 115.305 40.7057 115.247 41.7931C114.919 47.9835 113.975 54.1419 113.047 60.2623C111.267 72.0055 109.301 83.7256 107.002 95.3782C106.485 97.9954 106.336 101.046 105.424 103.579C104.293 106.72 106.215 96.9446 106.846 93.6668C109.433 80.2325 111.569 66.1094 117.07 53.4836C118.07 51.1873 119.157 48.8213 119.959 46.4604C120.643 44.4451 120.974 42.3186 121.737 40.3262C121.83 40.0846 122.21 39.413 122.048 39.615C121.434 40.3829 120.904 41.9203 120.581 42.7266C114.369 58.2216 111.509 75.2842 110.624 91.8888C110.617 92.0337 110.608 96.6948 110.624 96.6894C111.034 96.5529 111.874 94.7816 111.913 94.7114C113.344 92.1723 114.695 89.5809 115.958 86.9548C119.193 80.2319 121.731 73.2162 124.582 66.3298C124.736 65.9564 126.033 61.6149 126.627 61.3513C126.671 61.3316 126.939 69.9607 126.938 70.3303C126.921 75.1384 126.601 79.8577 126.226 84.6434C125.874 89.1468 127.377 85.0887 128.738 83.0654C130.042 81.1261 131.199 79.0964 132.494 77.1535C134.061 74.8025 133.325 79.8096 133.316 80.3761C133.174 89.5428 132.078 98.5374 130.783 107.602C130.318 110.851 129.834 114.102 129.427 117.359C129.358 117.913 129.28 118.468 129.249 119.026C129.207 119.803 129.181 120.148 129.76 119.381C133.985 113.793 137.054 106.887 140.295 100.712C143.099 95.3699 145.641 90.0096 147.896 84.4211C149.432 80.6143 148.982 85.1495 148.83 86.7325C148.308 92.1581 146.456 97.3697 145.029 102.601C144.855 103.238 144.792 104.282 144.54 104.913C144.037 106.172 144.544 102.201 144.562 100.846C144.679 92.3947 145.31 84.0739 146.496 75.7088C146.849 73.2171 148.322 65.8282 147.607 68.2411C146.119 73.2634 143.651 78.1078 141.073 82.6431C139.171 85.99 136.99 90.0554 133.983 92.6C132.883 93.5312 132.965 88.8739 132.961 88.6884C132.868 84.7046 132.421 75.4858 137.339 73.6641C139.156 72.9912 140.247 73.6348 140.94 75.4866C143.051 81.1305 143.641 87.9089 144.051 93.8891C144.091 94.4705 143.658 98.8846 144.54 99.1787C145.069 99.3551 147.52 93.5984 147.74 93.1779C149.048 90.6861 150.537 88.3494 151.963 85.9324C153.163 83.9001 152.96 85.8862 152.941 87.3993C152.882 92.204 152.123 96.9808 151.341 101.712C151.293 102.001 150.962 104.184 151.03 104.024C155.076 94.4855 160.093 85.146 165.165 76.1089C167.206 72.4715 166.539 78.5488 166.543 79.7983C166.558 84.1395 166.543 88.481 166.543 92.8223C166.543 93.7858 166.218 96.5815 166.632 95.7115C167.986 92.8672 168.507 89.3704 169.432 86.3769C170.609 82.5705 171.823 78.7719 173.099 74.9976C173.445 73.9755 173.729 71.8174 174.722 71.1082C174.749 71.0886 174.928 77.5323 174.922 77.9091C174.839 83.455 174.314 88.9716 174.166 94.5114C174.145 95.3028 173.448 98.6215 175.011 98.2008C176.661 97.7564 178.111 96.4282 179.5 95.4893C182.565 93.4185 181.934 93.8864 182.745 97.4007C182.849 97.849 183.099 100.169 183.968 99.5565C185.4 98.5451 186.186 95.8166 186.924 94.3113C187.604 92.9213 188.348 91.2245 189.524 90.1552C190.139 89.5957 190.307 92.1849 190.368 92.4667C192.4 101.753 196.015 86.1252 199.748 86.9548C203.299 87.744 200.272 98.4133 205.348 93.8446C208.866 90.6789 208.142 108.013 210.949 104.379C211.412 103.78 213.12 98.2475 214.15 100.245C214.984 101.865 215.252 102.528 217.35 102.468C219.152 102.417 220.083 99.5185 221.35 99.6676C221.902 99.7325 223.088 103.679 223.351 104.468" stroke="#1474CC" stroke-width="14" stroke-linecap="round"/>
</g>
<g opacity="0.89">
<path d="M91.9619 44.4895C94.1429 44.7478 96.9443 45.1389 98.9414 46.1375C100.454 46.8939 100.165 47.0834 100.916 45.5801C101.098 45.2177 102.48 42.3814 103.134 43.4232C103.744 44.3948 104.292 45.4148 104.903 46.3919C105.548 47.4233 105.591 46.2944 105.703 45.5316C105.962 43.7568 106.234 41.9858 106.575 40.2243C106.61 40.0471 106.888 38.6524 106.914 38.6975C107.792 40.2022 107.529 42.8744 107.932 44.5622C108.33 46.225 108.959 47.9243 109.726 49.4576C110.179 50.3637 110.681 49.4284 111.034 48.8759C113.149 45.5643 114.58 41.833 116.451 38.3825C116.491 38.3083 118.129 35.4005 118.353 35.7894C118.638 36.2835 118.629 37.2127 118.692 37.7281C118.895 39.3706 119.138 40.9829 119.553 42.5871C119.764 43.4046 120.302 48.2078 121.722 46.5252C125.104 42.5169 126.878 36.9325 130.955 33.4629C131.709 32.8215 131.731 33.5222 131.888 34.2142C132.303 36.0467 132.546 37.8243 133.572 39.4488C135.419 42.3722 139.173 38.9236 140.503 37.195C141.484 35.9204 142.306 34.4625 143.121 33.0751C143.871 31.7975 143.654 32.9873 143.654 33.9718C143.654 35.6103 143.263 41.1243 145.992 38.0917C147.586 36.3209 149.188 34.56 150.803 32.8086C150.962 32.6365 152.463 30.9675 152.608 31.4999C153.187 33.6224 153.555 35.8251 153.905 37.9947C154.005 38.6141 153.97 40.1687 154.462 40.6605C155.198 41.3965 158.212 36.9118 158.655 36.4195C158.883 36.1657 160.055 34.5709 160.545 34.711C160.967 34.8314 160.901 37.2961 160.933 37.6312C161.145 39.8583 161.541 40.7367 163.538 39.0853C165.062 37.8247 166.302 36.2679 167.767 34.9412C168.341 34.421 169.403 33.3402 169.572 34.8079C169.647 35.4537 169.4 42.8252 169.924 42.7446C170.477 42.6595 170.963 42.1118 171.317 41.751C172.665 40.3802 173.855 38.8496 175.025 37.3283C176.287 35.6882 177.643 33.3704 179.375 32.1542C180.202 31.5735 180.277 35.7764 180.296 36.165C180.352 37.2931 180.256 39.2747 180.999 40.2485C182.799 42.6076 185.602 37.9247 186.524 36.9526C186.845 36.6146 187.098 36.2841 187.276 36.9284C187.705 38.4877 188.014 40.0718 188.584 41.5935C189.375 43.7017 191.058 43.3335 192.607 42.2115C193.93 41.2539 194.717 40.8756 195.455 42.5144C196.014 43.7569 196.677 43.7523 197.842 43.193C198.902 42.6841 199.694 42.4884 200.314 43.6171C201.002 44.8707 202.218 45.5801 203.634 45.5801C204.652 45.5801 205.33 45.5558 206.251 46.0163C207.084 46.4326 207.936 46.6706 208.868 46.6706" stroke="#6184CA" stroke-width="12" stroke-linecap="round"/>
<path d="M103.085 68.0988C103.523 68.7483 103.94 69.8437 104.842 69.8437C105.879 69.8437 106.579 69.3771 107.545 69.2015C108.515 69.025 109.168 73.2548 109.277 73.8545C109.373 74.3782 109.402 77.5065 110.198 77.6835C111.037 77.8699 112.179 77.127 112.997 76.9322C114.362 76.6072 114.91 79.9656 115.178 80.8582C115.759 82.7874 115.911 86.1233 117.469 87.5832C118.058 88.1356 118.903 87.9467 119.65 87.9467C120.253 87.9467 120.822 87.7132 121.407 87.7286C123.373 87.7804 124.28 91.2558 124.945 92.6724C125.315 93.4619 125.778 95.3443 126.472 95.9683C126.91 96.3633 128.205 96.2462 128.774 96.453C129.968 96.8871 131.207 97.1962 132.312 97.8101C132.962 98.1713 133.292 99.2884 134.057 99.2884" stroke="#6184CA" stroke-width="12" stroke-linecap="round"/>
<path d="M127.296 77.6956C129.84 77.6956 132.385 77.6956 134.929 77.6956C135.12 77.6956 137.401 78.0239 136.432 77.429C134.451 76.2138 131.956 76.0302 129.84 75.0783C129.489 74.9204 127.148 73.3635 126.847 73.915C126.52 74.5154 126.089 75.0872 125.672 75.6236C124.735 76.8281 128.021 77.1088 128.592 77.2473C130.99 77.8285 133.306 78.6545 135.681 79.3193C136.451 79.5351 137.221 79.4047 137.983 79.6586" stroke="#6184CA" stroke-width="12" stroke-linecap="round"/>
</g>
<path opacity="0.4" d="M57.5005 63.9547C58.9856 63.6691 60.3803 63.0954 61.8627 62.8157C63.1779 62.5676 64.9472 62.3585 66.1037 61.6646C68.2445 60.3801 69.9288 58.7544 71.726 57.0237C73.0395 55.7589 73.8057 56.8779 73.6284 58.296C73.2958 60.9569 68.5199 60.7314 66.7095 60.4165C66.2171 60.3309 64.7578 60.222 66.1037 60.2469C67.9999 60.282 69.8598 60.9012 71.7624 60.9012C73.5275 60.9012 72.7681 64.037 72.7681 65.2634C72.7681 65.8419 71.9356 66.223 71.4595 66.4751C70.3849 67.044 70.4001 65.073 70.0418 64.1971C69.6401 63.2154 69.4279 63.2031 70.5022 62.6461C71.6024 62.0756 73.0754 61.7087 74.2949 61.3859C76.0998 60.9081 77.3279 58.2207 78.3178 61.0103C78.7981 62.364 78.6571 63.8266 78.6571 65.2392C78.6571 65.4155 78.5488 66.6964 78.8752 66.5236C79.7685 66.0507 79.9151 64.5754 80.8866 64.1244C81.4571 63.8595 82.1784 63.6948 82.6921 63.4095C84.1604 62.5937 84.8538 65.9563 85.2488 66.7902C85.3854 67.0785 85.6884 68.1202 86.0728 68.0988C86.8995 68.0529 88.2226 66.2168 88.8961 65.7117C90.5899 64.4413 91.4544 64.7112 91.7921 66.8386C91.833 67.0965 92.3915 69.9376 92.6645 69.9649C93.0649 70.0049 93.5423 69.1894 94.0337 69.1894C94.9346 69.1894 95.2467 69.7267 95.7786 70.3768C96.6113 71.3946 96.0344 69.3381 95.8877 68.9712" stroke="white" stroke-width="6" stroke-linecap="round"/>
<path opacity="0.4" d="M124.678 71.8067C123.64 71.782 121.406 71.0035 121.406 69.6256" stroke="white" stroke-width="6" stroke-linecap="round"/>
<g style="mix-blend-mode:soft-light" opacity="0.47">
<path d="M30.4921 23.3888C17.9554 22.6923 6.29552 16.3218 -4.96133 11.3606C-4.99007 9.34522 -6.334 7.15682 -8.08906 8.8195C-9.88677 10.5226 -12.0804 11.7085 -13.8241 9.86224C-17.1237 6.36852 -18.5764 0.83115 -19.9646 -3.69329C-22.2891 -11.2695 -20.011 -19.3723 -19.2984 -27.0679C-19.0437 -29.8193 -19.8567 -31.0058 -17.2419 -31.4416C-13.339 -32.092 -9.79091 -32.8898 -5.80084 -32.8898H7.29125C16.1121 -32.8898 24.617 -31.0295 33.3885 -30.283C42.5348 -29.5046 51.4053 -29.2402 60.6154 -29.2402C87.2363 -29.2402 113.755 -29.7482 140.211 -32.8898C149.629 -34.0082 158.909 -35.5791 168.393 -36.2497C177.384 -36.8854 186.467 -36.5394 195.476 -36.5394C205.719 -36.5394 217.224 -37.4839 227.308 -35.207C236.606 -33.1075 244.252 -26.8881 244.252 -16.6985C244.252 -8.46454 244.774 -0.137466 244.774 8.18228C244.774 12.0115 243.533 15.1923 240.603 17.6827C238.209 19.7177 234.661 19.2468 231.739 19.2468H219.343C215.374 19.2468 211.645 18.1438 207.757 17.7117C200.649 16.922 193.916 14.5545 186.67 14.5545C179.592 14.5545 172.316 13.6783 165.265 12.9904C158.03 12.2846 150.835 12.069 143.629 11.0208C137.502 10.1296 131.096 11.3307 124.975 11.4263C117.458 11.5438 110.142 13.5918 102.962 15.4814C92.0338 18.3573 81.4175 22.0341 70.4055 24.6922C64.4283 26.135 56.9993 24.9819 50.8543 24.9819C43.9761 24.9819 37.3386 23.7692 30.4921 23.3888Z" fill="white"/>
</g>
<path d="M53.5996 49.6607C55.1252 49.3337 56.9649 49.355 58.3864 48.7565C59.5504 48.2664 60.6286 47.448 61.7903 46.9747C64.0506 46.0539 65.8817 44.8274 68.3323 44.3819C69.7769 44.1192 71.2114 43.7391 72.6271 43.4245C73.4261 43.247 74.4853 42.4509 75.1269 42.0018C76.017 41.3787 77.6331 40.8628 78.7302 40.8051C80.6792 40.7025 82.8526 41.1526 84.7669 40.7519C86.9396 40.2972 89.3079 39.3691 91.5482 39.3691C92.8771 39.3691 94.3873 39.0982 95.617 38.651C97.7357 37.8806 100.126 37.7495 102.199 36.8427C104.446 35.8596 106.93 34.7041 109.366 34.3562C111.611 34.0355 113.846 33.5506 116.014 32.8537C119.941 31.5915 124.22 31.8638 128.034 30.3805C130.294 29.5017 133.024 28.5988 135.454 28.5988" stroke="black" stroke-width="3" stroke-linecap="round"/>
<path d="M135.454 29.5562C137.513 27.6078 140.255 26.2106 142.687 24.7694C143.36 24.3708 144.837 23.812 145.626 23.812C145.871 23.812 147.432 23.42 147.607 23.2801C148.142 22.852 149.427 23.094 150.146 23.094C150.806 23.094 149.133 24.1112 149.096 24.7694C149.058 25.4537 148.848 26.4826 149.694 26.6708C150.415 26.8309 151.032 26.9234 151.848 26.9234C155.503 26.9234 158.991 26.4447 162.632 26.4447C164.793 26.4447 166.835 26.7005 168.961 26.9367C170.737 27.134 172.202 28.3595 173.987 28.3595C174.985 28.3595 175.982 28.3595 176.979 28.3595C177.517 28.3595 179.007 28.4364 179.492 28.652C180.19 28.9621 180.843 29.1043 181.54 29.3035C182.322 29.527 182.637 30.0348 183.561 30.0348C184.008 30.0348 185.019 30.4832 185.356 30.7528C185.664 30.9994 185.788 30.9697 186.194 30.9922C186.72 31.0214 186.624 31.6809 187.151 31.7102C187.998 31.7573 188.442 32.1889 189.185 32.1889C189.619 32.1889 189.816 32.1665 190.143 32.4282C190.866 33.007 191.464 32.9069 192.47 32.9069C193.12 32.9069 192.853 32.9975 193.188 33.3324C193.409 33.5536 194.438 33.37 194.703 33.3856C196.184 33.4727 194.225 36.2412 196.365 35.7657C197.001 35.6244 196.715 35.5049 197.017 36.0183C197.272 36.451 198.225 36.2346 198.639 36.2577C199.24 36.291 200.313 36.4449 200.807 36.856C201.148 37.1406 201.912 36.7351 202.176 37.0289C202.486 37.3732 201.942 38.132 202.708 38.1724C203.166 38.1965 203.879 38.0063 204.264 38.3053C204.923 38.8184 204.771 39.1297 205.806 39.1297C206.545 39.1297 207.093 38.9413 206.963 39.9009C206.916 40.25 206.143 42.1619 206.777 42.2411C207.275 42.3034 206.772 42.9379 207.495 42.9592C208.212 42.9802 208.932 42.9592 209.649 42.9592" stroke="black" stroke-width="3" stroke-linecap="round"/>
<path d="M209.41 42.9592C210.642 44.9806 212.579 46.937 214.675 47.9853" stroke="black" stroke-width="3" stroke-linecap="round"/>
<path d="M214.675 47.9853C216.625 47.9853 218.576 47.9853 220.526 47.9853C221.362 47.9853 222.272 48.2246 223.172 48.2246C223.959 48.2246 224.936 48.0768 225.685 48.3443C226.47 48.6247 227.382 48.4873 228.185 48.7166C228.739 48.8749 229.284 49.0644 229.873 49.1953C231.15 49.479 233.142 49.6768 234.181 50.485C235.222 51.2945 237.21 51.8996 238.49 52.2934C240.27 52.8411 241.916 54.5333 243.276 55.7505C243.915 56.3215 245.125 56.9487 245.55 57.6918C245.879 58.2679 246.82 59.4107 247.345 59.8193C247.833 60.1987 248.097 60.793 248.542 61.1489C249.076 61.5761 249.412 61.8779 248.555 61.3883C247.57 60.8252 246.24 60.3916 245.125 60.0054C243.653 59.4961 241.846 58.7555 240.285 58.7555C237.469 58.7555 234.762 57.7982 231.908 57.7982C228.719 57.7982 226.311 58.2214 223.531 59.7661C222.634 60.2644 221.432 62.3657 221.377 63.303C221.335 64.0154 221.377 64.7432 221.377 65.457C221.377 66.0573 221.855 66.5321 221.855 67.1324" stroke="black" stroke-width="3" stroke-linecap="round"/>
<path d="M221.855 67.1324C220.752 66.2703 219.935 65.1175 218.864 64.2604C218.04 63.6013 217.941 62.6061 217.255 61.9202C215.719 60.3846 215.607 57.0288 214.675 55.1655" stroke="black" stroke-width="3" stroke-linecap="round"/>
<path d="M214.675 55.1655C211.366 55.1655 208.238 54.3057 204.995 53.7162C203.249 53.3987 201.41 53.4901 199.597 53.4901C196.41 53.4901 193.118 53.9688 189.97 53.9688C185.717 53.9688 181.504 54.2081 177.285 54.2081C175.592 54.2081 173.899 54.2081 172.206 54.2081C171.208 54.2081 167.858 54.167 167.525 55.1655" stroke="black" stroke-width="3" stroke-linecap="round"/>
<path d="M167.525 55.1655C164.467 55.1655 161.929 56.7829 159.441 58.4098C157.435 59.7212 154.924 60.7823 153.165 62.3456C151.734 63.6179 149.608 64.4545 147.9 65.4039C146 66.4593 144.037 67.4415 142.155 68.3823C140.38 69.27 138.68 69.6344 136.89 70.43C136.125 70.77 135.294 71.0329 134.497 71.3874C133.655 71.7615 132.525 71.4658 131.624 71.866C130.112 72.5383 128.432 72.6998 126.838 73.4084C126.036 73.7646 124.841 74.2096 123.966 74.3126C123.486 74.369 122.027 74.8392 121.812 75.27" stroke="black" stroke-width="3" stroke-linecap="round"/>
<path d="M132.103 72.3979C133.566 72.9052 134.582 73.5671 135.747 74.4988C136.59 75.1737 138.171 75.3072 139.164 75.7486C139.913 76.0816 140.913 76.3648 141.185 77.3176C141.736 79.2462 140.943 79.2272 139.284 80.0567C136.839 81.279 133.505 81.4928 130.8 81.4928C129.887 81.4928 128.06 81.4967 127.317 81.0008C126.237 80.2813 124.927 80.2189 123.966 79.5781" stroke="black" stroke-width="3" stroke-linecap="round"/>
<path d="M121.093 75.5093C122.098 77.4791 122.902 80.3384 124.444 81.9715C125.175 82.7461 125.8 83.6417 126.478 84.4713C127.215 85.3718 128.345 86.2506 128.752 87.3699C128.929 87.8568 130.024 89.8035 130.427 90.0558C131.201 90.5391 131.719 91.6808 132.528 92.2631C134.342 93.5687 136.083 95.6198 137.475 97.4089C138.01 98.0978 138.643 98.4307 139.23 99.0178C139.764 99.5519 141.567 100.64 140.812 100.64C140.103 100.64 138.932 100.404 138.512 101.119C137.921 102.122 136.788 102.619 135.693 102.555C135.374 102.536 135.139 102.315 134.735 102.315C134.076 102.315 133.773 102.796 133.193 103.007C132.549 103.241 132.628 102.673 132.289 102.369C132.04 102.145 131.103 102.315 130.786 102.315C130.218 102.315 130.213 101.964 129.816 101.85C129.416 101.736 128.891 101.984 128.513 101.783C128.162 101.598 127.881 100.882 127.781 100.534C127.669 100.139 126.868 100.691 126.837 100.161C126.765 98.9283 125.111 100.493 124.803 99.3236C124.762 99.1693 124.669 97.7463 124.444 98.1402C124.208 98.5533 123.753 98.9249 123.247 98.6721C122.884 98.4907 122.779 98.0633 122.476 97.8211C122.238 97.6309 121.796 98.0703 121.452 97.9939C119.884 97.6455 121.885 94.9538 119.896 94.6698C118.537 94.4756 118.57 95.1322 117.796 95.9064C116.787 96.9149 117.024 93.5777 117.024 93.2736C117.024 92.873 117.155 92.3887 117.317 92.0237C117.618 91.3466 117.128 91.6824 116.665 91.4254C116.016 91.0648 115.801 90.5802 115.296 90.0558C114.989 89.7375 114.614 88.876 114.259 88.673C113.784 88.402 113.531 87.7053 113.075 87.5029C112.682 87.3282 112.162 87.6021 111.759 87.4231C111.046 87.1063 110.084 86.9517 110.084 86.1333C110.084 84.8095 110.153 83.5769 110.682 82.3438C111.008 81.5823 110.801 81.7321 110.084 81.7321C109.039 81.7321 108.138 81.5681 107.398 80.828C106.833 80.2633 107.21 78.1421 106.134 78.1421C105.194 78.1421 105.424 76.9706 105.244 76.2273C105 75.2269 104.902 75.988 104.22 75.988C103.549 75.988 101.596 76.6666 101.042 76.1742C100.952 76.0946 102.517 73.6496 102.185 74.3126" stroke="black" stroke-width="3" stroke-linecap="round"/>
<path d="M102.186 74.3126C101.715 73.1055 101.414 71.8669 100.617 70.8422C100.023 70.0784 99.7064 69.0403 99.0742 68.3291C98.2913 67.4483 97.5615 66.2168 97.1595 65.1113C96.8661 64.3044 96.2021 63.7564 96.2021 62.8243" stroke="black" stroke-width="3" stroke-linecap="round"/>
<path d="M117.024 67.1324C117.953 68.6548 119.343 70.2513 119.67 72.0522C119.845 73.0108 120.454 74.8308 121.333 75.27" stroke="black" stroke-width="3" stroke-linecap="round"/>
<path d="M100.75 73.5946C96.9488 73.5946 92.762 73.9172 89.3809 72.0389C86.0527 70.1899 82.6465 70.2439 78.85 70.2439C76.9657 70.2439 75.2093 69.9832 73.4649 69.7652C72.8597 69.6895 71.7875 68.9653 71.1779 68.6882C70.3103 68.2938 69.3148 68.2353 68.4387 67.7973C65.1032 66.1295 60.7161 66.3634 56.9505 66.1751C55.2548 66.0903 53.5444 65.9358 51.8047 65.9358C50.1247 65.9358 47.9461 65.5832 46.2999 65.9491C45.3888 66.1515 44.7647 66.4144 43.7868 66.4144C43.3299 66.4144 41.8721 65.8319 41.8721 65.3374C41.8721 64.6653 41.1154 63.876 40.7286 63.4892C40.2779 63.0385 39 63.6837 39 62.7047C39 61.7822 39.4787 60.8658 39.4787 59.8326C39.4787 59.4426 39.4787 59.0525 39.4787 58.6625C39.4787 58.3539 39.7669 59.2309 40.0105 59.4204C40.1393 59.5206 41.5722 57.0802 42.2311 57.0802C43.1419 57.0802 43.151 56.7668 43.4411 55.8702C43.5303 55.5944 44.1757 53.1311 44.691 53.5433C45.5399 54.2224 45.5926 54.4475 46.7785 54.4475C47.6462 54.4475 49.2763 53.193 49.7703 52.4796C50.1986 51.8609 50.3589 51.7511 51.0202 51.5222C51.4283 51.3809 52.5708 50.9857 52.8684 50.7377C53.1996 50.4617 53.9901 49.6607 54.3177 49.6607" stroke="black" stroke-width="3" stroke-linecap="round"/>
<path d="M49.0522 65.6964C50.1334 64.9101 51.4866 63.9983 52.6423 63.3562C53.2196 63.0355 53.8215 62.5503 54.3177 62.1063C54.8896 61.5946 55.7784 61.552 56.4186 61.149C58.5815 59.7871 61.2041 59.4506 63.4126 58.2237C65.4808 57.0747 66.4979 55.4048 69.1568 55.4048C71.1628 55.4048 72.9469 55.1655 74.9009 55.1655C76.1591 55.1655 76.6025 56.0006 77.5336 56.5483C78.4081 57.0627 79.4442 57.7941 80.1664 58.5162C80.8455 59.1953 81.6282 59.7814 82.3736 60.3777C83.0419 60.9124 83.7399 60.8757 84.4745 61.2021C85.4386 61.6306 86.5895 61.3709 87.5859 61.8138C88.3245 62.142 89.6495 62.3456 90.458 62.3456C91.437 62.3456 92.413 62.585 93.33 62.585C93.7791 62.585 95.8108 62.7597 95.9628 63.0637" stroke="black" stroke-width="1.5" stroke-linecap="round"/>
<path d="M117.264 66.6537C119.74 67.1973 121.974 68.5875 124.205 69.579C125.169 70.0078 126.194 70.2138 127.183 70.4965C127.638 70.6266 129.306 71.3517 129.47 71.6799" stroke="black" stroke-width="1.5" stroke-linecap="round"/>
<path d="M83.7562 53.6098C83.0085 52.6752 80.9392 53.0114 79.9268 53.0114C79.9268 55.0174 81.7889 55.9928 83.7562 55.8835C85.2221 55.8021 84.1962 54.1598 83.7562 53.6098Z" stroke="black" stroke-width="1.5" stroke-linecap="round"/>
<path d="M40.915 59.7129C43.8364 59.1565 46.4103 57.3908 49.0526 56.0697C50.1845 55.5037 51.2571 55.0436 52.4033 54.5006C53.6363 53.9166 55.3712 53.1603 56.7114 53.0114C57.9276 52.8763 59.4826 51.9973 60.727 51.6286C62.1361 51.2111 63.6238 50.8574 65.0883 50.8574C67.4701 50.8574 69.7118 50.3787 72.0292 50.3787" stroke="black" stroke-width="1.5" stroke-linecap="round"/>
<path d="M102.186 42.7198C103.511 42.9849 104.146 43.484 105.058 44.3952" stroke="black" stroke-width="1.5" stroke-linecap="round"/>
<path d="M114.152 47.2673C115.182 47.0663 116.218 46.7886 117.264 46.7886" stroke="black" stroke-width="1.5" stroke-linecap="round"/>
<path d="M120.376 37.4543C119.464 37.4543 118.649 37.4899 117.796 37.1618C117.38 37.0019 117.268 36.7363 116.786 36.7363" stroke="black" stroke-width="1.5" stroke-linecap="round"/>
<path d="M133.539 39.1297C134.364 38.0403 134.932 37.3889 136.172 36.9757" stroke="black" stroke-width="1.5" stroke-linecap="round"/>
<path d="M125.88 39.8477C126.347 40.2123 126.707 40.8051 127.316 40.8051" stroke="black" stroke-width="1.5" stroke-linecap="round"/>
<path d="M149.335 35.3003C149.919 34.3574 150.707 33.1462 151.968 33.1462" stroke="black" stroke-width="1.5" stroke-linecap="round"/>
<path d="M144.788 39.3691C144.592 38.4972 144.265 37.933 143.352 37.933" stroke="black" stroke-width="1.5" stroke-linecap="round"/>
<path d="M161.302 38.8904C161.546 37.5626 162.136 36.2577 163.696 36.2577" stroke="black" stroke-width="1.5" stroke-linecap="round"/>
<path d="M161.781 30.7528C162.635 30.3987 163.413 29.9372 164.175 29.5562" stroke="black" stroke-width="1.5" stroke-linecap="round"/>
<path d="M175.902 32.9069C176.494 33.3553 177.171 34.0199 177.817 34.3429" stroke="black" stroke-width="1.5" stroke-linecap="round"/>
<path d="M185.236 36.9757C186.284 36.9757 187.328 36.8936 188.348 37.1618C188.921 37.3128 189.426 37.6937 190.023 37.6937" stroke="black" stroke-width="1.5" stroke-linecap="round"/>
<path d="M196.007 40.3264C197.07 40.5796 198.207 41.1551 199.118 41.7625" stroke="black" stroke-width="1.5" stroke-linecap="round"/>
<path d="M54.0781 63.7817C56.133 64.5836 58.1174 63.815 60.1813 64.2737C61.9346 64.6633 63.8559 64.4997 65.6861 64.4997C69.369 64.4997 72.8573 65.5656 76.0973 67.1856C77.7536 68.0137 79.5575 68.0898 81.4692 68.0898C83.286 68.0898 84.7964 68.2681 86.5219 68.5818C88.0311 68.8562 89.587 69.3626 91.0428 69.7785C91.8282 70.0029 92.6756 70.6729 93.5691 70.7226C94.3194 70.7642 98.3418 70.6942 98.5953 71.2012" stroke="black" stroke-linecap="round"/>
<path d="M120.854 73.1159C121.573 73.1159 123.642 73.4603 124.205 72.7569C124.417 72.4918 126.202 71.9192 126.598 71.9192" stroke="black" stroke-linecap="round"/>
<path d="M120.136 71.2012C121.119 71.2012 123.442 71.5297 123.965 70.4832" stroke="black" stroke-linecap="round"/>
<path d="M118.939 69.5258C119.696 69.5258 120.683 69.7195 121.333 69.2865" stroke="black" stroke-linecap="round"/>
<path d="M55.9932 62.3457C57.6783 62.3457 60.4096 62.8193 61.9766 62.1595C63.5786 61.485 65.7264 62.2126 67.2421 61.5745C68.5858 61.0087 71.0463 61.3071 72.5076 61.3883C73.322 61.4335 73.8329 62.332 74.5287 62.585C75.1565 62.8133 76.1043 63.3333 76.696 63.662C78.1702 64.481 80.2071 64.7391 81.8418 64.7391C83.5585 64.7391 84.8921 65.0845 86.5089 65.4438C88.2958 65.8409 89.8488 67.0104 91.5351 67.3851C92.4739 67.5937 93.291 67.8505 94.2875 67.8505C94.7394 67.8505 96.7361 67.9609 96.9202 68.3291" stroke="black" stroke-linecap="round"/>
<path d="M65.3276 58.7556C68.1377 58.7556 70.9477 58.7556 73.7577 58.7556C76.607 58.7556 78.5118 60.8476 81.0177 61.9866C83.4653 63.0992 86.3593 62.9907 88.8893 64.1407C89.8971 64.5988 90.9978 64.6759 92.1336 64.739C93.2251 64.7997 95.5361 64.629 95.9631 65.6964" stroke="black" stroke-linecap="round"/>
<path d="M95.8986 29.248C94.8718 29.6375 94.5945 30.352 94.5203 31.2474C94.4733 31.8133 94.3307 31.8704 95.0908 31.8884C95.4886 31.8979 95.8708 31.947 96.2569 31.8096C97.1627 31.4873 97.0114 31.0045 96.8766 30.2445C96.7895 29.7531 96.6457 29.1166 95.941 29.3673" stroke="black" stroke-width="1.5" stroke-linecap="round"/>
<path d="M99.7624 29.89C99.6051 29.946 98.6097 30.1483 98.6826 30.4087C98.7167 30.5308 98.7676 30.8403 98.9304 30.8583C99.2934 30.8987 99.7252 31.0165 100.08 30.9797C101.005 30.8836 100.208 29.6572 99.5372 29.7012" stroke="black" stroke-width="1.5" stroke-linecap="round"/>
<path d="M98.2681 23.0265C97.2168 23.4259 97.8976 23.841 97.8935 24.6388C97.8909 25.1496 98.0514 25.9379 98.421 26.3186C98.9291 26.8419 99.6201 26.7136 100.348 26.4544C101.038 26.209 102.109 26.0221 102.638 25.5351C104.316 23.9902 101.852 21.8178 100.568 21.2222C99.5934 20.7704 97.2904 21.5402 97.3543 22.6793" stroke="black" stroke-width="1.5" stroke-linecap="round"/>
<path d="M106.112 20.6389C106.364 19.5341 107.01 19.1372 108.015 18.7552C108.331 18.4628 108.568 18.1513 109.031 17.9865C109.77 17.7237 109.828 17.8165 110.521 17.9272C111.647 18.1074 111.835 19.1897 111.919 20.0813C111.978 20.7019 112.26 22.0337 111.327 22.4136C109.982 22.961 106.642 23.905 106.081 22.3304C105.87 21.7361 105.964 21.2851 106.112 20.6389Z" fill="white" fill-opacity="0.3"/>
<path d="M108.395 18.6163C107.171 19.0518 106.394 19.4008 106.112 20.6389C105.964 21.2851 105.87 21.7361 106.081 22.3304C106.642 23.905 109.982 22.961 111.327 22.4136C112.26 22.0337 111.978 20.7019 111.919 20.0813C111.835 19.1897 111.647 18.1074 110.521 17.9272C109.828 17.8165 109.77 17.7237 109.031 17.9865C108.443 18.1959 108.218 18.6422 107.736 18.9852" stroke="black" stroke-width="1.5" stroke-linecap="round"/>
<path d="M111.137 15.2202C109.915 15.5168 109.887 16.1489 110.201 17.0322C110.424 17.6582 110.946 17.0903 111.409 16.8715C111.977 16.6031 111.802 15.63 112.169 15.2565C112.801 14.6132 111.372 14.8679 111.052 14.9815" stroke="black" stroke-width="1.5" stroke-linecap="round"/>
<path d="M114.997 14.5189C114.089 15.3117 114.049 16.7402 114.388 17.6937C114.578 18.2253 114.653 18.3494 115.378 18.253C116.011 18.1687 116.836 17.8065 117.419 17.549C117.609 17.4653 118.459 16.9536 118.455 16.7098C118.441 15.9095 117.858 14.7171 117.478 14.0394C117.046 13.2683 115.554 13.783 114.687 14.0915" stroke="black" stroke-width="1.5" stroke-linecap="round"/>
<path d="M120.012 15.289C120.167 15.7243 120.269 16.3697 120.956 16.1634C121.381 16.0356 121.615 15.891 121.701 15.4948C121.898 14.5909 120.99 14.3266 120.391 15.0199" stroke="black" stroke-width="1.5" stroke-linecap="round"/>
<path d="M126.059 7.82645C125.956 6.64285 125.952 6.07346 127.35 5.55242C127.923 5.36574 128.65 5.4191 129.188 5.54028C129.932 5.70808 129.927 6.28669 130.146 6.90224C130.472 7.81759 129.693 8.48285 128.771 8.81095C127.707 9.18949 126.166 9.06636 126.059 7.82645Z" fill="white" fill-opacity="0.3"/>
<path d="M127.442 5.51918C125.951 6.04948 125.954 6.61764 126.059 7.82645C126.166 9.06636 127.707 9.18949 128.771 8.81095C129.693 8.48285 130.472 7.81759 130.146 6.90224C129.927 6.28669 129.932 5.70808 129.188 5.54028C128.635 5.41562 127.881 5.36273 127.301 5.5691" stroke="black" stroke-width="1.5" stroke-linecap="round"/>
<path d="M128.412 1.14007C128.18 1.55568 127.664 2.50714 128.361 2.7719C128.81 2.94273 129.553 3.12452 130.044 2.83785C130.529 2.55423 130.403 1.84971 130.274 1.48605C130.065 0.899702 129.54 1.20818 129.058 1.17908" stroke="black" stroke-width="1.5" stroke-linecap="round"/>
<path d="M132.489 -2.05872C131.969 -0.880224 132.046 -0.639395 132.445 0.481852C132.639 1.02781 132.758 1.86234 133.421 2.11409C135.213 2.7951 136.622 1.28048 137.11 -0.177183C137.427 -1.12579 136.289 -2.11984 135.636 -2.64073C134.934 -3.20085 133.219 -3.25978 132.27 -2.92187C131.848 -2.77189 131.414 -2.32514 131.451 -1.89107C131.475 -1.61407 131.697 -0.82196 131.987 -0.804433" stroke="black" stroke-width="1.5" stroke-linecap="round"/>
</g>
<defs>
<radialGradient id="paint0_radial" cx="0" cy="0" r="1" gradientUnits="userSpaceOnUse" gradientTransform="translate(68.5 81.5) rotate(-121.152) scale(78.2895 180.066)">
<stop stop-color="#0E6EFF"/>
<stop offset="0.942708" stop-color="#55C4BC"/>
</radialGradient>
<radialGradient id="paint1_radial" cx="0" cy="0" r="1" gradientUnits="userSpaceOnUse" gradientTransform="translate(138 -2) rotate(102.707) scale(104.561 240.49)">
<stop stop-color="#8145FF"/>
<stop offset="1" stop-color="#FBFF26" stop-opacity="0"/>
</radialGradient>
<radialGradient id="paint2_radial" cx="0" cy="0" r="1" gradientUnits="userSpaceOnUse" gradientTransform="translate(148 114) rotate(-125.059) scale(139.27 111.031)">
<stop stop-color="#B713E0"/>
<stop offset="1" stop-color="#1C92FF" stop-opacity="0"/>
</radialGradient>
<radialGradient id="paint3_radial" cx="0" cy="0" r="1" gradientUnits="userSpaceOnUse" gradientTransform="translate(-7.5 -10) rotate(9.20785) scale(240.6 553.381)">
<stop stop-color="#FFCA41"/>
<stop offset="1" stop-color="#C8E38D" stop-opacity="0"/>
</radialGradient>
</defs>
</svg>
