<svg width="230" height="100" viewBox="0 0 230 100" fill="none" xmlns="http://www.w3.org/2000/svg">
<mask id="mask0" style="mask-type:alpha" maskUnits="userSpaceOnUse" x="0" y="0" width="230" height="100">
<rect width="230" height="100" fill="#666666"/>
</mask>
<g mask="url(#mask0)">
<rect width="230" height="100" fill="#31472F"/>
<g opacity="0.2">
<path d="M9.99999 5.18178L11.3182 8.68178L14.8182 9.99996L11.3182 11.3181L9.99999 14.8181L8.68181 11.3181L5.18182 9.99996L8.68181 8.68178L9.99999 5.18178ZM9.99999 -3.05176e-05L7.27272 7.27269L0 9.99996L7.27272 12.7272L9.99999 20L12.7273 12.7272L20 9.99996L12.7273 7.27269L9.99999 -3.05176e-05Z" fill="white"/>
<path d="M9.99999 25.1818L11.3182 28.6818L14.8182 30L11.3182 31.3181L9.99999 34.8181L8.68181 31.3181L5.18182 30L8.68181 28.6818L9.99999 25.1818ZM9.99999 20L7.27272 27.2727L0 30L7.27272 32.7272L9.99999 40L12.7273 32.7272L20 30L12.7273 27.2727L9.99999 20Z" fill="white"/>
<path d="M9.99999 45.1818L11.3182 48.6818L14.8182 50L11.3182 51.3181L9.99999 54.8181L8.68181 51.3181L5.18182 50L8.68181 48.6818L9.99999 45.1818ZM9.99999 40L7.27272 47.2727L0 50L7.27272 52.7272L9.99999 60L12.7273 52.7272L20 50L12.7273 47.2727L9.99999 40Z" fill="white"/>
<path d="M9.99999 65.1818L11.3182 68.6818L14.8182 69.9999L11.3182 71.3181L9.99999 74.8181L8.68181 71.3181L5.18182 69.9999L8.68181 68.6818L9.99999 65.1818ZM9.99999 59.9999L7.27272 67.2727L0 69.9999L7.27272 72.7272L9.99999 79.9999L12.7273 72.7272L20 69.9999L12.7273 67.2727L9.99999 59.9999Z" fill="white"/>
<path d="M9.99999 85.1818L11.3182 88.6818L14.8182 89.9999L11.3182 91.3181L9.99999 94.8181L8.68181 91.3181L5.18182 89.9999L8.68181 88.6818L9.99999 85.1818ZM9.99999 79.9999L7.27272 87.2727L0 89.9999L7.27272 92.7272L9.99999 99.9999L12.7273 92.7272L20 89.9999L12.7273 87.2727L9.99999 79.9999Z" fill="white"/>
<path d="M9.99999 105.182L11.3182 108.682L14.8182 110L11.3182 111.318L9.99999 114.818L8.68181 111.318L5.18182 110L8.68181 108.682L9.99999 105.182ZM9.99999 99.9999L7.27272 107.273L0 110L7.27272 112.727L9.99999 120L12.7273 112.727L20 110L12.7273 107.273L9.99999 99.9999Z" fill="white"/>
<path d="M-5.60284e-06 -10L-2.72728 -2.72728L-10 -5.60284e-06L-2.72728 2.72727L-5.60284e-06 9.99999L2.72727 2.72727L9.99999 -5.60284e-06L2.72727 -2.72728L-5.60284e-06 -10Z" fill="white"/>
<path d="M-5.60284e-06 10L-2.72728 17.2727L-10 20L-2.72728 22.7273L-5.60284e-06 30L2.72727 22.7273L9.99999 20L2.72727 17.2727L-5.60284e-06 10Z" fill="white"/>
<path d="M-5.60284e-06 30L-2.72728 37.2727L-10 40L-2.72728 42.7273L-5.60284e-06 50L2.72727 42.7273L9.99999 40L2.72727 37.2727L-5.60284e-06 30Z" fill="white"/>
<path d="M-5.60284e-06 50L-2.72728 57.2727L-10 60L-2.72728 62.7272L-5.60284e-06 70L2.72727 62.7272L9.99999 60L2.72727 57.2727L-5.60284e-06 50Z" fill="white"/>
<path d="M-5.60284e-06 70L-2.72728 77.2727L-10 80L-2.72728 82.7272L-5.60284e-06 90L2.72727 82.7272L9.99999 80L2.72727 77.2727L-5.60284e-06 70Z" fill="white"/>
<path d="M-5.60284e-06 89.9999L-2.72728 97.2727L-10 99.9999L-2.72728 102.727L-5.60284e-06 110L2.72727 102.727L9.99999 99.9999L2.72727 97.2727L-5.60284e-06 89.9999Z" fill="white"/>
<path d="M90 5.18178L91.3182 8.68178L94.8182 9.99996L91.3182 11.3181L90 14.8181L88.6818 11.3181L85.1818 9.99996L88.6818 8.68178L90 5.18178ZM90 -3.05176e-05L87.2727 7.27269L80 9.99996L87.2727 12.7272L90 20L92.7273 12.7272L100 9.99996L92.7273 7.27269L90 -3.05176e-05Z" fill="white"/>
<path d="M90 25.1818L91.3182 28.6818L94.8182 30L91.3182 31.3181L90 34.8181L88.6818 31.3181L85.1818 30L88.6818 28.6818L90 25.1818ZM90 20L87.2727 27.2727L80 30L87.2727 32.7272L90 40L92.7273 32.7272L100 30L92.7273 27.2727L90 20Z" fill="white"/>
<path d="M90 45.1818L91.3182 48.6818L94.8182 50L91.3182 51.3181L90 54.8181L88.6818 51.3181L85.1818 50L88.6818 48.6818L90 45.1818ZM90 40L87.2727 47.2727L80 50L87.2727 52.7272L90 60L92.7273 52.7272L100 50L92.7273 47.2727L90 40Z" fill="white"/>
<path d="M90 65.1818L91.3182 68.6818L94.8182 69.9999L91.3182 71.3181L90 74.8181L88.6818 71.3181L85.1818 69.9999L88.6818 68.6818L90 65.1818ZM90 59.9999L87.2727 67.2727L80 69.9999L87.2727 72.7272L90 79.9999L92.7273 72.7272L100 69.9999L92.7273 67.2727L90 59.9999Z" fill="white"/>
<path d="M90 85.1818L91.3182 88.6818L94.8182 89.9999L91.3182 91.3181L90 94.8181L88.6818 91.3181L85.1818 89.9999L88.6818 88.6818L90 85.1818ZM90 79.9999L87.2727 87.2727L80 89.9999L87.2727 92.7272L90 99.9999L92.7273 92.7272L100 89.9999L92.7273 87.2727L90 79.9999Z" fill="white"/>
<path d="M90 105.182L91.3182 108.682L94.8182 110L91.3182 111.318L90 114.818L88.6818 111.318L85.1818 110L88.6818 108.682L90 105.182ZM90 99.9999L87.2727 107.273L80 110L87.2727 112.727L90 120L92.7273 112.727L100 110L92.7273 107.273L90 99.9999Z" fill="white"/>
<path d="M80.0005 -10L77.2732 -2.72728L70.0005 -5.60284e-06L77.2732 2.72727L80.0005 9.99999L82.7278 2.72727L90.0005 -5.60284e-06L82.7278 -2.72728L80.0005 -10Z" fill="white"/>
<path d="M80 10L77.2727 17.2727L70 20L77.2727 22.7273L80 30L82.7273 22.7273L90 20L82.7273 17.2727L80 10Z" fill="white"/>
<path d="M80 30L77.2727 37.2727L70 40L77.2727 42.7273L80 50L82.7273 42.7273L90 40L82.7273 37.2727L80 30Z" fill="white"/>
<path d="M80 50L77.2727 57.2727L70 60L77.2727 62.7272L80 70L82.7273 62.7272L90 60L82.7273 57.2727L80 50Z" fill="white"/>
<path d="M80 70L77.2727 77.2727L70 80L77.2727 82.7272L80 90L82.7273 82.7272L90 80L82.7273 77.2727L80 70Z" fill="white"/>
<path d="M80 89.9999L77.2727 97.2727L70 99.9999L77.2727 102.727L80 110L82.7273 102.727L90 99.9999L82.7273 97.2727L80 89.9999Z" fill="white"/>
<path d="M170 5.18178L171.318 8.68178L174.818 9.99996L171.318 11.3181L170 14.8181L168.682 11.3181L165.182 9.99996L168.682 8.68178L170 5.18178ZM170 -3.05176e-05L167.273 7.27269L160 9.99996L167.273 12.7272L170 20L172.727 12.7272L180 9.99996L172.727 7.27269L170 -3.05176e-05Z" fill="white"/>
<path d="M170 65.1818L171.318 68.6818L174.818 69.9999L171.318 71.3181L170 74.8181L168.682 71.3181L165.182 69.9999L168.682 68.6818L170 65.1818ZM170 59.9999L167.273 67.2727L160 69.9999L167.273 72.7272L170 79.9999L172.727 72.7272L180 69.9999L172.727 67.2727L170 59.9999Z" fill="white"/>
<path d="M170 85.1818L171.318 88.6818L174.818 89.9999L171.318 91.3181L170 94.8181L168.682 91.3181L165.182 89.9999L168.682 88.6818L170 85.1818ZM170 79.9999L167.273 87.2727L160 89.9999L167.273 92.7272L170 99.9999L172.727 92.7272L180 89.9999L172.727 87.2727L170 79.9999Z" fill="white"/>
<path d="M170 105.182L171.318 108.682L174.818 110L171.318 111.318L170 114.818L168.682 111.318L165.182 110L168.682 108.682L170 105.182ZM170 99.9999L167.273 107.273L160 110L167.273 112.727L170 120L172.727 112.727L180 110L172.727 107.273L170 99.9999Z" fill="white"/>
<path d="M160 -10L157.273 -2.72728L150 -5.60284e-06L157.273 2.72727L160 9.99999L162.728 2.72727L170 -5.60284e-06L162.728 -2.72728L160 -10Z" fill="white"/>
<path d="M160 70L157.273 77.2727L150 80L157.273 82.7272L160 90L162.728 82.7272L170 80L162.728 77.2727L160 70Z" fill="white"/>
<path d="M160 89.9999L157.273 97.2727L150 99.9999L157.273 102.727L160 110L162.728 102.727L170 99.9999L162.728 97.2727L160 89.9999Z" fill="white"/>
<path d="M49.9995 5.18178L51.3177 8.68178L54.8177 9.99996L51.3177 11.3181L49.9995 14.8181L48.6813 11.3181L45.1813 9.99996L48.6813 8.68178L49.9995 5.18178ZM49.9995 -3.05176e-05L47.2722 7.27269L39.9995 9.99996L47.2722 12.7272L49.9995 20L52.7268 12.7272L59.9995 9.99996L52.7268 7.27269L49.9995 -3.05176e-05Z" fill="white"/>
<path d="M49.9995 25.1818L51.3177 28.6818L54.8177 30L51.3177 31.3181L49.9995 34.8181L48.6813 31.3181L45.1813 30L48.6813 28.6818L49.9995 25.1818ZM49.9995 20L47.2722 27.2727L39.9995 30L47.2722 32.7272L49.9995 40L52.7268 32.7272L59.9995 30L52.7268 27.2727L49.9995 20Z" fill="white"/>
<path d="M49.9995 45.1818L51.3177 48.6818L54.8177 50L51.3177 51.3181L49.9995 54.8181L48.6813 51.3181L45.1813 50L48.6813 48.6818L49.9995 45.1818ZM49.9995 40L47.2722 47.2727L39.9995 50L47.2722 52.7272L49.9995 60L52.7268 52.7272L59.9995 50L52.7268 47.2727L49.9995 40Z" fill="white"/>
<path d="M49.9995 65.1818L51.3177 68.6818L54.8177 69.9999L51.3177 71.3181L49.9995 74.8181L48.6813 71.3181L45.1813 69.9999L48.6813 68.6818L49.9995 65.1818ZM49.9995 59.9999L47.2722 67.2727L39.9995 69.9999L47.2722 72.7272L49.9995 79.9999L52.7268 72.7272L59.9995 69.9999L52.7268 67.2727L49.9995 59.9999Z" fill="white"/>
<path d="M49.9995 85.1818L51.3177 88.6818L54.8177 89.9999L51.3177 91.3181L49.9995 94.8181L48.6813 91.3181L45.1813 89.9999L48.6813 88.6818L49.9995 85.1818ZM49.9995 79.9999L47.2722 87.2727L39.9995 89.9999L47.2722 92.7272L49.9995 99.9999L52.7268 92.7272L59.9995 89.9999L52.7268 87.2727L49.9995 79.9999Z" fill="white"/>
<path d="M49.9995 105.182L51.3177 108.682L54.8177 110L51.3177 111.318L49.9995 114.818L48.6813 111.318L45.1813 110L48.6813 108.682L49.9995 105.182ZM49.9995 99.9999L47.2722 107.273L39.9995 110L47.2722 112.727L49.9995 120L52.7268 112.727L59.9995 110L52.7268 107.273L49.9995 99.9999Z" fill="white"/>
<path d="M39.9995 -10L37.2722 -2.72728L29.9995 -5.60284e-06L37.2722 2.72727L39.9995 9.99999L42.7268 2.72727L49.9995 -5.60284e-06L42.7268 -2.72728L39.9995 -10Z" fill="white"/>
<path d="M39.9995 10L37.2722 17.2727L29.9995 20L37.2722 22.7273L39.9995 30L42.7268 22.7273L49.9995 20L42.7268 17.2727L39.9995 10Z" fill="white"/>
<path d="M39.9995 30L37.2722 37.2727L29.9995 40L37.2722 42.7273L39.9995 50L42.7268 42.7273L49.9995 40L42.7268 37.2727L39.9995 30Z" fill="white"/>
<path d="M39.9995 50L37.2722 57.2727L29.9995 60L37.2722 62.7272L39.9995 70L42.7268 62.7272L49.9995 60L42.7268 57.2727L39.9995 50Z" fill="white"/>
<path d="M39.9995 70L37.2722 77.2727L29.9995 80L37.2722 82.7272L39.9995 90L42.7268 82.7272L49.9995 80L42.7268 77.2727L39.9995 70Z" fill="white"/>
<path d="M39.9995 89.9999L37.2722 97.2727L29.9995 99.9999L37.2722 102.727L39.9995 110L42.7268 102.727L49.9995 99.9999L42.7268 97.2727L39.9995 89.9999Z" fill="white"/>
<path d="M130 5.18178L131.318 8.68178L134.818 9.99996L131.318 11.3181L130 14.8181L128.681 11.3181L125.181 9.99996L128.681 8.68178L130 5.18178ZM130 -3.05176e-05L127.272 7.27269L120 9.99996L127.272 12.7272L130 20L132.727 12.7272L140 9.99996L132.727 7.27269L130 -3.05176e-05Z" fill="white"/>
<path d="M130 25.1818L131.318 28.6818L134.818 30L131.318 31.3181L130 34.8181L128.681 31.3181L125.181 30L128.681 28.6818L130 25.1818ZM130 20L127.272 27.2727L120 30L127.272 32.7272L130 40L132.727 32.7272L140 30L132.727 27.2727L130 20Z" fill="white"/>
<path d="M130 45.1818L131.318 48.6818L134.818 50L131.318 51.3181L130 54.8181L128.681 51.3181L125.181 50L128.681 48.6818L130 45.1818ZM130 40L127.272 47.2727L120 50L127.272 52.7272L130 60L132.727 52.7272L140 50L132.727 47.2727L130 40Z" fill="white"/>
<path d="M130 65.1818L131.318 68.6818L134.818 69.9999L131.318 71.3181L130 74.8181L128.681 71.3181L125.181 69.9999L128.681 68.6818L130 65.1818ZM130 59.9999L127.272 67.2727L120 69.9999L127.272 72.7272L130 79.9999L132.727 72.7272L140 69.9999L132.727 67.2727L130 59.9999Z" fill="white"/>
<path d="M130 85.1818L131.318 88.6818L134.818 89.9999L131.318 91.3181L130 94.8181L128.681 91.3181L125.181 89.9999L128.681 88.6818L130 85.1818ZM130 79.9999L127.272 87.2727L120 89.9999L127.272 92.7272L130 99.9999L132.727 92.7272L140 89.9999L132.727 87.2727L130 79.9999Z" fill="white"/>
<path d="M130 105.182L131.318 108.682L134.818 110L131.318 111.318L130 114.818L128.681 111.318L125.181 110L128.681 108.682L130 105.182ZM130 99.9999L127.272 107.273L120 110L127.272 112.727L130 120L132.727 112.727L140 110L132.727 107.273L130 99.9999Z" fill="white"/>
<path d="M120 -10L117.272 -2.72728L110 -5.60284e-06L117.272 2.72727L120 9.99999L122.727 2.72727L130 -5.60284e-06L122.727 -2.72728L120 -10Z" fill="white"/>
<path d="M120 10L117.273 17.2727L110 20L117.273 22.7273L120 30L122.727 22.7273L130 20L122.727 17.2727L120 10Z" fill="white"/>
<path d="M120 30L117.273 37.2727L110 40L117.273 42.7273L120 50L122.727 42.7273L130 40L122.727 37.2727L120 30Z" fill="white"/>
<path d="M120 50L117.273 57.2727L110 60L117.273 62.7272L120 70L122.727 62.7272L130 60L122.727 57.2727L120 50Z" fill="white"/>
<path d="M120 70L117.273 77.2727L110 80L117.273 82.7272L120 90L122.727 82.7272L130 80L122.727 77.2727L120 70Z" fill="white"/>
<path d="M120 89.9999L117.273 97.2727L110 99.9999L117.273 102.727L120 110L122.727 102.727L130 99.9999L122.727 97.2727L120 89.9999Z" fill="white"/>
<path d="M210 5.18178L211.318 8.68178L214.818 9.99996L211.318 11.3181L210 14.8181L208.681 11.3181L205.181 9.99996L208.681 8.68178L210 5.18178ZM210 -3.05176e-05L207.272 7.27269L200 9.99996L207.272 12.7272L210 20L212.727 12.7272L220 9.99996L212.727 7.27269L210 -3.05176e-05Z" fill="white"/>
<path d="M210 25.1818L211.318 28.6818L214.818 30L211.318 31.3181L210 34.8181L208.681 31.3181L205.181 30L208.681 28.6818L210 25.1818ZM210 20L207.272 27.2727L200 30L207.272 32.7272L210 40L212.727 32.7272L220 30L212.727 27.2727L210 20Z" fill="white"/>
<path d="M210 45.1818L211.318 48.6818L214.818 50L211.318 51.3181L210 54.8181L208.681 51.3181L205.181 50L208.681 48.6818L210 45.1818ZM210 40L207.272 47.2727L200 50L207.272 52.7272L210 60L212.727 52.7272L220 50L212.727 47.2727L210 40Z" fill="white"/>
<path d="M210 65.1818L211.318 68.6818L214.818 69.9999L211.318 71.3181L210 74.8181L208.681 71.3181L205.181 69.9999L208.681 68.6818L210 65.1818ZM210 59.9999L207.272 67.2727L200 69.9999L207.272 72.7272L210 79.9999L212.727 72.7272L220 69.9999L212.727 67.2727L210 59.9999Z" fill="white"/>
<path d="M210 85.1818L211.318 88.6818L214.818 89.9999L211.318 91.3181L210 94.8181L208.681 91.3181L205.181 89.9999L208.681 88.6818L210 85.1818ZM210 79.9999L207.272 87.2727L200 89.9999L207.272 92.7272L210 99.9999L212.727 92.7272L220 89.9999L212.727 87.2727L210 79.9999Z" fill="white"/>
<path d="M210 105.182L211.318 108.682L214.818 110L211.318 111.318L210 114.818L208.681 111.318L205.181 110L208.681 108.682L210 105.182ZM210 99.9999L207.272 107.273L200 110L207.272 112.727L210 120L212.727 112.727L220 110L212.727 107.273L210 99.9999Z" fill="white"/>
<path d="M200 -10L197.273 -2.72728L190 -5.60284e-06L197.273 2.72727L200 9.99999L202.727 2.72727L210 -5.60284e-06L202.727 -2.72728L200 -10Z" fill="white"/>
<path d="M200 10L197.272 17.2727L190 20L197.272 22.7273L200 30L202.727 22.7273L210 20L202.727 17.2727L200 10Z" fill="white"/>
<path d="M200 30L197.272 37.2727L190 40L197.272 42.7273L200 50L202.727 42.7273L210 40L202.727 37.2727L200 30Z" fill="white"/>
<path d="M200 50L197.272 57.2727L190 60L197.272 62.7272L200 70L202.727 62.7272L210 60L202.727 57.2727L200 50Z" fill="white"/>
<path d="M200 70L197.272 77.2727L190 80L197.272 82.7272L200 90L202.727 82.7272L210 80L202.727 77.2727L200 70Z" fill="white"/>
<path d="M200 89.9999L197.272 97.2727L190 99.9999L197.272 102.727L200 110L202.727 102.727L210 99.9999L202.727 97.2727L200 89.9999Z" fill="white"/>
<path d="M30 5.18178L31.3182 8.68178L34.8182 9.99996L31.3182 11.3181L30 14.8181L28.6818 11.3181L25.1818 9.99996L28.6818 8.68178L30 5.18178ZM30 -3.05176e-05L27.2727 7.27269L20 9.99996L27.2727 12.7272L30 20L32.7273 12.7272L40 9.99996L32.7273 7.27269L30 -3.05176e-05Z" fill="white"/>
<path d="M30 25.1818L31.3182 28.6818L34.8182 30L31.3182 31.3181L30 34.8181L28.6818 31.3181L25.1818 30L28.6818 28.6818L30 25.1818ZM30 20L27.2727 27.2727L20 30L27.2727 32.7272L30 40L32.7273 32.7272L40 30L32.7273 27.2727L30 20Z" fill="white"/>
<path d="M30 45.1818L31.3182 48.6818L34.8182 50L31.3182 51.3181L30 54.8181L28.6818 51.3181L25.1818 50L28.6818 48.6818L30 45.1818ZM30 40L27.2727 47.2727L20 50L27.2727 52.7272L30 60L32.7273 52.7272L40 50L32.7273 47.2727L30 40Z" fill="white"/>
<path d="M30 65.1818L31.3182 68.6818L34.8182 69.9999L31.3182 71.3181L30 74.8181L28.6818 71.3181L25.1818 69.9999L28.6818 68.6818L30 65.1818ZM30 59.9999L27.2727 67.2727L20 69.9999L27.2727 72.7272L30 79.9999L32.7273 72.7272L40 69.9999L32.7273 67.2727L30 59.9999Z" fill="white"/>
<path d="M30 85.1818L31.3182 88.6818L34.8182 89.9999L31.3182 91.3181L30 94.8181L28.6818 91.3181L25.1818 89.9999L28.6818 88.6818L30 85.1818ZM30 79.9999L27.2727 87.2727L20 89.9999L27.2727 92.7272L30 99.9999L32.7273 92.7272L40 89.9999L32.7273 87.2727L30 79.9999Z" fill="white"/>
<path d="M30 105.182L31.3182 108.682L34.8182 110L31.3182 111.318L30 114.818L28.6818 111.318L25.1818 110L28.6818 108.682L30 105.182ZM30 99.9999L27.2727 107.273L20 110L27.2727 112.727L30 120L32.7273 112.727L40 110L32.7273 107.273L30 99.9999Z" fill="white"/>
<path d="M20.0005 -10L17.2732 -2.72728L10.0005 -5.60284e-06L17.2732 2.72727L20.0005 9.99999L22.7278 2.72727L30.0005 -5.60284e-06L22.7278 -2.72728L20.0005 -10Z" fill="white"/>
<path d="M20 10L17.2727 17.2727L10 20L17.2727 22.7273L20 30L22.7273 22.7273L30 20L22.7273 17.2727L20 10Z" fill="white"/>
<path d="M20 30L17.2727 37.2727L10 40L17.2727 42.7273L20 50L22.7273 42.7273L30 40L22.7273 37.2727L20 30Z" fill="white"/>
<path d="M20 50L17.2727 57.2727L10 60L17.2727 62.7272L20 70L22.7273 62.7272L30 60L22.7273 57.2727L20 50Z" fill="white"/>
<path d="M20 70L17.2727 77.2727L10 80L17.2727 82.7272L20 90L22.7273 82.7272L30 80L22.7273 77.2727L20 70Z" fill="white"/>
<path d="M20 89.9999L17.2727 97.2727L10 99.9999L17.2727 102.727L20 110L22.7273 102.727L30 99.9999L22.7273 97.2727L20 89.9999Z" fill="white"/>
<path d="M110 5.18178L111.318 8.68178L114.818 9.99996L111.318 11.3181L110 14.8181L108.681 11.3181L105.181 9.99996L108.681 8.68178L110 5.18178ZM110 -3.05176e-05L107.272 7.27269L99.9995 9.99996L107.272 12.7272L110 20L112.727 12.7272L120 9.99996L112.727 7.27269L110 -3.05176e-05Z" fill="white"/>
<path d="M110 25.1818L111.318 28.6818L114.818 30L111.318 31.3181L110 34.8181L108.681 31.3181L105.181 30L108.681 28.6818L110 25.1818ZM110 20L107.272 27.2727L99.9995 30L107.272 32.7272L110 40L112.727 32.7272L120 30L112.727 27.2727L110 20Z" fill="white"/>
<path d="M110 45.1818L111.318 48.6818L114.818 50L111.318 51.3181L110 54.8181L108.681 51.3181L105.181 50L108.681 48.6818L110 45.1818ZM110 40L107.272 47.2727L99.9995 50L107.272 52.7272L110 60L112.727 52.7272L120 50L112.727 47.2727L110 40Z" fill="white"/>
<path d="M110 65.1818L111.318 68.6818L114.818 69.9999L111.318 71.3181L110 74.8181L108.681 71.3181L105.181 69.9999L108.681 68.6818L110 65.1818ZM110 59.9999L107.272 67.2727L99.9995 69.9999L107.272 72.7272L110 79.9999L112.727 72.7272L120 69.9999L112.727 67.2727L110 59.9999Z" fill="white"/>
<path d="M110 85.1818L111.318 88.6818L114.818 89.9999L111.318 91.3181L110 94.8181L108.681 91.3181L105.181 89.9999L108.681 88.6818L110 85.1818ZM110 79.9999L107.272 87.2727L99.9995 89.9999L107.272 92.7272L110 99.9999L112.727 92.7272L120 89.9999L112.727 87.2727L110 79.9999Z" fill="white"/>
<path d="M110 105.182L111.318 108.682L114.818 110L111.318 111.318L110 114.818L108.681 111.318L105.181 110L108.681 108.682L110 105.182ZM110 99.9999L107.272 107.273L99.9995 110L107.272 112.727L110 120L112.727 112.727L120 110L112.727 107.273L110 99.9999Z" fill="white"/>
<path d="M100 -10L97.2727 -2.72728L90 -5.60284e-06L97.2727 2.72727L100 9.99999L102.727 2.72727L110 -5.60284e-06L102.727 -2.72728L100 -10Z" fill="white"/>
<path d="M100 10L97.2727 17.2727L90 20L97.2727 22.7273L100 30L102.727 22.7273L110 20L102.727 17.2727L100 10Z" fill="white"/>
<path d="M100 30L97.2727 37.2727L90 40L97.2727 42.7273L100 50L102.727 42.7273L110 40L102.727 37.2727L100 30Z" fill="white"/>
<path d="M100 50L97.2727 57.2727L90 60L97.2727 62.7272L100 70L102.727 62.7272L110 60L102.727 57.2727L100 50Z" fill="white"/>
<path d="M100 70L97.2727 77.2727L90 80L97.2727 82.7272L100 90L102.727 82.7272L110 80L102.727 77.2727L100 70Z" fill="white"/>
<path d="M100 89.9999L97.2727 97.2727L90 99.9999L97.2727 102.727L100 110L102.727 102.727L110 99.9999L102.727 97.2727L100 89.9999Z" fill="white"/>
<path d="M190 5.18178L191.318 8.68178L194.818 9.99996L191.318 11.3181L190 14.8181L188.681 11.3181L185.181 9.99996L188.681 8.68178L190 5.18178ZM190 -3.05176e-05L187.272 7.27269L180 9.99996L187.272 12.7272L190 20L192.727 12.7272L200 9.99996L192.727 7.27269L190 -3.05176e-05Z" fill="white"/>
<path d="M190 25.1818L191.318 28.6818L194.818 30L191.318 31.3181L190 34.8181L188.681 31.3181L185.181 30L188.681 28.6818L190 25.1818ZM190 20L187.272 27.2727L180 30L187.272 32.7272L190 40L192.727 32.7272L200 30L192.727 27.2727L190 20Z" fill="white"/>
<path d="M190 45.1818L191.318 48.6818L194.818 50L191.318 51.3181L190 54.8181L188.681 51.3181L185.181 50L188.681 48.6818L190 45.1818ZM190 40L187.272 47.2727L180 50L187.272 52.7272L190 60L192.727 52.7272L200 50L192.727 47.2727L190 40Z" fill="white"/>
<path d="M190 65.1818L191.318 68.6818L194.818 69.9999L191.318 71.3181L190 74.8181L188.681 71.3181L185.181 69.9999L188.681 68.6818L190 65.1818ZM190 59.9999L187.272 67.2727L180 69.9999L187.272 72.7272L190 79.9999L192.727 72.7272L200 69.9999L192.727 67.2727L190 59.9999Z" fill="white"/>
<path d="M190 85.1818L191.318 88.6818L194.818 89.9999L191.318 91.3181L190 94.8181L188.681 91.3181L185.181 89.9999L188.681 88.6818L190 85.1818ZM190 79.9999L187.272 87.2727L180 89.9999L187.272 92.7272L190 99.9999L192.727 92.7272L200 89.9999L192.727 87.2727L190 79.9999Z" fill="white"/>
<path d="M190 105.182L191.318 108.682L194.818 110L191.318 111.318L190 114.818L188.681 111.318L185.181 110L188.681 108.682L190 105.182ZM190 99.9999L187.272 107.273L180 110L187.272 112.727L190 120L192.727 112.727L200 110L192.727 107.273L190 99.9999Z" fill="white"/>
<path d="M180 -10L177.273 -2.72728L170 -5.60284e-06L177.273 2.72727L180 9.99999L182.728 2.72727L190 -5.60284e-06L182.728 -2.72728L180 -10Z" fill="white"/>
<path d="M180 10L177.273 17.2727L170 20L177.273 22.7273L180 30L182.727 22.7273L190 20L182.727 17.2727L180 10Z" fill="white"/>
<path d="M180 50L177.273 57.2727L170 60L177.273 62.7272L180 70L182.727 62.7272L190 60L182.727 57.2727L180 50Z" fill="white"/>
<path d="M180 70L177.273 77.2727L170 80L177.273 82.7272L180 90L182.727 82.7272L190 80L182.727 77.2727L180 70Z" fill="white"/>
<path d="M180 89.9999L177.273 97.2727L170 99.9999L177.273 102.727L180 110L182.727 102.727L190 99.9999L182.727 97.2727L180 89.9999Z" fill="white"/>
<path d="M70 5.18178L71.3182 8.68178L74.8182 9.99996L71.3182 11.3181L70 14.8181L68.6818 11.3181L65.1818 9.99996L68.6818 8.68178L70 5.18178ZM70 -3.05176e-05L67.2727 7.27269L60 9.99996L67.2727 12.7272L70 20L72.7273 12.7272L80 9.99996L72.7273 7.27269L70 -3.05176e-05Z" fill="white"/>
<path d="M70 25.1818L71.3182 28.6818L74.8182 30L71.3182 31.3181L70 34.8181L68.6818 31.3181L65.1818 30L68.6818 28.6818L70 25.1818ZM70 20L67.2727 27.2727L60 30L67.2727 32.7272L70 40L72.7273 32.7272L80 30L72.7273 27.2727L70 20Z" fill="white"/>
<path d="M70 45.1818L71.3182 48.6818L74.8182 50L71.3182 51.3181L70 54.8181L68.6818 51.3181L65.1818 50L68.6818 48.6818L70 45.1818ZM70 40L67.2727 47.2727L60 50L67.2727 52.7272L70 60L72.7273 52.7272L80 50L72.7273 47.2727L70 40Z" fill="white"/>
<path d="M70 65.1818L71.3182 68.6818L74.8182 69.9999L71.3182 71.3181L70 74.8181L68.6818 71.3181L65.1818 69.9999L68.6818 68.6818L70 65.1818ZM70 59.9999L67.2727 67.2727L60 69.9999L67.2727 72.7272L70 79.9999L72.7273 72.7272L80 69.9999L72.7273 67.2727L70 59.9999Z" fill="white"/>
<path d="M70 85.1818L71.3182 88.6818L74.8182 89.9999L71.3182 91.3181L70 94.8181L68.6818 91.3181L65.1818 89.9999L68.6818 88.6818L70 85.1818ZM70 79.9999L67.2727 87.2727L60 89.9999L67.2727 92.7272L70 99.9999L72.7273 92.7272L80 89.9999L72.7273 87.2727L70 79.9999Z" fill="white"/>
<path d="M70 105.182L71.3182 108.682L74.8182 110L71.3182 111.318L70 114.818L68.6818 111.318L65.1818 110L68.6818 108.682L70 105.182ZM70 99.9999L67.2727 107.273L60 110L67.2727 112.727L70 120L72.7273 112.727L80 110L72.7273 107.273L70 99.9999Z" fill="white"/>
<path d="M60.001 -10L57.2737 -2.72728L50.001 -5.60284e-06L57.2737 2.72727L60.001 9.99999L62.7282 2.72727L70.001 -5.60284e-06L62.7282 -2.72728L60.001 -10Z" fill="white"/>
<path d="M60 10L57.2727 17.2727L50 20L57.2727 22.7273L60 30L62.7273 22.7273L70 20L62.7273 17.2727L60 10Z" fill="white"/>
<path d="M60 30L57.2727 37.2727L50 40L57.2727 42.7273L60 50L62.7273 42.7273L70 40L62.7273 37.2727L60 30Z" fill="white"/>
<path d="M60 50L57.2727 57.2727L50 60L57.2727 62.7272L60 70L62.7273 62.7272L70 60L62.7273 57.2727L60 50Z" fill="white"/>
<path d="M60 70L57.2727 77.2727L50 80L57.2727 82.7272L60 90L62.7273 82.7272L70 80L62.7273 77.2727L60 70Z" fill="white"/>
<path d="M60 89.9999L57.2727 97.2727L50 99.9999L57.2727 102.727L60 110L62.7273 102.727L70 99.9999L62.7273 97.2727L60 89.9999Z" fill="white"/>
<path d="M150 5.18178L151.318 8.68178L154.818 9.99996L151.318 11.3181L150 14.8181L148.682 11.3181L145.182 9.99996L148.682 8.68178L150 5.18178ZM150 -3.05176e-05L147.273 7.27269L140 9.99996L147.273 12.7272L150 20L152.727 12.7272L160 9.99996L152.727 7.27269L150 -3.05176e-05Z" fill="white"/>
<path d="M150 65.1818L151.318 68.6818L154.818 69.9999L151.318 71.3181L150 74.8181L148.682 71.3181L145.182 69.9999L148.682 68.6818L150 65.1818ZM150 59.9999L147.273 67.2727L140 69.9999L147.273 72.7272L150 79.9999L152.727 72.7272L160 69.9999L152.727 67.2727L150 59.9999Z" fill="white"/>
<path d="M150 85.1818L151.318 88.6818L154.818 89.9999L151.318 91.3181L150 94.8181L148.682 91.3181L145.182 89.9999L148.682 88.6818L150 85.1818ZM150 79.9999L147.273 87.2727L140 89.9999L147.273 92.7272L150 99.9999L152.727 92.7272L160 89.9999L152.727 87.2727L150 79.9999Z" fill="white"/>
<path d="M150 105.182L151.318 108.682L154.818 110L151.318 111.318L150 114.818L148.682 111.318L145.182 110L148.682 108.682L150 105.182ZM150 99.9999L147.273 107.273L140 110L147.273 112.727L150 120L152.727 112.727L160 110L152.727 107.273L150 99.9999Z" fill="white"/>
<path d="M140 -10L137.273 -2.72728L130 -5.60284e-06L137.273 2.72727L140 9.99999L142.727 2.72727L150 -5.60284e-06L142.727 -2.72728L140 -10Z" fill="white"/>
<path d="M140 10L137.273 17.2727L130 20L137.273 22.7273L140 30L142.727 22.7273L150 20L142.727 17.2727L140 10Z" fill="white"/>
<path d="M140 50L137.273 57.2727L130 60L137.273 62.7272L140 70L142.727 62.7272L150 60L142.727 57.2727L140 50Z" fill="white"/>
<path d="M140 70L137.273 77.2727L130 80L137.273 82.7272L140 90L142.727 82.7272L150 80L142.727 77.2727L140 70Z" fill="white"/>
<path d="M140 89.9999L137.273 97.2727L130 99.9999L137.273 102.727L140 110L142.727 102.727L150 99.9999L142.727 97.2727L140 89.9999Z" fill="white"/>
<path d="M230 5.18178L231.318 8.68178L234.818 9.99996L231.318 11.3181L230 14.8181L228.682 11.3181L225.182 9.99996L228.682 8.68178L230 5.18178ZM230 -3.05176e-05L227.273 7.27269L220 9.99996L227.273 12.7272L230 20L232.727 12.7272L240 9.99996L232.727 7.27269L230 -3.05176e-05Z" fill="white"/>
<path d="M230 25.1818L231.318 28.6818L234.818 30L231.318 31.3181L230 34.8181L228.682 31.3181L225.182 30L228.682 28.6818L230 25.1818ZM230 20L227.273 27.2727L220 30L227.273 32.7272L230 40L232.727 32.7272L240 30L232.727 27.2727L230 20Z" fill="white"/>
<path d="M230 45.1818L231.318 48.6818L234.818 50L231.318 51.3181L230 54.8181L228.682 51.3181L225.182 50L228.682 48.6818L230 45.1818ZM230 40L227.273 47.2727L220 50L227.273 52.7272L230 60L232.727 52.7272L240 50L232.727 47.2727L230 40Z" fill="white"/>
<path d="M230 65.1818L231.318 68.6818L234.818 69.9999L231.318 71.3181L230 74.8181L228.682 71.3181L225.182 69.9999L228.682 68.6818L230 65.1818ZM230 59.9999L227.273 67.2727L220 69.9999L227.273 72.7272L230 79.9999L232.727 72.7272L240 69.9999L232.727 67.2727L230 59.9999Z" fill="white"/>
<path d="M230 85.1818L231.318 88.6818L234.818 89.9999L231.318 91.3181L230 94.8181L228.682 91.3181L225.182 89.9999L228.682 88.6818L230 85.1818ZM230 79.9999L227.273 87.2727L220 89.9999L227.273 92.7272L230 99.9999L232.727 92.7272L240 89.9999L232.727 87.2727L230 79.9999Z" fill="white"/>
<path d="M230 105.182L231.318 108.682L234.818 110L231.318 111.318L230 114.818L228.682 111.318L225.182 110L228.682 108.682L230 105.182ZM230 99.9999L227.273 107.273L220 110L227.273 112.727L230 120L232.727 112.727L240 110L232.727 107.273L230 99.9999Z" fill="white"/>
<path d="M220 -10L217.273 -2.72728L210 -5.60284e-06L217.273 2.72727L220 9.99999L222.728 2.72727L230 -5.60284e-06L222.728 -2.72728L220 -10Z" fill="white"/>
<path d="M220 10L217.273 17.2727L210 20L217.273 22.7273L220 30L222.727 22.7273L230 20L222.727 17.2727L220 10Z" fill="white"/>
<path d="M220 30L217.273 37.2727L210 40L217.273 42.7273L220 50L222.727 42.7273L230 40L222.727 37.2727L220 30Z" fill="white"/>
<path d="M220 50L217.273 57.2727L210 60L217.273 62.7272L220 70L222.727 62.7272L230 60L222.727 57.2727L220 50Z" fill="white"/>
<path d="M220 70L217.273 77.2727L210 80L217.273 82.7272L220 90L222.727 82.7272L230 80L222.727 77.2727L220 70Z" fill="white"/>
<path d="M220 89.9999L217.273 97.2727L210 99.9999L217.273 102.727L220 110L222.727 102.727L230 99.9999L222.727 97.2727L220 89.9999Z" fill="white"/>
</g>
<rect width="230" height="100" fill="url(#paint0_linear)"/>
<rect width="230" height="100" fill="url(#paint1_linear)"/>
<path d="M155.182 27.8578L158.682 26.5396L160 23.0396L161.318 26.5396L164.818 27.8578L161.318 29.176L160 32.676L158.682 29.176L155.182 27.8578ZM150 27.8578L157.273 30.5851L160 37.8578L162.727 30.5851L170 27.8578L162.727 25.1306L160 17.8578L157.273 25.1306L150 27.8578Z" fill="white"/>
<path d="M167.324 40L170.824 38.6818L172.142 35.1818L173.46 38.6818L176.96 40L173.46 41.3182L172.142 44.8182L170.824 41.3182L167.324 40ZM162.142 40L169.415 42.7272L172.142 50L174.869 42.7272L182.142 40L174.869 37.2727L172.142 30L169.415 37.2727L162.142 40Z" fill="white"/>
<path d="M149.501 29.4996L154.273 39.9996L149.501 50.4997L160.001 45.727L170.501 50.4997L165.728 39.9996L170.501 29.4996L160.001 34.2723L149.501 29.4996Z" fill="white"/>
<path d="M143.04 40L146.54 38.6818L147.858 35.1818L149.176 38.6818L152.676 40L149.176 41.3182L147.858 44.8182L146.54 41.3182L143.04 40ZM137.858 40L145.131 42.7272L147.858 50L150.585 42.7272L157.858 40L150.585 37.2727L147.858 30L145.131 37.2727L137.858 40Z" fill="white"/>
<path d="M155.182 52.1421L158.682 50.8239L160 47.3239L161.318 50.8239L164.818 52.1421L161.318 53.4603L160 56.9603L158.682 53.4603L155.182 52.1421ZM150 52.1421L157.273 54.8694L160 62.1421L162.727 54.8694L170 52.1421L162.727 49.4148L160 42.1421L157.273 49.4148L150 52.1421Z" fill="white"/>
<path d="M152.501 32.4995L155.91 39.9996L152.501 47.4998L160.001 44.0906L167.501 47.4998L164.092 39.9996L167.501 32.4995L160.001 35.9086L152.501 32.4995Z" fill="#52AD4A"/>
<path opacity="0.2" fill-rule="evenodd" clip-rule="evenodd" d="M155.91 39.9997L152.501 32.4995L160.001 35.9087L167.501 32.4995L165.122 37.7329L157.651 41.1132L154.822 42.393L155.91 39.9997Z" fill="white"/>
<g style="mix-blend-mode:hue">
<rect width="230" height="100" fill="#80C94E"/>
</g>
<g style="mix-blend-mode:overlay" opacity="0.4">
<rect width="230" height="100" fill="#80C94E"/>
</g>
</g>
<defs>
<linearGradient id="paint0_linear" x1="8" y1="5.00001" x2="220.5" y2="107" gradientUnits="userSpaceOnUse">
<stop stop-color="#293623"/>
<stop offset="1" stop-color="#35472F" stop-opacity="0"/>
</linearGradient>
<linearGradient id="paint1_linear" x1="242.5" y1="59.5" x2="118.5" y2="-14.5" gradientUnits="userSpaceOnUse">
<stop stop-color="#354032"/>
<stop offset="1" stop-color="#3D553D" stop-opacity="0"/>
</linearGradient>
</defs>
</svg>
