<svg width="230" height="100" viewBox="0 0 230 100" fill="none" xmlns="http://www.w3.org/2000/svg">
<mask id="mask0" mask-type="alpha" maskUnits="userSpaceOnUse" x="0" y="0" width="230" height="100">
<rect width="230" height="100" fill="#2C2C2C"/>
</mask>
<g mask="url(#mask0)">
<rect width="230" height="100" fill="#2C2C2C"/>
<path fill-rule="evenodd" clip-rule="evenodd" d="M185.069 -49.8634C198.976 -48.0377 213.415 -55.3498 226.053 -48.7821C239.946 -41.5619 251.581 -28.5585 256.549 -12.7161C261.552 3.2362 259.914 21.4744 252.776 36.4359C246.191 50.2394 230.677 54.3702 219.753 64.4094C207.526 75.6452 200.906 96.0886 185.069 98.6551C169.021 101.256 154.137 88.6688 141.958 77.0169C130.618 66.1685 123.617 51.4856 119.312 35.7473C115.102 20.3547 115.058 4.55358 117.823 -11.221C120.956 -29.093 121.401 -52.0741 136.2 -60.5781C151.259 -69.2319 168.157 -52.0836 185.069 -49.8634Z" fill="#19957F"/>
<path fill-rule="evenodd" clip-rule="evenodd" d="M156.467 16.8563C164.531 16.1529 172.386 16.6624 180.471 16.9732C191.851 17.4106 204.076 13.3932 214.206 19.0754C224.35 24.7652 231.71 36.0641 235.47 47.8231C239.242 59.6222 236.394 72.4708 235.254 84.9066C234.11 97.3849 233.852 110.209 228.721 121.427C223.49 132.863 215.64 143.158 205.603 149.733C195.773 156.171 183.702 160.898 172.5 158.251C161.085 155.553 156.499 136.718 144.884 135.384C131.249 133.817 120.02 154.209 106.693 150.691C95.355 147.698 87.2898 132.689 86.5133 119.976C85.6558 105.938 101.647 96.0956 102.501 82.0571C103.162 71.1995 90.5089 63.3729 90.6197 52.4921C90.73 41.6575 94.8291 29.3585 103.098 23.3739C111.833 17.053 123.699 22.2884 134.112 21.0169C141.707 20.0893 148.848 17.5208 156.467 16.8563Z" fill="#006161"/>
<path fill-rule="evenodd" clip-rule="evenodd" d="M113.457 -50.7297C125.47 -35.1994 111.446 -7.20318 123.019 8.71594C128.635 16.4404 142.805 -13.2069 147.057 -4.51431C152.11 5.81537 126.165 15.6089 131.393 25.8348C136.905 36.6148 155.488 23.4555 164.89 30.3616C170.519 34.4967 166.863 44.803 167.253 52.1752C167.744 61.4806 175.539 76.633 167.506 79.898C155.48 84.7858 143.91 69.2349 131.267 66.8012C127.198 66.0178 122.842 68.0189 119.497 70.6562C113.536 75.3558 111.744 86.907 104.442 87.9492C98.4296 88.8073 96.0553 78.5706 91.145 74.7028C86.5799 71.107 81.8725 67.6127 76.4575 65.9061C64.31 62.0776 48.3249 68.2357 39.4731 58.4177C32.9335 51.1643 42.7869 38.5645 42.6518 28.4107C42.5014 17.1 32.8798 4.4777 38.6305 -4.95102C44.7632 -15.0061 60.4473 -10.0853 69.9422 -16.3341C77.4224 -21.257 80.4747 -31.554 87.5468 -37.144C95.3686 -43.3266 107.234 -58.7756 113.457 -50.7297Z" fill="#447DD2"/>
<path fill-rule="evenodd" clip-rule="evenodd" d="M23.5686 -29.6855C33.5324 -28.1446 39.0121 -16.0133 47.5779 -10.2784C54.7492 -5.47718 62.4982 -2.28414 70.1645 1.51073C80.128 6.44276 103.024 4.24915 100.009 15.6752C94.8311 35.2956 69.3072 38.8463 56.3965 53.6849C53.5902 56.9103 57.2926 62.863 55.4882 66.8435C53.6759 70.8414 48.0401 71.6194 46.4124 75.7097C44.1546 81.3838 50.2081 92.5018 44.6828 93.9976C37.858 95.8452 34.0126 77.4897 27.6673 80.7843C18.6607 85.4608 23.6804 105.427 14.4944 109.672C8.41642 112.481 8.76442 96.434 3.66341 91.8782C-0.614487 88.0575 -6.81556 88.4029 -11.9244 86.0772C-19.4829 82.6362 -35.313 83.525 -33.9583 74.7513C-32.1175 62.8293 -9.86622 65.5853 -6.95868 53.9163C-4.6634 44.7045 -24.3721 41.1566 -23.23 31.6947C-22.3229 24.1796 -6.23389 31.7721 -3.44702 24.8225C1.86375 11.579 -9.55069 -5.4186 -3.24638 -18.1385C1.34823 -27.4088 13.9668 -31.1705 23.5686 -29.6855Z" fill="#0C5BA4"/>
<path fill-rule="evenodd" clip-rule="evenodd" d="M109.667 22.6278C117.963 25.6463 125.481 31.2164 131.389 38.2643C136.674 44.5691 137.341 53.9945 141.831 60.9979C145.356 66.4965 150.548 70.2148 154.905 74.9462C160.551 81.0763 166.869 86.2973 171.586 93.3039C178.039 102.889 197.352 118.07 187.866 123.907C171.344 134.073 147.388 106.093 131.752 117.815C121.17 125.747 145.433 144.116 142.64 157.809C140.934 166.175 129.118 166.714 121.433 168.404C113.717 170.102 105.904 167.708 98.0346 167.621C88.9494 167.52 73.5918 177.371 71.0103 167.846C66.6086 151.604 85.6481 136.798 85.0937 119.869C84.8844 113.479 73.4471 116.553 69.1871 112.172C64.7152 107.573 63.7141 100.33 60.52 94.5981C54.3935 83.6031 40.1848 75.2496 41.4833 62.453C42.5223 52.2133 58.6296 53.6458 65.4023 46.4835C72.4106 39.072 72.7701 24.8312 81.5152 20.1181C90.0327 15.5277 100.657 19.3495 109.667 22.6278Z" fill="#8487DC"/>
<path fill-rule="evenodd" clip-rule="evenodd" d="M37.534 22.1062C50.7487 24.7198 42.8648 50.3582 47.4293 64.0454C48.564 67.448 50.9855 70.835 54.1593 71.96C59.9989 74.0298 66.5445 70.9339 72.4141 72.9014C80.8205 75.7192 93.8206 76.5631 95.6859 85.8798C97.4028 94.4552 77.5878 95.7259 78.7233 104.414C80.8653 120.804 107.767 129.793 103.503 145.688C100.159 158.149 78.5499 138.916 67.883 144.82C58.4147 150.06 61.093 179.878 51.7851 174.311C36.7856 165.339 39.7568 139.986 32.0676 123.398C30.4018 119.805 27.9747 114.885 24.2631 114.938C15.082 115.067 7.39097 124.509 -1.77227 123.875C-10.8979 123.244 -19.9704 118.448 -26.4279 111.434C-33.0584 104.231 -36.7239 94.105 -38.3948 84.0952C-40.1797 73.4021 -40.2107 61.8876 -36.3742 51.8474C-32.5127 41.7416 -26.7123 26.0013 -16.686 27.2822C0.778865 29.5136 8.61449 61.5056 26.1325 59.8333C38.4041 58.6618 25.4152 19.7094 37.534 22.1062Z" fill="#54A077"/>
<g style="mix-blend-mode:multiply">
<rect width="233.68" height="105" fill="#CCCCCC"/>
</g>
</g>
</svg>
