<svg width="230" height="100" viewBox="0 0 230 100" fill="none" xmlns="http://www.w3.org/2000/svg">
<mask id="mask0" mask-type="alpha" maskUnits="userSpaceOnUse" x="0" y="0" width="230" height="100">
<rect width="230" height="100" fill="#2C2C2C"/>
</mask>
<g mask="url(#mask0)">
<rect width="230" height="100" fill="#2C2C2C"/>
<path fill-rule="evenodd" clip-rule="evenodd" d="M150.149 20.1366C164.056 21.9623 178.495 14.6502 191.133 21.2179C205.026 28.4381 216.661 41.4415 221.629 57.2839C226.632 73.2362 224.995 91.4744 217.856 106.436C211.271 120.239 195.758 124.37 184.833 134.409C172.606 145.645 165.986 166.089 150.149 168.655C134.101 171.256 119.218 158.669 107.038 147.017C95.6981 136.168 88.6969 121.486 84.3922 105.747C80.1821 90.3547 80.1377 74.5536 82.9032 58.779C86.0366 40.907 86.4813 17.9259 101.28 9.42194C116.339 0.768142 133.237 17.9164 150.149 20.1366Z" fill="#C47022"/>
<path fill-rule="evenodd" clip-rule="evenodd" d="M19.9869 -5.14372C28.051 -5.84711 35.9059 -5.33755 43.9906 -5.02683C55.3714 -4.58942 67.5957 -8.60676 77.7259 -2.92458C87.8697 2.76519 95.2302 14.0641 98.9898 25.8231C102.762 37.6222 99.914 50.4708 98.7737 62.9066C97.6296 75.3849 97.3721 88.2086 92.2409 99.4271C87.0102 110.863 79.1602 121.158 69.1229 127.733C59.293 134.171 47.2222 138.898 36.0197 136.251C24.6049 133.553 20.0189 114.718 8.40404 113.384C-5.23085 111.817 -16.4602 132.209 -29.7867 128.691C-41.1249 125.698 -49.1902 110.689 -49.9667 97.9765C-50.8242 83.9382 -34.8333 74.0956 -33.9791 60.0571C-33.3184 49.1995 -45.9711 41.3729 -45.8603 30.4921C-45.75 19.6575 -41.6509 7.35846 -33.3815 1.37386C-24.6474 -4.947 -12.7807 0.288444 -2.36844 -0.983147C5.22693 -1.91073 12.3685 -4.4792 19.9869 -5.14372Z" fill="#B02B4B"/>
<path fill-rule="evenodd" clip-rule="evenodd" d="M259.657 -3.7297C271.67 11.8006 257.646 39.7968 269.22 55.7159C274.836 63.4404 289.005 33.7931 293.257 42.4857C298.31 52.8154 272.365 62.6089 277.594 72.8348C283.106 83.6148 301.688 70.4555 311.09 77.3616C316.719 81.4967 313.063 91.803 313.453 99.1752C313.944 108.481 321.739 123.633 313.706 126.898C301.68 131.786 290.11 116.235 277.467 113.801C273.398 113.018 269.043 115.019 265.697 117.656C259.736 122.356 257.944 133.907 250.643 134.949C244.63 135.807 242.256 125.571 237.345 121.703C232.78 118.107 228.073 114.613 222.658 112.906C210.51 109.078 194.525 115.236 185.673 105.418C179.134 98.1643 188.987 85.5645 188.852 75.4107C188.702 64.1 179.08 51.4777 184.831 42.049C190.963 31.9939 206.647 36.9147 216.142 30.6659C223.623 25.743 226.675 15.446 233.747 9.85597C241.569 3.67343 253.434 -11.7756 259.657 -3.7297Z" fill="#CFA947"/>
<path fill-rule="evenodd" clip-rule="evenodd" d="M105.609 21.3145C115.572 22.8554 121.052 34.9867 129.618 40.7216C136.789 45.5228 144.538 48.7159 152.205 52.5107C162.168 57.4428 185.064 55.2491 182.049 66.6752C176.871 86.2956 151.347 89.8463 138.437 104.685C135.63 107.91 139.333 113.863 137.528 117.844C135.716 121.841 130.08 122.619 128.452 126.71C126.195 132.384 132.248 143.502 126.723 144.998C119.898 146.845 116.053 128.49 109.707 131.784C100.701 136.461 105.72 156.427 96.5344 160.672C90.4565 163.481 90.8045 147.434 85.7034 142.878C81.4256 139.058 75.2245 139.403 70.1156 137.077C62.5571 133.636 46.727 134.525 48.0817 125.751C49.9225 113.829 72.1738 116.585 75.0814 104.916C77.3766 95.7045 57.668 92.1566 58.81 82.6947C59.7171 75.1796 75.8061 82.7721 78.593 75.8225C83.9038 62.579 72.4893 45.5814 78.7937 32.8615C83.3883 23.5912 96.0069 19.8295 105.609 21.3145Z" fill="#CD8D2E"/>
<path fill-rule="evenodd" clip-rule="evenodd" d="M63.2669 -65.3722C71.5631 -62.3537 79.0816 -56.7836 84.9895 -49.7357C90.2745 -43.4309 90.9411 -34.0055 95.4308 -27.0021C98.9559 -21.5035 104.148 -17.7852 108.505 -13.0538C114.151 -6.92369 120.469 -1.70268 125.186 5.30389C131.639 14.8895 150.952 30.0699 141.466 35.9071C124.944 46.0733 100.989 18.0933 85.352 29.8146C74.77 37.747 99.0329 56.1163 96.24 69.8089C94.5336 78.1747 82.7177 78.714 75.033 80.4044C67.3175 82.1015 59.5044 79.7078 51.6347 79.6207C42.5495 79.52 27.1919 89.3713 24.6104 79.8458C20.2087 63.6038 39.2482 48.7984 38.6938 31.8691C38.4845 25.4786 27.0472 28.5528 22.7872 24.1719C18.3153 19.5731 17.3142 12.3304 14.1201 6.59806C7.9936 -4.39689 -6.21513 -12.7504 -4.91663 -25.547C-3.87758 -35.7867 12.2297 -34.3542 19.0024 -41.5165C26.0107 -48.928 26.3702 -63.1688 35.1153 -67.8819C43.6328 -72.4723 54.2567 -68.6505 63.2669 -65.3722Z" fill="#C45050"/>
<path fill-rule="evenodd" clip-rule="evenodd" d="M192.094 -64.8938C205.309 -62.2802 197.425 -36.6418 201.989 -22.9546C203.124 -19.552 205.546 -16.165 208.719 -15.04C214.559 -12.9702 221.105 -16.0661 226.974 -14.0986C235.381 -11.2808 248.381 -10.4369 250.246 -1.1202C251.963 7.45522 232.148 8.72595 233.283 17.4141C235.425 33.8037 262.327 42.793 258.063 58.6883C254.719 71.1494 233.11 51.9162 222.443 57.8196C212.975 63.0597 215.653 92.8776 206.345 87.3105C191.346 78.3392 194.317 52.9861 186.628 36.3983C184.962 32.8047 182.535 27.8855 178.823 27.9378C169.642 28.0672 161.951 37.5086 152.788 36.8752C143.662 36.2443 134.59 31.4478 128.132 24.4337C121.502 17.2314 117.836 7.10504 116.165 -2.90481C114.38 -13.5979 114.349 -25.1124 118.186 -35.1526C122.047 -45.2584 127.848 -60.9987 137.874 -59.7178C155.339 -57.4864 163.175 -25.4944 180.693 -27.1667C192.964 -28.3382 179.975 -67.2906 192.094 -64.8938Z" fill="#A05454"/>
<g style="mix-blend-mode:multiply">
<rect width="233.68" height="105" fill="#CCCCCC"/>
</g>
</g>
</svg>
