<svg width="230" height="100" viewBox="0 0 230 100" fill="none" xmlns="http://www.w3.org/2000/svg">
<mask id="mask0" style="mask-type:alpha" maskUnits="userSpaceOnUse" x="0" y="0" width="230" height="100">
<rect width="230" height="100" fill="#666666"/>
</mask>
<g mask="url(#mask0)">
<rect width="230" height="100" fill="url(#paint0_radial)"/>
<rect width="230" height="100" fill="url(#paint1_radial)"/>
<rect width="230" height="100" fill="url(#paint2_radial)"/>
<rect width="230" height="100" fill="url(#paint3_radial)"/>
<rect width="230" height="100" fill="#32E344" fill-opacity="0.56"/>
<path opacity="0.1" d="M3.98633 16.1239C4.0021 15.067 5.55685 5.86494 5.6019 9.06326C5.70846 16.6294 5.6019 24.2039 5.6019 31.771C5.6019 32.4059 5.36608 34.3923 5.96091 32.4591C7.44627 27.6317 8.95733 22.8465 10.6879 18.0985C12.101 14.2216 13.3959 10.2716 15.056 6.49031C16.2007 3.88287 16.357 4.79892 16.3723 7.32802C16.4809 25.2364 17.1702 43.3202 14.9961 61.1204C14.6557 63.9078 14.2183 66.7676 14.2183 69.5872C14.2183 73.6124 15.7418 61.6625 16.9707 57.8295C18.7407 52.3089 20.8888 47.1105 23.433 41.9131C23.6467 41.4765 25.4169 36.4924 26.2752 36.5877C27.148 36.6847 26.6055 50.6668 26.6043 50.9483C26.533 66.9963 26.2816 83.1565 24.4502 99.1162C24.0349 102.735 23.418 106.319 22.8645 109.917C22.2227 114.089 24.9906 101.746 26.1256 97.6801C35.8738 62.7612 46.0169 27.7158 57.689 -6.61374C58.0215 -7.59179 59.4221 -14.2383 60.1124 -9.7252C61.9059 2.00201 61.515 14.213 61.5783 26.0267C61.703 49.272 61.6082 72.5197 61.6082 95.7654C61.6082 95.9575 61.4066 97.8672 61.7279 96.7826C63.8773 89.5284 66.5324 82.4015 68.9681 75.2417C73.1774 62.868 77.4998 50.5631 82.1619 38.3529C83.561 34.6884 84.8118 30.9579 86.2606 27.3132C86.6887 26.2362 87.7764 23.3231 88.1754 24.4112C88.8253 26.1838 88.482 28.1778 88.5045 30.0656C88.6022 38.2758 88.376 46.4719 87.6967 54.6582C86.2878 71.6356 83.6478 88.5051 81.9524 105.459C80.5021 119.962 82.4117 100.634 81.2344 111.622C81.0858 113.009 82.2824 109.033 82.7004 107.703C87.7029 91.7763 93.6491 76.1632 99.3048 60.4622C101.355 54.771 102.941 48.3433 105.947 43.05C107.016 41.1675 106.844 52.0091 106.844 52.2647C106.844 60.0232 106.877 67.7825 106.844 75.5409C106.832 78.3937 105.406 86.6576 106.665 84.0974C111.439 74.3847 114.753 63.9841 119.649 54.2992C120.571 52.4744 121.239 51.28 121.683 54.1496C122.98 62.5163 123 71.0461 123 79.49C123 83.902 122.483 88.6824 123 93.0728C123.052 93.5179 123.563 92.3565 123.718 91.9359C125.827 86.2072 127.776 80.4043 129.791 74.6433C141.283 41.7927 149.776 7.67606 162.611 -24.6842C164.66 -29.8503 164.466 -26.8158 164.466 -22.8891C164.466 -9.91918 164.225 3.038 163.928 16.0042C163.344 41.4662 162.261 67.3045 163.419 92.7736C163.526 95.1199 167.1 89.7092 168.296 87.6876C174.668 76.9122 179.969 65.4947 185.289 54.1795C188.428 47.5021 191.786 40.9285 194.923 34.2541C197.254 29.2932 196.241 40.7769 196.239 41.1353C196.164 56.162 195.531 71.2273 193.816 86.1617C192.965 93.5645 191.683 100.911 190.973 108.331C190.928 108.809 190.694 110.22 190.854 109.767C191.665 107.469 192.263 105.101 193.098 102.796C198.316 88.3801 204.151 74.1613 210.6 60.2528C212.824 55.4548 214.923 49.4364 218.199 45.1443C219.584 43.3291 218.856 49.6824 218.827 51.9656C218.682 63.4272 217.945 74.7844 216.284 86.1318C215.354 92.4822 213.472 99.1202 213.472 105.578C213.472 107.02 215.894 102.524 215.985 102.377C218.111 98.9423 219.856 94.8855 222.746 91.9957C223.174 91.5675 223.165 96.4161 223.165 97.4408" stroke="white" stroke-width="14" stroke-linecap="round"/>
<path opacity="0.3" d="M226.191 9.11153C226.45 10.1365 227.33 19.4274 226.458 16.3497C224.397 9.069 222.54 1.72493 220.581 -5.58425C220.417 -6.19759 220.13 -8.17728 220.056 -6.15599C219.871 -1.10864 219.65 3.90452 219.207 8.93873C218.846 13.0492 218.617 17.1998 217.992 21.2819C217.561 24.0968 217.173 23.2524 216.504 20.8134C211.764 3.54336 206.418 -13.7459 203.911 -31.5023C203.518 -34.2827 203.201 -37.1583 202.471 -39.8819C201.429 -43.7699 203.05 -31.8328 202.855 -27.8124C202.574 -22.0218 201.845 -16.4445 200.733 -10.7658C200.639 -10.2887 200.219 -5.01629 199.366 -4.88626C198.497 -4.75404 195.403 -18.4001 195.331 -18.6724C191.246 -34.192 187.306 -49.8665 184.945 -65.7565C184.409 -69.3594 184.078 -72.9808 183.681 -76.5992C183.221 -80.7953 183.742 -68.1566 183.698 -63.9357C183.32 -27.6835 182.593 8.79288 180.204 44.9737C180.135 46.0045 180.503 52.787 178.668 48.6063C173.9 37.7429 171.118 25.8468 167.999 14.452C161.862 -7.96895 155.937 -30.449 149.92 -52.9026C149.87 -53.0881 149.571 -54.985 149.541 -53.8542C149.343 -46.2908 148.623 -38.7196 148.123 -31.1734C147.26 -18.1319 146.269 -5.12751 144.926 7.87326C144.523 11.775 144.281 15.7021 143.825 19.5976C143.69 20.7487 143.393 23.8441 142.726 22.8964C141.64 21.3524 141.455 19.3375 140.945 17.5197C138.725 9.61465 136.823 1.63928 135.36 -6.4439C132.327 -23.2075 130.511 -40.1854 127.76 -57.0003C125.408 -71.3846 128.566 -52.2206 126.859 -63.1392C126.643 -64.5173 126.516 -60.3676 126.457 -58.9741C125.747 -42.2956 124.044 -25.6756 122.645 -9.04579C122.138 -3.01783 122.27 3.60124 120.736 9.49215C120.191 11.5872 117.551 1.0706 117.484 0.823713C115.476 -6.67039 113.437 -14.1569 111.46 -21.6593C110.733 -24.418 109.972 -32.7694 109.419 -29.9707C107.321 -19.3534 106.812 -8.44925 104.589 2.17276C104.171 4.17412 103.835 5.50054 102.663 2.8438C99.2454 -4.90235 97.0182 -13.1363 94.8328 -21.2925C93.6909 -25.5541 92.9526 -30.3053 91.3173 -34.4124C91.1515 -34.8289 90.9587 -33.5748 90.918 -33.1285C90.3638 -27.0492 89.9829 -20.9395 89.5273 -14.8532C86.9289 19.8525 87.5563 55.0045 83.5335 89.5842C82.8912 95.1047 82.2935 92.1233 81.2772 88.3304C77.9203 75.8024 74.7998 63.2243 71.731 50.623C65.7047 25.8775 60.063 0.63942 52.3529 -23.6622C51.6426 -25.901 49.5904 -19.7495 48.9588 -17.4873C45.5923 -5.42974 43.427 6.97068 41.217 19.2772C39.9128 26.5396 38.3706 33.7583 37.0687 41.017C36.1011 46.4122 34.1073 35.0577 34.0162 34.711C30.1996 20.1769 26.9112 5.46122 24.7033 -9.40841C23.6089 -16.779 22.9457 -24.2069 21.7109 -31.5578C21.6313 -32.0315 21.492 -33.4548 21.4548 -32.9759C21.2661 -30.5467 21.3009 -28.1038 21.0916 -25.6618C19.7824 -10.3865 17.8259 4.85814 15.197 19.9617C14.2901 25.172 13.8202 31.5286 11.7671 36.5222C10.8989 38.6341 9.9578 32.3089 9.39478 30.096C6.56844 18.9874 4.34053 7.82644 3.00828 -3.56428C2.26271 -9.93892 2.36311 -16.8379 0.691574 -23.0762C0.318593 -24.4682 -0.85775 -19.4983 -0.907365 -19.3336C-2.07229 -15.4653 -2.70814 -11.095 -4.7515 -7.55582C-5.05429 -7.03136 -6.30013 -11.7171 -6.56535 -12.7069" stroke="white" stroke-linecap="round"/>
<g opacity="0.5">
<path d="M0.151367 77.5488C0.191714 73.3123 0.52953 69.9117 2.56788 66.2056C3.99323 63.614 3.72204 66.2846 3.72204 67.9548C3.72204 70.1675 3.31284 73.5212 4.768 69.4156C5.73997 66.6732 6.76182 63.9488 7.74356 61.2102C8.0162 60.4497 8.12488 59.5743 8.57311 58.9019C8.83988 58.5018 8.59114 59.8637 8.59114 60.3446C8.59114 61.595 8.59114 62.8453 8.59114 64.0956C8.59114 65.0442 8.59728 64.6276 8.80754 63.771C9.44973 61.1547 10.2896 58.5311 11.2601 56.0165C14.2086 48.3773 13.4699 58.2624 15.48 60.2725C15.7085 60.501 16.2874 59.1254 16.2915 59.1183C17.2774 57.4467 18.4284 55.8932 19.6097 54.3574C21.273 52.1952 21.515 52.1559 22.405 54.664C23.3613 57.3593 23.7717 56.9793 25.128 54.5378C25.5554 53.7685 26.1064 52.5655 26.9314 52.1213C27.5771 51.7736 28.4816 53.1485 28.861 53.5098C32.1772 56.6681 36.845 52.0855 40.3305 51.3278C42.6271 50.8285 44.3443 52.0049 46.1734 53.2033C47.0588 53.7833 47.3457 54.1198 48.1932 53.1311C48.8128 52.4083 49.9894 50.7883 51.1146 50.9491C52.4064 51.1336 52.7587 51.9493 54.0541 50.913C55.4509 49.7956 56.411 48.6588 58.256 48.6588C59.0795 48.6588 59.903 48.6588 60.7266 48.6588C62.9921 48.6588 65.6003 46.6094 67.4171 45.3406C68.9267 44.2862 70.2284 43.061 71.9616 42.4191C75.2485 41.2018 76.6485 36.8685 78.057 34.0515C78.925 32.3154 80.6321 31.9773 81.808 30.4808C82.2581 29.9079 82.7794 29.5033 83.3408 29.1102C85.3003 27.7386 87.279 25.8878 89.4182 24.8182C91.0792 23.9877 93.3981 23.7266 95.189 23.087C96.0066 22.795 96.6765 22.6902 97.5334 22.6902C98.5246 22.6902 99.1996 23.3395 100.13 23.3395" stroke="#51F2CB" stroke-width="7" stroke-linecap="round"/>
<path d="M167.649 35.9991C166.213 34.2184 166.35 35.635 166.35 37.1533C166.35 37.7634 166.106 38.8373 167 38.1992C168.136 37.3871 171.144 34.0016 171.688 36.3598C172.202 38.5858 172.665 40.8249 173.095 43.0683C173.148 43.3438 173.018 44.7385 173.492 44.0421C173.706 43.7264 174.21 41.8348 174.718 42.0584C175.724 42.5011 175.91 46.305 176.089 47.2882C176.335 48.6456 177.714 47.6127 178.541 48.0637C179.805 48.7529 179.512 53.7866 180.633 53.8525C182.277 53.9492 181.934 53.4418 182.833 55.1509C183.723 56.8424 185.896 54.1273 187.269 54.5197C188.735 54.9384 186.687 60.037 188.279 60.3266C190.192 60.6744 190.654 59.1589 191.02 62.2742C191.058 62.5964 191.154 64.7649 191.525 64.8711C192.611 65.1812 194.25 63.2299 194.88 62.6349C196.037 61.5418 197.074 60.2529 198.306 59.2446C199.262 58.4623 199.146 59.9506 199.208 60.4889C199.421 62.3537 199.408 64.1723 199.46 66.0433C199.482 66.8399 200.619 65.3438 200.831 65.1416C202.799 63.2606 205.03 61.0943 205.285 65.1776C205.421 67.3527 205.609 67.1623 206.746 65.7006C207.393 64.868 207.251 68.6028 207.251 68.4598" stroke="#51F2CB" stroke-width="7" stroke-linecap="round"/>
<path d="M207.251 88.5854C206.838 89.3096 205.339 91.0706 205.339 91.9938C205.339 92.9488 205.627 94.0235 205.627 95.0415C205.627 96.751 205.089 96.9583 203.283 97.0252C201.934 97.0751 200.872 96.9201 199.622 97.5121C198.121 98.2232 199.135 99.6483 199.135 100.92" stroke="#51F2CB" stroke-width="7" stroke-linecap="round"/>
<path d="M182.256 98.6482C183.025 95.7017 184.137 92.7573 185.502 90.0281C185.931 89.1701 185.827 90.5677 185.827 90.8577C185.827 92.8084 186.184 92.9179 187.125 91.5069" stroke="#51F2CB" stroke-width="7" stroke-linecap="round"/>
<path d="M164.727 95.4021C164.727 96.201 165.144 98.3754 164.474 99.045C163.733 99.786 164.678 98.0764 164.889 97.8187C165.724 96.7986 167.252 94.9689 167.648 93.7791" stroke="#51F2CB" stroke-width="7" stroke-linecap="round"/>
</g>
<path d="M-0.956769 71.0655C-1.39821 66.8186 1.05358 62.6379 2.73873 58.8282C4.26565 55.3763 7.21907 51.8048 10.8242 50.3252C13.6342 49.172 16.2422 47.7807 19.1553 46.8285C22.1286 45.8568 24.788 46.3181 27.626 47.3385C29.6633 48.071 32.0421 47.8087 34.1643 48.0786C35.4976 48.2481 36.8733 47.9301 38.2374 48.0609C39.8547 48.2159 41.6463 48.2391 43.2584 48.0471C50.3906 47.198 58.3979 47.0288 64.3088 42.3743C65.8477 41.1625 67.6382 40.3421 69.1649 39.1226C70.8511 37.7757 72.3063 36.4496 73.8315 34.9331C75.194 33.5783 76.8595 32.3541 78.0721 30.8721C78.7221 30.0778 79.0628 29.0833 79.697 28.2777C81.7679 25.6471 84.074 22.8697 87.2987 21.5973C89.629 20.6778 92.1473 20.5009 94.6088 20.2079C97.5157 19.8618 100.407 20.7626 103.294 20.9909C105.835 21.1918 108.565 21.3658 111.091 21.2955C112.465 21.2572 113.805 21.4266 115.175 21.2635C118.388 20.8811 121.522 18.7458 124.406 17.3613C127.124 16.056 131.292 14.424 132.427 11.2668C132.752 10.3633 132.877 10.0107 131.782 10.6428" stroke="black" stroke-width="3" stroke-linecap="round"/>
<path d="M14.9866 104.91C14.7648 103.047 15.1336 102.112 15.8537 100.42C16.1227 99.7879 16.6394 99.0509 16.7785 98.376C17.2048 96.3076 17.8281 94.2886 18.577 92.3346C19.5901 89.6912 21.9294 86.5676 24.3219 84.9927C26.7889 83.3688 29.5658 81.9155 32.5311 81.5625C35.8644 81.1656 39.0723 80.3165 42.3811 79.9226C45.4154 79.5613 48.9267 79.6472 51.8039 78.619C53.5217 78.0052 55.5554 78.0926 57.2448 77.3353C58.9834 76.5561 60.9774 76.0413 62.6067 75.0617C65.8845 73.0909 68.9217 71.614 71.4058 68.6281C72.4039 67.4284 73.6559 66.043 74.9666 65.1802C76.5432 64.1425 76.9377 62.5131 77.9958 61.0818C78.9306 59.8174 80.0505 58.3512 80.7615 56.9499C81.6874 55.1248 82.1911 53.1136 83.6459 51.6358C85.0884 50.1706 86.9297 48.9377 88.2062 47.3162C89.1438 46.1252 90.0094 44.7225 91.4194 44.0005C92.5447 43.4244 93.9969 42.9693 95.012 42.236C95.7988 41.6677 97.8109 42.4878 98.7234 42.5599C101.367 42.7689 103.926 42.4596 106.565 42.1455C107.216 42.0679 107.135 41.7514 107.675 41.5461C108.17 41.3577 108.524 41.022 108.968 40.7433C110.172 39.987 111.609 39.5807 112.882 38.9535C120.655 35.1234 128.396 30.9074 135.592 26.0747C136.919 25.1836 138.293 24.1919 139.177 22.8316C140.415 20.9274 139.741 18.6152 139.667 16.4788C139.605 14.694 139.437 12.7091 139.049 10.9587C138.917 10.3642 138.28 9.99836 138.177 9.41426C138.028 8.5656 137.285 7.81265 137.196 7.06511C137.046 5.80149 135.976 5.93858 134.974 6.05782C133.741 6.20462 132.952 6.02617 132.499 7.28696C132.226 8.04392 132.527 9.04857 132.621 9.84209" stroke="black" stroke-width="3" stroke-linecap="round"/>
<path d="M-0.194547 83.3561C0.705231 81.8802 1.77798 80.6092 2.69449 79.1706C3.41322 78.0424 3.9701 76.8536 4.74137 75.7602C6.20215 73.6892 7.50115 71.3481 9.12337 69.3982C10.6465 67.5675 12.174 65.7213 14.1245 64.3123C16.4724 62.6162 18.8976 61.4393 21.6119 60.4878C25.0318 59.2889 29.2345 59.2948 32.8141 58.8686C35.5186 58.5466 38.223 58.2246 40.9274 57.9027C42.5356 57.7112 44.1437 57.5197 45.7519 57.3283C46.4284 57.2477 47.6927 57.3307 48.2924 56.9739C49.4862 56.2636 51.0042 55.9926 52.3085 55.4964C53.9028 54.89 55.4469 54.1455 57.0211 53.5467C58.7047 52.9063 60.2324 52.2072 61.826 51.3913C63.0095 50.7853 63.9147 49.3778 65.2053 48.9254C67.3795 48.1633 69.1665 45.6487 71.0889 44.3834C73.9616 42.4924 76.419 40.0877 78.6835 37.5351C80.2385 35.7823 81.1737 33.7232 82.8272 32.0062C84.6369 30.127 86.4102 26.9212 88.9926 26.0159C91.3548 25.1879 93.7145 24.9865 96.2064 24.6899C97.8472 24.4945 99.5033 25.4654 101.168 25.2672C102.091 25.1573 102.954 25.3417 103.844 25.1822C104.265 25.1069 103.871 23.4448 103.828 23.0817" stroke="black" stroke-width="2" stroke-linecap="round"/>
<path d="M3.89167 88.2427C3.01115 89.7366 3.07969 91.2335 3.28232 92.9355C3.34437 93.4567 3.25169 95.4016 3.8777 95.5382C5.64403 95.9234 6.89253 95.3083 8.0882 94.1673C9.21142 93.0955 9.11706 88.6193 7.70699 88.0221C5.96792 87.2855 4.26905 87.2633 2.3999 87.4858" stroke="black" stroke-width="2" stroke-linecap="round"/>
<path d="M16.2694 72.5188C14.7356 72.7014 14.1714 72.5567 14.3547 74.0965C14.5784 75.975 13.746 77.6129 13.8374 79.4532C13.8947 80.6075 13.7597 81.2276 15.0044 81.0794C16.3878 80.9147 17.6317 80.8893 18.7877 80.0449C20.0505 79.1225 21.8648 75.7133 20.184 74.4408C18.6487 73.2783 16.4324 73.6909 14.8599 72.453" stroke="black" stroke-width="2" stroke-linecap="round"/>
<path d="M31.801 63.6614C28.6366 64.0382 25.1973 63.8294 23.0482 66.5594C21.7928 68.1541 22.8757 70.5042 24.7767 71.3762C26.8654 72.3343 28.8581 71.1101 29.7188 69.2824C30.5027 67.6176 31.992 65.4819 30.216 64.0837" stroke="black" stroke-width="2" stroke-linecap="round"/>
<path d="M37.1925 71.6631C36.2032 73.4237 35.6218 75.1418 35.5648 77.178C35.5523 77.6265 35.474 79.1419 36.003 79.3321C37.1309 79.7377 39.7659 79.4065 40.4301 78.3638C41.6951 76.3783 43.6857 73.4115 41.4386 71.5729C40.0425 70.4305 38.7794 70.5397 37.0828 70.7417" stroke="black" stroke-width="2" stroke-linecap="round"/>
<path d="M48.3593 61.4565C47.6563 61.5402 45.4181 61.3869 44.7935 61.92C43.9192 62.6662 43.6383 65.784 43.647 66.8974C43.6561 68.0597 44.8516 68.1475 45.8009 68.419C47.2227 68.8257 48.7146 69.4957 50.1674 68.7946C51.7335 68.0389 52.5362 65.5613 53.1045 64.0323C53.4089 63.2135 53.2697 62.639 52.5207 62.181C52.0857 61.915 51.6946 61.5266 51.1783 61.5881C50.5923 61.6579 50.0679 61.8183 49.5384 61.5497" stroke="black" stroke-width="2" stroke-linecap="round"/>
<path d="M61.565 56.6137C61.8393 58.9176 61.86 60.3164 64.5504 59.9961C66.5384 59.7594 68.7886 58.4222 68.5165 56.1365C68.409 55.2332 68.4966 53.8953 67.7581 53.2548C67.3729 52.9207 66.4338 53.2308 65.9708 53.2859C65.0697 53.3932 63.796 53.3442 63.1335 54.0909C62.8482 54.4126 62.4099 54.9398 62.0915 55.1494" stroke="black" stroke-width="2" stroke-linecap="round"/>
<path d="M79.2028 41.8989C78.8291 43.8291 78.8491 45.5812 80.8969 46.3175C82.468 46.8824 84.59 44.8355 85.0565 43.5381C85.4522 42.4374 84.634 40.0745 83.3423 39.8227C82.2735 39.6144 80.4771 40.0011 79.4989 40.462" stroke="black" stroke-width="2" stroke-linecap="round"/>
<path d="M93.2706 32.5149C92.3191 32.6282 91.0805 32.5761 90.1624 32.8979C89.4493 33.1479 89.268 35.2618 89.2466 35.8881C89.1868 37.6369 92.1219 38.2906 93.5192 38.0919C95.3946 37.8253 97.2963 35.1698 96.8501 33.2568C96.5027 31.7676 94.0547 31.6765 93.0402 32.5423" stroke="black" stroke-width="2" stroke-linecap="round"/>
<path d="M81.0347 53.3613C79.0292 53.6 77.1201 52.8929 75.064 53.1377C73.4616 53.3284 73.7516 54.9159 73.2935 56.035C72.9084 56.9754 73.5202 62.8995 74.6783 62.7616" stroke="black" stroke-width="2" stroke-linecap="round"/>
<path d="M67.4672 70.8621C65.1987 70.4805 62.8464 70.0418 60.8173 68.9672C59.5968 68.3209 58.1258 67.6864 56.9231 68.743C54.7498 70.6521 55.3724 73.2696 55.6702 75.7707" stroke="black" stroke-width="2" stroke-linecap="round"/>
<path d="M19.1107 88.5333C17.8579 88.6825 15.3683 88.5188 14.1848 89.2366C13.2649 89.7944 13.7553 91.5969 13.9914 92.5172C14.4281 94.2202 15.4205 96.9154 17.7397 96.6393" stroke="black" stroke-width="2" stroke-linecap="round"/>
<path d="M102.309 41.7177C102.078 39.7759 101.927 38.4037 103.946 37.3697C105.115 36.7714 106.273 35.4775 107.613 35.246C108.65 35.0668 109.613 34.757 110.077 35.8871C110.5 36.9174 111.169 37.6297 111.737 38.4928" stroke="black" stroke-width="2" stroke-linecap="round"/>
<path d="M114.226 26.0487C112.559 26.2471 111.345 26.6376 110.451 28.1334C110.021 28.8536 109.259 29.4541 109.367 30.3649C109.562 32.0011 111.266 31.7741 112.605 31.6147C114.789 31.3546 115.278 30.9052 115.528 28.697C115.694 27.2237 115.591 25.6526 113.738 25.8732" stroke="black" stroke-width="2" stroke-linecap="round"/>
<path d="M123.627 22.5934C123.595 23.0307 122.635 26.6828 123.863 26.5367C125.68 26.3203 125.441 25.0373 126.713 24.0949C127.315 23.6486 127.339 21.8782 126.858 21.3911C126.256 20.7816 124.716 21.2956 123.95 21.3868" stroke="black" stroke-width="2" stroke-linecap="round"/>
<path d="M134.118 24.3813C133.124 22.4831 131.949 18.9592 133.498 17.2132C133.969 16.6824 137.823 16.2359 138.105 16.6647" stroke="black" stroke-width="2" stroke-linecap="round"/>
<path d="M138.611 33.1243C141.495 31.526 144.08 29.5201 147.491 29.1879C148.673 29.0728 149.799 28.8445 150.951 29.168C152.335 29.5568 153.81 29.8524 155.219 30.1906C157.474 30.7318 159.743 30.924 162.016 31.3937C164.306 31.8672 166.534 32.5783 168.83 33.0337C171.939 33.6504 173.851 35.7184 176.436 37.2905C176.951 37.6034 177.944 37.9945 178.186 38.6072C178.501 39.4079 178.387 40.4096 178.722 41.2365C179.341 42.7646 179.528 44.41 180.231 45.9651C180.926 47.5029 181.781 49.2063 182.865 50.4867C183.884 51.6898 185.647 52.3874 186.468 53.6949" stroke="black" stroke-width="2" stroke-linecap="round"/>
<path d="M138.478 34.0149C139.567 35.1599 142.008 37.2507 143.633 37.2549C144.156 37.2563 149.071 37.2436 149.159 37.8016C149.235 38.2853 148.999 39.8249 149.187 40.0904C149.396 40.3869 150.809 40.6027 151.216 40.7825C151.709 40.9999 152.283 41.1711 152.702 41.5155C153.326 42.0293 154.155 42.4862 154.909 42.7754C155.468 42.9901 155.891 43.3422 156.466 43.5014C157.282 43.7272 157.096 43.8301 156.383 43.8995C152.135 44.3132 159.367 46.9095 160.605 47.3278C161.894 47.7633 162.673 47.9591 163.977 48.0355C166.123 48.1612 166.038 48.9267 167.291 50.5163C167.955 51.3598 168.557 52.1286 169.187 52.9645C170.053 54.1141 171.621 54.9851 172.852 55.6792C175.925 57.4131 179.241 57.7101 182.545 58.465" stroke="black" stroke-width="2" stroke-linecap="round"/>
<path d="M172.013 56.1997C168.795 56.5131 165.806 56.8663 162.6 56.4094C160.913 56.1691 159.195 56.1231 157.504 55.9061C156.941 55.8338 156.267 55.6034 155.719 55.5924C155.298 55.584 154.514 53.7466 154.235 53.3723C153.695 52.6493 152.58 51.1283 151.558 51.1708C150.511 51.2143 148.961 51.7516 148.038 51.0747C145.97 49.5576 145.441 47.2997 143.852 45.3879C143.385 44.825 143.037 44.1639 142.539 43.6631C142.237 43.36 142.489 43.6547 142.537 44.1508C142.784 46.6864 143.031 49.2221 143.278 51.7577C143.388 52.8806 143.497 54.0035 143.606 55.1264C143.768 56.7828 144.593 57.1671 146.075 57.9454C148.904 59.4314 152.533 60.1449 155.581 61.0664C156.862 61.4537 158.401 61.9046 159.733 62.0151C161.663 62.1753 163.643 63.1585 165.584 63.3956C167.487 63.6281 169.408 64.1323 171.341 63.9441C174.099 63.6755 176.92 64.2784 179.697 64.008C183.72 63.6162 187.748 63.4434 191.768 63.0519" stroke="black" stroke-width="2" stroke-linecap="round"/>
<path d="M187.142 53.8488C189.499 54.3876 191.585 55.522 193.786 56.4927C196.764 57.8059 200.309 58.8773 203.487 59.485C207.669 60.2849 211.928 60.9234 215.992 62.2287C217.955 62.8592 220.14 63.9593 222.162 64.2607" stroke="black" stroke-width="2" stroke-linecap="round"/>
<path d="M184.834 63.9465C192.321 66.5073 200.333 71.4327 208.523 70.6352" stroke="black" stroke-width="2" stroke-linecap="round"/>
<path d="M208.593 60.097C208.877 62.4404 209.906 64.5712 210.139 66.9551C210.233 67.9201 210.714 69.619 210.261 70.4658" stroke="black" stroke-width="2" stroke-linecap="round"/>
<path d="M215.584 62.049C213.084 63.254 212.287 65.7767 211.115 67.9693" stroke="black" stroke-width="2" stroke-linecap="round"/>
<path d="M211.454 71.4467C211.729 74.2774 211.985 77.0809 211.176 79.8597C210.172 83.3075 208.763 86.6283 208.233 90.1899" stroke="black" stroke-width="2" stroke-linecap="round"/>
<path d="M223.291 64.5895C224.776 64.7524 226.22 65.0651 227.696 65.2576C228.159 65.3181 229.91 65.1894 229.626 65.3013C228.749 65.6466 228.164 66.9397 227.4 67.4804C226.521 68.1033 226.061 68.8459 225.017 69.297C223.853 69.8002 222.739 69.9414 222.519 71.1736C221.699 75.7534 221.543 80.4319 221.995 85.0711C222.166 86.829 221.815 88.5338 221.833 90.2916C221.844 91.3509 221.496 93.1582 220.793 94.0129C219.701 95.3411 218.462 96.5649 217.329 97.8607C216.751 98.5212 215.642 99.2256 215.334 100.03" stroke="black" stroke-width="2" stroke-linecap="round"/>
<path d="M213.341 72.7987C215.587 72.58 217.832 72.3613 220.078 72.1426C220.598 72.092 222.043 72.2019 222.23 71.7137" stroke="black" stroke-width="2" stroke-linecap="round"/>
<path d="M207.994 89.9937C207.763 92.0159 206.682 93.7761 205.438 95.2887C204.672 96.2198 204.108 98.1998 203.148 98.8028" stroke="black" stroke-width="2" stroke-linecap="round"/>
<path d="M211.611 77.5744C211.303 78.6688 210.951 79.7188 210.555 80.7489C210.056 82.0499 208.934 82.8316 208.287 83.9926C207.785 84.8928 206.958 85.8214 206.351 86.6432C205.35 88.0002 204.529 89.3445 203.451 90.6554C202.315 92.0369 200.798 93.43 199.925 94.9968C199.535 95.6961 199.055 96.694 198.392 97.1572C197.949 97.466 197.762 97.9446 197.386 98.2181C196.135 99.1281 194.598 100.909 194.056 102.321" stroke="black" stroke-width="2" stroke-linecap="round"/>
<path d="M190.418 80.7353C190.618 83.3072 190.48 86.4615 189.68 88.9249C188.666 92.0477 186.529 94.5714 185.025 97.4473C184.215 98.9956 183.556 101.649 182.017 102.616" stroke="black" stroke-width="2" stroke-linecap="round"/>
<path d="M190.047 81.4295C189.927 80.2048 190.029 78.7942 189.228 77.7795C188.457 76.8027 186.763 75.6426 185.611 75.182C184.075 74.5681 181.782 73.6777 180.093 73.8422" stroke="black" stroke-width="2" stroke-linecap="round"/>
<path d="M179.028 74.1655C181.817 77.1108 185.522 79.9247 187.195 83.682" stroke="black" stroke-width="2" stroke-linecap="round"/>
<path d="M189.13 83.274C188.119 83.5756 187.44 83.8738 186.606 84.3974" stroke="black" stroke-width="2" stroke-linecap="round"/>
<path d="M186.628 84.6148C184.391 83.6005 182.685 82.1716 180.803 80.6234C180.278 80.1916 179.189 79.7477 178.863 79.2278" stroke="black" stroke-width="2" stroke-linecap="round"/>
<path d="M178.862 79.2277C179.01 80.7491 179.159 82.2704 179.307 83.7918C179.404 84.7919 180.177 85.5331 180.816 86.2776C181.792 87.4138 184.073 88.8126 185.704 88.6538" stroke="black" stroke-width="2" stroke-linecap="round"/>
<path d="M186.124 86.1996L186.23 87.2863" stroke="black" stroke-width="2" stroke-linecap="round"/>
<path d="M188.418 89.4866C187.949 89.5324 187.022 89.8261 186.615 89.4916C186.395 89.3105 186.242 88.9636 186.052 88.8395C185.157 88.2565 186.289 85.6469 186.193 84.6572" stroke="black" stroke-width="2" stroke-linecap="round"/>
<path d="M185.423 88.0231C184.553 90.7105 182.77 94.2733 180.692 96.2603C178.4 98.4522 177.404 102.098 176.319 104.926" stroke="black" stroke-width="2" stroke-linecap="round"/>
<path d="M167.2 85.6291C168.001 86.8827 168.943 88.06 169.706 89.3342C170.034 89.882 170.099 90.6128 170.532 91.0578C170.94 91.4774 169.445 93.4896 169.264 93.814C168.052 95.9885 166.798 98.1405 165.788 100.418C165.181 101.784 164.284 103.032 163.761 104.393" stroke="black" stroke-width="2" stroke-linecap="round"/>
<path d="M166.961 85.4329C165.653 85.5604 165.55 85.2994 164.585 84.6892C164.044 84.3472 164.807 86.8706 164.888 87.1706C165.046 87.7597 165.183 89.5659 165.755 89.9384C166.184 90.2184 165.679 91.0076 166.208 91.2107" stroke="black" stroke-width="2" stroke-linecap="round"/>
<path d="M169.531 91.5452C168.262 91.6688 167.244 91.5485 166.032 91.6665" stroke="black" stroke-width="2" stroke-linecap="round"/>
<path d="M165.444 92.382C162.797 96.2225 159.395 100.253 158.328 104.923" stroke="black" stroke-width="2" stroke-linecap="round"/>
<path d="M162.195 33.0587C163.376 34.9381 164.463 36.8495 165.539 38.7899C166.198 39.9794 166.807 41.3722 167.683 42.4273C168.083 42.9085 168.849 43.1627 169.318 43.6608C170.527 44.9447 171.644 46.3607 172.588 47.8517C173.385 49.1097 173.977 50.5219 175.031 51.5928C176.408 52.9927 177.997 54.1059 179.537 55.3097C180.067 55.7239 180.495 56.178 181.168 56.2783" stroke="black" stroke-width="1.5" stroke-linecap="round"/>
<path d="M180.99 56.4945C182.731 57.5478 184.559 58.3837 186.332 59.3675C186.825 59.6415 187.455 59.8985 187.876 60.245C188.48 60.7418 189.013 61.325 189.652 61.7962C190.046 62.0871 190.692 62.2876 190.943 62.6873" stroke="black" stroke-width="1.5" stroke-linecap="round"/>
</g>
<defs>
<radialGradient id="paint0_radial" cx="0" cy="0" r="1" gradientUnits="userSpaceOnUse" gradientTransform="translate(68.5 81.5) rotate(-121.152) scale(78.2895 180.066)">
<stop stop-color="#0E6EFF"/>
<stop offset="0.942708" stop-color="#55C4BC"/>
</radialGradient>
<radialGradient id="paint1_radial" cx="0" cy="0" r="1" gradientUnits="userSpaceOnUse" gradientTransform="translate(138 -2) rotate(102.707) scale(104.561 240.49)">
<stop stop-color="#8145FF"/>
<stop offset="1" stop-color="#FBFF26" stop-opacity="0"/>
</radialGradient>
<radialGradient id="paint2_radial" cx="0" cy="0" r="1" gradientUnits="userSpaceOnUse" gradientTransform="translate(148 114) rotate(-125.059) scale(139.27 111.031)">
<stop stop-color="#B713E0"/>
<stop offset="1" stop-color="#1C92FF" stop-opacity="0"/>
</radialGradient>
<radialGradient id="paint3_radial" cx="0" cy="0" r="1" gradientUnits="userSpaceOnUse" gradientTransform="translate(-7.5 -10) rotate(64.6538) scale(84.0952 193.419)">
<stop stop-color="#FFCA41"/>
<stop offset="1" stop-color="#C8E38D" stop-opacity="0"/>
</radialGradient>
</defs>
</svg>
