<svg width="230" height="100" viewBox="0 0 230 100" fill="none" xmlns="http://www.w3.org/2000/svg">
<mask id="mask0" style="mask-type:alpha" maskUnits="userSpaceOnUse" x="0" y="0" width="230" height="100">
<rect width="230" height="100" fill="#666666"/>
</mask>
<g mask="url(#mask0)">
<rect width="230" height="100" fill="url(#paint0_radial)"/>
<rect width="230" height="100" fill="url(#paint1_radial)"/>
<rect width="230" height="100" fill="url(#paint2_radial)"/>
<rect width="230" height="100" fill="url(#paint3_radial)"/>
<rect width="230" height="100" fill="#B532E3" fill-opacity="0.56"/>
<path opacity="0.1" d="M3.98633 16.1239C4.0021 15.067 5.55685 5.86494 5.6019 9.06326C5.70846 16.6294 5.6019 24.2039 5.6019 31.771C5.6019 32.4059 5.36608 34.3923 5.96091 32.4591C7.44627 27.6317 8.95733 22.8465 10.6879 18.0985C12.101 14.2216 13.3959 10.2716 15.056 6.49031C16.2007 3.88287 16.357 4.79892 16.3723 7.32802C16.4809 25.2364 17.1702 43.3202 14.9961 61.1204C14.6557 63.9078 14.2183 66.7676 14.2183 69.5872C14.2183 73.6124 15.7418 61.6625 16.9707 57.8295C18.7407 52.3089 20.8888 47.1105 23.433 41.9131C23.6467 41.4765 25.4169 36.4924 26.2752 36.5877C27.148 36.6847 26.6055 50.6668 26.6043 50.9483C26.533 66.9963 26.2816 83.1565 24.4502 99.1162C24.0349 102.735 23.418 106.319 22.8645 109.917C22.2227 114.089 24.9906 101.746 26.1256 97.6801C35.8738 62.7612 46.0169 27.7158 57.689 -6.61374C58.0215 -7.59179 59.4221 -14.2383 60.1124 -9.7252C61.9059 2.00201 61.515 14.213 61.5783 26.0267C61.703 49.272 61.6082 72.5197 61.6082 95.7654C61.6082 95.9575 61.4066 97.8672 61.7279 96.7826C63.8773 89.5284 66.5324 82.4015 68.9681 75.2417C73.1774 62.868 77.4998 50.5631 82.1619 38.3529C83.561 34.6884 84.8118 30.9579 86.2606 27.3132C86.6887 26.2362 87.7764 23.3231 88.1754 24.4112C88.8253 26.1838 88.482 28.1778 88.5045 30.0656C88.6022 38.2758 88.376 46.4719 87.6967 54.6582C86.2878 71.6356 83.6478 88.5051 81.9524 105.459C80.5021 119.962 82.4117 100.634 81.2344 111.622C81.0858 113.009 82.2824 109.033 82.7004 107.703C87.7029 91.7763 93.6491 76.1632 99.3048 60.4622C101.355 54.771 102.941 48.3433 105.947 43.05C107.016 41.1675 106.844 52.0091 106.844 52.2647C106.844 60.0232 106.877 67.7825 106.844 75.5409C106.832 78.3937 105.406 86.6576 106.665 84.0974C111.439 74.3847 114.753 63.9841 119.649 54.2992C120.571 52.4744 121.239 51.28 121.683 54.1496C122.98 62.5163 123 71.0461 123 79.49C123 83.902 122.483 88.6824 123 93.0728C123.052 93.5179 123.563 92.3565 123.718 91.9359C125.827 86.2072 127.776 80.4043 129.791 74.6433C141.283 41.7927 149.776 7.67606 162.611 -24.6842C164.66 -29.8503 164.466 -26.8158 164.466 -22.8891C164.466 -9.91918 164.225 3.038 163.928 16.0042C163.344 41.4662 162.261 67.3045 163.419 92.7736C163.526 95.1199 167.1 89.7092 168.296 87.6876C174.668 76.9122 179.969 65.4947 185.289 54.1795C188.428 47.5021 191.786 40.9285 194.923 34.2541C197.254 29.2932 196.241 40.7769 196.239 41.1353C196.164 56.162 195.531 71.2273 193.816 86.1617C192.965 93.5645 191.683 100.911 190.973 108.331C190.928 108.809 190.694 110.22 190.854 109.767C191.665 107.469 192.263 105.101 193.098 102.796C198.316 88.3801 204.151 74.1613 210.6 60.2528C212.824 55.4548 214.923 49.4364 218.199 45.1443C219.584 43.3291 218.856 49.6824 218.827 51.9656C218.682 63.4272 217.945 74.7844 216.284 86.1318C215.354 92.4822 213.472 99.1202 213.472 105.578C213.472 107.02 215.894 102.524 215.985 102.377C218.111 98.9423 219.856 94.8855 222.746 91.9957C223.174 91.5675 223.165 96.4161 223.165 97.4408" stroke="white" stroke-width="14" stroke-linecap="round"/>
<path opacity="0.3" d="M226.191 9.11153C226.45 10.1365 227.33 19.4274 226.458 16.3497C224.397 9.069 222.54 1.72493 220.581 -5.58425C220.417 -6.19759 220.13 -8.17728 220.056 -6.15599C219.871 -1.10864 219.65 3.90452 219.207 8.93873C218.846 13.0492 218.617 17.1998 217.992 21.2819C217.561 24.0968 217.173 23.2524 216.504 20.8134C211.764 3.54336 206.418 -13.7459 203.911 -31.5023C203.518 -34.2827 203.201 -37.1583 202.471 -39.8819C201.429 -43.7699 203.05 -31.8328 202.855 -27.8124C202.574 -22.0218 201.845 -16.4445 200.733 -10.7658C200.639 -10.2887 200.219 -5.01629 199.366 -4.88626C198.497 -4.75404 195.403 -18.4001 195.331 -18.6724C191.246 -34.192 187.306 -49.8665 184.945 -65.7565C184.409 -69.3594 184.078 -72.9808 183.681 -76.5992C183.221 -80.7953 183.742 -68.1566 183.698 -63.9357C183.32 -27.6835 182.593 8.79288 180.204 44.9737C180.135 46.0045 180.503 52.787 178.668 48.6063C173.9 37.7429 171.118 25.8468 167.999 14.452C161.862 -7.96895 155.937 -30.449 149.92 -52.9026C149.87 -53.0881 149.571 -54.985 149.541 -53.8542C149.343 -46.2908 148.623 -38.7196 148.123 -31.1734C147.26 -18.1319 146.269 -5.12751 144.926 7.87326C144.523 11.775 144.281 15.7021 143.825 19.5976C143.69 20.7487 143.393 23.8441 142.726 22.8964C141.64 21.3524 141.455 19.3375 140.945 17.5197C138.725 9.61465 136.823 1.63928 135.36 -6.4439C132.327 -23.2075 130.511 -40.1854 127.76 -57.0003C125.408 -71.3846 128.566 -52.2206 126.859 -63.1392C126.643 -64.5173 126.516 -60.3676 126.457 -58.9741C125.747 -42.2956 124.044 -25.6756 122.645 -9.04579C122.138 -3.01783 122.27 3.60124 120.736 9.49215C120.191 11.5872 117.551 1.0706 117.484 0.823713C115.476 -6.67039 113.437 -14.1569 111.46 -21.6593C110.733 -24.418 109.972 -32.7694 109.419 -29.9707C107.321 -19.3534 106.812 -8.44925 104.589 2.17276C104.171 4.17412 103.835 5.50054 102.663 2.8438C99.2454 -4.90235 97.0182 -13.1363 94.8328 -21.2925C93.6909 -25.5541 92.9526 -30.3053 91.3173 -34.4124C91.1515 -34.8289 90.9587 -33.5748 90.918 -33.1285C90.3638 -27.0492 89.9829 -20.9395 89.5273 -14.8532C86.9289 19.8525 87.5563 55.0045 83.5335 89.5842C82.8912 95.1047 82.2935 92.1233 81.2772 88.3304C77.9203 75.8024 74.7998 63.2243 71.731 50.623C65.7047 25.8775 60.063 0.63942 52.3529 -23.6622C51.6426 -25.901 49.5904 -19.7495 48.9588 -17.4873C45.5923 -5.42974 43.427 6.97068 41.217 19.2772C39.9128 26.5396 38.3706 33.7583 37.0687 41.017C36.1011 46.4122 34.1073 35.0577 34.0162 34.711C30.1996 20.1769 26.9112 5.46122 24.7033 -9.40841C23.6089 -16.779 22.9457 -24.2069 21.7109 -31.5578C21.6313 -32.0315 21.492 -33.4548 21.4548 -32.9759C21.2661 -30.5467 21.3009 -28.1038 21.0916 -25.6618C19.7824 -10.3865 17.8259 4.85814 15.197 19.9617C14.2901 25.172 13.8202 31.5286 11.7671 36.5222C10.8989 38.6341 9.9578 32.3089 9.39478 30.096C6.56844 18.9874 4.34053 7.82644 3.00828 -3.56428C2.26271 -9.93892 2.36311 -16.8379 0.691574 -23.0762C0.318593 -24.4682 -0.85775 -19.4983 -0.907365 -19.3336C-2.07229 -15.4653 -2.70814 -11.095 -4.7515 -7.55582C-5.05429 -7.03136 -6.30013 -11.7171 -6.56535 -12.7069" stroke="white" stroke-linecap="round"/>
<path d="M85.0391 13.8256C90.4426 11.7169 95.8222 11.5128 101.691 11.5128C105.36 11.5128 97.741 10.2682 96.86 10.1508C94.2382 9.80121 91.3801 10.1251 88.7395 10.1251" stroke="#815298" stroke-width="6" stroke-linecap="round"/>
<path d="M83.1885 24.0019C83.1885 26.1929 83.1531 28.3893 83.1885 30.5805C83.2056 31.6413 82.9398 36.6621 83.8823 37.4161C84.9978 38.3085 85.4561 40.6088 86.632 41.7847C87.9509 43.1036 89.2609 44.4137 90.5894 45.7421C90.9002 46.0529 95.8416 50.3879 96.1144 49.1599C96.3941 47.9014 95.2471 46.2689 94.7268 45.2282C93.7851 43.3449 93.1132 41.1363 91.9771 39.3691C90.9209 37.7262 89.2673 36.4101 88.071 34.872C87.2572 33.8256 87.3515 33.0077 87.3515 31.6598C87.3515 30.0983 88.9978 30.4777 90.1269 30.4777C91.4838 30.4777 92.8575 30.4061 93.9301 31.3C94.7685 31.9987 92.4173 29.7032 91.5145 29.09C90.4189 28.3458 89.0923 27.8441 88.071 27.0085C86.4532 25.6848 84.5451 24.4626 82.546 23.7963C81.8803 23.5744 83.0537 25.6446 83.1628 25.8264C83.8434 26.9608 84.0066 28.3464 84.5762 29.5526C85.1591 30.787 84.7877 31.7767 85.0644 33.0218C85.3195 34.1696 85.9638 35.2789 85.9638 36.491" stroke="#815298" stroke-width="6" stroke-linecap="round"/>
<path d="M107.242 27.2398C108.303 28.4886 112.578 30.5799 110.942 30.4777C109.658 30.3975 109.554 29.1457 109.554 28.1649" stroke="#815298" stroke-width="6" stroke-linecap="round"/>
<path d="M146.097 69.7952C146.511 67.9531 146.686 66.6206 148.409 67.4824" stroke="#815298" stroke-width="6" stroke-linecap="round"/>
<path d="M169.688 53.1431C173.488 53.0655 176.306 51.453 179.401 49.9052" stroke="#815298" stroke-width="6" stroke-linecap="round"/>
<path d="M169.688 68.4075C176.404 68.4075 183.234 69.6006 190.04 68.8444C193.046 68.5104 195.59 67.3664 198.366 66.1975C200.695 65.2169 203.371 65.0434 205.767 64.2445" stroke="#815298" stroke-width="6" stroke-linecap="round"/>
<path d="M202.529 53.1431C202.151 55.3561 204.239 61.8595 204.379 59.6189C204.532 57.171 204.379 54.6715 204.379 52.218" stroke="#815298" stroke-width="6" stroke-linecap="round"/>
<path d="M74.8628 38.8038C75.5086 42.0329 78.0198 45.525 80.8761 47.3611C82.9536 48.6966 83.4066 51.0773 84.8335 52.9118C86.0675 54.4984 87.8135 57.4173 88.2513 59.3876C88.6693 61.2687 90.3585 62.8105 91.2836 64.4758C93.5646 68.5815 97.6408 71.6138 99.7382 75.8085C100.371 77.0747 101.298 79.6721 102.616 80.3313C105.242 81.6439 98.3783 76.121 97.0656 73.4957" stroke="#815298" stroke-width="6" stroke-linecap="round"/>
<path d="M108.629 33.7156C111.553 35.5255 114.118 37.8483 117.058 39.6261C118.053 40.2277 120.66 41.1251 121.118 42.0417" stroke="#815298" stroke-width="6" stroke-linecap="round"/>
<path d="M26.4626 3C26.4626 11.84 27.509 20.0324 30.163 28.4921C31.2006 31.7994 32.1067 35.2413 33.1697 38.6428C34.6473 43.3712 34.7886 47.5389 34.7886 52.4938C34.7886 60.9195 31.5161 68.4909 29.0066 76.5212C26.602 84.216 26 91.6517 26 99.6749" stroke="#815298" stroke-width="6" stroke-linecap="round"/>
<path d="M23.9956 100.133C23.9956 96.6022 23.7202 92.8654 23.7202 89.4846C23.7202 87.8119 23.7202 86.1391 23.7202 84.4664C23.7202 83.7247 23.4764 82.4062 23.7814 81.6818C24.1222 80.8725 24.911 80.5549 25.3114 79.7541C27.7984 74.7799 28.867 69.234 30.8804 64.0567C32.2658 60.4942 34.1851 55.8605 34.1851 52.0006C34.1851 48.6607 33.1599 45.5591 32.1197 42.4384C31.5039 40.5911 31.3966 38.8078 31.0181 36.9152C30.107 32.3598 28.6534 28.2035 27.3003 23.7881C26.5604 21.3738 25.5301 19.3507 25.2349 16.8115C24.8965 13.9012 25.2621 10.9197 24.6841 8.02955C24.2684 5.95098 24.271 3.87584 24.271 1.75671C24.271 0.47869 24.8218 -3.31561 24.8218 -2.03759" stroke="black" stroke-width="2" stroke-linecap="round"/>
<path d="M27.3003 -2.58838C27.3003 5.84205 25.6431 14.9179 29.9165 22.6101C30.4809 23.6259 30.6095 24.6366 30.9416 25.7159C31.2136 26.5998 31.9099 27.3801 31.982 28.3168C32.1525 30.5339 33.447 33.0096 34.0474 35.171C34.7046 37.537 34.7294 39.8694 35.2255 42.2395C35.76 44.7931 36.6637 47.5433 36.6637 50.1493C36.6637 51.9853 36.6637 53.8213 36.6637 55.6572C36.6637 57.9067 37.0457 60.5812 36.0517 62.6797C35.0467 64.8014 33.8888 66.9216 33.0835 69.1362C32.6271 70.3913 31.1444 71.4117 30.6662 72.6551C30.2532 73.7288 29.5548 74.5982 29.1669 75.6844C28.4906 77.5778 27.3003 80.1505 27.3003 82.0949C27.3003 82.9611 26.4741 83.6003 26.4741 84.497C26.4741 85.7413 26.4741 86.9857 26.4741 88.2301C26.4741 92.9379 28.1265 97.3453 28.1265 102.061" stroke="black" stroke-width="2" stroke-linecap="round"/>
<path d="M22.3433 90.4944C20.7574 90.4944 19.0802 90.2619 17.6005 90.831C16.2737 91.3413 14.9292 91.9859 13.6838 92.6975C13.2576 92.9411 12.5314 94.7848 12.4139 95.3138C12.3121 95.7721 12.0701 96.2595 11.8784 96.6907C11.4687 97.6126 11.8867 96.9762 12.4904 96.7672C14.3567 96.1212 16.1964 95.1682 17.7994 93.9215C19.3445 92.7198 20.8756 91.596 22.8941 91.596" stroke="black" stroke-width="1.5" stroke-linecap="round"/>
<path d="M27.0249 90.7698C28.1356 90.7698 31.011 90.227 32.1044 90.9228C32.7711 91.3471 33.4675 91.7267 34.1851 92.0856C36.2939 93.14 37.4978 94.038 37.9794 96.3389C38.0294 96.5775 38.435 97.617 38.1936 97.8076C37.5307 98.331 35.1472 96.4655 34.6135 96.1553C32.9948 95.2142 31.5971 94.5158 30.2684 93.1871C29.449 92.3677 29.13 91.8714 27.9888 91.8714C27.4845 91.8714 26.7032 92.0542 26.4741 91.596" stroke="black" stroke-width="1.5" stroke-linecap="round"/>
<path d="M22.8945 82.2326C20.4948 82.2326 18.2953 81.6818 15.8872 81.6818C15.0548 81.6818 14.3573 82.1648 14.3573 83.0588C14.3573 83.8225 13.0217 84.5004 12.3377 84.6958C10.5328 85.2115 16.1194 84.5666 17.9374 84.0992C19.7841 83.6243 21.8446 83.0588 23.7206 83.0588" stroke="black" stroke-width="1.5" stroke-linecap="round"/>
<path d="M29.7788 80.8557C35.4166 80.8557 41.103 81.131 46.7002 81.131C48.319 81.131 49.2093 81.9428 50.1579 83.0588C51.2077 84.2939 50.1811 85.9313 48.7656 86.0728C46.7574 86.2736 45.056 85.6861 43.1201 85.5526C40.6959 85.3854 38.384 84.8104 36.0517 84.1604C34.3753 83.6932 32.2264 83.3201 30.758 82.3856C29.9994 81.9029 28.4685 82.2326 27.5757 82.2326" stroke="black" stroke-width="1.5" stroke-linecap="round"/>
<path d="M25.0972 77.0001C21.8224 77.0001 18.6681 76.8494 15.5196 75.8374C14.6265 75.5503 13.6447 75.0724 12.7045 75.0724C12.1863 75.0724 10.6618 74.8714 11.7559 74.2462C12.8108 73.6434 13.3653 73.6954 14.7853 73.6954C15.8674 73.6954 16.9799 73.6244 18.0594 73.7107C18.8766 73.7761 19.4015 74.3331 20.1554 74.5216C21.1884 74.7799 22.2377 75.3478 23.3071 75.3478C24.0499 75.3478 25.5793 75.4856 26.1988 75.8986" stroke="black" stroke-width="1.5" stroke-linecap="round"/>
<path d="M30.605 74.2462C34.0543 74.2462 37.7056 74.4431 41.0699 73.6954C42.5425 73.3682 43.9653 73.1447 45.4762 73.1447C46.0376 73.1447 47.4155 73.6533 46.6543 74.4145C43.5488 77.52 37.9136 76.914 33.9709 78.0405C32.5537 78.4455 27.3398 78.7316 26.4741 77.0002" stroke="black" stroke-width="1.5" stroke-linecap="round"/>
<path d="M25.9238 72.5939C22.2431 72.5203 19.1199 69.6934 16.438 67.4991C15.3208 66.585 11.633 61.843 13.7453 61.0886C17.0682 59.9018 19.6897 62.7966 21.6705 65.1736C23.0197 66.7926 24.4315 68.6315 26.0768 69.9776C26.7159 70.5005 28.4023 70.8732 28.4023 71.7677" stroke="black" stroke-width="1.5" stroke-linecap="round"/>
<path d="M34.1856 69.0138C35.5652 69.0138 36.7597 69.1995 37.9034 68.31C39.2239 67.2829 40.7665 66.62 42.1719 65.7091C43.8116 64.6463 45.8959 63.8865 47.4044 62.6797C47.9106 62.2748 51.1889 61.9709 51.4741 62.7409C52.4413 65.3524 51.4034 66.3125 49.1945 67.6215C45.9923 69.5191 42.4642 68.6783 39.0202 69.3045C37.0856 69.6562 35.0918 69.8399 33.084 69.8399" stroke="black" stroke-width="1.5" stroke-linecap="round"/>
<path d="M37.4902 57.998C40.3049 57.998 43.4016 57.9162 46.0121 56.7741C46.4792 56.5697 47.6754 56.2823 47.9552 55.9326C48.8224 54.8485 46.3734 58.2523 45.3236 59.1608C43.3869 60.8369 41.2969 61.5072 39.0202 62.542C37.9497 63.0286 37.9867 60.8955 36.9395 60.4766" stroke="black" stroke-width="1.5" stroke-linecap="round"/>
<path d="M31.7067 59.0996C29.3325 59.0996 27.1994 59.2043 24.9443 58.3958C23.7507 57.968 22.7719 57.2879 21.6549 56.7588C21.5036 56.6871 20.6275 55.9808 20.4768 56.1315C20.1125 56.4958 20.4156 58.2756 20.4156 58.763C20.4156 59.6883 21.0422 60.5602 21.7926 61.1498C24.1756 63.0222 26.9551 64.3738 29.8402 65.3725C30.8144 65.7097 31.1559 66.3446 31.1559 65.0359C31.1559 63.5161 31.1559 61.9963 31.1559 60.4766" stroke="black" stroke-width="1.5" stroke-linecap="round"/>
<path d="M33.3593 55.2441C30.8638 55.2441 28.6567 55.6026 26.4745 54.4179C24.9054 53.5662 22.9268 52.7602 21.5174 51.664C20.4871 50.8627 19.4673 50.5609 18.4881 49.7363C18.0444 49.3626 15.0977 48.2767 15.4894 47.3954C15.8771 46.5231 19.4146 46.1837 20.2628 46.5693C21.9922 47.3553 23.5532 49.2213 25.0975 50.3483C26.5124 51.3807 27.9577 52.1456 29.5038 52.9186C30.617 53.4752 31.4865 54.4179 32.8085 54.4179" stroke="black" stroke-width="1.5" stroke-linecap="round"/>
<path d="M36.1133 53.3164C39.6735 53.3164 42.7585 52.5868 45.752 50.4247C47.3168 49.2947 48.1716 48.6347 50.1583 48.6347C51.3576 48.6347 49.6453 50.1398 49.2709 50.5012C48.1721 51.5622 46.1581 52.4902 44.6352 52.4902C42.1238 52.4902 39.6855 52.7656 37.2149 52.7656" stroke="black" stroke-width="1.5" stroke-linecap="round"/>
<path d="M32.5328 50.8378C30.8127 49.5347 29.0792 48.3101 27.178 47.273C26.4593 46.881 25.7879 46.4981 25.1125 46.0338C24.3153 45.4857 23.8764 44.522 23.1083 43.953C22.1183 43.2197 21.2772 41.7789 20.2625 41.1991C19.177 40.5788 18.2124 40.1805 18.2124 38.7818C18.2124 36.8434 21.6287 38.0431 22.3433 38.996C24.2148 41.4913 26.1592 43.7384 27.8512 46.3704C28.8036 47.852 29.4644 48.0839 31.1559 48.0839C32.2555 48.0839 33.5355 48.4863 34.1852 49.4609" stroke="black" stroke-width="1.5" stroke-linecap="round"/>
<path d="M35.5625 44.7792C37.8778 44.7792 40.1932 44.7792 42.5085 44.7792C43.324 44.7792 44.2562 44.6369 44.9871 45.0546C45.3605 45.268 46.1433 45.5825 46.5782 45.6054C47.8663 45.6732 49.3011 45.8376 50.3725 45.0546C50.858 44.6998 52.8718 40.787 52.9123 42.8514C52.9827 46.4428 50.9709 46.9823 47.741 46.9823C46.2822 46.9823 44.6311 46.2893 43.2735 47.0435C41.7366 47.8974 40.8827 48.2942 38.9284 48.3593C37.7176 48.3997 36.4986 48.3593 35.2871 48.3593" stroke="black" stroke-width="1.5" stroke-linecap="round"/>
<path d="M34.7363 41.1991C35.7147 40.191 36.3093 39.008 37.2149 37.9556C38.5441 36.4107 40.9487 35.2599 42.7227 34.299C44.7155 33.2195 46.4012 32.2565 48.506 31.4379C49.3639 31.1043 52.8944 29.4617 53.6772 30.2446C54.573 31.1404 53.3765 33.6136 52.6369 34.3143C51.122 35.7494 49.6344 36.0634 47.6951 36.2573C45.8182 36.445 45.1776 36.7772 44.3751 38.5829C43.8968 39.659 41.8955 40.8754 40.8562 41.2603C39.5429 41.7467 38.4118 42.3007 36.9395 42.3007" stroke="black" stroke-width="1.5" stroke-linecap="round"/>
<path d="M29.7791 35.9666C26.9724 35.9666 24.9405 35.8182 22.4812 34.452C21.3346 33.815 20.2616 33.2755 19.1765 32.5242C18.1199 31.7927 16.8114 31.5639 18.0749 30.5812C18.3825 30.3419 19.0099 30.2217 19.0388 29.8468C19.0845 29.2526 19.1633 27.7027 19.5896 27.2765C20.4192 26.4468 23.1502 27.4674 23.9347 27.9802C25.1678 28.7865 26.4263 29.3451 27.6372 30.1834C28.2279 30.5924 29.766 31.5341 30.0545 32.1111" stroke="black" stroke-width="1.5" stroke-linecap="round"/>
<path d="M33.9102 34.5897C36.6063 34.5897 38.906 33.398 40.948 31.6827C43.0237 29.9392 46.7317 29.5586 48.0929 27.1387C48.9085 25.6887 49.213 24.2697 49.8217 22.7478C50.0718 22.1227 50.4313 21.5828 50.7091 20.9577C50.7618 20.8392 51.5345 20.1155 51.4129 19.9938C50.1813 18.7622 45.1256 23.4942 44.5281 24.2624C43.3347 25.7968 42.0409 27.2851 40.642 28.684C39.8674 29.4586 38.0561 31.1609 36.9395 31.2849C35.6255 31.4309 34.6541 32.9373 33.3594 32.9373" stroke="black" stroke-width="1.5" stroke-linecap="round"/>
<path d="M31.4312 26.6033C32.9599 21.5923 37.7191 17.2655 42.86 16.123C44.0995 15.8476 46.3731 12.0774 44.65 11.1201C43.6374 10.5575 42.3828 11.3072 41.6207 12.0075C39.8708 13.6154 37.8023 14.9901 35.9752 16.5361C34.7779 17.5492 33.025 17.5507 31.8902 18.4792C30.9888 19.2167 29.9528 19.8779 28.9526 20.5446" stroke="black" stroke-width="1.5" stroke-linecap="round"/>
<path d="M25.0973 21.6462C21.2559 21.6462 16.7161 22.2602 13.3166 19.9938C12.3215 19.3304 11.8544 18.2874 11.3888 17.2399C10.8133 15.9451 13.1457 16.4137 13.8061 16.4137C16.5408 16.4137 18.5513 18.6854 21.1194 19.1524C22.6062 19.4227 24.2301 20.2692 25.648 20.2692" stroke="black" stroke-width="1.5" stroke-linecap="round"/>
<path d="M23.1695 16.4137C19.175 13.3876 14.0815 9.74577 14.0815 4.29644C14.0815 3.04332 14.1077 1.44592 15.2443 3.25607C16.2262 4.81983 17.3704 6.29838 18.3348 7.87655C19.9561 10.5295 22.105 12.3199 24.2711 14.486" stroke="black" stroke-width="1.5" stroke-linecap="round"/>
<path d="M27.3003 14.486C27.3003 10.3456 27.6835 5.68162 29.84 2.0321C30.628 0.69868 33.6343 -3.73471 33.6343 0.303249C33.6343 2.17148 33.4503 3.58883 32.2574 5.12262C31.4747 6.12886 30.6443 8.25496 30.3296 9.51361C29.8143 11.5748 28.9526 13.4325 28.9526 15.5876" stroke="black" stroke-width="1.5" stroke-linecap="round"/>
<path d="M61 19.6209C64.101 19.0158 66.715 17.3512 68.7053 14.9185C70.7466 12.4237 73.7297 10.1889 76.4107 8.46544C77.996 7.44629 79.9701 7.23808 81.7009 6.45925C83.1952 5.78679 84.7388 5.11039 86.2883 4.56806C89.814 3.33405 93.5163 3.0358 97.0988 2.14018C98.8683 1.69778 100.613 1.12048 102.351 0.581221C104.02 0.0630252 105.824 0.119311 107.462 -0.517715C110.286 -1.61614 113.506 -2 116.547 -2C117.921 -2 118.706 -1.65173 119.883 -1.02885C120.399 -0.755195 120.603 -0.233408 121.033 0.0189746C121.965 0.567684 121.058 0.65516 120.343 1.09235C118.786 2.04358 117.603 2.51592 116.483 3.98025C115.301 5.52662 113.85 6.74068 112.637 8.22266C110.778 10.4946 108.395 12.3412 107.513 15.2507C107.103 16.6039 106.553 17.807 105.852 19.0331C105.502 19.6458 104.256 21.0792 104.344 21.8699C104.354 21.9591 108.502 21.461 108.957 21.461C110.316 21.461 111.675 21.461 113.033 21.461C114.438 21.461 115.867 21.3993 117.237 21.7038C117.885 21.8477 118.432 22.2504 119.077 22.3938C119.771 22.548 119.869 23.1677 120.394 23.5311C120.901 23.8822 121.341 24.2409 121.774 24.63C122.272 25.0788 121.959 24.8169 121.378 25.2689C120.401 26.0285 119.113 26.7602 118.042 27.3901C116.008 28.5868 115 31.3485 116.151 33.4215C116.859 34.6959 117.72 35.8666 118.847 36.7439C119.797 37.4826 120.919 38.4983 121.314 39.6829C121.409 39.9675 122.744 43.2864 122.502 43.2864C121.367 43.2864 119.368 41.9116 118.413 41.3696C117.502 40.8525 116.302 40.5639 115.512 39.8618C114.542 38.9995 113.237 38.0822 112.113 37.3828C110.667 36.4829 108.665 35.6091 107.59 34.2265C106.771 33.1733 105.199 32.5265 104.063 31.8114C103.623 31.5347 102.903 30.954 102.402 30.8914C102.031 30.8451 104.11 36.2033 104.459 37.0761C105.589 39.9014 105.678 42.0054 104.523 44.8709C104.072 45.9901 103.677 47.2626 103.322 48.4233C102.935 49.6858 102.004 50.9079 101.725 52.1673C100.652 56.9957 105.517 59.6722 108.024 62.8628C108.537 63.5151 109.049 64.1667 109.468 64.8817C110.128 66.0076 111.053 66.9509 111.807 68.0124C111.913 68.1619 112.924 69.3042 112.88 69.4819C112.706 70.1786 109.941 67.7396 109.762 67.5141C108.947 66.4896 107.976 65.8552 106.874 65.1501C105.861 64.5015 105.031 63.7277 104.114 62.9778C103.694 62.6344 103.308 62.0262 102.862 61.7638C101.205 60.7895 99.454 59.7378 97.8527 58.6459C96.0065 57.3872 94.5507 55.5176 92.7413 54.1735C90.8174 52.7443 89.3452 51.099 87.5534 49.5222C85.6449 47.8428 83.3553 46.4702 81.982 44.2831C81.796 43.9869 80.2422 41.7848 81.062 43.0052C83.2558 46.2717 84.8171 49.9681 87.1061 53.1896C88.8594 55.6572 90.1946 58.4711 91.6935 61.1121C92.7088 62.901 93.7943 64.5861 94.5814 66.4918C95.89 69.6599 98.3054 72.3084 100.447 74.9255C101.93 76.738 104.405 77.4141 105.903 78.9123C106.793 79.8018 104.711 79.8761 104.191 79.9346C102.708 80.1014 100.368 80.5925 99.0794 79.5385C98.1038 78.7402 97.3396 77.4143 96.6515 76.3822C94.436 73.059 93.7584 68.815 91.5913 65.444C90.142 63.1895 88.3691 61.1669 87.0039 58.8631C85.9314 57.0533 85.0472 55.1694 83.9499 53.3812C82.4575 50.9493 80.6287 48.6079 78.8258 46.4043C77.1162 44.3148 76.2357 41.8389 74.1106 40.0407C72.2814 38.4929 70.8981 36.5105 69.3954 34.6738C67.9448 32.9008 67.5739 30.4538 66.5202 28.4635C65.5044 26.5447 64.6068 24.5481 63.4279 22.726C63.1138 22.2407 62.5468 21.4121 62.3928 20.8732C62.2298 20.3026 62.2388 19.2053 61.69 18.9309" stroke="black" stroke-width="3" stroke-linecap="round"/>
<path d="M72.2709 16.4008C72.2107 16.4465 69.8713 18.2409 71.0059 18.2409C71.6245 18.2409 72.1571 18.4709 72.846 18.4709C73.7268 18.4709 74.1801 16.1708 72.501 16.1708" stroke="black" stroke-width="1.5" stroke-linecap="round"/>
<path d="M86.7612 9.96051C88.8039 9.96051 90.6643 9.73908 92.6392 9.21936C94.9832 8.60252 97.4139 8.37004 99.7567 7.76263C101.912 7.20394 104.162 7.04021 106.312 6.45925C106.677 6.36051 108.612 5.25085 108.612 5.70533C108.612 6.357 107.467 7.72746 107.104 8.22265C106.39 9.1969 105.724 10.4555 104.932 11.3406C104.415 11.9183 104.042 12.8124 103.437 13.2829C102.691 13.8626 101.67 13.6407 100.741 13.6407C97.7177 13.6407 94.727 13.6505 91.7192 13.8579C88.3974 14.087 85.2757 15.2976 82.276 16.6308C81.9108 16.7931 80.5568 17.511 81.3815 16.503C81.8675 15.909 82.5351 15.2079 82.851 14.5096C83.0687 14.0285 83.696 13.631 83.7711 13.1806C83.8573 12.6631 85.0373 11.7271 85.3683 11.2511C85.7569 10.6926 86.2616 10.1788 86.774 9.7305C87.5365 9.06329 88.5003 8.87775 89.2913 8.35044" stroke="black" stroke-width="1.5" stroke-linecap="round"/>
<path d="M82.6215 23.7611C82.6215 25.4824 82.8296 27.332 82.3915 28.9747C81.9731 30.544 81.6918 32.3555 81.9443 33.9965C82.1277 35.1886 83.7456 36.5923 84.3338 37.6511C84.908 38.6846 85.7656 39.7565 86.5828 40.6029C88.4922 42.5805 90.1025 44.8126 92.0519 46.7621C92.7881 47.4982 93.534 48.2527 94.4032 48.8322C95.0838 49.2859 96.1678 49.5234 96.7416 50.0972C96.8462 50.2018 97.7264 51.1059 97.8022 51.03C98.2511 50.5812 97.8022 47.4223 97.8022 46.8515C97.8022 43.6608 97.3459 41.9954 94.8121 40.0407C92.6271 38.3551 91.1019 36.408 89.5218 34.1627C89.3858 33.9694 88.2951 32.9025 88.6529 33.0126C89.7212 33.3413 90.6611 33.9659 91.6942 34.3415C92.8729 34.7702 93.8934 34.8016 95.1571 34.8016C96.8362 34.8016 96.7151 34.0768 97.0611 32.7315C97.5132 30.973 97.4654 29.0273 97.5722 27.2112C97.6056 26.6431 97.7537 26.7512 96.8822 26.7512C95.7726 26.7512 94.6317 26.642 93.547 26.4062C92.6908 26.2201 91.6012 26.293 90.8508 25.8312C90.191 25.4252 89.5828 24.9918 88.934 24.5789C87.7753 23.8415 86.4712 23.313 85.3306 22.6111C84.5006 22.1003 83.3116 21.1492 83.3116 22.8411" stroke="black" stroke-width="1.5" stroke-linecap="round"/>
<path d="M105.392 27.2112C107.039 27.2112 109.155 27.3791 110.682 26.7001C111.238 26.453 111.725 26.1159 112.292 25.8823C112.626 25.7452 112.591 27.6851 112.407 28.0163C111.996 28.7568 112.581 31.4737 111.347 30.9936C110.037 30.4844 109.021 29.574 107.794 28.9363C106.817 28.4282 105.709 27.7577 104.932 26.9812" stroke="black" stroke-width="1.5" stroke-linecap="round"/>
<path d="M71.3506 27.9013C71.5995 29.063 72.1201 30.3723 72.7306 31.4025C73.1786 32.1585 73.4904 33.6086 74.2257 34.0988C74.6485 34.3806 74.8446 34.973 75.1585 35.3766C75.6095 35.9565 76.5497 36.2294 76.8708 36.8717" stroke="black" stroke-width="1.5" stroke-linecap="round"/>
<path d="M210.964 50.9753C211.391 50.879 212.091 50.5877 212.47 50.9781C212.593 51.1054 212.918 51.4301 212.726 51.6059C212.301 51.9948 211.854 52.2926 211.433 52.6695C210.397 53.5946 210.414 51.2711 211.001 51.1384" stroke="black" stroke-width="1.5" stroke-linecap="round"/>
<path d="M203.929 51.7076C204.543 54.426 205.157 57.1444 205.772 59.8627C205.815 60.0539 206.059 60.5984 205.782 60.2889C205.517 59.9927 205.118 59.8694 204.782 59.6577C204.139 59.2517 203.505 58.8765 202.883 58.4583C201.321 57.4087 200.97 54.5447 200.594 52.8801C200.474 52.3493 200.809 50.7939 201.534 50.9724C202.403 51.1863 202.928 51.8202 203.803 51.9075" stroke="black" stroke-width="1.5" stroke-linecap="round"/>
<path d="M188.391 48.1895C184.941 48.969 181.385 48.4011 177.903 49.1878C176.198 49.5731 174.836 49.6296 173.237 50.5847C171.33 51.7243 168.496 52.3463 167.022 54.1414C166.439 54.8513 167.988 54.5253 168.3 54.5289C169.793 54.5461 171.445 53.904 172.894 53.5765C174.507 53.2122 175.867 52.2785 177.432 51.8657C178.36 51.6207 179.603 51.1849 180.42 50.6762C181.555 49.9694 183.029 49.7136 184.232 49.0435C185.196 48.5068 186.276 48.3245 187.339 48.0844C187.708 48.0009 188.16 47.8041 188.518 47.9895C188.769 48.1196 188.967 48.2308 189.244 48.1683" stroke="black" stroke-width="1.5" stroke-linecap="round"/>
<path d="M196.616 50.4456C192.557 51.3627 188.629 52.593 184.584 53.507C183.061 53.851 181.612 54.3498 180.09 54.6937C178.964 54.9481 177.866 55.1803 176.792 55.6102C175.185 56.2537 173.55 56.9174 171.881 57.3959C171.136 57.6098 170.242 57.7765 169.576 58.1931C168.909 58.6099 168.218 58.6569 167.518 58.9913C166.197 59.6226 164.914 60.3602 163.596 60.9821C163.047 61.241 161.7 61.505 161.544 62.1411" stroke="black" stroke-width="1.5" stroke-linecap="round"/>
<path d="M195.317 57.5963C192.807 57.3305 190.622 55.9142 188.04 56.4975" stroke="black" stroke-width="1.5" stroke-linecap="round"/>
<path d="M173.788 67.7747C172.187 68.0956 170.939 67.1993 169.57 66.4323C169.04 66.1353 168.226 65.8661 167.668 65.7287" stroke="black" stroke-width="1.5" stroke-linecap="round"/>
<path d="M195.223 67.046C195.189 68.1744 195.012 70.1174 194.04 70.9134" stroke="black" stroke-width="1.5" stroke-linecap="round"/>
<path d="M155.75 60.0214C156.055 61.3692 156.494 62.1372 157.466 63.0624" stroke="black" stroke-width="1.5" stroke-linecap="round"/>
<path d="M151.242 62.0687C151.424 62.8762 151.567 63.7172 151.794 64.5152C151.966 65.119 153.01 65.7022 153.505 66.0145" stroke="black" stroke-width="1.5" stroke-linecap="round"/>
<path d="M159.496 57.6322C159.98 58.2132 160.485 58.8784 161.052 59.3759C161.285 59.5796 161.741 59.785 161.917 59.9996" stroke="black" stroke-width="1.5" stroke-linecap="round"/>
<path d="M149.621 65.5205C149.268 65.5208 148.743 65.2175 148.532 65.2523C148.161 65.3134 147.793 65.4194 147.427 65.5021C146.892 65.6229 145.892 65.6528 145.441 65.9887C145.05 66.2807 145.054 66.5473 144.773 66.8254C144.254 67.3403 145.071 68.2577 145.342 68.754C145.597 69.2206 145.927 69.4135 146.182 69.8594C146.49 70.3962 146.503 70.6801 146.881 70.0826C147.301 69.4159 148.077 68.8212 148.306 68.0462C148.502 67.3852 148.874 66.7037 149.242 66.1204" stroke="black" stroke-width="1.5" stroke-linecap="round"/>
<path d="M145.612 65.2263C144.754 63.9683 142.383 61.8416 140.65 62.2331" stroke="black" stroke-width="1.5" stroke-linecap="round"/>
<path d="M218.304 49.317C216.244 49.3243 214.231 48.6803 212.214 48.3309C210.142 47.9721 207.916 47.9888 205.83 47.8114C203.904 47.6476 201.976 47.3697 200.051 47.2696C199.202 47.2255 198.362 47.2587 197.518 47.2322C197.07 47.2181 196.401 47.3704 195.979 47.2467C195.25 47.0333 195.018 47.0239 194.423 46.4743C193.716 45.8202 192.898 45.2358 192.17 44.593C190.781 43.3677 189.683 41.8255 188.444 40.4538C188.039 40.0052 184.428 38.0298 184.543 39.459C184.662 40.9426 183.778 42.1754 182.543 42.9584C181.076 43.8892 179.623 44.6561 178.073 45.3875C176.865 45.9574 175.654 46.2674 174.312 46.5706C173.508 46.7521 172.705 46.9337 171.901 47.1152C170.654 47.3969 169.401 47.3659 168.167 47.6161C165.629 48.1305 163.026 48.0384 160.51 48.8412C159.227 49.2507 157.735 50.0532 156.805 51.0307C156.597 51.2494 155.013 52.2777 155.65 52.1583C156.549 51.99 157.44 51.9255 158.333 51.7236C159.285 51.5086 160.256 51.6321 161.189 51.4213C162.056 51.2253 163.243 51.436 164.129 51.5379C165.136 51.6536 166.091 51.4524 167.028 51.8924C167.08 51.9167 167.576 52.0737 167.486 52.189C167.34 52.3754 166.88 52.5096 166.687 52.6171C165.925 53.0428 165.159 53.4727 164.426 53.947C162.716 55.0534 160.929 55.9746 159.186 57.0166C157.849 57.816 156.63 59.0148 155.179 59.5982C154.054 60.0504 152.891 60.4961 151.709 60.7632C150.515 61.0329 148.729 61.9503 148.416 63.2213" stroke="black" stroke-width="2" stroke-linecap="round"/>
<path d="M148.416 63.2213C146.631 61.5677 144.273 60.5762 142.336 59.0713C140.484 57.6331 138.531 57.0974 136.392 56.2428C135.369 55.8341 134.603 55.885 133.528 56.128C132.718 56.311 131.627 56.2256 132.623 57.0562C134.453 58.5821 136.186 60.0813 138.19 61.3793C140.04 62.5772 140.794 64.5114 141.543 66.5647C142.127 68.1664 142.305 69.9527 142.958 71.5212C143.681 73.258 143.753 74.9297 142.984 76.6962C142.184 78.536 141.559 80.4387 140.146 81.966C139.914 82.2179 138.908 84.0554 139.258 83.9763C141.121 83.5553 142.571 81.3821 143.94 80.1661C144.528 79.6439 145.145 79.1628 145.677 78.583C146.044 78.1843 146.22 77.665 146.626 77.302C146.99 76.9765 147.012 76.4433 147.301 76.0734C147.615 75.6706 147.985 75.2774 148.268 74.8739C148.779 74.1435 149.196 73.2146 149.546 72.3947C150.003 71.3234 150.172 70.1852 150.795 69.1982C151.287 68.4195 152.633 67.7232 153.475 67.4022C155.035 66.8075 156.77 66.9177 158.395 66.7953C159.992 66.6751 161.855 66.7318 163.383 67.2493C164.069 67.4812 165.544 68.2759 166.011 68.8461C167.107 70.1858 166.104 71.3171 165.298 72.3501C164.327 73.5938 162.908 74.3812 161.717 75.3876C160.529 76.392 159.252 77.0332 157.927 77.8344C157.705 77.9686 157.071 78.2374 157.637 78.1095C159.196 77.7573 160.754 77.4052 162.313 77.0531C164.008 76.6701 165.836 75.9425 167.347 75.0966C169.265 74.023 171.397 73.4511 173.032 71.9741C173.703 71.3678 174.598 70.8005 175.349 70.2983C176.053 69.8272 176.606 69.1257 177.466 68.8389C179.804 68.0594 181.82 67.7745 184.261 67.8465C185.965 67.8968 187.669 67.6502 189.278 68.0464" stroke="black" stroke-width="2" stroke-linecap="round"/>
<path d="M186.41 67.4943C189.203 66.8633 191.856 68.0755 192.519 71.0094C192.649 71.5844 192.858 72.0836 193.211 72.5576C193.298 72.6732 193.94 73.6296 193.944 73.5637C194.004 72.4827 195.062 71.2905 195.679 70.4098C196.154 69.7308 197.248 69.0725 197.513 68.243C197.972 66.8058 199.091 66.2627 200.406 65.7036C202.578 64.78 204.979 64.4981 207.072 63.3404C208.025 62.8129 209.123 62.3138 210.142 61.9229C210.937 61.6179 211.704 61.0938 212.523 60.9089M220.174 52.6657C220.471 52.2949 218.69 52.8296 218.262 52.9264C217.569 53.083 216.626 53.3538 216.003 52.9606C215.033 52.3485 218.631 49.8625 218.793 49.2064" stroke="black" stroke-width="2" stroke-linecap="round"/>
<path d="M220.443 52.9172C219.841 53.8718 219.059 54.6838 218.367 55.5702C218.095 55.9185 218.016 56.3689 217.742 56.7026C217.474 57.0288 217.064 57.2572 216.742 57.5247C215.762 58.3396 214.813 59.4463 213.696 60.0571C213.115 60.3746 212.456 60.9611 211.812 61.1067" stroke="black" stroke-width="2" stroke-linecap="round"/>
</g>
<defs>
<radialGradient id="paint0_radial" cx="0" cy="0" r="1" gradientUnits="userSpaceOnUse" gradientTransform="translate(68.5 81.5) rotate(-121.152) scale(78.2895 180.066)">
<stop stop-color="#0E6EFF"/>
<stop offset="0.942708" stop-color="#55C4BC"/>
</radialGradient>
<radialGradient id="paint1_radial" cx="0" cy="0" r="1" gradientUnits="userSpaceOnUse" gradientTransform="translate(138 -2) rotate(102.707) scale(104.561 240.49)">
<stop stop-color="#8145FF"/>
<stop offset="1" stop-color="#FBFF26" stop-opacity="0"/>
</radialGradient>
<radialGradient id="paint2_radial" cx="0" cy="0" r="1" gradientUnits="userSpaceOnUse" gradientTransform="translate(148 114) rotate(-125.059) scale(139.27 111.031)">
<stop stop-color="#B713E0"/>
<stop offset="1" stop-color="#1C92FF" stop-opacity="0"/>
</radialGradient>
<radialGradient id="paint3_radial" cx="0" cy="0" r="1" gradientUnits="userSpaceOnUse" gradientTransform="translate(73.5 -12) rotate(119.982) scale(90.05 207.115)">
<stop stop-color="#FFCA41"/>
<stop offset="1" stop-color="#C8E38D" stop-opacity="0"/>
</radialGradient>
</defs>
</svg>
