<svg width="456" height="456" viewBox="0 0 456 456" fill="none" xmlns="http://www.w3.org/2000/svg">
<mask id="mask0" mask-type="alpha" maskUnits="userSpaceOnUse" x="0" y="0" width="456" height="456">
<rect width="456" height="456" rx="228" fill="#C4C4C4"/>
</mask>
<g mask="url(#mask0)">
<rect x="-15" y="-13" width="484" height="480" fill="black"/>
<rect x="-15" y="-13" width="484" height="480" fill="url(#paint0_radial)"/>
<path d="M280.117 139.017C317.523 135.94 386.648 167.327 416.181 228.195C416.181 228.195 356.148 147.827 233.526 176.019C233.526 176.019 242.71 142.093 280.117 139.017Z" fill="#FF9F49" stroke="#FF9F49" stroke-width="33.0746" stroke-linecap="round" stroke-linejoin="round"/>
<path fill-rule="evenodd" clip-rule="evenodd" d="M385.922 182.905C387.479 179.95 386.002 176.306 382.622 174.765C380.241 173.68 377.905 172.606 375.61 171.545C372.24 169.986 368.229 171.109 366.65 174.055C365.072 177 366.525 180.651 369.895 182.21C372.211 183.282 374.574 184.368 376.982 185.466C380.362 187.006 384.364 185.86 385.922 182.905ZM322.677 153.409C324.127 150.407 322.523 146.801 319.096 145.354C300.235 137.394 283.81 132.473 269.385 136.11C265.852 137.001 263.935 140.326 265.104 143.537C266.272 146.748 270.084 148.629 273.617 147.739C282.775 145.43 294.86 148.213 313.846 156.226C317.273 157.672 321.227 156.411 322.677 153.409ZM252.739 154.45C249.525 152.632 245.399 153.423 243.523 156.215C242.193 158.196 240.893 160.32 239.617 162.587C237.975 165.502 239.352 169.174 242.692 170.788C246.032 172.402 250.07 171.347 251.712 168.431C252.863 166.385 254.013 164.512 255.163 162.799C257.039 160.006 255.953 156.269 252.739 154.45Z" fill="#DE650E"/>
<path d="M157.906 150.394C166.539 113.867 217.751 57.8249 284.766 48.5464C284.766 48.5464 189.78 80.8063 178.7 206.139C178.7 206.139 149.273 186.92 157.906 150.394Z" fill="#FF9F49" stroke="#FF9F49" stroke-width="33.0746" stroke-linecap="round" stroke-linejoin="round"/>
<path fill-rule="evenodd" clip-rule="evenodd" d="M232.342 63.3296C230.013 60.9352 226.091 61.214 223.581 63.9523C221.813 65.8812 220.069 67.7717 218.351 69.6256C215.827 72.349 215.656 76.5115 217.969 78.9227C220.283 81.334 224.204 81.0809 226.728 78.3575C228.464 76.4853 230.226 74.5744 232.014 72.6231C234.524 69.8848 234.671 65.724 232.342 63.3296ZM184.746 114.364C182.339 112.058 178.413 112.468 175.978 115.281C162.579 130.759 152.824 144.859 151.825 159.702C151.581 163.338 154.151 166.188 157.566 166.069C160.981 165.95 163.948 162.906 164.192 159.271C164.827 149.847 171.208 139.214 184.696 123.634C187.13 120.821 187.153 116.671 184.746 114.364ZM164.124 181.201C161.402 183.696 160.878 187.864 162.955 190.511C164.428 192.389 166.045 194.281 167.807 196.195C170.073 198.657 173.99 198.482 176.557 195.805C179.125 193.127 179.369 188.96 177.103 186.498C175.513 184.771 174.086 183.099 172.813 181.476C170.737 178.829 166.847 178.706 164.124 181.201Z" fill="#DE650E"/>
<path d="M131.149 269.664C99.0781 250.166 61.6039 184.143 73.4883 117.541C73.4883 117.541 74.8171 217.846 190.591 267.114C190.591 267.114 163.22 289.162 131.149 269.664Z" fill="#FF9F49" stroke="#FF9F49" stroke-width="33.0746" stroke-linecap="round" stroke-linejoin="round"/>
<path fill-rule="evenodd" clip-rule="evenodd" d="M71.348 171.967C68.3512 173.442 67.4042 177.259 69.2329 180.492C70.521 182.769 71.7802 185.012 73.0124 187.219C74.8225 190.461 78.7285 191.91 81.7366 190.455C84.7447 189 85.7158 185.192 83.9057 181.95C82.6613 179.721 81.3885 177.454 80.0854 175.15C78.2568 171.917 74.3449 170.492 71.348 171.967ZM105.177 233.004C102.239 234.581 101.417 238.441 103.339 241.626C113.919 259.152 124.315 272.787 138.123 278.324C141.505 279.68 145.01 278.116 145.952 274.832C146.894 271.547 144.916 267.785 141.534 266.429C132.768 262.913 124.627 253.559 113.977 235.916C112.054 232.732 108.114 231.428 105.177 233.004ZM162.37 273.27C163.901 276.63 167.704 278.416 170.863 277.259C173.104 276.439 175.403 275.485 177.768 274.401C180.81 273.007 181.854 269.227 180.101 265.958C178.347 262.689 174.46 261.169 171.419 262.563C169.284 263.542 167.253 264.382 165.316 265.091C162.157 266.248 160.838 269.91 162.37 273.27Z" fill="#DE650E"/>
<path d="M235.886 332.559C207.432 357.035 133.06 372.273 73.3903 340.389C73.3903 340.389 169.197 370.121 251.83 275.238C251.83 275.238 264.341 308.083 235.886 332.559Z" fill="#FF9F49" stroke="#FF9F49" stroke-width="33.0746" stroke-linecap="round" stroke-linejoin="round"/>
<path fill-rule="evenodd" clip-rule="evenodd" d="M124.491 359.243C124.968 362.549 128.305 364.629 131.945 363.889C134.51 363.368 137.031 362.863 139.511 362.373C143.154 361.653 145.739 358.386 145.285 355.076C144.83 351.765 141.509 349.665 137.866 350.385C135.362 350.879 132.813 351.39 130.219 351.917C126.579 352.657 124.015 355.937 124.491 359.243ZM192.995 345.931C193.587 349.212 197.004 351.188 200.627 350.343C220.564 345.697 236.745 340.023 246.277 328.603C248.612 325.805 248.208 321.988 245.375 320.077C242.543 318.166 238.353 318.885 236.018 321.682C229.966 328.933 218.554 333.785 198.484 338.462C194.861 339.306 192.404 342.65 192.995 345.931ZM248.964 303.981C252.633 303.562 255.506 300.498 255.382 297.136C255.294 294.751 255.098 292.269 254.798 289.685C254.412 286.362 251.14 284.2 247.489 284.858C243.838 285.515 241.191 288.742 241.577 292.066C241.848 294.398 242.02 296.59 242.096 298.651C242.22 302.013 245.295 304.399 248.964 303.981Z" fill="#DE650E"/>
<path d="M327.881 252.081C342.367 286.706 333.876 362.146 285.114 409.043C285.114 409.043 342.997 327.113 278.293 219.204C278.293 219.204 313.396 217.455 327.881 252.081Z" fill="#FF9F49" stroke="#FF9F49" stroke-width="33.0746" stroke-linecap="round" stroke-linejoin="round"/>
<path fill-rule="evenodd" clip-rule="evenodd" d="M318.836 366.269C322.128 366.838 325.137 364.306 325.558 360.616C325.855 358.016 326.154 355.462 326.455 352.952C326.896 349.265 324.588 345.797 321.299 345.206C318.01 344.615 314.986 347.125 314.545 350.812C314.241 353.346 313.939 355.928 313.639 358.558C313.218 362.249 315.545 365.701 318.836 366.269ZM327.345 297.005C330.648 297.456 333.583 294.817 333.899 291.11C335.642 270.713 335.246 253.571 327.33 240.976C325.391 237.891 321.636 237.095 318.943 239.199C316.25 241.303 315.639 245.509 317.578 248.594C322.604 256.591 323.691 268.944 321.938 289.477C321.621 293.183 324.042 296.554 327.345 297.005ZM304.743 230.812C305.479 227.193 303.452 223.513 300.217 222.593C297.921 221.939 295.5 221.359 292.95 220.846C289.67 220.186 286.603 222.63 286.1 226.306C285.597 229.981 287.849 233.495 291.129 234.155C293.43 234.618 295.568 235.132 297.552 235.697C300.787 236.618 304.007 234.431 304.743 230.812Z" fill="#DE650E"/>
</g>
<defs>
<radialGradient id="paint0_radial" cx="0" cy="0" r="1" gradientUnits="userSpaceOnUse" gradientTransform="translate(227 227) rotate(90) scale(240 242)">
<stop stop-color="#DE650E" stop-opacity="0.71"/>
<stop offset="0.536458" stop-color="#DE650E" stop-opacity="0.38"/>
<stop offset="1" stop-opacity="0"/>
</radialGradient>
</defs>
</svg>
