<svg width="456" height="456" viewBox="0 0 456 456" fill="none" xmlns="http://www.w3.org/2000/svg">
<mask id="mask0" mask-type="alpha" maskUnits="userSpaceOnUse" x="0" y="0" width="456" height="456">
<rect width="456" height="456" rx="228" fill="#C4C4C4"/>
</mask>
<g mask="url(#mask0)">
<rect x="-233" y="-119" width="908" height="691" fill="black"/>
<path d="M163.545 234.012C115 199.467 120 161.5 180.5 53.9022" stroke="#FFAC5F" stroke-width="28" stroke-linecap="round"/>
<path fill-rule="evenodd" clip-rule="evenodd" d="M205.095 83.2564C202.119 81.8143 198.516 83.0598 197.048 86.0383C196.014 88.1364 194.99 90.1955 193.978 92.2168C192.491 95.1863 193.691 98.7775 196.657 100.238C199.624 101.698 203.234 100.475 204.72 97.5055C205.742 95.4642 206.777 93.3829 207.824 91.2604C209.292 88.282 208.07 84.6985 205.095 83.2564ZM176.956 138.978C173.936 137.631 170.373 138.989 169 142.012C161.442 158.645 156.864 173.168 160.775 186.074C161.733 189.235 165.085 191.004 168.262 190.025C171.439 189.046 173.238 185.69 172.28 182.528C169.797 174.335 172.33 163.633 179.939 146.89C181.312 143.868 179.977 140.325 176.956 138.978ZM179.384 201.235C177.636 204.06 178.505 207.747 181.326 209.469C183.326 210.691 185.468 211.888 187.753 213.067C190.691 214.583 194.323 213.427 195.865 210.485C197.407 207.544 196.276 203.93 193.337 202.414C191.275 201.351 189.385 200.292 187.656 199.236C184.835 197.514 181.132 198.409 179.384 201.235Z" fill="#E9C1A5"/>
<path d="M213.28 290.057C165.425 325.551 130.861 309.063 47.225 218.275" stroke="#FFAC5F" stroke-width="28" stroke-linecap="round"/>
<path fill-rule="evenodd" clip-rule="evenodd" d="M82.7426 203.955C80.4516 206.339 80.5229 210.151 82.9018 212.467C84.5776 214.1 86.2195 215.71 87.8292 217.297C90.1939 219.628 93.98 219.597 96.2857 217.227C98.5914 214.857 98.5435 211.046 96.1788 208.714C94.5532 207.111 92.8935 205.484 91.1983 203.833C88.8194 201.516 85.0336 201.571 82.7426 203.955ZM127.042 247.935C124.827 250.392 125.018 254.199 127.469 256.439C140.952 268.768 153.35 277.609 166.832 277.877C170.135 277.943 172.853 275.302 172.904 271.978C172.954 268.654 170.318 265.906 167.016 265.84C158.456 265.67 149.061 259.953 135.488 247.544C133.038 245.303 129.257 245.479 127.042 247.935ZM187.002 264.865C189.149 267.4 192.924 267.713 195.433 265.562C197.213 264.037 199.014 262.37 200.841 260.561C203.19 258.235 203.213 254.424 200.892 252.049C198.571 249.673 194.785 249.633 192.435 251.959C190.786 253.591 189.196 255.061 187.657 256.38C185.148 258.53 184.854 262.329 187.002 264.865Z" fill="#E9C1A5"/>
<path d="M281.476 259.887C300.445 316.368 274.084 344.145 161.894 395.633" stroke="#FFAC5F" stroke-width="28" stroke-linecap="round"/>
<path fill-rule="evenodd" clip-rule="evenodd" d="M159.25 357.428C160.81 360.344 164.457 361.454 167.395 359.908C169.465 358.818 171.504 357.754 173.511 356.714C176.459 355.185 177.599 351.575 176.058 348.65C174.516 345.724 170.877 344.592 167.929 346.121C165.902 347.171 163.841 348.247 161.747 349.349C158.808 350.895 157.691 354.513 159.25 357.428ZM214.767 328.888C216.419 331.753 220.099 332.748 222.987 331.11C238.879 322.096 251.118 313.037 255.54 300.298C256.623 297.177 254.951 293.776 251.805 292.701C248.66 291.625 245.231 293.283 244.148 296.404C241.341 304.492 233.002 311.66 217.005 320.734C214.117 322.372 213.115 326.023 214.767 328.888ZM249.397 277.094C252.472 275.836 253.935 272.342 252.666 269.291C251.765 267.127 250.736 264.899 249.581 262.603C248.095 259.65 244.477 258.45 241.5 259.923C238.524 261.396 237.315 264.985 238.801 267.938C239.844 270.011 240.751 271.978 241.53 273.849C242.799 276.9 246.322 278.353 249.397 277.094Z" fill="#E9C1A5"/>
<path d="M274.448 186.132C334.026 185.546 352.298 219.2 366.597 341.81" stroke="#FFAC5F" stroke-width="28" stroke-linecap="round"/>
<path fill-rule="evenodd" clip-rule="evenodd" d="M329.445 332.518C332.7 331.936 334.883 328.811 334.32 325.538C333.924 323.233 333.542 320.965 333.172 318.735C332.63 315.458 329.548 313.258 326.29 313.82C323.031 314.383 320.83 317.494 321.373 320.77C321.746 323.023 322.132 325.315 322.533 327.647C323.095 330.92 326.19 333.101 329.445 332.518ZM319.457 270.899C322.693 270.213 324.776 267.021 324.111 263.768C320.449 245.869 315.615 231.429 304.866 223.287C302.233 221.293 298.481 221.832 296.486 224.491C294.492 227.151 295.009 230.923 297.642 232.918C304.467 238.087 308.708 248.234 312.394 266.251C313.059 269.504 316.222 271.585 319.457 270.899ZM280.9 221.959C280.653 218.646 277.783 216.174 274.488 216.439C272.152 216.627 269.715 216.917 267.174 217.306C263.906 217.807 261.647 220.877 262.129 224.163C262.61 227.449 265.65 229.707 268.918 229.207C271.211 228.855 273.362 228.601 275.382 228.438C278.676 228.174 281.147 225.273 280.9 221.959Z" fill="#E9C1A5"/>
<path d="M201.828 170.213C219.681 113.369 257.335 106.392 378.362 130.681" stroke="#FFAC5F" stroke-width="28" stroke-linecap="round"/>
<path fill-rule="evenodd" clip-rule="evenodd" d="M358.045 163.143C358.497 159.867 356.199 156.826 352.912 156.35C350.597 156.014 348.323 155.677 346.088 155.339C342.804 154.843 339.759 157.093 339.287 160.366C338.815 163.639 341.094 166.694 344.377 167.19C346.635 167.531 348.934 167.873 351.276 168.212C354.562 168.688 357.593 166.418 358.045 163.143ZM296.355 153.601C296.703 150.312 294.31 147.344 291.011 146.971C272.856 144.923 257.63 145.058 246.564 152.765C243.854 154.653 243.207 158.388 245.12 161.107C247.033 163.825 250.781 164.499 253.491 162.611C260.516 157.718 271.477 156.82 289.752 158.882C293.051 159.254 296.007 156.89 296.355 153.601ZM237.896 175.148C234.668 174.359 231.43 176.325 230.664 179.539C230.121 181.82 229.644 184.227 229.229 186.764C228.695 190.026 230.917 193.123 234.191 193.681C237.465 194.239 240.552 192.046 241.086 188.783C241.46 186.493 241.883 184.368 242.352 182.397C243.119 179.183 241.123 175.937 237.896 175.148Z" fill="#E9C1A5"/>
</g>
</svg>
